<svg xmlns="http://www.w3.org/2000/svg" viewBox="0 0 1024 608" xml:space="preserve">
  <path d="M343.673 332.97c1.13-20.625 1.14-40.78-1.096-60.799-1.607-14.393-3.184-28.758-3.588-43.232-.496-17.76-.796-35.526-1.347-53.284-.11-3.528.48-7.222-2.09-10.47-1.309-1.651.229-3.538 1.451-4.886 1.436-1.584 2.73-.488 3.772.671.954 1.062 2.045 1.613 3.47 1.678 13.62.62 27.21 1.549 40.886.636 8.92-.595 17.986.668 26.867-.174 31.205-2.96 62.53-.437 93.74-2.513 2.813-.187 5.66.076 8.489.185 29.637 1.143 59.22-.43 88.816-1.643 12.649-.519 25.269-1.353 37.892-2.248 6.497-.46 7.052.435 7.263 6.747 1.072 32.01-2.37 63.872-3.21 95.823-.49 18.599-1.172 37.206-1.192 55.807-.015 13.127 1.831 26.272 1.11 39.396-1.074 19.516 1.663 38.837 2.148 58.264.121 4.823-.63 5.446-5.357 5.51-19.093.257-38.176-.347-57.29 1.126-9.655.745-19.579-.416-29.384-.326-23.136.213-46.278.979-69.405.654-21.112-.297-42.211-1.667-63.339-1.678-8.633-.005-17.327 1.696-25.788 1.433-10.457-.325-20.923-.41-31.38-.492-7.463-.06-14.933.478-22.397.801-2.189.095-4.3.087-6.5-1.64 3.822-3.364 3.22-7.895 3.593-12.177 1.876-21.526 3.102-43.09 3.859-64.683.093-2.66.014-5.327.007-8.486m182.577-31.474c-.11 2.494.205 5.1-.42 7.456-1.128 4.254.46 5.803 4.526 6.112 15.094 1.146 30.188 2.316 45.263 3.677 5.732.517 5.737-3.495 5.865-7.065.509-14.281.518-28.587 2.275-42.796.551-4.457-1.2-5.852-5.579-5.696-15.449.55-30.906.869-46.363 1.147-3.392.06-4.675 1.345-4.713 4.788-.114 10.478-.506 20.952-.854 32.377m-64.174-24.94c.054 2.658.143 5.316.154 7.975.035 8.44.184 16.885-.005 25.32-.09 4.023 1.644 5.324 5.372 5.128 3.804-.2 7.63-.012 11.43-.253 12.104-.77 24.206-1.055 36.327-.482 3.302.156 5.742-.728 6.218-4.718 1.642-13.747 1.136-27.543 1.204-41.327.012-2.397-.759-3.571-3.572-3.363-15.44 1.143-30.912.192-46.369.454-10.482.177-10.483.108-10.759 11.266m-48.566-11.395c-3.324-.002-6.649.02-9.972-.014-2.999-.031-3.997 1.34-3.853 4.354.648 13.59 1.242 27.186 1.56 40.786.108 4.584 1.626 6.402 6.427 6.583 15.827.6 31.45-3.119 47.288-1.96 2.439.178 3.66-1.41 3.372-3.865-1.578-13.414.75-26.866-.45-40.31-.362-4.061-1.534-5.707-5.572-5.466-12.602.752-25.207.183-38.8-.108m226.224 33.332c-.068-9.649.237-19.279.915-28.912.444-6.313-.07-6.29-6.179-6.425-7.995-.176-15.917 1.772-23.9.752-5.806-.742-11.627-.376-17.434-.685-3.27-.174-4.514 1.183-5.095 4.528-2.55 14.667-1.294 29.525-2.56 44.25-.506 5.887.824 6.792 6.99 6.337 6.795-.5 13.648-.71 20.352-1.807 7.609-1.244 15.301-.274 22.883-1.564 2.81-.478 4.136-1.563 4.034-4.493-.128-3.657-.02-7.322-.006-11.98M474.493 415.59c13.326.16 26.651.365 39.977.444 3.068.018 6.6.56 6.526-4.504-.19-12.823-.214-25.649-.22-38.473-.002-3.048-1.116-4.739-4.338-4.733-16.31.027-32.623-.128-48.928.564-3.042.13-4.804 1.434-4.918 4.407a3739 3739 0 0 0-1.241 37.935c-.071 2.526 1.338 4.487 3.898 4.115 2.89-.42 5.625.485 9.244.245m-47.885-95.297c-6.787.75-13.59 1.067-20.418.816-2.836-.105-5.069.662-4.911 4.078.562 12.169-.774 24.232-1.758 36.327-.429 5.273 1.912 7.328 7.198 7.104 3.481-.147 6.949-.599 10.427-.859 12.587-.94 25.175-1.887 37.768-2.755 2.619-.18 3.89-1.263 3.99-3.977.451-12.275.61-24.539-.048-36.82-.21-3.945-1.844-5.197-5.502-5.235-8.643-.089-17.27-.112-26.746 1.32m-26.452-114.09c-.484 4.355 1.433 6.387 5.841 6.68 3.299.22 6.553.972 9.904.859 9.614-.323 19.23-.557 28.845-.842 13.958-.415 11.827 1.412 11.953-12.026a939 939 0 0 0-.13-27.927c-.084-4.136-1.432-6.668-6.652-7.235-15.719-1.706-31.147 1.838-46.747 1.748-2.848-.017-3.922 2.27-3.588 4.954 1.36 10.937.284 21.909.574 33.79m184.05 197.166q.023 1.246.041 2.493c.118 8.662.93 9.526 9.57 9.002 9.92-.602 19.823-.94 29.763-.319 4.623.288 9.291.11 13.925-.128 2.15-.11 4.411-.663 4.266-3.733-.6-12.73.635-25.543-1.918-38.195-.462-2.284-1.382-2.93-3.534-3.166-15.714-1.725-31.464-1.472-47.213-.934-6.066.208-7.782 1.866-6.642 7.72 1.704 8.743 1.636 17.5 1.742 27.26m-120.991-48.943c.133 11.158-1.3 10.26 10.595 10.355 13.95.11 27.886-1.2 41.842-.28 3.418.226 5.512-1.319 5.065-5.046-1.356-11.303.323-22.605-.066-33.902-.204-5.927-1.747-7.158-7.599-7.263-14.977-.27-29.93.543-44.894.79-4.006.066-5.11 1.552-5.022 5.382.222 9.657.06 19.324.079 29.964M508.54 210.88h15.294c-1.36-2.867-3.079-3.347-4.503-3.944-11.497-4.816-12.805-20.482-4.267-27.904 2.296-1.996 4.529-3.807 7.415-4.873 3.36-1.24 2.458-4.411 2.518-6.894.05-2.086-1.951-1.846-3.414-1.926-17.446-.953-34.906-.207-52.329.29-9.226.262-9.857-1.152-8.227 9.603.197 1.305.288 2.695.064 3.982-1.611 9.25.302 18.57-.629 27.829-.277 2.762.537 4.336 3.818 4.338 14.43.008 28.866.819 44.26-.501m-80.9 203.654c7.974-1.043 15.935.032 23.894.259 3.77.107 5.322-.939 5.438-4.983.311-10.8 1.056-21.587 1.648-32.378.442-8.049.34-8.255-7.595-8.098-15.968.314-31.74 3.772-47.78 3.028-2.769-.129-3.276 1.885-3.389 3.981-.384 7.13-.773 14.26-.977 21.397-.155 5.416-.03 10.84-.03 16.938 4.273 0 7.405-.012 10.536.002 5.801.027 11.569-1.723 18.255-.146m150.263.232c2.773-1.13 1.888-3.547 1.918-5.594.177-12.136-.949-24.199-1.899-36.279-.28-3.57-1.947-4.595-5.079-4.516-9.947.251-19.89.352-29.837-.212-4.474-.254-8.972-.094-13.46-.087-2.736.003-4.44 1.097-4.34 4.15.356 10.794-.671 21.627.607 32.384 1.231 10.362 1.412 9.99 11.895 10.474 13.124.607 26.215-.398 40.195-.32M363.035 264.983c-2.996.076-6.008-.017-8.985.264-5.193.49-6.903 2.463-6.738 7.62.367 11.47.842 22.935 1.209 34.404.283 8.864.235 9.056 9.018 9.266 11.476.274 22.96.209 34.44.29 2.531.017 4.759-.362 4.773-3.645.065-14.812.126-29.623-1.626-44.371-.28-2.354-1.334-3.426-3.829-3.608-9.125-.666-18.25-.26-28.262-.22m21.895-97.654c-11.97-.009-23.948.463-35.89-.83-7.005-.759-8.38.185-7.546 6.474 1.558 11.757.032 23.602 1.476 35.375.504 4.103 1.93 4.963 5.61 4.795 7.445-.34 14.801-1.656 22.38-.686 6.385.817 12.951.323 19.434.225 2.78-.042 5.519-.685 5.388-4.402-.42-11.967.724-23.94-.23-35.909-.27-3.392-1.608-5.301-5.25-5.095-1.493.085-2.995-.013-5.372.053m199.234 164.369c.509 8.653-.434 17.257-.856 25.88-.3 6.154-.037 6.33 6.292 6.329 11.965-.003 23.93-.053 35.893.108 4.59.062 9.154 1.21 14.096.651 1.917-14.181 1.058-28.213.178-42.243-.2-3.205-2.272-2.675-4.633-2.68-14.142-.03-28.114 2.479-42.235 2.649-8.161.098-8.313.282-8.735 9.306m24.02-122.06c9.78-.863 19.564-1.67 29.395-.99 3.43.236 5.789-.389 5.786-4.72-.006-11.637.274-23.273.432-34.91.11-8.107-.287-8.454-8.444-7.54-11.573 1.296-23.191 1.93-34.827 2.003-4.769.03-7.419 1.672-8.022 6.678-1.396 11.594-.876 23.23-1.1 34.848-.062 3.163 1.307 4.97 4.843 4.77 3.655-.209 7.327-.105 11.937-.14m-103.545 5.507c-12.122.159-24.243.838-36.365-.04-1.151-.084-2.334.055-3.484.217-1.521.215-3.152.595-3.123 2.534.025 1.732 1.649 1.878 2.916 2.18 4.342 1.038 8.115 2.83 10.563 6.864 6.557 10.805 2.339 23.83-9.428 28.88-1.717.738-3.602 1.483-3.126 3.848.512 2.542 2.725 2.016 4.469 2.021 3.982.012 7.965-.16 11.947-.153 11.32.019 22.683.723 33.948-.043 10.77-.732 10.157.62 9.988-9.96-.016-.986.278-1.974.322-2.967.424-9.619 1.932-19.186.81-28.884-.397-3.433-1.773-4.71-4.99-4.649-4.493.086-8.988.095-14.447.152m74.288 140.585c1.765-9.75.374-19.603.95-29.393.141-2.392-1.43-3.093-3.494-3.285-4.468-.417-8.923-.978-13.395-1.328-11.1-.869-22.208-1.64-33.31-2.477-3.16-.238-4.622 1.085-4.548 4.323.267 11.62-1.522 23.212-.057 34.884.52 4.138 1.91 5.299 5.83 5.338 13.288.133 26.574.542 39.86.893 7.573.2 7.96-.143 8.164-8.955m9.05-180.188c.191-.98.45-1.953.564-2.943.93-8.12.585-8.488-7.689-8.247-15.13.439-30.25 1.207-45.397.958-5.258-.086-7.063 2.364-6.31 7.55.366 2.513 2.412 2.965 4.015 4.018 6.45 4.238 9.255 10.635 8.998 17.903-.227 6.392-4.654 10.38-10.496 12.752-1.07.435-2.772.534-2.587 2.48 1.25 1.266 2.83.75 4.25.723 9.319-.174 18.636-.545 27.955-.6 5.822-.034 11.648.557 17.47.535 7.497-.028 8.394-.985 8.288-8.355-.126-8.661-.317-17.316.939-26.774M387.06 368.523c7.394-.439 7.389-.44 7.995-7.743.055-.66.266-1.306.347-1.965 1.364-11.092 1.729-22.223 1.364-33.387-.072-2.202-.484-4.21-3.19-4.09-14.948.662-30.031-3.182-46.328 1.461 0 11.818.05 23.773-.016 35.728-.047 8.554.365 9.004 9.146 9.214 9.966.239 19.93.543 30.682.782m-43.767-134.562c.782 9.045.365 18.212 2.503 27.402 3.394-.167 6.506-.44 9.62-.451 11.306-.041 22.614-.078 33.918.065 3.944.05 5.41-1.323 5.66-5.455.725-11.959-1.057-23.924.351-35.859.338-2.861-1.382-3.286-3.692-3.296-3.978-.019-7.909.477-11.938.185-10.787-.78-21.611-.413-32.42-.086-3.757.114-5.24 1.555-4.436 5.658.694 3.54.325 7.289.434 11.837m56.044 1.539c-.039 6.49.128 12.99-.189 19.465-.21 4.288 1.25 5.802 5.622 5.97 14.954.578 29.902 1.382 44.865.736 2.695-.116 7.008 1.88 7.812-1.945.895-4.256-3.706-4.635-6.684-5.774-8.073-3.088-11.21-10.346-8.224-18.565 2.176-5.987 5.101-11.171 11.542-13.49 1.623-.585 3.021-1.69 2.443-3.765-.535-1.917-2.188-1.706-3.694-1.664-16.088.445-32.18 2.012-48.257-.18-3.633-.495-5.285 1.15-5.26 4.744.033 4.49.002 8.98.024 14.468m155.206-21.27c-7.313.224-14.626.432-21.938.68-2.993.102-4.558 1.466-4.35 4.71.736 11.502-.99 22.939-1.01 34.424-.011 6.58.677 7.308 7.15 6.42 9.271-1.272 18.593-.718 27.89-.97 6.866-.187 13.742-.037 21.69-.037-2.373-4.111-5.46-4.166-7.34-6.061-12.01-12.098-6.179-25.986 4.886-33.357 1.8-1.2 4.621-1.383 4.678-5.808zm-185.99 157.793c-3.486-.189-6.97-.464-10.459-.551-12.437-.31-11.813-.998-11.992 9.73-.011.655-.298 1.302-.345 1.96-.619 8.78-1.381 17.553-1.76 26.343-.224 5.198 1.396 6.758 6.464 6.264 12.448-1.213 24.919-.91 37.38-.77 4.362.05 6.213-1.204 6.362-5.805.35-10.766-.13-21.577 1.45-32.292.524-3.547-1.33-4.668-4.658-4.646-7.152.046-14.304-.13-22.442-.233m225.45-115.658-4.631 1.986c17.026 2.34 32.712.958 48.395-.285 2.6-.207 3.04-2.11 3.147-4.287.56-11.457 1.255-22.908 1.713-34.369.249-6.227-.335-6.97-6.686-6.807-13.778.351-27.547 1.059-41.318 1.648-.937.04-2.075-.06-2.347 1.47.305.246.678.806 1.022.789 9.627-.483 13.156 6.629 16.241 13.616 4.452 10.083-2.54 21.906-15.535 26.239M449.049 47.96c1.044-1.974.448-4.828 3.234-4.878 2.75-.049 3.5 2.502 3.976 4.491 2.089 8.728 3.412 17.67 5.99 26.24 3.244 10.786 5.6 21.879 10.245 32.222.805 1.792 1.468 3.782-.746 4.711-2.158.906-3.365-.875-3.97-2.715-1.974-6.01-4.1-11.988-5.67-18.106-.824-3.209-2.498-4.518-5.513-4.58-4.492-.095-9.001.099-13.475-.225s-6.68 1.813-8.006 5.771a165 165 0 0 1-8.34 20.31c-.769 1.566-1.13 4.176-3.514 3.259-2.632-1.013-1.39-3.399-.562-5.148 6.203-13.094 11.649-26.507 17.112-39.918 2.886-7.086 5.297-14.384 9.239-21.434m3.165 32.787c4.822-.173 6.429-2.187 4.897-7.105-1.326-4.26-1.516-8.862-2.68-13.186-.731-2.717.022-5.994-3.046-9.046l-11.039 28.246c4.454.442 7.735.768 11.868 1.09m55.146 33.296c2.056.566 2.996 1.658 1.79 3.326-1.194 1.653-2.94 2.83-5.078 2.724-2.246-.11-3.714-1.569-4.161-3.69-.67-3.178.083-6.263 1.049-9.315.75-2.372 1.592-4.867-1.426-6.557-3.23 1.562-3.399 4.737-4.111 7.563-.322 1.28-.246 2.656-.533 3.947-.316 1.42-.512 3.316-2.522 3.112-2.095-.212-2.5-2.102-2.348-3.798.237-2.637 1.255-5.195.9-7.897-.101-.774-.425-1.518-.884-3.083-4.596 3.402-5.12 7.903-5.551 12.395-.238 2.479-.184 4.985-.367 7.47-.091 1.23-.698 2.298-2.042 2.497-1.718.253-2.262-1.06-2.722-2.348-.643-1.798-.303-3.629-.08-5.439.612-4.983.626-9.92-.296-14.9-.318-1.72-1.987-4.202.584-5.348 2.596-1.157 2.881 2.076 4.63 3.339 2.88-2.072 5.954-4.392 9.556-1.01.264.248 1.215-.138 1.804-.348 6.42-2.294 11.244 1.853 10.345 8.89-.372 2.908-2.074 5.629-1.333 8.87a48 48 0 0 1 2.796-.4m53.546-61.499c1.798 2.294.07 3.62-.748 5.163-1.916 3.614-4.238 7.078-4.538 11.16 1.349 1.41 2.652.998 3.961.728 2.223-.46 3.65.39 3.756 2.718.107 2.33-1.78 3.788-3.486 3.305-5.974-1.691-6.997 2.505-8.505 6.409a338 338 0 0 1-3.938 9.701c-.608 1.441-.934 3.774-3.158 2.926-2.247-.858-1.587-3-.868-4.737 1.705-4.117 3.486-8.202 5.18-12.166-.667-.537-.887-.862-1.156-.908-2.216-.383-5.804 1.588-6.145-2.068-.277-2.969 3.265-2.6 5.383-3.086 1.526-.35 3.056-.636 3.638-2.216 1.47-3.992 2.795-8.037 4.236-12.232-5.15-.78-9.61 1.408-14.269 1.03-2.036-.166-4.555-.069-4.505-2.713.052-2.819 2.743-2.381 4.648-2.313 4.849.173 9.59-.459 14.329-1.396 1.942-.384 3.976-.493 6.185.695m-212.059 97.291c-2.122 3.205-4.187 2.634-6.247.426-1.242-1.33-2.358-2.798-4.307-3.66-2.464 1.396-3.945 3.794-5.702 5.951-1.077 1.322-2.3 3.584-4.347 1.852-2.06-1.745-.742-3.87.87-5.091 4.387-3.325 5.789-6.544.617-10.379-.79-.585-1.017-1.7-.431-2.82 1.693-1.368 3.17-.402 4.257.858 2.589 3.004 4.677 2.802 7.254-.18 1.336-1.545 2.946-5.164 5.223-3.254 2.764 2.319-1.28 4.002-2.237 5.998-.486 1.012-1.323 1.855-1.83 2.542.597 4.418 6.14 3.574 6.88 7.757m296.607-14.689c3.243.109 3.694-2.63 5.07-4.345 1.161-1.45 1.792-4.331 4.322-2.604 2.485 1.698-.026 3.457-.792 5.1a6.5 6.5 0 0 1-1.102 1.652c-3.017 3.244-3.39 6.19.564 9.104 1.307.963 3.415 2.424 1.34 4.395-1.815 1.724-3.42.29-4.589-1.191-3.095-3.92-5.62-2.929-8.097.67-.982 1.425-2.13 3.661-4.24 2.046-2.184-1.672-.715-3.534.683-5.082 1.209-1.338 2.44-2.656 3.75-4.079-.968-1.768-1.79-3.364-2.702-4.908-.85-1.438-2.12-2.97-.237-4.339 1.966-1.43 2.901.506 3.997 1.67a24 24 0 0 0 2.033 1.911M530.137 98.967c3.673 5.535 4.526 11.384 4.027 17.448-.388 4.705-4.75 8.208-9.304 7.82-3.857-.328-6.201-3.086-6.083-7.16 1.102-.758 1.874-.132 2.546.663 1.437 1.7 3.08 2.474 5.253 1.395 2.145-1.065 3.194-2.74 3.202-5.166.015-4.596-1.121-8.85-3.48-12.794-.828-1.387-3.546-2.646-1.29-4.441 2.039-1.622 3.593.398 5.129 2.235"/>
  <path d="M523.481 109.607c.964 1.791.983 3.303-.45 4.29-1.508 1.037-2.861.173-3.96-.948-1.241-1.267-2.76-1.568-4.45-1.852-3.388-.57-5.305-2.907-5.28-6.238.025-3.56 1.863-6.401 5.253-7.74 2.43-.96 6.234 2.87 6.491 6.529.152 2.162-.177 4.373 2.396 5.959"/>
</svg>