<?xml version="1.0" encoding="utf-8"?>
<!-- Generator: Adobe Illustrator 24.0.2, SVG Export Plug-In . SVG Version: 6.00 Build 0)  -->
<svg version="1.1" id="Layer_1" xmlns="http://www.w3.org/2000/svg" xmlns:xlink="http://www.w3.org/1999/xlink" x="0px" y="0px"
	 viewBox="0 0 910.3 476.4" style="enable-background:new 0 0 910.3 476.4;" xml:space="preserve">
<path d="M877.3,18.5c-25.3,0-50.1,0-75-0.1c-21.6,0-43.3,0-64.9-0.1c-61,0-121.9,0-182.9,0.1c-16.9,0-33.9,0-50.8,0.2
	c-23,0.3-45.9,0.3-68.9,0.5c-22,0.2-43.9-0.8-65.9-0.4c-31.4,0.6-62.9-0.3-94.3-0.4c-3.4,0.1-6.7-0.6-9.7-2.2
	c1.2-2.6,3.5-2.3,5.3-2.4c19.3-1.2,38.6-0.9,57.9-0.5c10.1,0.2,20.3-0.2,30.4-0.2h51.4c66.9-0.1,133.9-0.1,200.8-0.2
	c24.3,0,48.6,0.2,72.9-0.2c15.5-0.2,30.9,0.5,46.3-0.2c19-0.8,37.9,0.4,56.8-0.1c23.9-0.7,47.9,0.3,71.8,0.5
	c10.8,0.1,21.6,0.1,32.5,0.1c1.2,0,2.3,0,3.5,0.2c1.6,0.3,3,1.1,2.9,2.9s-1.7,2.3-3.3,2.4C888.8,18.5,883.3,18.4,877.3,18.5
	 M54.9,216.7c-0.2-19.2,2.2-37.9,3.4-56.6c0.5-8,0.2-16.3,0.5-24.4c0.3-9.3,1.6-18.5,2.6-27.8c0.2-2.1,1.5-4.5-1.6-5.4
	c-2.6-0.8-4.4-0.1-5.9,2.8c-4.2,8.6-15.8,10.3-21.8,3.2c5.7-3,3.7-8.3,3.3-12.8c-0.4-4.3,1.5-6.6,5-8.1c3.8-1.7,7.2-0.8,10,2.3
	c2.3,2.5-0.5,4.6-1.1,7.2c1.2,0.8,2.4,1.6,3.7,2.3c6.3,3,8.7,1.5,9.1-5.3c0.5-8.8,1.1-17.6,1.7-26.4c0.5-6.7-0.6-8.3-7.2-8.9
	c-6-0.7-12.1,0.1-17.8,2.1c3.6,4.7,7-1.5,10.5,0.8c-0.7,4.1-4.2,4.6-7.3,5.4s-5.3-1-6.5-3.6c-1.8-4-4.4-6.1-9.1-5.9
	c4.8,0.3,8.2-1.6,10.2-5.8c0.4-0.5,0.9-0.9,1.5-1.2c2.3-1.5,4.3-4.3,7.5-2.6c3.6,1.9,3,5.1,1.7,8.8c7.5,0.8,14.6,0.3,21.7,0
	c6.5-0.3,6.5-0.3,5.7,5.8c-2,15.2-2.3,30.4-2,45.8c0.2,10.4-1.7,20.8-2.5,31.2c-1.3,16.2-4.6,32.2-3.2,48.6c0.2,2.6-1,5.2-1.3,7.8
	c-2.2,16.9-0.8,33.9-1.1,50.8c-0.2,10.6,0,21.1,0,31.5c-3.6,0.8-6,1.4-8.4,1.9c-2.1,0.4-3.2-0.8-3.5-2.6c-0.3-1.6-0.3-3.3,0-5
	c4.1-15.6,2.4-31.4,2-47.1c-0.1-2.8,0.3-5.6,0.4-8.9 M68.6,108.8c0.3-2,0.1-3.9-2.4-6.7c-1.2,14.6-3.3,27.9-2.4,41.4
	C66.9,132.4,68.1,121.1,68.6,108.8 M58.7,214.3c-0.1,5.8-0.8,11.6,1,17.3c0.2-13.5,1.7-26.9,2.1-40.9c-2.2,1.1-2,2.4-2.3,3.5
	C57.5,200.6,60.1,207.1,58.7,214.3 M62.6,158.7c0.7,9.4-3.8,18.6-0.5,28.1l2.7-39.6l-1.7-0.1C62,150.6,62.8,154.2,62.6,158.7
	 M60.2,238.7v-1.5c-0.1-0.4-0.3-0.7-0.5-1l-2.3,40.7C61.4,264.6,59.6,252,60.2,238.7 M67.2,84.1c-0.7,4.7-0.7,9.5,0.1,14.2
	c0.2-12.5,2.4-24.9,2.1-37.4C67.8,68.3,67.5,75.8,67.2,84.1 M40.2,107.5c0,2.6,1.7,2.4,3.4,2c3.1-0.8,6-2,6.1-5.9
	C43.6,100.8,41.2,101.7,40.2,107.5 M42.5,96.4c1.8-0.9,3.8-1.8,3.8-4.4c-2.3-1-4.5-1.2-5.8,1C39.8,94.3,40,95.9,42.5,96.4
	 M310.8,188.7c1.7-1.5,3.1-3,1.6-4.9c-1.4-1.8-3.2-1.4-4.9-0.3c-1.1,0.7-2.3,0.9-3-0.5s-0.1-2.6,1.2-3.4c2.6-1.7,5.9-1.7,8.5,0.1
	c3.5,2.2,3.8,5.1,2.5,8.4c0.9,1.2,1.9,1,2.9,0.9c17.8-1.9,35.6-0.1,53.4-0.9c2.3-0.1,4.7,0.3,6.5-1.8c0.9-1.1,1.8-2.1,0.6-3.5
	s-2.4-1.8-4-0.7c-1.3,1-2.1,2.6-3.9,2.9c-2.4-1.6-1.6-3,0-4.5c2.4-2.2,4.9-4.1,8.5-2.1c3.9,2.1,5.2,5,2.6,9.7c7.4,0,14,0.2,20.5,0
	c19.5-0.7,39,0.6,58.4,0.3c13.6-0.2,27.3-0.2,41,0.4c5.3,0.2,8.9-2.6,11.9-6.2c3.4-4.1,7.6-5.5,12.5-3.4c2,0.9,3.5-2.1,6-0.6
	c-1.6,2.9,1.4,5.2,1.3,8.1c-0.1,2,1.6,2.2,3.2,2.2c12.8,0,25.7,0,38.5,0.1c3,0,5.1-1.1,6-4.3c-2.3-2.9-4.4-2.2-6.5,0.2
	c-1.1,1.2-2.2,2.4-3.7,0.9s-0.3-2.7,0.8-3.9c2.9-3.1,6.1-4.4,10.2-2.2c3.8,1.9,5.4,4.4,2.2,9.5h161l0.1,1.9
	c-3.9,0.4-7.8,1.1-11.8,1.1c-13.8-0.1-27.5-0.5-41.3-0.5c-16.6,0-33.2,0.3-49.8,0.2c-18.7,0-37.3-0.3-56-0.5c-3.5,0-6.6,0.2-8.2,4.9
	c6.8,2,14-2.9,20.3,0.9c-0.6,2.5-2.1,2.1-3.4,2.2c-3.6,0.3-7.3,0.5-10.9,1c-8.6,1.3-10,0.3-10.1-8.3c-2.7-1.4-5.5-0.5-8.3-0.5
	c-8.7-0.1-17.3-0.2-26-0.2c-6.8,0-8.4,2.4-5.3,8.1c-13.1,5.6-18.4,6.5-22.7-0.4c-3.6,1.5-6.9,3-7.6-3.5c-0.2-2.4-3.3-4.5-7-4.5
	c-38.5,0.1-77,0.1-115.5,0c-3.1,0-5.5,0.9-6.5,4.5c5.2,3.8,11.1-2.9,17.5,1.6c-6.3,2-11.6,3.8-17.2,3.3c-4-0.3-5.1-3.3-4.1-9
	c-5.2-1.6-10.6-0.3-15.8-0.4c-12.1-0.3-24.3,0.6-36.5-0.9c-6.2-0.8-9.2,1.6-11.5,7.9c4.1,1,7.8-2.4,12-1.4
	c-2.5,3.2-11.3,6.4-14.3,5.2c-2.5-0.9-3.3-2.8-1.9-5.1C306.6,194.2,308.6,191.6,310.8,188.7 M673.8,100.3
	c14.1,0.9,27.7-0.7,41.4,0.6c1.8,0.2,3.6-0.2,5.8,0.9c-2.5,2-5.1,1.6-7.4,1.6c-37,0.1-74,0.1-111,0.1c-5,0-10,0.3-15-0.2
	c-5.2-0.5-8.7,1.3-11.2,6.2c3.3,1,6.5,0,9.7-0.1c1.9-0.1,4.6-0.4,4.7,2.3c0,3.2-2.5,2.2-4.4,1.8c-2.3-0.3-4.7-0.1-6.9,0.5
	c-2.8,0.6-5.8,0.8-7.7-2s0.7-4.5,2.1-6.4c0.3-0.6,0.5-1.3,0.5-1.9h-42c-1.2,1.7-1.1,4.2-3,5.2c0.2,2.1,3.3,2,2.2,4.8
	c-3.4,0.2-6.9,0.7-10.2,1.6c-2.7,0.6-5-1.2-6.7-3.5c-1.9-2.5-4.2-4.6-7-6.1c-3.9-2.3-7.5-2.2-11.4-2.1c-35.8,0.9-71.6,0.8-107.4,0.3
	c-5.1-0.1-7.1,3.3-10.2,6.1c3.2,4.3,8.8-0.1,11.9,3.8c-3.9,2.9-11.7,2.6-14.7-0.4c-2.5-2.6-2.1-4.3,2.5-8.9
	c-1.9-0.5-3.9-0.7-5.8-0.6c-17.5,0.7-34.9,0.3-52.4-1c-5.2-0.4-5.6,4.3-8.8,6.7c3.3,2.6,7.4,0.9,10.8,4.2c-4.6,1.2-9.4,1.1-14-0.2
	c-2.5-0.8-2.1-2.6-0.8-4.4c2.2-2.9,4.5-5.7,6.8-8.7c0.9-1.2,2.2-2.4,1.1-4c-1.2-1.7-2.9-1-4.5-0.3c-1.4,0.7-3,3.4-4.3,0.5
	c-1-2.2,1.5-3,3-3.8c5.5-2.8,9.1-1.1,10,4.8c0.4,2.7,1.8,3.4,4,3.2c19-1.4,37.9,0.4,56.9-0.1c2.3-0.1,4.1-1.1,3.8-3.5
	s-2.7-2-4.5-1.8c-0.7,0.1-1.3,0.3-1.8,0.7c-1.3,0.8-2.6,1.1-3.3-0.6c-0.8-1.9,0.8-2.7,2.2-3.3c6.4-2.8,11.7,0.6,12.5,8.5H418
	c26.3,0,52.7-0.3,79,0.3c8.9,0.2,16.2-1.6,22.6-7.7c1.9-1.8,4.1-3.9,7.5-2.8c2.2,0.7,3.4,1.3,3.2,4c-0.5,4.4,2.4,6.3,6.3,6.3
	c10,0.2,20,0,29.8,0c2.3-7.8,8.9-10.8,13.8-6.7c1.2,1,2.5,2,2.5,3.6c0,3.9,2.7,3,4.9,3l84.8-0.6
	C672.7,100.2,673.1,100.2,673.8,100.3 M573.8,97.1c-1.1,0.7-2.3,1.4-1.6,3.3c2.1,0.4,4.7,1.6,5.5-1.6
	C578.3,96.7,576.4,96.2,573.8,97.1 M454.4,249.4c-2.9-4.4-2.2-8.9-1.2-13.4c-34.5-1.3-69,1-103.3-1.8c6.2-2.5,12.7-1.6,19-1.7
	c13.5-0.1,26.9,0.1,40.4-0.2c14.3-0.3,28.6,0.3,42.9,0.7c4,0.1,6.9-1,9.5-4.2c4.5-5.6,11.8-7.5,17-12.5c1.4,2.9-0.9,4-1.1,5.7
	c1.1,1.2,2.6-1,4.1,1.1l-0.8,8.3c2.1-0.4,4.3-1.5,6.3,0.8c1.3,1.5,3.5,0.7,5.3,0.7c34,0,68-0.1,101.9,0.1
	c26.6,0.1,53.2,0.4,79.8,0.8c2.8,0,4.6-0.7,5.9-3.4c1.4-3.2,3.7-6,6.7-8c3.2-2.1,6-1.8,7.8,1.9c0.5,1,1.2,2,1.7,3
	c2.6,5.4,6.8,7.8,12.8,6.7c1.5-0.4,3,0,4.2,1.1c-2.3,2.1-5,1.1-7.4,1.1c-3-0.1-4.8,0.5-5.9,3.8c-1.9,5.8-5.7,8.2-11.6,8.2
	c-5.3-0.1-8.3-3.7-9.7-8.1c-1.1-3.5-2.9-3.7-5.8-3.7c-54,0-108-0.1-161.9-0.3h-27.2c1.9,5.5-2.6,8.7-5.1,12.5s-4.2,0.6-5.6-1.5
	c-3.8,2.2-8.4,0.7-12.1,3.4C460.1,251.3,457.4,247.6,454.4,249.4 M685.4,242.9c3.9,2.1,7.4,1.5,10.1-2s0.6-6.9-0.9-9.8
	c-1-2-2.6-4.8-5.6-4.1c-2.8,0.7-4.7,3.1-4.8,6c1.1,1.8,3.8,0.6,4.5,2.8C681.8,237.1,681.8,237.2,685.4,242.9 M729.4,419.4
	c-51.1-1.1-101.6-1-152.2-1.1c-17.8,0-35.5,0.5-53.3-0.1c-39.8-1.2-79.5-0.6-119.3-0.9c-17.5-0.1-35-0.1-52.5-0.2
	c-9.5-0.1-19-0.3-28.5-0.6c-1.4,0-3,0.4-4-1.2c5.9-2.6,503.5-0.6,508.9,2.2c-1.7,2.2-4.1,1.8-6.3,1.9
	C791.6,419.3,760.7,419.3,729.4,419.4 M378,139.6c0.1-2.2-0.8-5.1,2.2-4.8c2.2,0.2,1.9,2.8,1.5,4.6c-0.8,4.4,0.9,5.1,5.1,5.1
	c19.1-0.2,38.3,0.7,57.4,0.1c20.5-0.6,41,0.7,61.4,0.4c2,0,3.9-0.7,5.5-2c3.4-2.7,6.9-5.3,10.3-8s6-2.6,7.1,1.5
	c0.7,2.7,2.4,5.2,2.4,8.5c14-0.5,27.9-0.5,41.9-0.1c3.3,0.1,4.6-1.1,3.7-4.5c-0.5-1.7-1-4,1.8-4.1c2.3-0.1,3.1,1.6,2.9,3.8
	c-0.2,3,0.4,5.1,4.3,4.9c15.8-0.7,31.6-0.2,47.4-0.2c19.6,0.1,39.2-0.4,58.9-0.5c18.1-0.1,36.2,0,54.4,0.8c-1.9,2.4-4.4,2-6.7,2.1
	c-50.5,0.1-100.9,0.2-151.4,0.2c-4.1,0-7.6-0.3-6.4,5.5c0.4,1.9-1.1,2.7-2.8,2.6c-1.8-0.1-2.7-1.3-2.2-3.1c1.3-4.4-1-5.1-4.7-5.1
	c-13,0.1-26,0.1-39,0c-3.6,0-5.3,1.4-5.3,4.9c0,5.6-4.9,5.7-8.3,7.1c-3.1,1.3-5.7-0.5-7.7-2.9c-1.6-1.9-2.6-4.1-5.7-4.2
	c-3.1-0.2-1.1-3.1-1.7-4.8h-58.1c-19.8,0-39.6,0-59.5-0.1c-3.3,0-5.6,0.4-5.5,4.4c0,1.9,0,4.2-2.4,4.2c-3.1-0.1-2-2.8-2.1-4.6
	c0-1-0.1-2-0.2-3.6c-19.8-1-39.7,0.6-59.4-1.8c9.2-1.9,18.5-1.7,27.8-1.7c9.6-0.1,19.3-0.1,29,0.2
	C377.7,144.6,378.3,142.9,378,139.6 M465.3,460.4c-41.7-0.4-83,0.5-124.2-2.3c2.4-2.2,5.3-2,8.1-2c23.7,0,47.3-0.1,71,0.1
	c20.3,0.2,40.6,0.3,60.9,0.5c55.1,0.5,110.2,0.1,165.3,0.4c22.6,0.1,45.3-0.1,67.9,0.6c21.1,0.6,42.3,0.2,63.4,0.3
	c2.1,0,4.3-0.5,6.5,1.5c-2.2,1.8-4.6,1.7-7,1.8c-11.3,0.1-22.7,0-34,0.4c-23.9,0.8-47.8-1.2-71.8-0.7c-32.6,0.6-65.2-1.2-97.8-0.2
	c-19,0.5-37.9-0.1-56.9-0.1L465.3,460.4z M725.6,373.2c-133.5-0.8-266.7-1.6-399.6-2.5c-0.5,0-1-0.7-1.6-1.1
	c5-2.7,445.7-0.9,453,1.8c-1.8,2.2-4.2,1.8-6.3,1.8C756.1,373.3,741.1,373.3,725.6,373.2 M634.4,60.2C531,59.7,428,62,325.1,59.5
	c3-2.2,6.3-2.4,9.7-2.4c24,0.5,48,0.2,71.9,0.2c21-0.1,41.9,0.7,62.9,0.4c52.6-0.6,105.2-0.5,157.9-0.6c49-0.1,98-0.2,146.9-0.2
	c2.9,0,5.9-0.4,8.7,1.7C733.6,60.1,684.2,59.7,634.4,60.2 M565.3,323.2c38.5,0.3,76.4,0.6,114.4,0.8c22.1,0.1,44.3,0.1,66.4,0.3
	c4.9,0,9.8,0.7,15.5,1.1c-2.2,2.2-4.1,1.9-5.8,1.9c-41.6,0-83.3-0.1-124.9-0.2c-15.8,0-31.7,0.7-47.5-0.1c-24.5-1.1-49-0.3-73.4-1.2
	c-16.6-0.6-33.3,0.4-49.9-0.2c-13.8-0.5-27.6,0.9-41.4,0c-5.3-0.4-10.6,0.8-15.9-0.3c-1.4-0.3-3,0.2-4.4-1.7c2.5-1.8,5.4-1.5,8-1.5
	c25-0.1,49.9,0,74.9,0.6C509.3,323.4,537.1,323.1,565.3,323.2 M883.4,102.5c-1.6,21.4,1.3,42.2,2.8,63.1c1,13.8,1.6,27.5,3.2,41.2
	c0.3,2.9-0.6,5.8-2.5,8c-0.9-7.6-2.1-15.3-2.7-22.9c-1.2-13.4-1.6-26.9-3.3-40.3c-2.5-20-2.1-40.1-1.7-60.2c0.2-8.9-0.1-18,1.6-26.8
	c0-0.3,0.1-0.7,0.1-1c0.8-2.2-2.7-4.9,0.5-6.8c2.2-1.4,4.4,0.8,6.7,0.6c4.7-0.6,5.7,2,5.8,6.3c0.4,14.6-1.4,29.2-1.1,43.8
	c0.3,11.1,0.4,22.2,1.3,33.4c0.5,6.6,0.8,13.2,1.1,19.8c0.5,10.5,0.6,20.9,1.1,31.4c0.2,2.9,0.4,5.9-1.2,8.8
	c-2.5-9-2.4-18.4-3.2-27.6s-1.4-18.6-1.8-27.9c-0.4-9.5-0.2-19-0.8-28.4c-0.7-9.3-0.7-18.6-0.2-27.9c0.7-9.4,1.1-18.7-1.9-28
	C882.4,74.4,883.3,88.3,883.4,102.5 M64.1,12.9c21.2-1.1,42-0.5,62.7-0.3c34.6,0.2,69.2,0,103.8,0.5c2.8,0,6-0.3,8.2,3
	c-2.7,2-5.4,2.1-8.2,2.1c-23,0.1-45.9,0.1-68.9-0.2c-11.3-0.2-22.6,0.4-33.9,0.4c-23.9,0-47.8,0.1-71.7-0.3
	c-10.8-0.2-21.6-0.4-32.4-0.7c-1.9,0-4.1,0.3-5.2-3.9C33.8,12.5,48.7,13.1,64.1,12.9 M611.9,281.5l-225.2-1.4
	c3.4-3.5,344.9-2,354.4,0.6c-3.4,1.3-7,1.8-10.5,1.6c-28-0.1-55.9-0.3-83.9-0.5C635.3,281.7,623.8,281.6,611.9,281.5 M253.8,246.1
	c-5.1-1.4-9.9-3-11-8.6c-0.6-3.1-5-4.7-3.1-8.4c1.6-3.2,5.5-2.7,8.1-4.5c4-2.9,9.1-3,13.4-5c2.8-1.3,3.8,1,4,2.9
	c0.3,2.8,1.3,4.6,4.4,5C266,235.4,260.3,240.8,253.8,246.1"/>
<path d="M29.8,199.8c0.9-8.7,4-17.6-3.3-25.2c6.1-1.4,19.8,7.2,24.4,14.9c-4.4,8.1-12.3,11.2-20.3,14.1c-1.6,0.6-3.7,0.8-4.3-1.2
	C25.5,199.7,28.1,200.3,29.8,199.8 M41.4,194.8c4.3-1.3,3.3-5.7,2.5-7.6c-1.2-3.1-5.1-4.2-9.4-6c1.6,5.8,0.8,10.8,1.2,15.7
	C38.1,197.1,39.4,195.9,41.4,194.8 M46.9,135.3c1.1,1.6,1.5,3-0.1,4.6c-2.9-0.7-5.3-4.4-8.9-2.3c-2.5,1.2-4.2,3.7-4.5,6.5
	c8-2,12.1,2.6,14.9,8.8c0.8,1.7,0.8,3.9-1.3,5c-2.5-0.4-1.5-3.1-3.1-3.8c-0.3,0-0.7-0.2-1-0.1c-4.7,2.1-9.2,2.4-12.6-2.1
	c-3.1-4.1-2.5-8.3,0.2-12.4c3.8-5.6,7-7.3,12.4-6C44.4,133.9,45.7,134.5,46.9,135.3 M44.7,237.2c0.4,1.4,0.9,2.7,1.7,4
	c0.9,1.3,1.4,2.5,0,3.5c-1.6,1.1-2.8-0.2-3.8-1.3c-0.5-0.7-0.9-1.4-1.1-2.2c-0.7-1.6-0.9-3.7-3.5-3.5c-2.1,0.2-3.8,0.7-4.7,3
	c-0.6,1.5-1,3.7-3.2,3.2c-2.4-0.5-1.8-2.7-1.8-4.5c0.1-7.5,5.3-12.9,8-19.3c1.2-2.7,4.2-1.5,5.2,1.3
	C43.4,226.4,44.4,231.8,44.7,237.2 M94.7,246.1c-9.9-3.4-10.8-9.1-4.2-16.9c3.5-4.1,6.5-7.1,12.2-6.1c5.2,0.7,8.8,5.6,8.1,10.8
	c-0.2,1.1-0.5,2.2-1,3.1c-1.7,3.3-4.3,5.8-6.8,8.5S97.7,246.8,94.7,246.1 M106.2,230.6c-0.8-1.5-1.3-2.8-3.6-2.5
	c-4.4,0.4-8.3,2.9-10.6,6.6c-2.1,3.2-1.2,5.3,1.3,6.6c3.2,1.6,6.8,2.7,9.7-1.4C104.8,237.2,106.5,234.6,106.2,230.6 M42,288.3
	c-3,1.8-6,3.4-9.2,4.7c-5.1,2-8-0.4-8.1-5.8c-0.1-6.4,2.8-12.3,2.6-18.7c0-0.9,0.5-1.8,1.4-1.9c4.3-0.2,8.6-2.4,13.8-1
	c-2.5,5.3-12.3,1.2-11.2,10.4c4.8-3.3,8.4-2.6,10.2,3.2c-2.1,0.1-4.4,0.1-6.7,0.3c-2.6,0.3-5,1.2-5.8,4c-0.6,1.9-1.2,4.1,0.4,5.7
	s3.1,0,4.6-0.6c2-0.8,4-1.7,6-2.4C41.4,285.8,42.9,285.8,42,288.3 M748.6,92.2c1.9-1.3,4-2.2,6.3-2.5c2.5-0.3,5,0.9,6.5,3
	c1.7,2.2,1,4.2,0,6.5c-1.5,3.7-5,5.7-6.8,9.1c-0.8,1.6-2.5,2.8-2.4,5.2c5.6,2.1,11.4-2.1,16.9-0.3c0.1,2.5-1.4,2.7-2.6,2.9
	c-4.2,0.8-8.5,1.5-12.8,2.1c-2.4,0.5-4.8-0.6-6-2.7c-1.2-2-0.3-3.8,0.9-5.5c2.2-3.1,4.2-6.3,6.5-9.4c1.3-1.8,4.1-3.5,2.4-5.9
	c-1.9-2.8-4.4-0.9-6.5,0.4c-1.1,0.7-2.3,1.8-3.5,0.5S747.3,93.4,748.6,92.2 M167.4,101.4c5.9-1.2,7.2-2.5,6.6-6.3
	c-2-0.3-2.5,1.3-3.1,2.6s-1.3,2-2.7,1.4c-1.5-0.7-1.5-2.2-0.9-3.4c1.2-2.5,3-4.6,6-4.6s5.5,1.4,6.1,4.2s-1,5.6-3.3,7.2
	c-2.8,1.9-5.5,3.7-6.1,7.6c3.4,2.5,7.5-0.4,11,1.5c-3,2.8-12.2,4.4-14.7,2.5c-2.7-2.1-1-4.4,0.1-6.6
	C167.1,105.5,169.5,103.9,167.4,101.4 M169.9,191.7c-1.2,1.3-2.5,2.6-3.7,3.9c3,1.1,5.5,0.6,8.1,0.1c2.2-0.4,4.5-2.5,6.6,0.3
	c-3.4,3.5-13.9,5.4-17.5,3.3c-2.9-1.7-2.1-3.5-0.2-5.6c2.4-2.7,4.7-5.6,6.9-8.4c0.3-0.5,0.4-1.1,0.4-1.7c-3.1-2.6-4.9,0.9-7.4,1.4
	c-1.5-2.5-0.4-4.4,1.4-5.5c3-1.9,6.2-0.8,8.9,0.7c1.9,1.1,2,3.5,1,5.4C173.3,187.6,172.3,189.9,169.9,191.7 M757.2,188.9
	c1.3-1.3,2.2-2.4,2.2-4.1c-2-3.7-5.1,0.1-8.3-1.4c1.5-3.3,3.8-5,7.2-4c3.1,0.9,6.1,2.6,5,6.8c-0.7,2.6-2.2,4.9-4.3,6.6
	c-1.9,1.5-4,2.9-4.8,5.4c4.8,1.7,10.3-2.9,14.5,0.6l-0.2,1.7c-4.7,0.6-9.4,1.2-14.1,1.7c-1.9,0.3-3.7-0.7-4.5-2.5
	c-0.9-1.9,0.2-3.2,1.4-4.4C753.3,193.1,755.3,191,757.2,188.9 M755.2,150.7c-1.4-3.7-0.5-7.2-1-10.5c-0.2-1.1,0-2.5,1.5-2.8
	c1.7-0.3,2.4,1,2.6,2.3c0.8,6.2,1.6,12.4,2.2,18.6c0.2,1.6-0.4,3.1-2.5,2.9c-1.8-0.1-1.8-1.5-2-2.9
	C755.8,155.9,755.5,153.5,755.2,150.7 M170.1,135.2c2.6,4.1,1.2,8.5,1.4,12.7c0.1,2.5-1.4,5,0.3,7.7c1,1.5-0.7,2.4-2,2.6
	c-2.2,0.3-3-1.4-3.1-3c0-3.3,0.4-6.6,0.4-9.8c0.1-2.3-0.1-4.6-0.1-6.9C167.1,136.6,167.2,134.9,170.1,135.2 M307,148.7
	c0.8-5.2,0.5-10.3,2.4-15.1c3.2,1.5,2.2,3.8,2.2,5.6c0,3.1-0.7,6.3-0.6,9.4c0.1,1.8,1.2,4-1.4,4.4S307.2,150.9,307,148.7"/>
</svg>
