<?xml version="1.0" encoding="utf-8"?>
<!-- Generator: Adobe Illustrator 24.0.2, SVG Export Plug-In . SVG Version: 6.00 Build 0)  -->
<svg version="1.1" id="Layer_1" xmlns="http://www.w3.org/2000/svg" xmlns:xlink="http://www.w3.org/1999/xlink" x="0px" y="0px"
	 viewBox="0 0 910.6 459" style="enable-background:new 0 0 910.6 459;" xml:space="preserve">
<path d="M429.1,17.2c21.3,0.2,42.1,0.5,62.9,0.5c30,0.1,60,0.3,90,0.2c40.3-0.1,80.6-0.2,120.9-0.2c20.1-0.1,40.2,0.1,60.3,0.2
	c41.5,0.2,82.9,0.5,124.3,0.8h1c2.2,0.2,5.4-0.4,5.3,2.9c0,3.1-3.1,3.7-5.6,3.7c-10.5-0.1-21-0.3-31.5-0.5
	c-14.4-0.2-28.9-0.9-43.3-0.5c-17.5,0.5-34.9-0.2-52.3-0.1c-39.1,0.1-78.3,0-117.4-0.2c-18.3-0.1-36.6-0.8-54.9-0.5
	c-22.7,0.4-45.3,0.5-67.9,0.3c-15.5-0.1-30.9,0.3-46.4-0.3c-14.6-0.6-29.2,0.2-43.8,0.1c-17.3-0.1-34.6-0.2-52-0.9
	c-11.3-0.5-22.6,0.4-33.9-0.1C326,21.7,307,22.1,288,22c-15.5-0.1-31-0.5-46.4-0.8c-26.1-0.5-52.2-0.1-78.3-0.3
	c-9.6-0.1-19.3-0.6-28.9-1.1c-2.6-0.2-5.2-0.8-7.7-1.8c3.1-2,6.5-2.2,9.9-2.3c30.1-0.8,60.3-0.2,90.4,0c40.5,0.3,80.9,1,121.4,1
	c23.1,0,46.2,0.6,69.4,0.8C421.4,17.6,425,17.3,429.1,17.2 M371.3,189c-4,1.3-3.8-1-2.2-2.7c2-2.3,4.5-4.9,8.2-3.2
	c3.5,1.6,5.8,4,4.1,8.3c-0.1,0.5-0.1,1,0,1.5c11,0,21.9-0.3,32.8,0.1c32.6,1,65.3,0.4,97.9,0.8c1.7,0.1,3.3,0,5-0.2
	c1.7-0.4,3.2-1.5,2.9-3.4c-0.3-2.2-2.2-2.2-3.9-1.9s-3.3,1.1-4.4-1.2c2-3.4,4.9-3.8,8.4-2.6c4.3,1.4,6.3,4.2,4.5,8.9
	c5,1,9.7,0.4,14.3,0.5c11,0.2,22-0.4,33,0.5c3.1,0.2,4.4-1.9,6.2-4c-2.4-2.6-4.5-2.8-6.8-0.4c-1,1-2,2.8-3.6,1.2
	c-1.8-1.7-0.1-3,1-4.2c3.8-4.2,8.8-4,12.7,0c2.4,2.5,0.2,4.6-0.4,6.9c24.9,0.1,49.6,0.5,74.3,0.3c26.3-0.2,52.6,0.2,79,0.5
	c3,0,6,0.6,9,0.8c1.8,0.2,3.7-0.3,5.2-1.4c1.2-1,2.4-2.2,1.8-3.8c-0.7-1.9-2.3-1.5-3.8-1.1c-1.1,0.3-2.2,0.9-3.4-0.6
	c1.1-3.6,3.8-4.6,7.2-3.6c4.2,1.2,5.1,3.8,3.5,10.2c11.2-0.4,22.2-1.1,34,0.9c-5.9,2.4-11.3,1.7-16.5,1.6c-5,0-10-0.1-14.9-0.6
	c-4.7-0.4-7.9,1.7-10.8,5.4c2.4,1.6,4.6,0.7,6.8,0.5c1.7-0.2,3.3-0.4,5-0.5c1.3,0,2.3,0.7,2.2,2.1c0,0.9-0.7,1.7-1.7,1.7
	c-0.1,0-0.3,0-0.4-0.1c-3.7-0.6-7.2,1.1-10.9,0.9c-2.2-0.1-4.5,0.4-5.6-2.2c-0.9-2.3,0.8-3.7,2.2-5.1c0.6-0.6,1-1.2,1.5-1.7
	c0-0.7-0.6-1.2-1.3-1.2h-0.3c-10.3,1-20.6,0.5-30.9,0.3c-15.3-0.2-30.6,0.1-45.9,0c-25.5-0.1-51-0.2-76.4-0.4c-3,0-6-0.2-9-0.4
	c-3.6-0.2-5.5,1.3-5.5,5.3c6.5,0.7,13.1-3.6,19,1.4c-6.6,0.6-12.9,2.8-19.4,2.9c-4.9,0-4.3-5-4.4-8.5c-2.4-1.3-4.7-0.6-7-0.7
	c-13.2-0.2-26.3,0.4-39.5-0.7c-5.2-0.4-7.2,3.7-10.1,7.5c6.5,1.8,12.3-3,18.1,0.5c-6.2,2.3-12.5,4.1-19,3.5c-2.7-0.3-4-3-2.3-5.9
	c1.3-1.9,2.7-3.8,4.2-5.6h-29c-26.1-0.1-52.3-0.1-78.4-0.2c-8.7,0-17.3-0.1-26-0.2c-3.5-0.1-6.1,0.9-7.3,4.7
	c5.6,3.5,11.4-2.6,18.1,1.4c-6.3,2.1-11.5,3.6-16.9,3.6c-4.5,0-5.8-3.4-4-9.8c-5.5,0-10.7,0.1-15.9,0c-12-0.2-23.9,0.9-35.9-0.9
	c-6.5-1-9.7,1.5-12.6,8.2c4.2,0.9,7.9-2.3,12.1-1.6c-2,3.5-11.9,6.8-14.9,5.2c-2-1.1-2.5-2.8-1.3-4.6c2.1-3,3.3-6.4,6.1-8.9
	c1.3-1.1,2.8-2.4,1.7-4.2s-2.8-2.2-4.8-1c-1.3,0.8-2.9,1.7-3.7-0.4s0.8-3,2.4-3.6c5.9-2.5,10.9,1.8,10.5,9.1
	c1.8,1.2,3.9,0.8,5.8,0.6c17-0.9,33.9-0.1,50.9-0.4c0.7,0,1.3,0,2-0.1c2-0.4,3.7-1.9,4.2-3.8c0.5-1.4-0.6-2.2-1.6-2.8
	c-2.3-1.2-3.2,0.9-4.8,2.3 M62.9,220.8c1.5,20.6,1.2,40.9,2,61.4c-2.7,0.6-5.3,1.2-7.8,1.6c-1.5,0.4-3-0.4-3.5-1.9
	c-0.1-0.2-0.1-0.4-0.1-0.7c-0.3-2.1-0.3-4.3,0-6.4c1.8-8,1.5-16.1,1.3-24.3c-0.2-11.9-2.1-23.8-1.5-35.8c0.6-14.4,0.2-28.8,1.8-43.2
	c1-8.8-0.3-17.6-0.5-26.4c-0.2-9.7,1-19.2,1.5-28.8c0.2-3.4-0.2-7-0.3-10.2c0-2.9,0.6-6.3,0.8-9.5c0.8-11,1.2-21.9,0-32.9
	c-0.2-1.8,0.2-3,2.1-3.2c2-0.4,3.9-0.6,5.9-0.7c2.9-0.1,4.2,1.5,3.9,4.4c-1.2,11.4-2.7,23-1.5,34.3c2.2,22.4-1.4,44.4-2.3,66.6
	c-0.4,9.6-0.2,19.1-0.4,28.7c-0.1,8.8-1,17.8-1.6,27.2 M59.7,121.5c0.8,8.9-2.5,17.8,0.7,26.7c1.9-13.4,4.5-26.8,2.3-40.4l-1.6-0.2
	C60.6,112.2,60.1,116.9,59.7,121.5 M59.1,226.3v-30.5h-1.7c-0.2,13.2-1.4,26.3,1,39.5C59.7,232.7,59.2,229.9,59.1,226.3 M61.1,152.9
	c-2.2-1.2-2.6-1.1-2.3,1.6c0.9,10.3,0,20.5-1.1,30.8c-0.4,2.4,0.2,4.9,1.6,6.8C59.8,179.1,60.4,166,61.1,152.9 M59.7,241.9l-0.2-1.4
	c-0.8,13.2-0.4,26.5-0.8,39.8C60.8,267.8,60.2,255.2,59.7,241.9 M63.4,67c-0.3-0.9,0.4-2.4-2-2.7v39.1C61.8,91.5,63.1,79.7,63.4,67
	 M668.4,109.9c-23.2,0-45.8-0.1-68.5-0.2c-6,0-12-0.1-17.9-0.6c-5.2-0.5-7.3,2.9-10.3,6.5c4,1.3,7.4-0.8,10.8-0.2
	c1.9,0.3,4.6-0.1,4.1,2.9c-0.5,2.8-2.7,1.5-4.4,1c-2.5-0.7-4.9,0.4-7.4,0.6c-2.6,0.2-5.5,0.6-7.1-2.4c-1.5-2.8,0.8-4.2,2.2-6
	c0.3-0.5,0.6-1,0.8-1.5c-1.1-1.6-2.5-1.2-3.8-1.1c-13.4,0.9-26.9,1-40.4,0.2c-4.7-0.3-6.7,2.7-9,5.8c2,2,4.2,1.4,6.3,1.4
	s4.5-0.7,4.6,3.2c-3.7,0.2-7.3,0.4-10.8,0.5c-2,0.1-4.3,0-5.4-1.9c-1.2-2.2,0.7-4,1.6-5.9c0.5-1,2-1.2,2-3.2
	c-7.4,0.4-14.8,0.3-22.2,0.3c-36.1-0.1-72.3,0.3-108.4-0.5c-3-0.1-5.1,1.5-8.8,6.6c2.7,4.6,8.4-0.1,11.5,3.4
	c-4.3,3.2-11.5,3-14.6-0.3c-2.3-2.5-2-4.3,2.4-9.1c-18.9-1.2-37.4,0.8-55.7-2.2c4-1.8,8.3-1.5,12.5-1.5c14.2,0,28.3,0.2,42.5,0.2
	c1.2,0,2.3,0,3.5-0.1c1.9-0.2,3.3-1.4,3.1-3.3c-0.2-2.1-2.2-2.3-3.9-2.1c-1,0.1-1.9,0.5-2.8,1c-1.2,0.7-2.3,0.9-3-0.4
	c-0.9-1.6,0.3-2.4,1.5-3.1c6.1-3.7,12.5,0.2,12.8,8.3c16.1,0,32.2-0.1,48.4,0c23.6,0.1,47.3,0.4,70.9,0.6c2.7,0,5,0.3,6.2-3.3
	c0.9-2.7,4.1-4.1,7-4.1c2.7,0.1,4.5,2.3,5,4.9c0.4,2.3,1.6,2.6,3.5,2.5c10.7-0.1,21.3-0.1,32-0.1c1.6,0,3.3,0.1,4-2.1
	c1.4-4.5,4.8-6.3,9.2-5.9s6.5,3.5,7,8c50.5,0.5,100.8-0.3,151.2,2c-20.6,1.8-41.2,1.3-62.2,1.4 M572.4,102.8c-2.3,0-4.5,0.4-4.5,3.2
	c0,1.8,1.6,2,3,1.5C572.8,106.7,575.5,106,572.4,102.8 M724.4,150.8h21.9c0.2-0.5,0.4-1,0.5-1.5c0-2-1.7-5.1,1.2-5.6
	c3.7-0.7,2.6,2.9,2.8,5c0.3,2.4,1.9,3,3.8,3c3.2,0,6.5,0,9.7,1.2h-7.8c-4,0-6,1.4-4.9,5.8c0.3,2.1,0.4,4.3,0.3,6.4
	c0,1.2-0.6,2.4-2,2.3s-2.2-1-2.3-2.6c-0.8-10.9-0.9-10.8-11.4-10.9c-26.4-0.2-52.9-1-79.3-0.6c-25.1,0.4-50.2-0.6-75.3-0.4
	c-3.3,0-5.2,0.9-4.5,4.5c0.4,2.3-0.2,3.8-2.7,3.6s-2.5-2-1.9-4.1c0.9-2.9-0.7-3.9-3.4-3.9h-44.5c-3.5,0-5.1,1.6-4.1,5
	c0.5,1.8,1.3,3.3-0.9,4c-2.5,0.8-3.2-1.2-3.6-3c-0.3-2-0.4-4.1-0.5-6.1h-16.4c-33.1,0-66.3,0-99.4-0.1c-5.5,0-11-0.4-16.5-0.7
	c-2.5-0.1-4.1,0.5-4.4,3.4c-0.2,2,0.9,5.6-2.7,5.2c-3.4-0.4-1.5-3.7-1.7-5.8c-0.1-0.6,0-1.3,0-2.5c-15.4-0.4-30.7,0.4-46-1.3
	c3.9-1.9,8-1.7,11.9-1.7c9.6-0.1,19.3,0.1,28.9,0.4c4.4,0.2,6.7-1,6.2-5.8c-0.2-1.7-0.4-4.3,2.2-4c2.2,0.3,2.1,2.6,1.8,4.5
	c-0.7,3.6-0.2,5.4,4.3,5.4c35.8-0.1,71.6,0,107.4,0.1h23.6c0.1-0.6,0.1-1.3,0-1.9c-0.4-2-1.3-4.5,1.4-5c2.4-0.4,2.4,2.2,2.7,4
	c0.5,2.9,2.3,3.6,5,3.6c14.6,0,29.3-1,43.9,0c4,0.3,5.1-1.4,4.3-5c-0.3-1.6-0.8-3.6,1.9-3.6c1.5-0.1,2.8,1,2.9,2.5
	c0,0.3,0,0.6-0.1,0.9c-0.7,4.8,2,5.4,6,5.4c47.1-0.1,94.3,0,141.9,0.1 M333.4,65.1c-7.6,0-15.2-0.5-22.8-1.5
	c4-2.8,461.2-0.6,467.5,0.8c-1.7,2.1-4,1.6-6,1.6c-109.1,0-218.2-0.1-327.3-0.2c-21.5,0-43,0.5-64.4-0.1c-15.5-0.5-31-0.4-46.9-0.8
	 M412.4,327.8c-17.2-0.2-33.9,1-50.5-1.2c4.9-3.1,359.6-2.2,365.7,1.1c-52.3,1.4-104.6,0.3-156.9,0.4
	C518.1,328.1,465.5,327.9,412.4,327.8 M880.2,169.8c0-19.9,0-39.4,0.1-58.8c0-8.3,1.7-16.5,2.2-24.8c0.4-6.4,1.2-13-1.2-20.4
	c-3.4,4.7-4,9.2-4.3,13.5c-1.8,22.5-4.3,45.1-3,67.7c0.7,12.9,0.5,25.9,1.2,38.8c0.4,8.2,0.8,16.5,0.9,24.8c0,0.8,0.1,1.7-1.3,2.1
	c-1.9-2.5-2-5.7-2.4-8.7c-1.7-14.4-0.8-28.9-2-43.4c-1.7-20.9-0.5-41.8,1-62.6c0.6-8.4,0.8-16.9,2.6-25.3c1.2-5.6,0-6.8-5.8-6.8
	h-13.9c1.5-1.7,3.8-2.4,6-1.9c7.3,1,14.5-0.7,21.8-0.2c4.1,0.3,5.8,1.6,5.5,5.7c-0.8,14.6-2.4,29-3.5,43.5c-1,12.5,0,25.3-0.2,37.9
	c-0.4,16,0.7,31.9-1.2,47.8c0.1,1.1-0.4,2.1-1.4,2.5C881.2,190.6,879.6,180.5,880.2,169.8 M553,240.2c-24-0.1-47.7-0.1-71.3-0.3
	c-3.3,0-5.3,0.6-5.9,4.3c-0.8,4.6-4.1,6.6-8.7,6.6c-6.4-0.1-11-2.5-11.8-7.1c-0.5-3-1.9-3.4-4.4-4.1c-5.4-1.5-11,0.6-16.3-0.6v-1.4
	c5.5,0,10.9-0.1,16.4,0c2.5,0.2,4.9-1,6.2-3.1c6.5-9.2,12.5-9.1,18.2,0.6c1.5,2.6,3.4,2.2,5.5,2.2l79.4,0.3l88,0.3
	c5.8,0,11.6,0.2,17.5,0.6c2.6,0.2,4.3-0.5,5.6-3c1.7-3.2,3.7-6.4,7.1-8.2c3.1-1.8,5.6-1.5,7.4,2.1c0.9,1.8,2,3.5,3.3,5
	c3.6,4.5,2.9,8.9,0.2,13.4c-2.4,3.9-6.3,4.5-10.4,4.5c-4.8,0-7.2-3.3-8.6-7.1c-1.1-3-2.6-4-5.8-4c-32,0.1-64,0-96-0.1
	C563.4,240.8,558.4,240.5,553,240.2 M675.9,235.7c-1.2,2.3,1.8,2.8,2.2,4.4c-1.2,1.4-4.3,0.1-4,2.9c0.1,2,1.3,3.8,3.2,4.8
	c2.9,1.5,7.6,0,9.5-3.2s0-9.7-3.8-12.3C679.4,229.8,678,233.1,675.9,235.7 M472.3,243.4c0.9-2.4,0-3.5-2.5-3.5s-5,0-7.5,0.1
	c-1.2,0-2.5,0-2.9,1.3s0,2.7,1,3.6C463.5,248.2,469,247.8,472.3,243.4 M469.9,233.4c-3.9-0.9-7.3-0.8-10,4.1c3.7,0,6.8,0.2,9.8-0.1
	S471.9,235.5,469.9,233.4 M471.4,283.9c-26.1-0.6-51.8,0.9-77.4-0.4c-0.9,0.1-1.7-0.4-2-1.2c5.4-2.5,334-0.9,341,1.7
	c-1.4,1.4-3.2,0.9-4.7,0.9c-41.3,0-82.6,0.4-124-0.2C560.2,284.1,516,284.4,471.4,283.9 M548,450.9c22.7,0.4,45-1,68.7,1.1
	c-5.1,2.1-9,2-12.8,2c-32.5,0.1-64.9-0.2-97.4,0.5c-25.1,0.5-50.3,0.3-75.4,0.3c-5.3-0.1-10.6-1-15.7-2.6c4.2-0.4,8.3-1.1,12.5-1.1
	c22.4-0.1,44.9-0.5,67.3-0.1c16.5,0.3,32.9-1.1,49.4,0.3C545.7,451.2,546.9,451.1,548,450.9 M603.4,368.7
	c14.2,0.4,27.9-0.7,41.5,1.7c-50.3,0.6-100.5,2.6-150.8-0.5C530.4,367,566.6,368.9,603.4,368.7 M625.8,414.3
	c-20-0.7-39.6,0.8-59.2,0.1c-15.9-0.6-31.9,0.3-47.8,0.3c-6.9,0-13.8-0.7-20.6-2c52-2,103.9-0.9,155.8-0.1
	C644.7,414.2,635.5,415.4,625.8,414.3 M34.6,117c-2,0.1-4-0.4-5.6-1.5c-2-1.4-3.6-2.9-0.4-4.8c1.9-1.1,1.6-2.3,1.5-4.4
	c-0.2-3.6-1.3-7.4-0.1-11c0.7-2.2,2.9-3,4.9-4c3.6-1.7,6.5-0.2,9.1,2.1s0.8,4.8-0.6,7.4c2.3,1.7,4.6,3.5,7.2,4.3
	C47.9,112.5,43.9,118,34.6,117 M44.1,106.9c-1.9-1.2-4.1-1-6.2-0.9c-3.2,0.2-3.4,2.6-3.2,5c0.2,3,2.4,2.7,4.3,2.4
	C42.3,112.7,44.2,110.8,44.1,106.9 M37.8,95c-2,0.1-3.7,0.7-3.4,3.2c0.1,1,0.5,2.1,1.7,2.1c2,0,3.3-1.5,4.1-3.1S39.6,95.2,37.8,95
	 M43.8,200.2c-4,3.2-8.6,5.7-13.4,7.4c-3.5,1.4-4.6,0.9-6.3-1.8c0.8-2.1,3.2-0.6,4.5-2.3c-1.2-8,2.6-17.2-5.1-24
	c0.6-0.6,0.8-1,1.1-1c4.7-0.3,20.4,9.3,22.5,13.4C49.1,196,46.1,197.7,43.8,200.2 M32.6,188.8l0.6,13.3c0.6,0,1.2-0.1,1.8-0.3
	c3.4-1.9,7.5-3.2,7.3-8.3c-0.2-4.6-4.9-4-7.2-6.2C34.2,186.3,33,186.4,32.6,188.8 M39.6,138.3c3.1,1,4.6,2.6,3.6,5.8
	c-3.6-0.1-6.3-4.8-10.2-1.8c-1.8,1.4-3.7,2.9-3.5,6.4c8.1-2.2,12.1,3,15.3,9c1,1.9,0.7,2.3-1.4,5.1c-2.6-0.1-1.6-3-3.5-4.1
	c-5,2.1-10.2,2.8-13.9-2.6c-2.9-4.2-2.1-8.5,0.6-12.6C30.2,138,32.8,137,39.6,138.3 M29.4,236.4c1.6-3.6,3-7,4.5-10.3
	c0.7-1.6,1.3-3.2,3.5-2.9c1.5,0.2,2.8,1.4,3,2.9c1.3,4.2,2.5,8.6,3.4,12.9c0.4,2.3,0.6,4.6,2,6.5c0.9,1.2,1.3,2.5-0.1,3.4
	s-2.4-0.2-3.5-1c-2.1-1.6-1-5.7-5.1-5.9s-4,3.3-5.7,5.3c-1.1,1.3-3,1.1-3.2-0.3C27.8,243.6,25.7,239.8,29.4,236.4 M89.5,233.9
	c2.6-4.3,5.4-7,10.8-6.5c8.1,0.8,12.1,8.3,7.8,15.1c-0.8,1.2-1.8,2.4-2.7,3.6c-4.5,5.8-10.5,6.5-16.3,1.9
	C84,244,84,239.8,89.5,233.9 M91.2,239c-2.8,3.9-0.2,6.1,2.9,7.2c3.7,1.3,7.1,0.4,9.3-3.5c2-3.7,3.4-7.2-0.3-10.7
	C98.9,233.7,93.6,233.1,91.2,239 M746.7,116.9c-1.5,2.1-2.2,3.8,1.1,3.6c3.5-0.2,6.9-0.8,10.3-1.2c1.6-0.2,3.3-1.1,4.3,1.1
	c-0.1,1.8-1.5,2.1-2.8,2.3c-4.2,0.8-8.5,1.5-12.8,2.1c-2.4,0.5-4.8-0.6-6-2.6c-1.2-2.1-0.2-3.9,1.2-5.4c3-3.6,4.3-8.2,8.1-11.2
	c1.2-0.9,2.7-2.4,1.4-4.2s-3.2-1.2-5-0.6s-4,4.1-5.3,1.2c-1.4-3.1,2.6-4.1,4.8-5c2.8-1.2,5.8-1.3,8.4,1.1c2.2,2.1,2.8,4.5,1.1,7.2
	c-0.9,1.5,0.3,2.4,0.5,4C751.3,109.6,749,113,746.7,116.9 M35.9,295.5c-6.3,3.8-10.9-0.5-10.3-6.9c0.6-5.9,3.3-11.5,2-18.2
	c5.2,0.4,9.7-2.9,14.9-0.9c-1.3,6-11.9,0.4-10.6,9c2.9,1.7,5.6-3.1,8.4,0c-0.2,2.7-2.3,3.4-4.3,4.2c-1.4,0.5-2.8,1-4.1,1.7
	c-2.7,1.7-2.9,4.6-2,7.1c1.3,3.2,3.6,0.6,5.5,0.3c2.7-0.5,4.9-3.4,8.5-1.8C42,293.1,38.7,293.8,35.9,295.5 M42.2,61.7
	c-3.6,0.5-7.1,0.5-10.5,2.3c2,3.5,4.2,1.9,6.4,1c1.3-0.6,2.9-1.9,3.9-0.2c1.1,2-0.9,2.9-2.2,3.8c-5.4,3.7-9.1,2.7-12.3-3
	c-0.9-1.6-1.5-3.3-2.9-4.3c2.4-3.8,4.3-7.5,8.1-9.6c1.8-1,3.6-2.1,5.5-0.7s3.7,3.5,2.4,5.9S41.3,60.3,42.2,61.7 M264.2,236.8
	c-2.2,4.9-12.4,11.4-16.9,11.2s-7.8-6-6.2-11.1c1.6-5.4,6.4-10,10.5-10.1C256.5,226.6,262.2,231,264.2,236.8 M246.7,243.8
	c5.1,0.5,9.1-2.2,12.7-5.2c2.2-1.8,1.2-3.7-0.5-5.5c-2.7-2.7-5.1-1.3-8.1-0.5C244.5,234.4,243,237.4,246.7,243.8 M164.5,108
	c1.2-2.6,3.6-3.4,5.2-5.1c0.9-1,1.9-2.2,0.3-3.4c-1.2-0.9-2.1,0-2.8,1.1c-0.9,1.3-1.1,4.4-3.6,2.4c-2.4-1.8-0.6-4,0.8-5.6
	c2.7-3.1,5.7-2.9,8.8-0.6c3.5,2.5,2.1,4.8,0.1,7.5c-2.5,3.2-7,5.2-7.4,10.2c3.7,2.1,7.8-0.4,11.9,1.7c-4.4,2.6-9.7,3.5-14.8,2.3
	c-2.1-0.4-2.1-2.4-1.7-4.1C161.9,112.2,163,110,164.5,108 M163.1,183.5c1.6-0.1,3.2-0.1,4.8,0.1c4.2,0.6,5.6,3.6,3.9,7.6
	c-1.6,3.8-5.2,5.9-7.9,9.4c4.2,1.3,7.5-0.1,10.9-0.9c1.4-0.3,3.3-1.1,3.8,0.9s-1.5,2.2-2.9,2.4c-4.3,0.8-8.5,3-13.1,1.3
	c-3.5-1.3-4.1-2.9-1.7-5.8c2.7-3.2,6.1-6,7.6-10c-3.4-3.4-5.1,0.8-7.9,1.2C159.4,186.9,160.4,185,163.1,183.5 M27.4,14.6
	c7.4,0.5,14.5-0.9,21.5,2.7C43,21.2,18.6,20.7,13,16.6C17.5,13.6,22.4,15.1,27.4,14.6 M315.2,119.5c-3-0.2-5.7-0.2-8.3-0.6
	c-3.2-0.5-4.5-2.2-2.2-5.1c2-2.6,4.2-5.2,6.1-7.9c1-1.4,3-2.9,1.5-4.8s-3.6-0.8-5.3,0.4c-0.4,0.4-0.7,0.7-1.1,1
	c-0.8,0.6-1.9,0.4-2.5-0.4c0,0-0.1-0.1-0.1-0.2c-0.4-0.7-0.4-1.7,0.2-2.3c1.8-2.7,8.5-4.1,11-2.3c2.8,2,3.1,6.7,0.4,9.9
	c-2.1,2.5-4.6,4.7-6.2,7.9c3.4,1.4,7.1,0.4,10.1,2.6C318.3,119.8,316.8,119.4,315.2,119.5 M164.2,149.8c-0.1-2.6-0.1-4.7-0.2-6.9
	c-0.1-1.6-0.2-3.2,2-3.2c1.4-0.1,2.5,1,2.6,2.4c0,0.2,0,0.4-0.1,0.6c-0.7,4.2,1,8.5-0.5,12.8c-0.5,1.9,0,3.9,1.4,5.2
	c-1.1,1.9-2.3,2.6-3.9,1.8c-1.6-0.9-1.7-2.4-1.7-3.9C163.8,155.9,164,153.1,164.2,149.8 M309.1,140.5c0.2,5.1-1.5,9.8,0,14.5
	c0.4,1-0.1,2.2-1.1,2.6c-0.1,0-0.2,0.1-0.4,0.1c-1,0.4-2.2-0.1-2.6-1.1c0-0.1-0.1-0.2-0.1-0.4c-1.5-5.6,0.5-11.1,1.2-16.6
	C306.1,137.9,308.2,138.1,309.1,140.5 M398.6,239.9c-3.1-0.1-5.8,0.4-8.3-1c4.2-2.2,16.5-2.5,24.3-0.2
	C409.6,240.5,404.2,239.4,398.6,239.9"/>
</svg>
