<svg xmlns="http://www.w3.org/2000/svg" viewBox="0 0 933.1 1067.5" xml:space="preserve">
  <path d="M835.7 773.7c-1 14-1.5 27.6-1.5 41.2.1 13.2 1.8 26.2 3 39.3 1.3 13.6 1.8 27.2 1.7 40.8-.3 15.5.1 31 2.3 46.3.8 6 .5 12.2.7 18.3.1 4.8 0 9.7.3 14.5.5 8.6.5 8.6 8.7 10.4 2.2.5 4.8 1.2 4 4-.7 2.3-3 4.4-5.9 3.5-5-1.5-6.3.3-5.8 5.1.3 2.8.1 6.5-3.8 6.2s-4.6-3.4-4.1-7c.8-5.8.1-5.7-5.5-6.3-10.4-1.2-20.9-.1-31.4-.9-9.4-.7-19.1-.2-28.7 0-10.1.2-20.1 1.3-30.2.7-10.6-.6-21.2 1.2-31.8 2.1-16.2 1.4-32.3 2.3-48.7 1.1-18.7-1.3-37.5-1.7-56.3.1-9 .8-18.2 1.4-27.3 1.6-14.6.3-29.2-.5-43.7-.3-21.9.2-43.7 2-65.5 3.8-22.5 1.9-44.6 6.9-67 9.8-10.8 1.4-21.8 2.1-32.8 2.5-13.1.5-26.2.5-39.3.2-18.9-.4-37.9 1.2-56.8 1.7-10.7.3-21.3 0-32-.2-3.1 0-6.3-.7-8.8 2.2-.8 1-2.5 1.2-3.2.3-2.4-3.5-5.9-2.4-9-2.5-16.6-.5-33.3-1.2-49.9-.9-14.1.3-28.2.2-42.3 2.1-7.5 1-15.3-.1-22.8.9-7.3 1-14.8.4-21.8 3.6-6.6 3-8 1.7-8.2-4.9 8.7-1.4 17.2-3.9 26.2-4.7 5-.4 10-.1 15-.3 10.3-.5 20.6-1.4 30.9-1.8 23.6-.8 47.2-.8 70.8.5 8.4.4 9.7-.5 8-8.9-1.3-6.5-1.4-12.7.6-19.1 1.2-3.6-.2-7.5-.5-11-.5-6.6.7-13 .1-19.7-1.2-13.2-2.5-26.5-2.2-39.8.4-19.8-1.6-39.5-1.9-59.3-.1-5.2-.1-10.3.1-15.5.1-3.4-1.4-4.5-4.5-4.2-26.8 2-53.8 1.7-80.6 4.3-20.3 1.9-40.6 5.7-61.1 4.7-4.3-.2-5.4 1.6-5.3 5.5.5 17.9.2 35.9.8 53.8.3 11.8-.1 23.7 1.5 35.2 3 21.9 1.7 43.9 4 65.7.2 1.8.9 3.5 1.2 5.3.5 2.8-.5 5.3-3.2 6-3 .7-4.1-2-4.2-4.3-.6-7.8-1.3-15.6-1.1-23.4.5-20.7-3.3-41.2-3.5-61.8-.1-14.1-1.9-28.1-1.2-42.3.6-11.8 0-23.6-.2-35.4.2-1.9-.9-3.7-2.5-4.5-2.7-1.3-3.1-4.2-1-5.7 3.6-2.6 3.7-6.2 3.7-9.7.3-15.5-.2-30.9-.5-46.3-.2-16.3.5-32.6 2.1-48.8 1-11.2 2.8-22.6 2.1-33.8-.4-5.5-2.8-10.6 1.5-15.5 2.3-26.2 5.5-52.3 6.8-78.5 1-20.4 1-40.9 0-61.4-.3-9 0-17.9.8-26.9.6-8.4-.8-16.9.3-25.4.5-3.6-2.9-4-4.7-5.3-.6-1.7.2-3 1.1-3.3 5.1-1.7 4.5-6 4.5-9.8-.2-15.1.4-30.2 1.2-45.3.7-12.6 2-25.2 2.7-37.8.4-7.3.1-14.6.5-21.9.5-10.7 1.2-21.5 0-32.3-2.7-1.8-5.8 1.5-8.5-.4-.3-2.8 1.6-4.1 3.7-4.6 4.8-1.2 6.7-3.9 5.3-8.7-.4-.9 0-2.1.9-2.5 1.4-.2 1.8.8 1.9 1.8.8 5.5 3.8 7.5 9.3 6.8 14.5-1.7 29.1-2.3 43.6-4.2 8.2-1.1 16.6-.2 24.9-.6 9.6-.6 19.3-.2 28.9 0 17.9.5 35.8 1.4 53.7 1.6 24.6.3 49.2-1.5 73.8-2.4 15.1-.6 30.1-2.5 45.2-1.8 6.7.3 14 1.6 20-3.5 1-.7 2.4-.5 3.1.5v.1c2.4 3.4 5.9 3.3 9.4 3.2 26.2-.3 52.5-.4 78.7-1.1 15.5-.4 30.9-1.8 46.3-2.9q23.7-1.8 47.4-1.8c20.3.1 40.7-1.2 61-.7 16.7.4 33.2-.4 49.8-.5 21.4-.2 42.8-1.5 64.2-2.1 16.6-.5 33.3.7 49.9 1.7 10.8.7 21.6 1.8 32.4 1.6 2.7 0 5.3.2 8 .5 3.3.4 6.5 1.3 7.7-3.6.6-2.5 6.5-2.8 8.9-.9s3.5 9.3 1.5 11.7c-1.3 1.6-1.9 3.5-1.7 5.5 0 21.5-1.8 42.9-2.9 64.3-.7 14.8-1 29.5-2.1 44.3-.2 3.6-.1 7.1 3.1 10 2.4 2.2 3.3 5.5-.3 8.1-1.9 1.3-2.1 3.3-1.9 5.4 2.1 20.9-1.2 41.5-2.9 62.2-1 12.1-4.1 23.9-4.3 36.1-.2 9.8-1.3 19.6-1.7 29.4-.8 19.6-1.3 39.3-1.9 58.9-.2 2.5.1 5 .8 7.4 1 3.3 1.8 6.6-.9 9.9-1.5 1.9-.7 4.8-.8 7.3-1.2 22.1-1 44.3.8 66.3 1 13.8 1.3 27.4.8 41.1m-437.2 228.5c3-.5 5.9-.9 8.9-1.4 9-1.5 18-3.4 27-4.6 13.5-1.8 27-3.3 40.6-4.6 19.5-1.9 39-3.6 58.6-2.8 5.9.2 11.8-.5 17.7-.8-.2-9.8-1.5-19.1-1.4-28.2.1-13.4 1.3-26.8.8-40.3q-.45-5.25 0-10.5c2.1-17.6-.1-35.2-.1-52.8 0-7.5-1.5-14.8-2-22.2-.7-8.6-.8-17.3-1.1-25.9-.1-1.8-.2-3.4-2.5-3.6-3.1-.3-6.4-1.2-9.4-.8-11.8 1.6-23.5.3-35.3.4-20.2.3-39.8 4.5-59.6 6.5-14.9 1.5-29.8 2.5-44.7 3.3-6 .3-8.2 2.2-7.8 8.2.2 3.5.4 7 .5 10.5.8 18.8-.8 37.5-.1 56.3.7 17.9-.6 36 2.4 53.8 1.1 6.8-.2 13.7 1.8 20.3 2.5 8.2 2.9 16.7 3.2 25.1.1 2.5 0 5.3 1.5 7.2 2 2.5 1.1 4.6-.6 7-3.3 0-6.4-.7-6.4-4.7-.1-10.6-1.4-21.2-3.8-31.6-2.5-11-2.1-22.5-2.9-33.7-1.5-22-1-44.2-1.2-66.3-.1-14.3 0-28.7-.1-43-.1-7-.6-7.2-7.6-6.4-6.3.7-12.5 1.8-18.8 1.7-23.3-.4-46.4 3.6-69.7 3.5-19-.1-37.7 3.8-56.6 5.4-3.5.3-5.1 1.6-4.9 5.3.2 5.5-.1 11 .1 16.5.9 28.4 2.3 56.9 3.5 85.3.9 21.8.4 43.6.4 65.4 0 6.8.3 7.2 6.8 7.2 27.1-.2 54.2.5 81.3-1.8 14.2-1.2 28.6.9 42.9-.1 12.6-.9 25.3-.8 38.6-2.8M695 986.8c16.2-1.1 32.5-2.4 48.8-3.3 15.9-.9 31.9-2.2 47.9-1.1 13.2.9 26.3-.3 39.4.6 3.3.2 4.5-1.2 4.4-4.4-.2-4.8-1.1-9.5-1-14.4.2-14.1-.4-28.2-1.7-42.3-.7-7.4-1.6-15.1-1-22.4 1.2-12.9.2-25.6-.6-38.3-1.5-24.7-4.9-49.3-3.1-74.2 1.2-16.6 1.6-33.4-.1-49.9-2.5-23.6-2.2-47.1-1.3-70.7.3-7.2-.2-7.9-7.6-9-10.6-1.7-21.2-1.4-31.9-1.9-20.4-.9-40.8-1.6-61.2-.5-14.7.7-29.5.6-44.3-.5-5.8-.4-7.9 1.1-7.7 6.3.4 10-.8 19.9-.8 29.8.1 17.3-.4 34.5-.6 51.8-.1 7.8-1.3 15.6-.4 23.4.8 6.6 2 13.1 2.4 19.8.5 10.5 1.6 11.4 12.2 11.2 16.7-.2 33.2 2.1 49.8 3.3 18.9 1.4 37.8 2.4 56.6 4.8 8.2 1.1 16.4 2.9 24.7 2.6 2.9-.1 4.6.1 4.8 3.2.1 2.9-1.9 3.8-4.3 3.7-10.8-.5-21.7.4-32.3-2.3-3.2-.8-6.4-2-9.8-2-14.7 0-29.1-2.4-43.6-4.1-4.2-.5-8.3.5-12.4.1-12.9-1-25.9-.9-38.7-2.8-3.9-.5-5.1 1.1-4.4 4.9 1 5.7 2 11.5 2.6 17.2q1.65 15.45.3 30.9c-1.3 17.6 4.5 34.5 5.5 52 1 18.7 5.6 37.1 6.4 55.9.1 3-.3 6.3 2.3 8.9 2.3 2.2 1.9 4.9.5 7.3-1.1 1.6-3.2 2.2-4.9 1.4-2.6-1-4.2-3.6-3.9-6.3q.3-2.7.3-5.4c-1.5-15-3.2-30-4.4-45-.4-4.6-1.9-8.9-1.9-13.7 0-7.4-.9-14.9-2.7-22.1-1.9-8.2-3-16.6-3.2-25.1-.4-8.5-.1-16.9 0-25.4.1-10-2.2-19.8-3.1-29.7-.4-4.8-2.6-6.4-6.8-6.5s-8.7-.3-13-.1c-13.9.7-27.7 2.4-41.7 2.8-16.1.5-32.2.1-48.3-.6-6.9-.3-7.4-.3-7.3 6.7.1 6-.2 12 .6 17.9 2.4 18 2.7 36.1 3.5 54.2.5 12-1.1 23.9-.6 35.9.5 11.6-.5 23.2-1 34.8q-.75 13.05 1.8 25.8c1.4 6.8 4.1 8.6 10.9 8.8 13.5.5 26.8-2.2 40.3-2.8 28.1-1.2 56.4 2.4 85.6.8M80.3 585c0 13.3-1.6 26.5-2.3 39.8-.8 15.5-3.4 30.7-4.6 46.2-.8 10.9-1.7 12.5 9.7 10.1.5-.1 1-.1 1.5-.2 19.6-1 39.1-2.3 58.7-2.9 22.3-.6 44.3-4.1 66.5-5.5 4.1-.3 5.8-1.8 6.1-6 1.1-16-.5-31.9-1.7-47.8-1.1-14.6-2.1-29.1 1-43.7 3.4-15.4 5.5-31 6.1-46.8.6-17.9-.7-35.8.8-53.8.8-9.7-1-10.8-10.8-8.8-8.1 1.8-16.5 2.4-24.8 1.8-12.5-1-25.1.2-37.2 2.6-12.8 2.5-25.7 2.9-38.5 5.2-9.4 1.7-18.6 3.1-27.1 7.6-2.2 1.1-2.8 2.4-2.8 4.6 0 5.8.1 11.6-.1 17.4-.4 11.5-.7 23-.4 34.4.4 15.2-.6 30-.1 45.8M226 542.5c-1.9 11.1-3.8 22.3-5.7 33.4-1.3 7.5-2.6 15.2-2.1 22.8 1.6 20.9 3.8 41.7 3.7 62.7-.1 11.3.1 11.6 11.2 9.6 7.8-1.4 15.6-.4 23.4-1.5 13.7-1.9 27.5-2 41.2-3.8 10.1-1.3 20.3-1 30.2-2.8 14.4-2.7 28.9-4.5 43.5-6 3.1-.3 4.9-1.6 5-4.9.1-6.6.4-13.3.5-19.9.1-6.2-1.1-7.2-7.4-6.5-22.3 2.2-34.8-15.9-34.7-33.2.1-17.5 3.4-34.7 11.6-50.6 6.5-12.7 14.1-24.2 29.5-27.4 2.5-.5 3.5-2.1 3.5-4.7.2-11.8.5-23.6.9-35.3.1-4.4-1.9-7-6.1-6.6-8.4.8-16.5-1.8-24.8-1.4-10.5.5-21 .8-31.4.6-13.3-.2-26.6-1.4-39.9-1.5-14.5-.2-28.9-1-43.3-1.8-4.6-.2-6.4 1.5-7.1 6.1-.5 4.8-.7 9.6-.7 14.4-.1 19.1-.2 38.2-1 58.3m206.9 41c-.1 1.5.7 3.4-1.5 4.2-1.4-1.8-.1-4.3-2-6.6-2.9 7-7.7 13.1-13.9 17.6-3 2.1-5.8 4.4-8.4 7.1-2.2 2.4-3.5 4.7 1.3 7.3-7.5 2.8-13.3 6.8-20 8.7-3.8 1.1-5.9 2.9-5.6 7.4.4 7.5.1 15-.1 22.4-.1 3.5 1.5 4.7 4.9 4.5 11.3-.6 22.6-1.1 33.9-.4 17.3 1.1 34-3.4 51-5.6 13.6-1.9 27.4-2.8 41.2-2.9 7.6 0 15.3.6 22.9.7 3 .1 4.8-1.1 4.9-4.3.2-6.8.9-13.6.6-20.4-.5-12.9-1-25.8.2-38.8 2.5-26.7 6.9-53.3 8.1-80.2.5-11.6.3-23.3-.4-34.9-.3-4.6-2.7-6.2-6.8-5.8-13.2 1.4-26.5 1.5-39.5 4.8-5 1.3-10.3 1.5-15.4.5-20.9-4-42.1-3.6-63.2-3.3-6 0-12 .8-17.7 2.5-5.2 1.6-10.3 4.5-16.3 1.5-2.5-1.3-5 .8-5 3.9q0 18.9-.9 37.8c-.1 2.4 1.2 4 3.4 5.1 12.5 6.2 19.9 16.8 25.4 29.1 1.1 2.4 1.8 5.2 4 6.8 10.3 7.6 12.4 19.1 14.9 31.3m399.6-44.8c.2-1.5.3-3 .5-4.5 3.8-26.2 7.7-52.3 5.5-78.9-.5-6.6-1.2-8-7.6-7.7-20.2 1.1-40.4-1.6-60.8.5-25.4 2.6-51 4.5-76.7 4.4-3.7 0-5.4 1.4-5.7 5.2-1 12.6-2.1 25.1-3.2 37.7-.3 4.1 1.5 5.9 5.6 5.6 4.3-.3 8.5-.2 12.8 1.4 16 6.1 21.3 20.2 25.9 34.6 1.8 5.7 4 11.8 3.6 18-1.2 21.6-15.7 34.3-31.8 45.5-6.2 4.3-13.3 6.8-20.6 8.8-3.9 1-5.8 3.5-6.2 7.9-.6 7.2.4 14.3.3 21.4-.2 8.4.6 8.9 8.9 9.4.8 0 1.7 0 2.5.1 24.1.8 48.2-1 72.4-.8 21.2.2 42.2 1.1 63.3 3 4.8.4 6.9-.9 6.4-5.6-.2-3.5-.1-7 .5-10.5 1.6-14.6 1-29.2 1.3-43.8.1-17.1 1.6-33.9 3.1-51.7M329.6 669.3c-15.1 1.7-30.4 2.3-45.5 4.1-19.4 2.3-38.9 2.4-58.3 4.8-3.1.4-4.6 1.8-4.6 4.7-.2 9.8-.5 19.6-.3 29.4.3 10.3 1.9 20.6 1.6 30.9-.6 24.1-.8 48.2 1.4 72.3.6 6.7.7 6.7 7.5 5.8 14.8-1.9 29.7-4.7 44.6-5.2 24-.8 47.9-2.9 71.8-4.4 9.8-.6 19.6-1.3 29.3-2.7 2.4-.3 3.8-.8 3.8-3.9 0-20.9-2.6-41.7-1.8-62.7.8-18.9-2.9-37.8-2.5-56.7.1-5.5-.4-11 0-16.5s-2.6-6.4-6.7-5.8c-13.2 1.9-26.5 3.1-40.3 5.9m215.9 117.3c-1.1-7.5-2.3-15-3.2-22.6q-1.2-8.7-1.5-17.4c-.2-14.5-3.5-28.7-3.1-43.2.4-12.5 1.1-24.9 2.5-37.3 1.1-9.5-.7-11.5-10.2-11.8h-1.5c-9.1.2-18.2-.2-27.4.3-9.8.5-19.6.9-29.2 2.5-20.4 3.4-40.8 6-61.5 5.3-7.6-.2-15.3.2-22.9.4-2.8.1-5.8 1-5.4 4.5 1 7.6-.2 15.2.2 22.8.8 13.6 1.7 27.2 2.2 40.8.3 7.1-.5 14.3-.2 21.4.8 16.3.7 32.6 2 48.8.6 7 1.2 6.9 7.7 6.3 8.8-.8 17.5-2.2 26.3-2.5 12.6-.6 25.2-1.8 37.7-3.8 26.9-4.4 54.3-5.6 81.5-3.7 6.6.5 7.7-.8 6.2-7.1 0-1.1-.2-2.4-.2-3.7m-343.4-107c-1.4.4-2.9.6-4.4.8-14.6.2-29.1 3.2-43.7 3.9-15.2.7-30.5 1.5-45.7 1.9-10.3.2-20.6 1-30.8 2.2-4.2.5-5.5 2.6-5.6 6.6-.1 7.5-.5 15-1.2 22.4-2.5 23.9-3 47.8-2.5 71.7.2 12.9.1 25.8-.1 38.6 0 3.2 1.1 4.5 4 4 5.8-1 11.7-.1 17.4-.8 19.5-2.2 39.1-3.6 58.6-4.6 20.2-1 40.5-2.5 60.8-2.3 2 0 4-.5 5.9-.7 2.7-.2 3.9-1.6 3.5-4.3-1.1-7.9-.9-15.9-1.3-23.9-.6-16-.7-31.9.1-47.8.4-7.1.6-14.3-.6-21.4-1.9-11.8-2.2-23.9-.8-35.8 1-10-1.1-12.5-11-11.1-.5.2-1.2.4-2.6.6m339.2-362.9c-9.1 1.6-18.3.4-27.4 1.2-13.6 1.3-27.2 2-40.8 2.4s-27.3.1-40.9.3c-12.5.1-25 .7-37.5.7-4.7 0-6.3 1.9-6.1 6.2.5 7.5-1.2 14.9-1.8 22.3-.9 13.1-3.1 26.1-2.9 39.3.2 15.7.6 31.5.9 47.2.1 6.8.4 13.6.5 20.5.1 4 1.4 6.9 5.9 7.1 6.3.2 12.6.2 18.8-1.7 3.6-1.1 7.3-2.3 11.2-2.3 22.4 0 44.8.1 67 3 5.5.8 11 .6 16.4-.4 10.9-2.2 21.9-4.2 33.1-3.6 2 .1 3.9-.6 5.9-.9 4-.7 5.9-3.3 5.4-7.1-.9-7.8-.4-15.6-.5-23.5-.1-3.6-1.8-5.1-5.3-4.9-2.8.2-6.1.8-8.3-.9-3.9-3.2-8.5-3.3-13-4.3-12.5-2.9-19.3-12.4-17.6-25.2.9-7.3 3.9-14.1 7.6-20.4 3.3-5.6 7-10.9 10.2-16.5 4.6-7.9 9.9-15 18.4-19 8.7-4.2 8.6-4.2 7.9-13.6-.3-4.2-1.9-6.5-7.1-5.9m-159.7 27c0-5.1.7-10.2.2-15.4-.6-6.4-.8-6.9-6.9-6.9-8.2.1-16.3.6-24.5.6-18.6 0-37.1 1.7-55.6 2-16.6.3-33.2 1.6-49.9 1.4-1.8 0-3.7-.2-5.5-.1-2.2 0-3.5 1.3-3.2 3.5.7 6.9-.5 13.6-1.1 20.4-3.3 34.8-1.3 69.9-5.8 104.6-.4 2.8.9 4 3.6 4 6.1 0 12.2.5 18.4 1 20.7 1.5 41.5.7 62.3 1.9 18.7 1.1 37.5.9 56.3 1.4 9.7.3 9.9.4 10.1-10 .3-12.1-.7-24.3-1.4-36.4-.7-12.5-.4-24.9 0-37.4.3-11.3 1.9-22.5 3-34.6M151.7 464.3c8.7-.2 17.3-3 25.7-2.7 14.1.5 28.2-.6 42-3.2 3.5-.7 4.5-2.5 5.1-5.6 2.5-12.7 1.1-25.5 2-38.2 1.1-16.3 2.1-32.5 2.6-48.8.3-12.4 2.6-24.8.6-37.3-.4-2.7-1.5-3.8-4.1-3.8-12.1.4-24.3-.7-36.4-1-11.5-.3-23-.1-34.4.4-8.3.4-16.6.2-24.9 1.1-11.5 1.2-22.8 4.2-34.4 3.7-1.3.1-2.6.3-3.9.7-3.4.4-4.6 2-4.6 5.6-.1 17.4-.4 34.8-1.2 52.2-.4 10.2-1.3 20.5-2.2 30.7-.7 8.8-.5 17.6-1.3 26.4-1 10.2-.2 20.5-.2 30.4 1.4.8 3.1.9 4.5.2 11.9-4.8 24.8-4.4 37.1-7 8.9-2.1 18.2-.7 28-3.8m408.9 185.3c8.1-.3 16.3-.5 24.4-1 12.3-.7 24.5-2 36.8-2.4 13.1-.4 26.3-.2 39.5 0 4.5.1 6.2-2.3 5.8-6.1-.9-7.7-.5-15.3-.4-23 0-3.7-1.5-5.3-5.2-6-14.9-2.7-22.1-10.3-25.1-25.2-1-4.9 0-10-2.3-14.7-1.8-3.6-1.8-7.4-1.2-11.2 2.4-16.5 9.9-31 19-44.6 4.7-7 11-13.2 19.8-15.2 4.3-1 6-3.3 6.3-7.6.7-11.4 1.7-22.9 2.5-34.3.3-4.3-1.8-6-6-5.8-15.5.6-30.9 1.7-46.3 2.9-19.7 1.5-39.5 2.2-58.8 6.9-12.5 3-12.7 2.6-12.5 15.5.4 18.3-.4 36.6-2.4 54.8-1 8.7-1.9 17.5-2.9 26.2-1.9 17-4.7 34-3.2 51.2.7 8.6.8 17.3.1 26-1.1 12.4-.5 12.7 12.1 13.6m128.2-284.9c-.2 24.4.9 48.8-.7 73.2-.4 5.7 1.7 7.7 7.6 8 15.5.7 30.9-1.2 46.4-2.2 8-.5 16-.3 23.9-1.4 17-2.2 34-3.5 51.1-1.7 5 .5 10.1 1.5 15.4.7s6-3.4 6-7.8c-.1-8.1 0-16.2.3-24.4 1.1-23.6 3.3-47.2 3.8-70.9.1-5 0-10-.4-15-.2-2.7-1-5.3-4.5-5.7s-7.3-1.2-10.9-1.1c-17.8.3-35.5-1.8-53.2-2.9-25.6-1.6-51.2.7-76.8.8-3.5 0-4.8 1.6-4.2 5.1.3 1.8 1.1 3.4.6 5.4-3.1 13.1-4.6 26.5-4.4 39.9M667.2 779c-3.1-16.4-1.3-32.8-1.1-49.3.3-22.8 1-45.6 1.4-68.4.1-7.5-1.9-9.9-9.1-8.6-8.3 1.5-16.5-.3-24.8.3-13.4 1-26.9.5-40.4 1.8-12.5 1.2-25.2 2.2-37.9 1.1-6.5-.6-8.2.7-8.6 6.9-1.4 22.1-3.5 44.2-.8 66.3 1.1 8.6.9 17.2 1.4 25.9.7 11.9 3.1 23.7 4.7 35.5.9 6.8 1.3 7.2 8 7.3 22.3.3 44.6.9 66.9-.9 12.2-1 24.5-2.4 36.8-1.1 3.4.4 5-.9 4.6-4.5s-.6-7.6-1.1-12.3m-99.5-363.2c-1.7.6-3.5 1.2-5.2 1.7-4.6 1.4-7.1 4.2-7.3 9.3-.4 8.5-.2 17 .7 25.4.3 3.1 2.5 4.7 5.6 4.4 3.7-.2 7.3-.7 10.9-1.3 10.9-2.2 21.8-4.9 32.9-5.3 23.6-.9 47-5.1 70.8-4.1 3.5.1 5.4-1.8 5.4-5.1-.2-14.5 1.4-28.9.7-43.4-.9-17-2-34.2 1-51.2 1.6-9 .7-18.2 3-27.2.8-3.3-1.8-4.7-4.5-4.3-7.3.9-14.6.7-21.9 1.1q-12.45.9-24.9.3c-6.6-.4-13.3-.9-19.9-.4-16.3 1.1-32.6.8-48.9.7-10 0-11.4 1-11.2 10.7.1 3.6 1.5 5.6 5 6.3 2.5.5 4.5 2.1 6.7 3.2 7.3 3.5 10.5 11 16.2 16 7.5 6.4 12.9 15 15.5 24.5 2.3 8.6.7 16.5-4.9 22.9-6.7 7.6-15.9 11.7-25.7 15.8M336 218.7c7.1-18.7 15.8-36.3 24.7-53.7 1.2-2 1.8-4.3 1.8-6.6-.2-1.4.3-2.7 1.2-3.7 10.1-9 12.5-22 17.7-33.5 4.1-9.1 8-18.2 12.3-27.2 3.5-7.4 5.9-15.2 8.7-22.8 4-10.7 11.1-19.6 17.7-28.7 1.9-2.5 5.3-1.6 7.1 2.1 2.4 4.6 3.7 9.7 3.9 14.8.4 22.6 1.9 45.1 4.5 67.6 1.6 13.9 4.2 27.6 7.7 41.1 2.1 8.2 3 16.6 5.1 24.8.8 3.1 1.8 6.6-1.1 9.4-2.4 2.3-4.2 2.4-5.3-1.3-1.3-4.5-.9-9.2-1.7-13.8-2.1-12.5-6.2-24.4-8.6-36.8-.9-4.7-1.7-9.4-2.6-14.9-9 2.9-17.6 5.6-26.2 8.5-9.2 3.4-18.1 7.4-26.7 12.2-2.5 1.3-4.5 2.6-5.7 5.2-7.7 16.2-15.5 32.4-23.1 48.7-1.6 3.4-2.4 7.3-4.1 10.7-1 1.9-2.5 4.6-5.2 3.8-2-.8-2.9-3.1-2.1-5.9m66.7-127.1c-8.3 18-17.1 35.9-24.9 55.7 17.5-7.3 33.4-14.8 51.5-16.1-2.4-25.5-4.1-50.8-5.8-76.2-10.2 10.3-15 23.3-20.8 36.6m236.9 20.6c11.5 2 14.7.1 18.1-10.5 2.1-6.7 6.3-12.5 8-19.3.6-2.4 1.4-4.7 1.3-7.5-11-.4-21.7-1.1-32.3-3.1-3.8-.7-7.8.9-11.6 2.4-1.7.7-4.3 1.9-5.1-.8-.5-1.9.4-4.1 2.7-5.3 6.7-3.6 13.4-4.3 21.1-2.7 8.5 1.7 17.3 3.2 26.2 1.8 5.5-.8 7.3 1.1 6.8 6.5-.6 7.7-2.9 15.1-6.8 21.7-2.5 4.1-3.8 8.8-5.6 13.4 3.2 2.5 7.3.9 10.5 2.8 1.2.8 2.8.9 3.8 2.2.7 1 1.5 1.9 1 3.2s-1.8 1.4-2.9 1.4c-3.3-.1-6.6-.3-9.9-.7-4.5-.6-7.8.7-9.4 5.3-2.2 6.3-5.6 12-7.4 18.5-1 3.4-1.2 6.5.3 9.7 1.3 2.8 2.1 5.8-1.6 7.1-3.9 1.3-5.4-2.1-6.2-4.9-2.1-7.2.6-13.8 3.2-20.3 1.6-4 4.4-7.4 5.2-12-3.5-1.4-7.1-.1-10.4-1.4-2.3-.9-4.8-1.4-4.6-4.3 0-3.3 2.7-3.4 5.6-3.2M524 198.4c.6-1.5 1-3.1 1.2-4.7.2-2.8-1.5-4.7-3.4-6.3s-4.2-.6-6 .6c-4.8 3.1-8.6 7.4-11.2 12.4-3.1 6.1-5.7 12.4-8.6 18.5-1 2.3-2.2 5.2-5.1 4.3-3.6-1.1-2.7-4.6-2-7.2.6-2.2 1.9-4.3 2.6-6.4 1.3-3.5 1.4-7.7-2.1-9.3-3.7-1.7-7 1.2-8.7 4.7-3 6-5.5 12.1-5.1 19.1.1 2-.1 4-.4 6-.4 3.3-2.3 5.4-5.6 5.1s-3.7-3-3.6-6c.3-7.7 3.1-14.9 3.6-22.6.1-2.6 0-5.3-.2-7.9-.2-4 1.8-5.4 5.2-3.8 2.7 1.3 4.5.8 6.9-.6 4.6-2.8 9.3-2.4 13.6.6 3 2.1 4.8 1.5 6.9-1.4 3.5-4.9 7.8-9.1 13.3-11.9 4-2 8-2.7 11.7.3 3.8 2.7 5.6 7.4 4.6 11.9-.6 3.4-1.8 6.8-3.5 9.8-1.4 2.4-2.6 5-3.8 7.1.3 2.9 4.8 2.9 3.2 6-1.2 2.4-3.6 3.3-6.2 3.6-4.6.5-7-2.6-5.1-6.9 2.4-4.9 5.1-9.7 7.8-15m342.4 38.1c3.8 3.1 3.2 6-1.7 9.1-4.4 2.7-8.8 5.4-12.2 10 3.8 5.2 7.5 10.4 14.5 11.7 2.5.5 4.3 1.9 4.7 4.5s-1.7 3.8-3.2 5.3c-2 2-3.5.1-5.3-.7-6-2.8-10.8-7.1-15.1-12-3-3.4-5.1-4.1-8.7-.2-4 4.4-9 7.8-13.8 11.5-2.2 1.7-4.8 2-7.7.6 1.5-3.8 4-7.1 7.3-9.6 3-2.4 6-4.7 9-7.1 3.9-3.2 3.8-5.1-.4-8.1-2.2-1.4-4.3-3.2-6.1-5.1-2.2-2.6-3-5.5-.2-7.9 3-2.5 5.4.1 7.1 2.2s3.9 3.6 5.6 5.6c2.7 3.2 5.2 4 8.6.7s7.4-6.2 11-9.3c1.9-1.7 3.8-3 6.6-1.2M94.7 279.3c1.6 2.3 2.6 4.4 0 6.6-3.4-1.6-6.5-3.8-9.3-6.4-3.9-3.8-8.7-6.2-13-9.2-2.2-1.5-4.1-1.5-6 .8-4.7 5.8-9.9 11.2-13.5 17.8-.4.7-.8 1.5-1.3 2.1-1.2 1.7-3.6 2.1-5.4.9-2.2-1.3-1.4-3.2-.2-4.7 4.7-6 9.5-12 14.2-18 1-1.3 2.5-2.2 2.7-4.4-2.9-2.5-6.8-3.7-10.2-5.7q-2.4-1.35-4.5-3c-1.5-1.3-2-3.1-.6-4.9s2.8-1.2 4.4-.3c3.4 1.8 6.8 3.5 10.2 5.2 5.4 2.7 10.8.2 11-5.8.2-5.3 3.9-8 6.4-11.6.8-1.2 2.3-1.6 3.6-.9 1.4.6 2.3 2 2.2 3.6-.1 4-1.6 7.9-4.1 11-2.4 3.1-5.4 5.8-7.1 9.6 6.5 6.2 14.8 9.9 20.5 17.3m452.7-90.5c3-2 4.7-6.5 9-4.5 4.5 2.1 5.5 6.1 5.5 10.8 0 5.1 2.2 6.7 7.4 5.6 2.7-.7 5.6-.2 8 1.3.3 2.4-1.2 3.6-2.9 4.2-5.4 1.9-10.8 3.7-16.2.1-1.4-1.1-3.4-.9-4.4.5-1 1.1-2.1 2.1-3.2 3.1-3.1 2.1-6.5 4.4-10 1.5s-4.4-6.9-3-11.3c1.6-5.1 5.6-8.1 10-11.2m-2.2 11c-.4 1.4-1.4 3 .2 4.1s2.7-.4 3.8-1.3c3-2.3 4.5-6.1 3.8-9.8-4 .8-5.6 3.8-7.8 7"/>
  <path d="M570.6 230.3c-2.2 1-4.5 1.9-6.8 2.9-4.7 1.9-7.9.4-10-4.2-1.2-2.6-2-5-.1-7.4.8-1.1 2.2-1.6 3.6-1.3 3.1.9 1.7 3.9 2.6 5.9 1.6 1.3 3.2.8 4.8.1 3.7-1.5 7.2-3.4 10.4-5.9 6.2-5 10.1-10.8 7.5-19.4-1.3-4.4-2.1-9-3.4-13.5-.7-2.3-.5-4 1.9-4.8s3.6.6 4.3 2.8c2.7 7.2 4.1 14.7 4.3 22.4.1 6.5-4.1 11-8.5 15.2-3.1 2.9-6.7 5.3-10.6 7.2m9.4-82.6c.3 3.1-.3 5.2-3.7 4-2.3-.8-3.6 1-5.4 2.1-1.6-2.3-4.4-3.7-3.7-6.8.4-1.8 1.8-3.5 3.8-3.3 3.3.2 7.3-.9 9 4"/>
</svg>
