<?xml version="1.0" encoding="utf-8"?>
<!-- Generator: Adobe Illustrator 24.0.2, SVG Export Plug-In . SVG Version: 6.00 Build 0)  -->
<svg version="1.1" id="Layer_1" xmlns="http://www.w3.org/2000/svg" xmlns:xlink="http://www.w3.org/1999/xlink" x="0px" y="0px"
	 viewBox="0 0 981.7 369.4" style="enable-background:new 0 0 981.7 369.4;" xml:space="preserve">
<path d="M785.8,44.2c-35.8,0-71.3,0.1-106.7,0c-19.3,0-38.6,0.2-57.9,0.4c-20.6,0.3-41.2-0.5-61.8-0.5c-16,0-31.9,0.5-47.9,0.5
	c-24.6,0-49.2-0.4-73.8-0.6c-27.3-0.3-54.6-0.2-81.9-0.5c-58.7-0.6-117.3-0.5-176-0.6c-48.7-0.1-97.3,0-146-0.1
	c-2.9,0-7.8,1.3-7.9-2.7c-0.1-4.6,4.9-2.5,7.6-2.6c41.5-1.6,83-0.6,124.4-0.9c19.1-0.1,38.2,0,57.3,0.1c17.4,0,34.9,0,52.4,0.1
	c47.3,0.3,94.5,0.3,141.8,1.1c22.3,0.4,44.5-0.2,66.8,0.2c40.6,0.6,81.3,0.4,121.9,0.4c61.6,0.1,123.3,0.1,184.9,0.1
	c38.5,0,77,0.1,115.5,0.2c19,0.1,37.9,0.4,56.9,0.7c0.8,0,1.7,0.1,2.5,0.1c2.2,0.1,4.9,0.2,4.7,3.1c-0.1,2.7-2.8,2.5-4.7,2.4
	c-25.3-0.1-50.6-0.1-75.8-0.3c-17.8-0.1-35.7,0.4-53.5-0.3C814.4,44,800.3,44.7,785.8,44.2 M49.2,172.1c1.5-3.5,3.4-6.3,6.3-8
	c3.3-1.9,6.7-2.6,10.2,1.8c-9,0.4-13.7,4.5-12.9,13c0.4,3.7,1.5,4.3,5.4,4.4c-0.6-1.4-1.3-2.8-2.3-4c-0.9-0.9-2.6-1.4-2-3
	s2.4-1.8,3.9-1.6c4.2,0.5,8.4,0,11.7,4.2c2.1,2.7,6.3,1,9.5,0.4c2.4-0.4,2.1-3.1,2.1-5.1c0.4-12.6,0-25.4,1.3-37.9
	c1.5-14,0.2-27.9,0.1-41.8c0-2.9-0.8-5.5-1.5-9.4c5.9,1.3,11.5-3.7,17.4,1.1c-1.8,2.5-1.5,5.2-1.7,7.8c-2,21.6,0.5,43.3-1.1,64.9
	c-1.6,20.9-0.3,42-1.9,62.9c-2.2,28.6,1,57.2,0.2,85.8c-0.1,3.6,0.8,7.3,1.2,10.9c0.2,2.2,1.5,5-2.2,5.4s-3.1-2.7-3-4.5
	c0.4-10-0.4-19.9-0.6-29.9c-0.3-13.6,0.3-27.3-0.5-40.9c-0.3-8,0-15.9,0.8-23.9c0.7-8.6,0.5-17.3,0.5-25.9c0-18.8,2-37.6,1.9-56.3
	c0-15.6-0.6-31.2,0.8-46.7c0.3-3-0.3-5.9-3-8.2c-2.9,1.2-2.8,4.1-2.9,6.3c-0.4,6-0.2,12,0.4,18c0.9,8.1,0.8,16.2-0.3,24.2
	c-1,8.8-0.5,17.6-1.1,26.4c-1.5,19.8-1.3,39.6-1.4,59.4c-0.1,22.3,0,44.5,0.8,66.8c0.4,11.2,0.2,22.5,1.1,33.8
	c0.1,1.5-0.3,3.4-2.1,3.4c-2.3,0-3.6-1.7-3.4-4c1-8.8,0.3-17.6,0.3-26.5c-0.1-20.8-0.7-41.5-0.9-62.3c0-2.5-1-4-3.4-4.8
	c1.3-1.6,3.3-2.1,3.4-4.4c0.4-13.9-0.7-27.9,0.4-42.1c-3.3-0.4-6.7-0.3-10,0.4c-1.4,1.6,1,4.3-1.8,4.9c-2.8,0.5-3.3-2.2-4.5-3.8
	c-0.4,0.1-0.8,0-1,0.1c-2.5,2.7-4.8,6.1-9.2,3.9c-4.3-1.9-6.7-6.5-5.9-11.1C48.4,174.9,48.7,173.5,49.2,172.1 M762.3,88.8
	c-146.8,0-293,0.8-439.3-1.1c2.3-2.8,5.4-2,8-2c38.7,0,77.3,0,116,0.1c40.3,0.1,80.7,0.1,121,0.1c77.1,0,154.3-0.2,231.4-0.1
	c16,0,32-0.9,47.9,1c1,0,1.9,0.3,2.7,0.9C821.1,89.6,792,88.5,762.3,88.8 M941.1,111.8c-0.5-5.2-1.2-10,0.7-14.7
	c0.8-2,0.2-4.3-0.7-6.3c-1.2-2.6,0.3-3.6,2.3-3.9s3.1,0.9,3,3c0.1,0.8,0,1.7-0.1,2.5c-2.1,9-1.1,18.2-1.8,27.3
	c-0.5,5.6,1.3,10.9,1.8,16.3c0.7,9.1,0.9,18.2,0.5,27.4c-0.3,11.2-0.2,22.3-0.4,33.5c0,2.4,0.2,4.9-1.6,7.6
	c-3.2-9.8-3-19.2-2.2-28.7c1-12.8,0.6-25.6-1.1-38.3C940.2,129.2,939.3,120.7,941.1,111.8 M953.7,119.9c0.8,14.6,1.7,28.7,2.5,42.8
	c0.5,9.6,0.5,19.3,0,28.9c0,2.2-0.8,4.2-2.2,5.8c-0.4-5.2-0.9-9.5-1-13.7c-0.5-16.9-2.2-33.8-3.3-50.7c-0.7-11.2-0.2-22.5-0.3-33.8
	c0-3.1,0.8-6.3-0.2-9.4c-0.7-2.1-0.3-3.9,2.2-4c2.2,0,3.2,1.6,3,3.7C953.4,99.5,954.9,109.5,953.7,119.9"/>
<path d="M50.2,143.8c0.8-5.7,1.1-11.4,0.9-17.1c-1.3-1.1-3.7,0.9-4.1-1.7c-0.3-1.7,1.2-2.6,2.2-3.6c2.7-2.5,6.3-3.9,10-3.8
	c3.1-0.1,6.2,0.4,7.6,3.6c1.3,3-1.9,4.2-3.7,6.1c3,1.6,5.8,3.6,8.3,6c-2.7,5.9-7.3,8.9-13.9,8.8c-1.3,0-2.6,0.6-3.4,1.7
	C53.1,144.7,51.8,145.8,50.2,143.8 M56.2,136.6c2.5,1.5,5.6,1.2,7.8-0.7c0.8-0.5,1-1.6,0.5-2.4c-0.1-0.1-0.1-0.2-0.2-0.2
	c-2-2.4-4.7-1.9-7.3-1.6c-0.4,0.1-0.8,0.3-1.1,0.5C55.9,133.7,56,135.1,56.2,136.6 M402.1,179.5c2.2,0.3,4.1-0.4,5.9,1.1
	c-1.6,1.6-3.5,1.1-5.1,1.1c-12.2,0-24.3,0.4-36.5-0.2c-6.7-0.3-11.2,1.9-14.2,8.1c2.1,1.5,4.4,0.6,6.5,0.3c1.8-0.3,3.6-1,5.4-0.3
	c1.4,0.5,3,1.3,2.6,3.2s-2,1.9-3.5,1.6c-3.3-0.5-6.6-0.4-9.9,0.4c-2.6,0.5-5.2,0-6.6-2.4s0.4-4.5,1.9-6.2c3-3.3,6.7-6,9.2-10.1
	c-3-3.6-5.2-0.9-7.4,0.8c-1.2,0.9-2.1,3.2-3.9,1.3c-1.6-1.7-0.4-3.6,1.1-4.8c2.9-2.2,5.7-5,9.8-3.3c3.8,1.6,5.8,4.4,4.4,9.4
	L402.1,179.5z"/>
<path d="M413.9,189.2c3.9,1.1,7.4-1.1,11,0c0.7,2.8-1.3,3.3-2.9,4c-2.5,1.1-5.2,1-7.9,0.9s-5.7,0.6-7-2.6c-1.1-2.9,1.1-4.8,2.8-6.9
	c2.1-2.9,4.1-5.9,5.9-9c-2.1-2.2-3.5-1.2-5-0.5c-1,0.6-2.3,0.3-3-0.7c0,0,0-0.1-0.1-0.1c-0.8-1.5,0.1-2.5,1.3-3.4
	c3-2.1,6.1-1.5,9-0.2c3.7,1.7,2.1,5.1,2.1,9.1c18.5,0.5,37-0.9,56.2,0.3c-2.1,2.1-4.2,1.8-6,1.8c-14.6-0.2-29.2,0.9-43.8-0.9
	c-6.3-0.8-11,2.7-12.4,8.4 M60.5,275.6c-4.8-0.1-6.5,2.5-7,6.5c-0.2,1.8-0.7,4.1-3.2,3.5s-1.2-2.8-1.1-4.6
	c0.4-7.4,3.8-13.8,6.3-20.4c0.6-1.7,1-3.8,3.4-3.7c1.9,0.2,3.5,1.5,4,3.3c1.7,5.5,5,10.1,8.3,14.6c1.8,2.4,1.4,5.2,0.6,9.6
	C68.3,280.1,67.3,273.7,60.5,275.6 M60.8,266.6c-2.2-0.3-2.2-0.3-2.5,4.1C61.5,270.1,61.5,270.1,60.8,266.6 M57.5,214.4
	c2.1,0.8,3.8,1.5,5.5,2c5.7,1.8,8,6,8.1,11.8c-5.4,3-10.3,7.6-16.2,10.6c-1.2,0.6-2.2,1.7-3.5,1c-1.7-0.9-1.4-2.5-1.2-4
	c1.1-5.6,1.1-11.2,0.3-16.8c-0.5-3.2-4.7-4-3.9-8.2C50.4,211.2,53.7,213.1,57.5,214.4 M55.5,225.4c0.4,2.5-0.8,5.2,0.9,7.8
	c4.4-1.8,9.2-4.3,8.8-8.9c-0.4-4.4-5.9-4.8-10.2-6C55.3,220.7,55.4,222.6,55.5,225.4 M61.5,335.8l-4.9,0.6c-4.1,0.5-5.7-0.7-5.9-5.4
	c-0.2-5.6,0.8-11.3-0.5-16.8c-0.5-2.2,0.6-3.4,2.6-4.2c4.2-1.5,8.6-2.6,13-3.2c1.4-0.2,3-0.2,3.2,1.5s-1.1,2.7-2.8,2.7
	c-2.8,0-5.6,0.5-8.3,1.3c-2.2,0.6-2.8,2.4-2.3,4.3c0.5,2.5,2.3,1.9,3.9,1.2c2.1-1,3.4-0.5,4.3,2c-2.1,1.2-3.9,2.7-6,3.4
	c-2.8,1-3.5,2.6-3,5.3c0.6,3.1,2.8,3.2,5.3,3.1c4.2-0.1,8.5,0,13.8,0C70.5,337,65.6,334.7,61.5,335.8 M511.7,323.8
	c-0.5,6.5-5.1,11.1-10.7,11.2c-6.2,0.1-10.4-3.9-11.1-10.4c-1-8.4,5-16.1,13.4-17.2c2.6-0.4,4.8,0,5.3,3
	C509.5,314.8,511.5,318.9,511.7,323.8 M502.1,330.9c3.3-0.8,5.8-3.3,5.5-6.2c-0.3-3.9-1.1-8.2-4.3-11.2c-0.7-0.8-1.7-1.1-2.7-0.8
	c-3.8,1-6.4,6.1-6.1,11.9C494.7,329.1,497,331.2,502.1,330.9 M131.3,260.4c5.7,3.8,4.4,11.6,0.3,16.3c-1.8,2.1-3.4,4.4-5.3,6.8
	c6.5,1.5,12.8-2.9,18.7,0.4c0,0.8,0,1.4-0.1,1.4c-7.2,3.4-15.1,3-22.7,3.4c-2.9,0.1-2.5-3.4-1.1-5.5c1.9-2.9,4.1-5.6,6.1-8.5
	c1-1.3,1.9-2.7,2.6-4.2c0.8-2,1.6-4.3-0.8-5.8c-2.1-1.3-4.1-0.6-5.9,1c-1.2,1.1-2.6,3.4-4.4,1.3c-1.6-1.9,0.7-3.2,1.8-4.5
	C123.4,259.2,127,259,131.3,260.4 M745.6,321.2c-4,5-8.4,8.4-15,8c-4-0.2-6.5-2.2-8.3-5.4c-1.6-2.7-1.2-6.1,1-8.3
	c2.8-3.1,3.2-8,8.2-9.4c5.8-1.7,12.6,1.2,14,7.2C746,315.6,747.4,318.3,745.6,321.2 M726.5,318.4c-0.9,2.2-1.2,4.5,1.3,5.6
	c3.2,1.4,6.9,1.2,10-0.6c3-1.7,4.6-5.1,4.1-8.5c-0.2-2.7-2.1-5.2-4.8-4.4C733,311.7,728.1,312.4,726.5,318.4 M441,227.5
	c-1.5,0.3-3.1,0.5-4.7,0.4c-6.4-0.4-11.8,0.1-16.9,5.6c-5.8,6.3-12.2,5.6-15.9,0.5c-4.5-6.4-0.4-16.4,7.4-18.4
	c7.5-1.8,9.8-0.9,12.5,6.5c1.3,3.6,3.2,4.8,7,4.6C434.1,226.5,437.8,225.8,441,227.5 M415.8,226.6c1.8-0.4,4.6,0.8,4.9-2.1
	c0.3-2.3-1-4.4-3.1-5.2c-2.3-0.8-10.1,2.9-11.1,5.3c-1,2.6-1.5,5.2,0.6,7.5s4.9,1.9,7.4,0.6c1.8-0.9,3.9-1.6,4.8-4.2l-8.8-0.9V227
	L415.8,226.6z M63.7,97.5c-7.3,0.2-14.2-5.6-13.8-11.1c0.3-4.7,7.5-12,11.5-11.7c4.3,0.4,6.6,4.6,6.4,11.8c-1.8,0.7-3.6,1.4-5.4,2.2
	c-1.6,0.7-3.7,0.2-5,2.2c4.7,4.6,9.5-0.6,14.8,0.1C70.4,95,67.2,96.1,63.7,97.5 M61.1,84.2c1.4-1,2.5-2.3,1.4-4.1
	c-0.5-0.9-1.6-1.1-2.4-0.7L60,79.5c-2,1.2-4.2,2.4-3.9,5.2C57.8,85.8,59.1,84.9,61.1,84.2 M625.6,128.6c1.9,4.2,0.7,7.4-1.8,10.4
	c-1.8,2.1-3.6,4.3-5.8,6.9l7.2,1.4c2.2,0.4,4.7,0.3,5.6,4.2c-6.3,0-12.4,0.3-18-1.8c-2.5-0.9-1.7-3.1,0-4.8c2.1-2.1,4.1-4.4,6.1-6.6
	c1.2-1.2,2-2.7,2.2-4.4c0.2-2,0.8-4.4-1.4-5.3c-1.9-0.8-3.5,0.8-4.5,2.4c-2,3.3-4.9,4-9.8,3.2c3.6-1.4,4.6-3.6,5.9-5.6
	C615.9,122,621.2,121.9,625.6,128.6 M220.6,226.3c-0.9,8.1-3.7,12.3-8.9,13.2c-4.5,0.7-8.6,0-11.1-4.6c-2.5-4.8-1.8-10.7,1.9-14.6
	C209,213.5,217.2,216.1,220.6,226.3 M208.8,235.5c5-1.1,8.3-6,6.8-10.6c-1.1-3.3-3.8-4.6-7.1-3.3s-3.9,4.6-4.1,7.8
	C204.2,232.2,204.6,234.7,208.8,235.5 M234.3,87.9c-22.2-0.2-43.9,0.6-65.5-0.3V85c26.6-0.4,53.1-0.8,79.8,1.6
	C244.1,88.3,239.4,87.7,234.3,87.9 M413.5,138.9c-1.3,2.1-3,3.6-2.8,6.1c4.3,2,10-1.5,13.9,3c-3.2,2.5-15.6,3-18.1,0.9
	c-2-1.6-1.8-3.4-0.6-5.3c2.3-3.6,4.7-7.2,7.1-10.7c1-1.4,1.7-2.6,0.2-3.9c-1.5-1.3-2.8-0.3-3.8,0.8s-1.9,3.3-4.6,3
	c-2-4.4,1.6-7.5,4.3-8.4c8.6-2.9,10,3.9,11.4,10.3C417.5,135,415,136.6,413.5,138.9 M628.3,217.5c2.2,2.7,4.4,5,5.8,7.8
	c2,4-0.3,7.4-2.6,10.5c-3.1,4.2-9.8,5.2-13.4,2.4c-4.2-3.5-5-9.6-1.9-14.1C619.2,220.3,621.5,215.1,628.3,217.5 M622.3,235.3
	c3.1,0.5,6.1-1.2,7.2-4.1c1.2-2.7-0.2-5.5-1.5-7.9c-0.9-1.7-2.6-3.1-4.9-1.5C619.4,224.5,618.5,231.7,622.3,235.3 M295.6,280.1
	c-1.8,3.1-0.9,4.5,2.2,4.3c2.5-0.3,4.9-0.7,7.4-1.2c1.9-0.4,3.6-0.6,4.7,1.4c-3.2,3.4-13.7,5.3-17.5,3.1c-2.9-1.6-4.1-3.9-2.1-7
	s4-6.1,5.9-9.3c1-1.6,1.8-3.4,0.3-5s-3.3-1-5,0.2c-1,0.8-2.1,1.7-3.9,0.7c-0.5-3.1,1.2-4.7,3.8-6c3.7-1.8,6.5,0.2,9.1,2.3
	c2,1.7,2.5,4.6,1.1,6.8C299.8,273.7,297.7,276.7,295.6,280.1 M801.9,144.7c2.2-3.2,4.3-6,6.2-8.9c1-1.6,1.6-3.4,0.3-5.1
	c-1.5-2-3.2-1-4.8,0c-1.2,0.8-2.5,1.2-3.4-0.4c-0.9-1.6,0.1-2.4,1.2-3.4c3-2.7,6.1-3.3,9.4-0.7s4.8,5.7,2.4,10
	c-1.6,2.8-4.4,4.9-5.2,8.5c2.9,1.2,5.4-0.4,8-0.3c2.1,0.1,4.4,0.5,4.3,3c0,3.2-2.6,1.4-4.1,1.5c-3.3,0.3-6.6,0.8-9.9,0.8
	C803.2,149.9,800.2,149.5,801.9,144.7 M815.2,219.2c4.3,10.9-0.7,18.3-11.1,16.9c-6.5-0.9-9.1-6.2-6.1-12c1.8-3.5,4.8-5.9,7.9-8.1
	C810,212.9,812.4,216.6,815.2,219.2 M809.7,220.5c-1.7,0.1-3.3,0.6-4.7,1.4c-2.7,1.8-2.8,5-3.7,7.7c-0.4,1.3,1.9,2.7,3.6,2.8
	c2.9,0.1,5.9-0.6,7.2-3.5S814.2,222.6,809.7,220.5 M566.7,238.9c-7.3-3-10.1-8.4-7.3-13.5c3-5.4,7.7-8,12-6.4
	c4.7,1.7,8.2,7.7,7.4,12.9C578.3,235.8,573.1,238.9,566.7,238.9 M572.4,224.4c-2.3-2-4.8-2.8-6.8,0c-1.7,2.4-4.2,5.2-1.6,8.4
	c2.1,2.6,5.1,2.5,7.7,1.3C576.5,231.8,574.6,228.3,572.4,224.4 M362.3,133.8c-2.9,2.3-5.7,4.6-6.7,8.8c2.9,0.4,5.9,0.5,8.8,0.2
	c1.6-0.1,3.7,0.1,3.7,2.3c0,1.8-1.7,2-3.4,2.1c-2.8,0.1-5.6,0.7-8.4,0.7c-5.6-0.1-7.8-4-4.6-8.7c1.5-2.3,2.9-4.8,5.1-6.7
	c1.2-1,2.5-2.4,1.7-4.4c-3.3-2.2-5,3-8.3,1.9c-1-2.8,0.9-4.1,3-5.2c3-1.6,6.1-1.8,9,0.1c2.3,1.5,1.5,3.7,0.9,5.8l-0.7,2.8
	L362.3,133.8z M202.6,142.3c4.5-3.1,6.6-7.8,9.9-11.5c0.8-0.9,1.6-2.3,0.4-3.6s-2.4-0.9-3.7-0.2c-0.7,0.4-1.4,0.9-2.1,1.3
	c-0.9,0.5-1.9,0.8-2.7-0.2c-0.9-1.1-0.4-2.1,0.4-3.1c2.6-3,7-3.6,10.3-1.5c3.8,2.8,4.2,5.8,1.3,9.9c-1.2,1.6-2.7,3-3.9,4.5
	c-1.1,1.4-2.1,3-3.3,4.8c3,1.8,7.9-0.4,9.1,4.4C211,149.9,204,147.9,202.6,142.3 M622.6,188.9c-3.8,2.6-5.6,1.8-4.8-2.6
	c0.8-4.6-1.2-5.4-5.3-4.9c-10.4,1.1-20.9,0.4-31.4,0.4c-1.5,0-2.9-0.7-3.7-1.9c11.6-0.9,22.4-1.8,33.3-0.7c4.1,0.4,6.1-0.3,5.7-4.7
	c-0.2-1.8-0.2-4.3,2.2-4.4c2.6-0.1,2.7,2.4,2.8,4.4C621.8,179.2,623.7,183.8,622.6,188.9 M569.6,133.1c0.5-1.5,0.8-2.8-0.3-3.5
	c-1.4-0.9-2.6,0.1-3.5,1.1c-1.2,1.3-2.3,2.1-3.8,0.6s-0.1-2.8,0.7-3.9c2.4-3.3,5.8-3.9,9.1-1.5c3.6,2.7,4.5,6.7,2.2,9.8
	c-2.1,2.8-4.2,5.4-6.6,8.5c2.8,1,5.5-0.6,8,0.5c1.2,0.5,2.8,0.8,2.5,2.6c-0.1,1.3-1.2,2.3-2.5,2.2h-0.3c-3-0.7-6-0.1-8.9-0.3
	c-1.7-0.1-3.2-1.1-3.9-2.6c-0.9-1.9,0.3-3.1,1.5-4.3C566.1,139.5,568.3,136.9,569.6,133.1 M356.6,236.3c-3.7,1.7-6.8,1.8-9.2-1.4
	c-2.4-3.2-4.3-6.7-2.3-10.9c0.4-0.9,0.8-1.9,1.3-2.7c1.8-2.8,3.6-6.4,7.5-5.4c4.1,1,7.8,3.6,8.3,8.3
	C362.7,228.9,361.7,233.4,356.6,236.3 M357.3,222.1c-4.7-1.2-7.8,0.7-8.4,5.2c-0.3,2.6,0.4,4.8,2.8,5.8c2,0.8,4.4-0.1,5.2-2.2
	c0-0.1,0.1-0.2,0.1-0.3C358,228.1,359.3,225.4,357.3,222.1 M214.5,177.4c-0.9,1.9,1.3,2.2,1.8,3.7c-4.2,0.5-6.6,2.5-7.1,6.6
	c2.4,2.1,6.2-0.6,8.1,2.6c-2.1,3.3-10.9,4.2-13.3,1.4c-0.8-1-1.4-2.3-0.7-3.2c2.5-2.9,1.2-7.7,5-10c0.9-0.5,1.3-1.6,1-2.6
	c-0.5-1.3-1.6-1.5-2.9-1.2c-1.1,0.2-2.2,1-3.5-0.2c-0.1-2.9,1.6-4.4,4.4-4.5C211.2,169.8,214.1,173,214.5,177.4 M803.1,181.2
	c-11.6-0.3-22.9,0.2-34.7-0.7c1.5-2.2,3.3-1.7,4.7-1.7c8.7-0.1,17.3-0.3,25.9-0.1c3.9,0.1,5.6-1,5.2-5.1c-0.2-1.7-0.3-4.1,2.4-4
	s2.5,2.2,2.3,4.1c-0.4,3.6,1,7,0.7,10.7c-0.2,2-0.1,3.9-2.3,4.1c-2.5,0.2-3.3-1.8-3.1-4.1C804.2,183.4,804.7,182.2,803.1,181.2
	 M571.2,185.6c1.5,2.4,1.3,4.6-1,5.3c-2.9,0.9-2.8-1.8-3.4-3.6c-1.5-4.7-0.8-9.6-1.5-14.3c-0.2-1.7,0.5-2.5,2.2-2.6s2.4,0.9,2.5,2.4
	C570.3,177,570.7,181.1,571.2,185.6"/>
<path d="M362.3,133.8c12.5-2.2,24.9-1.2,37.2,0.2c-12.2,1.3-24.4,1.8-36.9,0L362.3,133.8z M725.9,179c2.2,0.9,2,1.8,0.1,1.8
	c-7.2,0.1-14.3,0.1-21.5-0.4C711.5,178.4,718.5,178.7,725.9,179 M656.2,180.9h-15.7c5.9-2.1,11.7-2.7,17.9-0.9
	c-0.3,0.3-0.6,0.5-0.9,0.7C657.1,180.8,656.7,180.9,656.2,180.9"/>
</svg>
