<?xml version="1.0" encoding="utf-8"?>
<!-- Generator: Adobe Illustrator 24.0.2, SVG Export Plug-In . SVG Version: 6.00 Build 0)  -->
<svg version="1.1" id="Layer_1" xmlns="http://www.w3.org/2000/svg" xmlns:xlink="http://www.w3.org/1999/xlink" x="0px" y="0px"
	 viewBox="0 0 1059.9 1130" style="enable-background:new 0 0 1059.9 1130;" xml:space="preserve">
<path d="M121,850.1c-2.7-5.7-5.6-11-8-16.5c-2.7-6.1-6.2-11.9-8.6-18.2c-1.5-4.1-4-7.7-6.5-11.2c-2.9-4.2-5.9-8.2-7.6-13
	c-2-5.6-5.6-10.4-7.7-15.9c-0.7-1.6-1.3-3.5-2.1-5.1c-1.2-2.6-2.4-2.8-4.9-1.4c-0.3,0.3-0.7,0.4-1.1,0.5c-0.9,0.2-1.9,0.7-2.5-0.3
	c-0.5-0.9-0.1-2.1,0.9-2.5l0,0c2.7-1.2,3.4-2.9,2.9-5.8c-0.2-1.4,0.9-1.9,1.8-0.8c2.2,2.5,4.3,1.8,7,0.8c4.8-1.6,10.1-1.7,14.4-4.4
	c7.6-4.6,16.3-6.8,24.4-9.9c9.1-3.5,17.4-8.3,26.6-11.2c5.5-1.7,10.9-3.4,16.3-5.3c5.5-2,10.8-4.2,16.3-6c4.6-1.6,9.2-2.7,13.9-3.4
	c3.5-0.6,7.1-1.8,10.4-3.1c6.6-2.4,13.1-4.7,19.8-6.9c7.8-2.5,15.7-4.8,23.7-6.8c4.1-1,8.3-2.2,12.2-4.2c6.6-3.5,13.8-5.8,20.4-9.4
	c1.8-1,3.9-1,4.5-3.6c0.1-0.6,1.4-0.9,2-0.2c1.3,1,2.4,0.5,3.5,0c6.3-2.7,12.7-5.4,19-8.3c8-3.6,15.4-8.3,23.1-12.7
	c8.9-5.1,16.8-11.9,25.8-16.9c4-2.2,7.6-5.2,11.4-8c1.7-1.3,3.5-2.1,5.5-2.9c1.8-0.5,3.2,0.4,2.7,2c-1,4.1,0.8,7.7,2.5,10.9
	c2.8,5.2,5,10.6,7.7,15.9c3.8,7.5,7.1,15.3,11.7,22.3c3.3,5.1,6.6,10.1,9,15.8c2.1,5.1,4.2,10.3,6.9,15.2c1.1,2.2,2.3,4.2,3.7,6.2
	c3.2,4.8,4.3,10.4,6.5,15.7c2.5,6.1,4.6,12.3,7.4,18.3c4.4,9.1,9.6,17.9,12.3,27.7c1.1,3.9,3.3,7.5,5.1,11.1c0.5,1,1.2,2,2.7,2
	c1.6,0.1,2,1.1,1.6,2.4c-0.5,1.7,0.2,3.1,1,4.5c4.7,8.5,9.5,16.8,13.8,25.5c2.9,5.8,4.7,12.1,7.1,18.1c0.9,2.4,1.9,4.8,2.8,7.2
	c0.5,1,1.3,1.8,2.4,2.1c1.6,0.6,2.3,1.7,1.1,3.2c-0.9,1-0.6,1.9-0.2,2.8c4,7.2,5.6,15.5,9,22.9c2.4,5.6,5.3,11.1,7.7,16.7
	c2.6,5.9,5.6,11.7,7.8,17.8c0.9,2.7,2.4,5.1,4.2,7.3c0.6,0.8,1.2,1.6,1.7,2.5c0.5,1,0.8,2.1-0.2,3c-1,0.8-1.9,0.2-2.7-0.4
	c-0.6-0.7-1.6-0.8-2.2-0.3c-10,5.9-20.3,11.2-29.8,17.9c-7.5,5.3-15.6,9.1-24.1,12.4c-7.1,2.7-14.2,5.5-20.8,9.5
	c-9.3,5.6-18.9,10.7-29.1,14.7c-13.3,5.1-26.4,10.8-39,17.3c-5,2.6-10.1,4.9-15.2,7.2c-8.5,3.9-17.2,7.9-26.2,11
	c-5.2,1.8-10.2,4.4-15.2,7.1c-5.7,3.2-11.7,5.9-17.9,8.3c-6.6,2.6-12.5,6.1-18.8,9.3c-6.1,3.2-12.5,5.3-18.8,8c-7,3-14.1,6-20.9,9.5
	c-2.9,1.5-6,2.8-9.1,4.1c-1.3,0.6-2.3,0.1-2.5-1.4c-0.1-0.8,0-1.7-0.7-2.1c-3.7-2.1-4.4-6.4-6.2-9.7c-3-5.3-5.1-10.9-8-16.4
	c-4-7.5-8.5-14.7-11.7-22.5c-2.1-5.2-4.1-10.3-6.4-15.2c-1.7-3.3-2.9-6.7-4.7-9.9c-2.1-4-3.6-8.2-5.4-12.3c-1.8-4-4.1-7.9-5.1-12.1
	c-1.2-5.1-3.5-9.8-4.7-14.9c-0.8-3.6-2.2-7.1-3.5-10.6c-3.4-9.1-7.5-18-12.7-26.2c-3.8-6-8-12-10.3-18.7c-2.3-6.8-5.3-13.4-7.7-20.3
	c-1.9-6.1-5.6-11.5-8.8-17C125.6,858.9,123.4,854.6,121,850.1 M267.5,960.9c-4.4,2.2-8.8,4.4-13.2,6.6c-1.8,0.8-2.2,2-1.5,4.1
	c4.7,11.5,11.8,21.5,17.3,32.5c2.3,4.6,4.9,8.9,6.9,13.5c1.6,3.6,3.4,7.1,5.2,10.8l5.4,11.4c3.7-0.6,6.2-2.5,9.1-3.8
	c4.1-1.6,8.1-3.4,12-5.6c7-3.8,14.2-7.1,21.9-9.6c7.1-2.4,13.8-5.7,20.6-8.7c7.5-3.3,14.9-7.1,22.1-11c10.5-5.6,21.9-9.6,32.9-14.2
	c7-3,13.7-6.3,20.5-9.8c6.5-3.3,12.3-7.7,19-10.5c5.9-2.4,11.9-4.5,17.8-7c2.4-1.1,4.6-2.4,7.1-3.8c-7.3-7.1-12-15.4-16-24.1
	c-3.4-7.2-7.7-14-11.4-21c-3.3-6.1-6.9-12.1-10.4-18.3c-1.3-2.4-1.9-2.7-4.6-1.4c-2.3,1.1-4.5,2.4-6.9,3.4
	c-8.9,3.6-17.8,7.5-26.5,11.7c-1.5,0.7-1.7,1.5-1,2.9c1.5,3.1,2.9,6,4.3,9.1c1.8,4.4,5.1,7.9,6.7,12.2c4.2,11.5,9.9,22.3,14.9,33.5
	c1.5,3.2,3.4,6.3,5.1,9.4c0.7,1.3,0.9,2.8-0.4,3.6c-1.5,0.9-2.1-0.6-2.7-1.7c-0.2-0.6-0.5-1.3-0.8-1.8c-4.8-7.5-7.7-15.9-11.7-23.7
	c-3.9-7.7-5.6-16.4-10.8-23.5c-0.7-1-1.2-2-1.5-3.1c-2-4.2-4-8.3-5.9-12.4c-0.6-1.4-1.3-1.8-2.9-1.2c-6.9,2.3-13.5,5.2-20.1,8
	c-12.1,5.1-24.3,10.5-36.7,15.1c-1.8,0.7-1.9,1.6-0.9,3.2c1.8,2.9,3.5,5.8,5.1,8.9c2.5,4.8,4.9,9.6,7.4,14.4c1.8,3.6,4,7,5.3,10.7
	c2.1,5.9,5.5,11.1,8,16.9c2.1,5,4.7,9.9,7,14.9c0.4,1,0.7,2.3-0.6,2.9c-1.1,0.7-2-0.3-2.7-1.2c-0.9-1.2-1.7-2.5-2.3-3.8
	c-2.5-6.3-5.1-12.4-8.1-18.4c-0.7-1.3-2-2.4-2.3-3.8c-1.4-4.8-3.7-9-5.9-13.4c-4.1-8.8-8.6-17.4-13.6-25.7c-1.7-2.9-2.3-3.3-5.4-1.9
	c-4.3,1.9-8.6,3.5-12.9,5.5C295.5,947.9,281.7,954.2,267.5,960.9 M258,989.7c-2.7-5.7-5.4-11.2-8-16.9c-0.8-1.7-1.6-1.9-3.3-0.9
	c-8.5,5.2-17.3,10-26.4,14.3c-4.1,2-7.9,4.2-11.5,6.9c-3.4,2.5-6.9,5-10.4,7.3c-1,0.7-2.2,0.9-3-0.5c-0.7-1.3-0.1-2.4,1.1-3
	c6.2-3.2,11.4-7.9,17.5-11c10.4-5.3,20.8-10.7,30.9-16.3c1.6-0.9,2.4-1.8,1.3-3.5c-3.2-4.6-4.6-10.1-7-15.1
	c-1.8-3.6-3.3-7.5-5.3-11.1c-3.2-5.8-6.9-11.4-9.2-17.7c-1.8-5.1-3.5-10.2-6-15.1c-1.4-2.6-2.1-3-4.7-1.9c-6.5,2.8-12.9,6-19.4,8.7
	c-8.2,3.4-15.9,8.1-23.6,12.5c-1.3,0.7-2.5,1.8-4.7,1.3c0.7-1.4,1.7-2.5,3-3.4c6.6-3.9,13.3-8,20.3-11.2c7.7-3.5,15.4-7.3,23.1-10.8
	c1.9-0.9,2.4-2,1.3-3.9c-2.3-3.8-5-7.3-7-11.2c-0.7-1.3-1.9-1.2-3.1-0.9c-2.2,0.5-3.9,1.7-5.7,2.8c-6.1,3.8-12.4,2.7-15.5-4.3
	c-1.3-3.2-1.3-6.4-2-9.8c-2-9.4,0.1-17.9,4.6-26c1.4-2.6,1.6-4.5,0.6-7c-2.7-6.9-5.3-13.6-7.9-20.4c-0.5-1.4-1.3-2.2-2.8-1.4
	c-4.5,2.2-9.3,4.1-13.7,6.7c-6.9,4.2-14.2,7.6-21.2,11.8c-4.6,2.8-9.6,4.6-14.6,6.4c-2,0.7-2.5,1.8-1.5,3.8c1.1,2.1,2.3,4.2,3.3,6.4
	c3.3,7.6,8.6,14,11.5,22c2.3,6.3,4.6,12.4,7.3,18.5c1.7,3.9,2.9,8,5,11.6c6.6,11.3,13.9,22.1,18.2,34.6c1.7,4.9,3.5,9.7,5.1,14.6
	c2.3,7.2,4.2,14.5,7.3,21.4c4.2,9.1,8.6,18.2,12.7,27.4c2.6,5.9,4.7,12,7.5,17.7c3.6,7.3,7.8,14.3,11.4,21.5
	c3.6,7.2,7.1,14.5,10.4,21.9c1,1.9,2.3,2.4,3.6,1.3c3-2.3,6.4-3.5,9.8-4.9c7.9-3.4,15.4-7.1,23.4-10c7.7-2.9,14.9-6.9,22.4-10.4
	c1.4-0.6,1.6-1.7,0.7-2.8c-2-2.5-2.9-5.7-4.4-8.4c-4.5-8.7-8.5-17.9-13-26.6C264.1,999.4,261.2,994.5,258,989.7 M216.9,877.1
	c-1.3,2.4-3.2,4.2-5.2,5.9c-1.8,1.5-1.7,2.5-0.6,4.3c1.7,2.6,3.5,5.3,4.8,8.1c1.8,3.9,3,4.6,7,2.8c3.9-1.8,7.7-3.7,11.6-5.2
	c18-6.7,35.5-14.2,52.8-22.5c3.3-1.6,3.5-2.1,2.1-5.6c-4.3-10.4-8.6-20.8-12.9-31.1c-2.8-6.8-6.2-13.2-9.7-19.7
	c-4.2-8.2-7.9-16.7-10.9-25.4c-0.9-2.7-1.7-3-4.3-1.8c-5,2.2-10.2,4.5-15.3,6.7c-13,5.6-26.1,10.9-39.1,16.6c-5,2.2-10.1,4.2-15,6.8
	c-1.5,0.9-1.9,1.7-1.6,3.4c0.3,1.7,1.7,2.8,2.1,4.5c1.5,5.5,4.2,10.6,6.1,16c0.4,1.2,1.3,2.2,2.6,1.7c5.9-1.9,11.1,0.1,16.4,2.6
	c6.7,3,10.4,8.7,11,15.5C219.3,865.8,218.9,871.5,216.9,877.1 M220.5,716.8c-1-0.2-2.1,0.1-3.1,0.5c-2.2,0.9-4.4,2.1-6.7,2.7
	c-5.9,1.4-11.4,4.1-17.5,4.9c-2.4,0.3-4.7,1.2-6.9,2c-11.6,3.9-23,8.5-34.6,12c-1.8,0.6-3.5,1.4-5.3,2.3c-1.6,0.6-1.8,1.6-0.8,2.9
	c1.2,1.6,2.1,3.5,2.6,5.4c1.3,5.2,3.9,9.9,6.3,14.5c4.4,8.3,8.2,17,12.2,25.3c3.6,7.7,7.1,15.4,10.5,23.1c1.3,2.8,1.6,2.9,4.5,1.6
	c8.7-4.2,17.8-7.7,26.5-11.5c13.8-6.1,27.9-11.5,41.4-18.1c3.7-1.8,3.5-1.7,2.3-5.5c-1.1-3.2-2.5-6.3-4.2-9.3
	c-2.4-4.2-4.5-8.7-6.2-13.3c-2.3-6.2-4.9-12.2-8.1-18c-2.2-3.8-4.5-7.5-6.5-11.3C225.3,723.2,223.5,719.8,220.5,716.8 M225.9,915.9
	c1.9,6.4,5.3,12.4,8.6,18.2c2.9,5.1,5.4,10.5,7.5,16c1.8,4.7,4.1,9.3,6.5,13.7c1.1,2,2.2,2.2,4,1c1.2-0.7,2.5-1.4,3.7-2.1
	c7.5-4,15.6-6.8,23.2-10.6c7.6-3.8,15.2-7.5,23-10.8c3.1-1.4,5.9-3.2,9.3-4.3c3.3-1,6.4-2.8,9.7-3.9c1.8-0.5,2.2-1.4,1.5-3.3
	c-1.2-3.2-3.1-5.9-4.4-8.9c-1.7-4.1-4.8-7.3-7.4-10.9c-3-3.9-5.9-7.9-7.8-12.4c-3.1-7.5-6-15.1-9.5-22.5c-1.5-3.1-2.1-3.3-5.1-2
	c-4.4,2.1-8.9,4.2-13.3,6.4c-5.3,2.7-10.8,4.7-16.4,6.9c-7.5,3-15.2,5.9-22.8,9c-4.6,1.8-8.9,4-13.5,6c-2.5,1.1-2.5,3-1.3,5
	C223.2,909.4,224.6,912.6,225.9,915.9 M338.2,848.4c4.9-2.2,9.7-4.4,14.5-6.6c1.8-0.8,2.2-2,1.4-3.8c-1.5-3.2-2.6-6.6-4.3-9.8
	c-0.8-1.4-1.1-3.8-3.6-3.5c-3.3,0.4-6.6,0.4-9.9,1.3c-5,1.4-10.4-1.4-12.4-6.1c-1.3-3-2.4-5.9-2.6-9.3c-0.5-9.3,0.7-18.3,5-26.7
	c0.7-1.5,0.8-2.5,0.2-3.9c-2.9-5.8-6.3-11.4-8.7-17.4c-0.7-1.8-2.1-2.2-3.9-1.4c-3.3,1.4-6.4,2.7-9.7,4c-5.2,2-10.4,4.1-15.6,5.9
	c-9.6,3.4-19.2,6.6-28.3,10.9c-1.5,0.7-2.2,1.8-1.6,3.7c2.3,8.1,5.8,15.5,9.2,23.1c2.1,4.6,5.1,8.7,7.2,13.4
	c2.9,6.6,5.6,13.2,8.4,19.9c1.8,4.4,3.9,8.6,5.2,13.2c1,3.2,2.3,6.2,3.7,9.3c1.2,2.5,1.9,2.7,4.5,1.6c2.7-1.2,5.3-2.5,8-3.7
	c7.8-3.4,15.9-6.1,23.5-9.9C331.4,851.1,334.4,849.6,338.2,848.4 M95.4,794.1c1,2.9,3.3,5.1,5.1,7.4c5.7,7.5,8.8,16.5,13.2,24.8
	c2.6,4.9,4.7,10,7.1,14.9c0.6,1.4,1.4,2,3.1,1.3c7.8-3.2,15.7-6.5,23-10.8c8.3-4.9,16.7-9.3,25.5-13.1c3-1.3,3.1-1.9,1.9-4.9
	c-2.1-5.4-5-10.3-7.2-15.6c-2.9-7.2-6.1-14.1-9.5-21.1c-1.7-3.4-3.2-6.9-5-10.3c-2.3-4.2-4.5-8.5-6-13.1c-1-3.2-2.3-6.2-4.6-8.8
	c-1.1-1.2-1.8-1.4-3.1-0.8c-2.6,1.1-5.1,2.4-7.9,3.4c-8.2,2.8-16.2,6.1-24.1,9.4c-6.7,2.8-13,6.3-20.2,7.7c-3.8,0.7-4.2,1.7-2.6,5.3
	C87.6,777.9,92,785.4,95.4,794.1 M357.6,844.8c-1.9-1-3.6,0-5.3,0.7c-6.7,2.8-13.5,5.7-20.2,8.7c-11.2,5-22.7,9.4-33.9,14.7
	c-2.8,1.4-3,2.1-1.8,4.9c2.4,5.4,4.6,10.9,7.1,16.2c2.7,5.7,4.9,11.6,9.1,16.6c2.1,2.3,3.7,4.9,5.4,7.5c3.2,4.7,5.5,9.8,8,14.9
	c0.7,1.5,1.5,1.9,3.2,1.2c8.5-3.5,16.9-7,25.4-10.4c10.6-4.2,20.9-9.5,31.9-12.9c1.2-0.4,1.6-1.2,1.1-2.2c-1.5-3.2-2.2-6.6-4-9.7
	c-3-5.5-5.9-10.9-8.6-16.6C370,866.9,364.8,855.6,357.6,844.8 M264.6,702.4c-3.1,1.1-6.1,2.5-9.4,3.6c-3.5,1.3-7,2.3-10.8,3.1
	c-6.3,1.2-12.3,3.5-18.4,5.6c-1,0.3-1.4,0.9-0.9,2c2.7,4.7,5,9.6,7.8,14.2c4.9,7.6,8.4,15.9,11.8,24.1c3.2,7.9,7.2,15.3,10.6,23.2
	c0.8,1.7,1.9,2.1,3.6,1.2c8.1-4,16.4-7.3,25-10c9.7-3,18.9-7.1,28.4-11c2.1-0.9,2.3-2.2,1.6-4.2c-3.7-10.8-8.7-21.1-13.9-31.2
	c-4.6-9-8.2-18.6-10.9-28.4c-0.5-2-1.4-2.3-3.2-1.7C279.1,696.1,271.8,699.3,264.6,702.4 M345.4,684.4c3.7,8.1,8.1,15.8,11.3,24.1
	c3.2,8.1,6,16.6,10.1,24.3c2.2,4.1,2.6,4.7,6.7,2.5c3.3-1.8,6.7-3.3,10-4.8c8.1-3.4,16.6-5.9,24.6-9.7c1.6-0.8,3.8-1.1,4.7-2.6
	c1-1.9-1-3.4-1.4-5c-1.9-6.6-5.4-12.4-9.1-18.2c-1.7-2.7-3.9-5.2-5.2-8.2c-3.6-7.9-8.3-15.4-11.7-23.6c-2.4-5.8-6.4-10.9-7.7-17.2
	c-0.6-2.8-2.8-3-5.2-1.4c-4.6,3-9.3,6.2-13.9,9c-6.5,3.8-12.3,8.8-18.9,12.4c-2,1-2.1,2.4-1.1,4.3
	C341,674.8,343.1,679.4,345.4,684.4 M435.7,808.7c4.7-1.5,9.3-3.7,13.8-5.6c1.7-0.8,2-1.8,1.1-3.4c-1.8-2.9-3.2-6.1-4.4-9.2
	c-2.8-7.7-5.8-15.3-9.7-22.4c-4.8-8.8-8.4-18.2-11.6-27.7c-1.9-5.7-4.1-11-7.4-15.9c-0.3-0.5-0.7-1.2-1.3-1
	c-2.3,0.6-4.5-0.6-6.9,0.5c-4.4,2.1-8.5,4.7-13.3,5.7c-8,1.7-15.3,5.5-22.6,9.1c-2.2,1-2.6,2.4-1.6,4.6c0.9,2.1,2.6,3.7,3.2,5.9
	c0.9,3.3,3.3,5.9,4.5,9.2c0.5,1.3,1.5,1.9,2.8,1c4.7-3.1,9.3-2.2,13.7,0.5c2.7,1.7,5.3,3.6,7.7,5.6c4.6,3.6,5.9,8.2,4.1,13.6
	c-2,6.3-5.2,12.1-10.8,15.9c-1.7,1.3-2.2,2.6-1.4,4.8c2.6,6.6,5.8,12.7,8.5,19.1c0.6,1.4,1.7,1.9,3.3,1.6c0.9-0.3,1.9-0.7,2.8-1
	C418.6,815.7,426.6,811.5,435.7,808.7 M466.3,945.5c1.3,1.8,2.6,3.7,4,5.4c2.2,2.8,4,3.1,7,1.5c3.1-1.6,5.5-4.3,8.5-6.1
	c7.1-4.4,14.4-8.6,21.9-12.5c1.3-0.7,2.8-1.4,1.7-3.4c-1.8-3.2-2.7-6.9-4.3-10.1c-8.1-16.5-15.4-33.4-21.9-50.8
	c-1.9-5.2-2.1-5.2-7-3l-0.2,0.1c-14,5.6-26.5,13.8-39.8,20.8c-1.3,0.7-1.6,1.7-1.2,3.2c0.6,1.8,1.9,3.1,2.8,4.7
	c2.2,4,4.2,8.1,6.5,12c4.2,7.1,8.4,14.1,11.9,21.5C459.2,934.5,462.2,940.1,466.3,945.5 M292.9,690.3c-1,1.3-0.6,2.6-0.2,4
	c1.3,4.5,2.9,9,4.5,13.4c2.5,7.1,6.1,13.4,9.4,20c1.9,3.7,3.5,7.6,5.3,11.4c2.1,4.3,3.9,8.7,5,13.5c0.7,2.6,2.1,3,4.6,2
	c2.2-0.9,4.5-1.6,6.7-2.6c6.8-2.8,13.2-6.1,20.3-8.4c4.8-1.5,9.7-2.4,14.3-4.4c2.5-1.2,2.7-1.9,1.4-4.4c-1-1.8-1.9-3.5-2.7-5.3
	c-3.2-7.1-5.6-14.6-8.6-21.8c-5.1-12.4-12.1-24-17-36.6c-0.7-1.8-1.6-1.6-3.1-0.7c-4.7,3-9.4,6.1-14.3,8.6
	C310.5,683.1,301.9,686.7,292.9,690.3 M436.8,883.7c1.6-0.8,3.2-1.8,4.8-2.7c8.6-4.4,16.4-10.1,25.4-14c3.6-1.6,7.2-3.4,10.9-4.9
	c1.6-0.7,2.2-1.7,1.4-3.3c-4.9-9.3-7.4-19.6-12.2-28.9c-3.7-7.3-8.1-14.2-11.4-21.5c-1.3-3-3.1-3.5-6-1.6c-1.7,1-3.7,2-5.6,2.7
	c-3.3,1.3-6.9,2-10.2,3.4c-3.1,1.4-6.2,2.8-9.3,4.2c-5,2.3-10.2,4-15.3,6c-1.6,0.6-2.2,1.8-1.7,3.4c0.3,0.9,0.5,1.9,0.9,2.9
	c2.6,5.3,4.8,10.8,7,16.3c2.8,6.7,5.8,13.3,9,20c2.5,5.4,4.6,11,6.9,16.5C432.8,885.4,433,885.4,436.8,883.7 M358.2,744.2
	c-1.8,0.5-3.5,0.9-5.3,1.5c-5.3,1.6-10.7,3-15.3,5.9c-4.2,2.6-9,4-13.4,5.9c-3.8,1.6-4.2,2.2-2.6,6c2.4,5.4,5.2,10.5,7.9,15.7
	c1.3,2.7,3.3,2.9,5.2,0.6c2.2-2.6,4.8-3.6,8-2.9c4.4,0.9,8.3,3.3,11.2,6.5c4.6,5.3,6.5,12,6.4,18.9c-0.1,6.2-3.6,11.3-6.5,16.5
	c-1.2,2.3-3.6,4.1-1.7,7.4c1.6,2.8,2.9,5.7,4.1,8.8s2.9,3.5,5.9,2.1c4.1-2.1,8.3-3.9,12.6-5.5c8.1-2.8,16.6-4.1,24.4-8
	c2.7-1.3,3.2-1.8,1.9-4.6c-2.5-5.6-5.3-11.2-7.3-17c-0.8-2.4-2.4-2.7-4.4-1.9c-0.6,0.2-1.2,0.6-1.8,1c-2.9,1.5-5.7,1.4-8.5-0.2
	c-4.3-2.3-5.4-6.3-6.4-10.8c-1.9-8.9-0.7-17.2,4.3-24.8c1.2-1.8,1.4-3.5,0.4-5.3c-2.9-5.6-5.8-11.1-8.7-16.8c-0.8-1.6-2.2-2-3.8-1.4
	C362.7,742.7,360.5,743.4,358.2,744.2 M374,835.4c-3.6,1.6-7.1,3.3-10.6,5c-2.6,1.2-2.9,2.8-1.5,5.3c3.6,6,7.1,11.9,10.1,18.1
	c3.3,6.8,6.4,13.5,9.9,20.1c2.9,5.6,6,11.1,8,17.2c0.9,3,2.2,3.6,4.9,2c1.6-0.9,3.2-1.8,4.8-2.5c9-3.9,17.9-7.7,26.8-11.7
	c3.4-1.5,3.5-1.7,2.2-5.3c-2.6-7.1-5.6-14-9-20.7c-4.4-8.7-8.1-17.7-11.6-26.7c-1.2-2.8-2.2-5.6-3.3-8.3c-0.7-1.6-1.9-2-3.4-1.3
	c-1.8,0.7-3.6,1.5-5.3,2.1C388.7,830.9,381.6,833,374,835.4 M193.2,886.3c-3-0.8-4.6-3.8-7.5-5.1c-0.1,4.4,3.4,7.7,7.2,7
	C193.9,888.1,195.1,887.7,193.2,886.3 M331.6,818.3c-0.9-2-2.2-3.4-4.5-3.8c0,3.3,2.3,6.2,5.6,7.1
	C333.4,820.1,332.1,819.5,331.6,818.3 M199.2,859c-0.4,1.7-0.3,3.2,1.8,3.9c2.7-3-1.7-5.8,0.4-8.8
	C199.3,855.2,199.8,857.1,199.2,859 M345.6,803c0.5-1.1,1.1-2.2-0.6-3c-0.9,1.4-1.7,2.6-1.2,4.1C344.6,804.4,344.9,803.8,345.6,803
	 M159.7,620.9c-2.4-0.7-1.8-2.9-1.5-4.1c1.2-4.8,2.3-9.5,5.4-13.5c5.8-7.4,17.6-10.3,25.7-7.5c6.7,2.3,10.9,8.8,8,16.3
	c-1.1,3-2.1,5.9-4.3,8.9c3.2-0.3,5.9-1.3,8.7-1.4c7.8-0.5,16.2,5.6,17.6,13.8c2,10.6-1.4,18.8-9.5,25.5c-2.6,2.2-5.9,2.6-9.1,3.3
	c-1.6,0.3-3.3,0.3-4.7,1.2c-0.3,1,1.3,1.7,0.6,2.8c-0.7,0.9-0.9,2.2-2.5,2.2c-1.3-0.1-2.2-1.1-2.1-2.4c0.1-2.5-1.5-3.1-3.4-3.4
	c-2.9-0.7-5.1-2.3-7.2-4.3c-0.8-0.8-1.6-1.8-0.5-2.8c0.9-0.9,1.7-0.1,2.6,0.5c1.7,1.2,3.2,2.8,5.3,3.1c0.6-0.7,0.4-1.5,0.1-2.1
	c-3.9-9.2-7-18.7-11.9-27.5c-3.2-5.7-7.1-10.8-11.8-15.3c-1.1-1-1.6-1.9-0.4-3.2c1.2-1.2,2.1-0.6,3.1,0.5c6.3,6.5,11.3,13.9,15,22.1
	c3.6,7.8,7,15.6,9.7,23.7c0.8,2.3,2,2.6,4.4,2.3c8.7-0.9,14.8-5.5,17.8-13.3c2.1-5.3,2.2-11.5-1.2-16.5c-3.1-4.7-8.2-6.9-13.9-5.9
	c-4.7,0.8-9.3,1.9-12.8,5.6c-0.3,0.4-0.8,0.6-1.3,0.8c-1.5,0.4-3,1.3-4-0.5c-1-1.8,0.6-2.6,1.8-3.3c5.9-4.1,9.2-9.8,10.7-16.6
	c0.9-3.9-2.1-9-6-10.1c-11.5-3.3-25.3,3.1-26.7,17.5c-0.2,1.3,0.5,2.5,0.3,3.9C161.4,621.9,160.6,621.2,159.7,620.9 M238.4,655.8
	c-4.6-2.8-6.1-7.3-6.4-12.1c-0.1-2.6-0.5-4.9-2.8-6.5c-0.6-0.6-1-1.1-1.3-1.8c-0.4-0.7-0.5-1.7,0.3-2.3c0.8-0.7,1.6,0,2.1,0.6
	l1.8,1.6c1.4-3.2,1.2-7.2,4.8-9.1c3.4-1.8,6.7-1.3,10.2,0.5c1.1-3.2,2.2-6.2,3.9-8.8c3.6-5.7,9.9-3.4,12.1,1.7
	c1.5,3.4,2.7,6.9,4.1,10.5c0.2,0.4,0.2,0.7,0.5,1.2c2.1,4.5,3.4,4.7,7,1.4c1.6-1.6,2.8-1.3,3.6,0.9c-0.7,1-1.7,1.7-2.5,2.7
	c-2.6,3.7-6.8,3.5-9.6,0c-2.6-3.3-3.1-7.5-5-11.1c-0.9-1.7-1.4-3.7-2.7-5.3c-1.3-1.5-2.4-1.5-3.8-0.4c-3.6,3.1-4.8,9.6-2.3,13.7
	c1.2,2.1,1.1,4.7-0.2,5.9c-1.1,1-1.9,0.8-2.7-0.3c-1.3-1.5-2.1-3.5-2.4-5.4c-0.2-2-2.5-4.3-4.5-4.7c-2.4-0.4-4.3,0.7-5.4,3
	c-1,2-1.1,4.3-1.6,6.5c-0.3,1.2,0.4,2,1,2.9c2.2,3.4,3.5,7.4,3.7,11.4C240.3,654,240.5,655.5,238.4,655.8 M266.7,567.6
	c3.6,6,5,12.5,7.8,18.6c0.4,0.7,0.3,1.4-0.4,2c-0.7,0.6-1.3,0.4-2,0.1c-1.2-0.5-2-1.7-2.5-3c-2.2-7-4.4-14-8.4-20.2
	c-0.3-0.5-0.7-1-1-1.5c-0.3-0.4-0.6-0.7-1-1c-1.3,1.7-1.2,4-2.9,5.5c-3.6,3.4-7.4,3.9-11,1.2c-3.7-2.8-4.5-7.3-1.8-11.3
	c2.5-3.7,6.1-6.2,10.5-6.9c3.1-0.5,5.2,1.1,6.1,4.1c0.7,2.3,2,4.2,3.4,6.1C265,563.3,266,565.3,266.7,567.6 M254.6,563.2
	c1-2,1-4.2,1.1-6.4c0.1-1.6-0.8-2.1-2.2-1.7c-2.4,0.6-4.6,1.6-5.9,3.6c-1.2,1.8-2.5,3.9-1.1,6.2C248.3,568,251.9,567.3,254.6,563.2
	 M55.1,742.8c-1.4-0.6-2.7-1.2-1.9-2.7c0.8-1.4,2.1-1.9,3.6-1c2,1.2,4,2.3,6.1,3.6c0.8,0.5,1.6,0.9,2.5,1.3c1.6-2.5,1.7-4.8,2-7.1
	c0.2-1.6,0.1-3.3,0.3-5c0-1,0.7-1.8,1.7-1.8c1.1-0.1,1.6,0.6,2,1.5c0.3,0.7,0.3,1.4,0.1,2.2c-0.7,3.2-1.4,6.3-2.3,9.4
	c-0.4,1.6,0,2.5,1.5,3.1c2.7,1.1,5.3,2.4,8.2,2.9c1,0.2,2.4,0.4,1.9,2c-0.4,1.5-1.6,2.2-3.1,1.6c-2.7-1-5.5-1.9-8.2-2.9
	c-0.5-0.3-1.3-0.3-2-0.1c-0.9,3.3-2,6.8-2.4,10.4c-0.1,1.5-0.4,3-1.9,3.9c-0.6,0.2-1.3,0-1.6-0.5c-1.1-1.5-0.4-2.8,0-4.2
	c0.9-3.2,1.7-6.6,2.5-9.8c0.4-1-0.2-2.2-1.3-2.5C60.4,745.9,58.1,743.9,55.1,742.8 M371.5,618c-3-0.9-5.6-2.4-8.4-3.9
	c-2.1,4.6-0.9,9.9-3.2,14.7c-1.8-1.9-3.3-2.9-2-5.7s1.3-6.5,1.6-9.8c0.2-1.2-0.9-1.5-1.7-1.9c-1.6-0.7-3.3-1.3-4.9-1.8
	c-1.6-0.6-2.3-1.6-1.8-3.2c0.7-1.9,2-1.1,3.1-0.6c1.5,0.6,2.9,1.3,4.3,1.9s2.3,0.3,2.4-1.3c0.1-2,1.1-3.9,1-5.9
	c0-1.3,0.6-2.2,2.2-2.1c1.5,0.2,1.5,1.2,1.2,2.4c-0.6,2.3-1,4.6-1.6,6.8c-0.4,1.5-0.2,2.5,1.4,3.3c3.6,2.1,7.4,4,11.7,3.8
	c1.5-0.1,1.6,1,1.5,2c0,0.9-0.1,1.9-1.5,1.8C375.1,618.3,373.3,618.7,371.5,618"/>
<path d="M712.3,708c1.8-0.1,3.4-0.2,4.9,0c1.9,0.2,2.6-0.3,2.9-2.3c0.7-5.1,1-10.3,1.5-15.4c0.7-7.7,1.5-15.2,2.8-22.7
	c1-6,1.7-11.9,1.7-18c0-1.7-0.7-2.2-2.2-2.3c-6.7-0.4-13.4-0.6-20.1,0.1c-5.2,0.4-10.3-0.3-15.4,0c-4,0.1-8-0.7-11.9-0.5
	c-1.6,0.1-3.2-0.7-4.7-1.4c-1-0.4-1.1-1.7-0.5-2.6c0.6-0.8,1.4-2,2.5-1.1c2.4,2.1,5.3,1.7,8.1,1.9c6.6,0.4,13.1,0.6,19.7,0.5
	c7.6-0.1,15.1-0.5,22.7,0.3c0.9,0.1,1.7,0,2.3-0.9c0.9-1.5,2-1.8,2.9,0c0.7,1.2,1.7,1.4,2.7,1.3c12.7-0.4,25.3,1,37.8,2.5
	c2.2,0.3,4.5,0.7,6.7,1c1.3,0.2,2.7,0.2,3.7-0.7c0.8-0.7,1.7-0.6,2.2,0.1c1.3,1.7,3,1.6,4.8,1.8c10.1,2.1,20.6,3,30.8,4.8
	c11.7,1.9,23.5,2.9,35.2,5.4c1.3,0.3,2,0.1,2.7-0.9c1.5-1.8,2.6-1.7,3.4,0.3c0.6,1.5,1.7,2,3.1,2.1c2.9,0.3,6,0.7,9,0.8
	c11.8,0.4,23.4,2.6,35.2,4.3c6,0.9,12,1.6,18.1,1.9c8.1,0.4,16,1.9,23.9,3.9c3.3,0.8,6.6,1.8,10,2.2c4.9,0.6,9.8,2,14.9,1.7
	c1.2,0,2.3-0.2,3.3-0.5c1.2-0.5,2.5,0,3.4,1c0.9,1.1,0.9,2.1-0.1,3.1c-0.2,0.4-0.3,0.7-0.4,1.1c-1.3,10.5-3.6,20.8-5.3,31.2
	c-0.9,5.3-2.4,10.4-3.6,15.5c-1.6,6.3-1.8,12.9-2.8,19.2c-1.5,9.1-2.4,18.3-4.3,27.3c-1.5,7.5-1.9,15.1-2.4,22.9
	c-0.4,6.1-1.4,12.1-2.1,18.1c-1.3,10.6-2.7,21.2-3.7,31.9c-1.1,11.9-2.1,23.8-2.5,35.8c-0.3,9.7-1,19.4-1.7,29.1
	c-0.8,11.7-2,23.3-2.5,35c-0.3,7.2-1.4,14.2-2.6,21.2c-0.5,3.3,0.2,6.7-0.6,9.9c-0.8,3.6-0.8,7.2-0.8,10.9c0.1,1.7,1.3,3.6-0.6,5.1
	c-1.7,1.3-3.4-0.1-5-0.4c-9.1-1.7-18.5-1.4-27.6-1.7c-10.8-0.3-21.6-0.2-32.4-0.8c-6.5-0.4-13-0.8-19.3-1.8c-6.3-1-13-1.2-19.5-2.5
	c-4.1-0.8-8.4-0.8-12.3-2.4c-0.2-0.1-0.4-0.1-0.5-0.2c-4.1-0.5-8.1-0.5-12.2-1.6c-3.4-1-7.4-0.9-11.1-1.5c-4.6-0.6-9.4-1.5-14-2
	c-5.7-0.5-11.5-1.7-17.3-1.7c-5.2,0-9.8-2.5-14.9-3c-4-0.4-7.9-1.4-11.7-1.5c-7.2-0.1-14.2-0.8-21.4-1.4c-6.7-0.6-13.5-1.6-20.3-1.9
	c-4-0.1-7.9-1.2-11.9-1.2c-7.9,0-15.6-1.3-23.5-0.6c-3.7,0.3-7.3-0.1-11,0.2c-7.2,0.5-14.4,0.5-21.6,1.2c-5.5,0.4-10.9,0.2-16.4,0
	c-2.3-0.1-2.6-1-2.1-3.3c1.3-5.6,2.4-11.2,3.4-16.8c2.1-12.5,3.9-24.9,5.6-37.5c1.6-11.1,3.2-22.2,4.8-33.3
	c1.6-11.5,3.6-22.8,6.1-34.1c2.9-13.3,5.5-26.5,7.7-39.9c2-12.5,4.8-24.9,7-37.4c2.3-14.2,4.8-28.4,5-42.8c0.1-3.5,0.2-7,0.4-10.5
	c0-1.7-0.2-3-2.2-3.2c-0.6-0.1-1.4-0.3-1.4-1.2c-0.1-0.8,0.6-1.4,1.4-1.4l0.1,0c2.2,0,2.5-1.5,2.6-3.2c0.6-10.4,3-20.5,5.5-30.6
	c0.9-3.7,1.9-7.6,1.9-11.5c0.1-2.2,0.6-4.2,1.1-6.4c0.7-3,1.1-6.1,0.1-9.1c-0.3-1.1-0.5-2.3-0.7-3.5c2.3-0.4,2.8,1,3.3,2.4
	c1,3.4,0.8,6.7,0.2,10.1c-1.5,10.2-3.5,20.3-6.1,30.3c-1.5,5.8-2,11.8-2.6,17.6c-0.3,2.7,0.3,3.3,3,2.8c3.3-0.6,6.6-0.8,9.9-0.5
	c10.6,1,21.1,1.2,31.6,1.6C708.1,708.1,710,708,712.3,708 M688.9,883c0.3-4.1,0.7-8.3,1.3-12.4c0.9-6.2,2.2-12.3,2.8-18.5
	c1.1-12.7,2.9-25.3,4.9-37.8c0.8-4.4,0.9-8.8,1.4-13.1c-2.3-1.3-4.3-0.6-6.3-0.8c-7.6-0.5-14.9-3-22.5-3.6
	c-5.9-0.5-11.7-1.5-17.7-1.3c-1.6,0-2.1,0.6-2.4,2.1c-0.5,2.3-0.8,4.4-1.3,6.6c-1,3.8-1.7,7.6-2.2,11.5c-0.6,3.4-0.5,7-1.4,10.3
	c-4.1,15.4-6.4,31.1-9.3,46.7c-2.4,13-3.6,26.2-5.8,39.2c-1.7,10.3-3,20.6-4.1,30.8c-0.7,6.9-2.6,13.8-4.1,20.5
	c-0.4,1.8,0,2.5,1.8,2.7c2.9,0.2,5.9,0.1,8.7,0.2c6.1,0,12.1-0.6,18.1-0.9c9-0.3,18-0.9,27.2-0.6c3.8,0.2,7.7,0.7,11.5,0.5
	c6.1-0.1,12.2,0.8,18.2,1.3c9.4,0.9,18.8,1.8,28.3,2.5c1.6,0.1,2.1-0.7,2-2.1c-0.1-5.9,0.5-11.8,1.3-17.7c0.9-7.4,2.1-14.7,3-21.9
	c0.5-3.6,0.7-7.3,1.5-10.9c1.4-5.7,2.3-11.5,3-17.4c0.2-1.5-0.3-2.1-1.8-2.3c-2.3-0.2-4.9-0.2-7.2-0.4c-8.2-1-16.1-2.8-24.5-2.2
	c-6.2,0.4-12.3-0.3-18.3-2c-3.6-1.1-3.6-0.9-3.3,2.8c0,0.2,0,0.5,0,0.7c-1.6,3.6-1.3,7.4-1.8,11.2c-0.7,6.5-1.7,12.9-2.4,19.4
	c-0.6,5.6-1.3,11-1.2,16.6c0.1,5.9-2,11.4-2,17.3c0,1-0.4,2.8-2.1,2.6c-1.5-0.2-1.5-1.5-1.3-2.7l0.2-2.2c0.7-6.9,1.6-13.7,2.1-20.5
	c0.6-8.7,1.7-17.4,2.9-26c0.9-6.7,1.6-13.5,1.8-20.4c-0.3-0.2-0.6-0.3-0.9-0.4c-8.6-1.3-17.2-2.1-25.8-2.2c-6.7-0.1-13.2-1-19.8-2.6
	c-2.5-0.5-4.4-2.4-4.9-4.8c-0.3-1.1,0.4-1.9,1.1-2.3c1-0.6,1.6,0.3,1.9,1c0.8,2.5,2.9,3.4,5.1,3.5c5,0.1,9.7,1.6,14.6,1.7
	c8.6,0.1,17.1,1.1,25.6,2.1C688.3,887.2,688.3,887.2,688.9,883 M949.3,896.4c0.5-11.6,1.1-23.2,1.5-34.8c0.4-12.5,2.2-24.6,3.8-36.9
	c1.7-13.9,3.4-27.9,4.5-41.8c0.7-8.1,3-15.8,3.9-23.9c0.6-5.6,1.6-11.2,1.9-16.8c0.2-1-0.4-2-1.5-2.3c-3.2-1.2-6.4-2.5-9.7-3
	c-6.2-0.9-12.4-1.8-18.7-2.5c-7-0.8-14-0.7-21.1-2.3c-2.9-0.6-3.6,0.1-4,3c-0.8,6.4-1.3,12.7-2,19.1c-0.1,1.7,0.3,2.8,2.2,3.4
	c2.3,0.9,4.3,2.6,5.2,5c0.6,1.6,1.5,3.2,2.4,4.6c4.2,5.6,3.7,11.5,1.6,17.6c-0.9,3-3.1,5.4-5.8,7c-3.1,1.8-6.4,3.2-9.9,4.2
	c-1.6,0.4-2.5,1.4-2.8,3.1c-0.9,5.6-1.7,11.1-2.5,16.7c-0.3,2.1,0.5,3.3,2.8,3.3c9.4,0.1,18.7,2.1,28,2.3c6.9,0.1,13.6,2.3,20.6,2.6
	c0.5,0.1,1,0.2,1.4,0.5c1,0.6,2.3,1.4,1.8,2.7c-0.5,1.3-1.9,1.7-3.4,1.3c-6.1-1.1-12.1-2.2-18.1-3.3c-2.4-0.4-4.8,0.2-7.2-0.2
	c-6.8-1.3-13.7-1.6-20.5-2.1c-7.2-0.5-7.7-0.2-8.3,7.1c-0.6,7.1-2,14-2.6,21c-0.3,4.4-0.9,8.8-1.9,13.1c-0.9,4.1-1.7,8.4-1.6,12.6
	c0.2,6.3-0.3,12.5-1.2,18.6c-0.6,3.2-0.4,6.5-0.5,9.7c0,1.5,0.8,2.2,2.3,2.3c3.2,0.2,6.3,0.7,9.5,0.9c5.6,0.5,11.1,2.4,16.8,2.8
	c5.3,0.4,10.7,1.3,16.1,2.3c5,0.9,9.9,2.1,15.1,3.3l2-20 M848.4,759.2c1.4-11,2.1-22,2.9-33.1c0.2-3.2-0.7-4.5-4-4.5
	c-2.8-0.1-5.7-0.7-8.4-1.3c-7.6-1.7-15.5-1.8-23.2-1.9c-8.1-0.1-16.1-1.5-23.9-3.1c-4-0.7-8-1.1-12-1.8c-1-0.1-2.1,0.1-2.3,1.4
	c-0.3,4-1.9,7.6-2.3,11.4c-1,10.7-2.1,21.4-3.7,31.9c-1.3,8.6-2.8,17-4.8,25.4c-1.3,5.3-2.9,10.4-3.4,15.8c-0.2,1.8,0.4,2.7,2.2,2.7
	c3.3,0.2,6.5,0.6,9.7,1c8.7,0.9,17.4,1.6,26,2.7c11.6,1.4,23.2,3.6,34.7,5.8c3.4,0.7,4.1,0.2,4.6-3.1c0.7-5.4,1.9-10.6,3.1-15.9
	C846,782,846.6,770.7,848.4,759.2 M830.7,870.6c0.1-9.8,2.1-19.4,3.7-28.9c1.2-7.8,1.9-15.7,4-23.3c0.5-1.7-0.3-2.7-2-3
	c-6.1-1.2-12.3-2.8-18.5-3.8c-9-1.5-18-2.6-27-3.4c-4-0.4-7.9-0.3-11.9-1c-2.7-0.3-5.4-0.6-8.1-0.6c-3,0-6-1.4-9.1-1
	c-1.1,7.6-2.3,15-3.4,22.6c-1,8.2-2,16.4-2.7,24.5c-1.3,13-4.2,25.9-5,39c-0.1,2.3,0.7,2.4,2.4,2.7c4.4,0.7,8.8,0.7,13.1,1
	c11.6,0.6,23,2.7,34.5,3.2c6.7,0.4,13.5,1.2,20.1,1.7c1.6,0.1,3.4,0.5,4.7-0.2c1.4-0.8,0.5-2.9,0.9-4.3
	C828.4,887.4,830.1,879.3,830.7,870.6 M822.5,924.6c0.8-6.4,1.6-12.8,2.4-19.3c0.3-1.9-1-2-2.3-1.9c-8,0.2-15.8-1.1-23.8-1.9
	c-7.2-0.7-14.5-1.3-21.8-2.3c-8.3-1.1-16.6-1.1-24.9-1.7c-1.7-0.1-2.2,0.7-2.3,2.1c-0.7,9.4-3.8,18.5-4.4,28.1
	c-0.3,4.3-1.5,8.5-2,12.8c-0.9,8.5-2.5,16.9-1.9,25.5c0.2,3.2-0.1,3.1,3.2,3.4c3.7,0.2,7.5,0.6,11.1,1c7.2,0.6,14.1,3.2,21.4,3.8
	c8.7,0.8,17.3,1.6,26,3c4.4,0.8,8.7,1,13.1,1.5c1.5,0.2,2.2-0.4,2.3-2.1c0.2-6.5,0.4-12.9,1.4-19.4c0.6-3.9,0-7.9,0.8-11.7
	C822.4,938.8,822.9,931.6,822.5,924.6 M691.9,885.5c-0.4,1.8,0.7,2.1,2.1,2.3c6.8,1.3,13.5,2.4,20.5,2.6c10.1,0.2,20.1,1.1,30,2.9
	c2.3,0.4,3.1-0.4,3.3-2.7c0.4-5.6,0.7-11.2,1.6-16.9c2.4-13.4,3.3-27.1,5.1-40.6c0.8-5.7,1.9-11.4,2.4-17c0.3-3.2,0.9-6.2,1.3-9.3
	c0.1-1.3-0.2-2.1-1.8-2.4c-6.3-0.9-12.8-0.8-19.1-1.1c-10.6-0.4-21.2-1.6-31.8-2.2c-2.5-0.2-3.3,0.3-3.4,2.7c-0.2,3.1-0.7,6.3-1,9.4
	c-1.1,9.8-3.2,19.5-4.1,29.4c-0.3,3.1-0.4,6.2-0.8,9.2c-0.6,5.8-1.8,11.5-2.9,17.2C692.5,874.2,692.4,879.7,691.9,885.5
	 M705.5,797.8c2.5,0.2,5,0.1,7.5,0.4c14.7,1.6,29.6,1.6,44.3,3.3c1.6,0.2,2.4-0.5,2.7-1.9c1.5-6.2,3.2-12.4,4.4-18.6
	c3-15.2,5.4-30.6,6.8-46c0.5-6.2,1.9-12.3,3.2-18.4c0.5-2.1,0-3-2.3-3.3c-4.9-0.3-10-0.7-15-0.8c-7,0-14-0.2-21.1-0.8
	c-3.5-0.3-7-0.5-10.4-0.5c-1.5,0-3.2-0.2-3.5,2.1c-0.8,5.7-2.5,11.4-4.1,16.8c-1.9,6.1-3.6,12.4-3.7,18.8c-0.2,11-3.6,21-7.1,31.1
	c-1.7,5-3.3,10.1-3.8,15.4C703.3,796.8,703.5,797.8,705.5,797.8 M944.2,958.2c0.5-2.8,1.5-5.5,1.3-8.4c-0.1-5.2,0.2-10.3,0.7-15.4
	c0.3-3.6,0.6-7.2,0.9-10.7c0.2-1.8-0.2-2.9-2.3-3.5c-2.2-0.6-4.4-0.7-6.7-1.2c-5.1-1.2-10.1-3-15.4-3.4c-2.2-0.1-4.3-0.9-6.6-1.1
	c-4.2-0.4-8.3-0.8-12.3-1.7c-4.9-1.2-9.9-2.3-15-2.1c-1.1,0.1-1.6,0.4-1.9,1.5c-1.7,7.2-3.2,14.4-3.2,21.9c0,8.2-0.9,16.2-1.6,24.4
	c-0.7,6.3-2,12.4-1.6,18.8c0.2,3.1-0.2,6.4,0,9.7c0.5,0.1,1.1,0.2,1.7,0.2c13.5,0.4,27,0.8,40.6,1.1c5.3,0,10.6,0.4,15.8,1.1
	c1.9,0.2,2.7-0.3,2.7-2.6c0.1-5.9,1.1-11.8,1.3-17.8C942.9,965.5,943.9,962.1,944.2,958.2 M885.9,886.5c0.6-5.9-0.2-11.7,0.9-17.7
	c0.9-4.4,1.6-9,2.3-13.6c1.3-10.2,2.1-20.5,4.1-30.6c0.4-1.9-0.2-2.6-2.2-3.1c-7-1.9-14.5-1.7-21.7-3.1c-8.1-1.6-16.2-3.1-24.6-2.8
	c-1.7,0.1-2.7,0.4-3.1,2.4c-1.5,6.3-2.2,12.7-3.3,19.2c-1.7,9.3-3.1,18.6-4.3,28.1c-0.9,7.7-1.2,15.4-3.1,23
	c-1,3.8-1.6,7.6-1.9,11.4c0.9,0.4,1.9,0.6,2.9,0.5c9.3-0.2,18.4,0.9,27.6,2.4c7.4,1.2,14.7,2.5,22.1,3.8c1.6,0.3,2.3-0.2,2.4-1.9
	C884.7,898.7,885.2,892.7,885.9,886.5 M661.7,792c6.2,0.7,12.4,1.6,18.5,2.8c5.8,1.3,11.6,2.1,17.5,2.3c1.4,0,2.2-0.1,2.4-1.7
	c0.9-6.7,3.3-13,5.3-19.4c2.8-9,5.5-18.1,5.5-27.7c0-2.9,0.4-5.9,1.2-8.6c1.8-5.9,3.5-12,5.1-18c0.8-3.3,2.2-6.6,2-10.3
	c-8.4-0.2-16.7-0.2-25-0.5c-5-0.1-9.9-0.5-15-0.8c-4.9-0.3-10-1-15.1,0c-2.7,0.5-3.1,1.9-3,4.1c0.2,2.1,0.7,4.3,0.4,6.4
	c-1.4,9.3-1.3,18.9-2.8,28.3c-1.8,11.1-4,22-5.8,33.1c-0.5,3.1-1.5,6.1-1.2,9.1L661.7,792z M875.6,987.2c0.9-0.1,2,0.4,2.9-0.4
	c-1-1.3-1.6-2.8-1.6-4.4c-0.2-6.2,0.2-12.4,1.2-18.5c1.4-8.8,1.7-17.6,2.5-26.4c0.3-3.3,0-6.5,0.5-9.7c0.6-4.9,1.3-9.9,2.7-14.7
	c0.3-1,0.8-2.3-0.1-3.5c-2.5,0.6-4.8-1-7.3-0.9c-3.9,0.2-7.5-1.1-11.2-1.9c-4.3-0.9-8.8-1.4-13.3-2.1c-6.9-1.2-13.8-1.5-20.7-1.2
	c-1.6,0.1-2.5,0.6-2.7,2.2c-0.5,5-1.8,9.7-2.1,14.8c-0.4,5-0.1,10.2-0.5,15.2c-0.4,4.8-1.6,9.5-1.8,14.3c-0.5,9.1-1.9,18.2-1.8,27.4
	c0.1,1.8,0.4,2.6,2.2,2.8c2.4,0.3,4.7,0.7,7.2,1.2C846,984.9,860.6,985.6,875.6,987.2 M844.2,804.8c-0.2,1.7-0.4,3.5-0.6,5.3
	c-0.2,1.7,0.5,2.5,2.1,2.5c2.4,0,4.8,0.2,7.3,0.2c6.2,0.3,12.2,2,18.2,2.7c6.8,0.8,13.5,1.7,20.4,2.7c1.6,0.2,3.1,0.4,3.5-1.9
	c0.8-5.4,1.7-10.8,2.5-16.2c0.3-1.5-0.3-2.3-1.9-2.9c-6.2-2.5-9.5-7.7-10.9-13.9c-1.1-5.1,1-9.4,3.7-13.6
	c3.5-5.5,7.5-10.4,14.3-12.1c1.6-0.4,1.8-1.6,1.9-3l2.1-20.5c0.3-2.1-0.5-3-2.8-3.1c-4.4-0.3-9-0.2-13.3-1.4
	c-5.8-1.5-11.8-2.3-17.6-3.4c-5.3-1.1-10.8-0.3-16.1-2c-1.7-0.6-2.4,0.5-2.6,2.1c-0.3,4.1-0.4,8.3-0.7,12.5c-1,10.4-2.1,20.6-3.2,31
	C849,781.1,846.6,792.6,844.2,804.8 M842.9,703.5c-1.4-2.6-1.8-5.6-1-8.5c1.8-8,5.8-14.7,12.5-19.5c2.7-2,3.4-4.3,2.8-7.3
	c-0.3-1.5-0.6-2.7-2.5-2.3c-0.6,0.2-1.3-0.2-1.5-0.9c-0.1-0.1-0.1-0.3-0.1-0.4c0.2-2.5-1.5-2.7-3.3-2.9c-3-0.3-6.1-0.7-9.2-1.3
	c-7-1.3-14.1-2.3-21.2-3.2c-10.9-1.3-21.8-2.3-32.6-4.8c-1.6-0.4-2.3,0.1-2.3,1.8c0,2.7,0.1,5.5-0.4,8.2c-0.9,4.8-1,9.7-1.4,14.6
	c-0.6,8.4-1.4,16.8-2.7,25.1c-0.4,2.6-1.3,5.1-0.9,8.3c2.7,0.2,5.4,0.4,8.2,0.9c8.3,1.5,16.7,3,25.2,3.7c5.3,0.4,10.8,0.3,16.2,0.9
	c5.9,0.6,11.7,1.8,17.5,2.6c5.7,0.8,6.2,0.2,6.1-5.6c0-1.3-0.6-2.2-1.8-2.7C847.3,709,844.5,706.7,842.9,703.5 M965.9,734.4
	c0.6-2.5,1.1-5,1.7-7.5c1.3-5.6,2.8-11.1,4-16.7c1-5.1,1.2-10.3,2.4-15.5c0.8-3.9,2.1-7.8,2.3-12c0.1-2.3-0.6-2.9-2.9-3.1
	c-8.8-0.7-17.6-2.2-26-4.6c-8.1-2.3-16.3-2.8-24.5-3.7c-2.3-0.2-3.5,1-3.9,3.3c-1.4,7.6-2.6,15.3-4.3,23c-2.1,9-2.9,18.2-3.6,27.3
	c-0.2,2.2,0.8,3.4,2.8,3.6c4.5,0.5,8.9,1.2,13.4,1.2c4.9,0.1,9.6,1,14.3,1.5c7.2,0.9,14.3,2.2,21.2,4.5
	C963.9,736.2,965.1,736.3,965.9,734.4 M779.5,679.4c0.6-5.8,1.2-11.7,1.7-17.4c0.3-2.7,0.3-5.7,0-8.4c-0.2-1.4-1-2.2-2.4-2.3
	c-6.8-0.8-13.5-1.7-20.3-2.5c-9-1-18.1-0.9-27.1-1.3c-1.8,0-2.3,0.7-2.3,2.4c0.1,1.9-0.1,4-0.2,5.9c-0.4,8.1-2.7,15.8-3.4,23.9
	c-0.6,6.5-1.2,13-1.9,19.6c-0.3,2.8-0.2,5.6-0.4,8.3c3.8,0.4,7.3,0.9,10.9,1.1c12.8,0.6,25.8,0.9,38.7,1.6c2.2,0.2,2.9-0.6,3.3-2.7
	c0.4-3.2,1-6.4,1.4-9.6C778.3,691.8,779.4,685.9,779.5,679.4 M875.1,722.7c1.8,0.3,3.6,0.5,5.5,0.9c7.6,1.3,15,3.6,22.8,4
	c3.6,0.1,4.2-0.1,4.4-3.6c0.7-12.5,3.5-24.5,5.6-36.7c0.8-4.6,1.6-9.2,2.4-13.7c0.3-1.5,0-2.5-1.9-2.8c-8-1.2-15.9-2.4-23.8-3.8
	c-9-1.5-18-1.4-27.1-2.4c-1.9-0.3-2.3,0.4-2.5,2.2c-0.3,3.8,0.5,6.2,4.5,8c4.8,2.4,6.5,7.5,8.4,12.2c1.8,4.5,1.3,8.8-0.6,13
	c-0.7,1.6-1.6,3-3,3.9c-3,1.7-5.7,3.8-9,4.9c-4.3,1.3-5.5,4.2-5.3,8.2l-0.1,0.5c-0.3,1.8,0.6,2.6,2.5,3
	C863.3,721.6,869,722,875.1,722.7 M850.6,594c1.5,0,3.5-0.8,3.7,1.2c0.1,1.8-2,1.8-3.4,2.2c-0.9,0.3-2.2-0.1-3.2,0.1
	c-8,0.7-16,0.8-24,1.8c-8.5,1-16.7,0.6-25.1-0.4c-1.1-0.1-2.3-0.4-3.4-0.7c-6.2-1.5-8.5-5.8-6.8-12.1c1.7-6.3,3.2-12.5,4.7-18.9
	c0-0.3,0-0.5-0.1-0.9c-0.5-0.2-1-0.3-1.3-0.4c-1.3-0.2-2-1.1-1.9-2.3c0-1,0.8-1.7,1.8-1.7l0.2,0c2.2,0.2,3.1-1.1,3.6-3
	c1.8-6.8,3.7-13.6,4.2-20.7c0.1-0.8-0.1-1.6-0.3-2.4c-0.2-1.2-0.2-2.6,1.2-2.9c1.6-0.3,2,1.1,2.2,2.4c0.6,3.9-0.1,7.6-0.9,11.4
	c-1,5-2.3,10-3.8,15c12.6-1.4,24.7-4.9,37.8-2.8c-1.7,2.4-3.6,2.2-5.2,2.1c-8.4-0.2-16.6,1.7-24.9,2.9c-2.4,0.4-4.9,0.6-7.3,1.4
	c-0.8,0.3-1.6,0.5-1.7,1.4c-0.9,7.1-3.8,13.6-4.7,20.6c-0.6,5.1,0.7,6.4,5.6,7.4c9.1,1.7,18.1,1.4,27.3,0.7
	C833.4,595.1,841.8,594.3,850.6,594 M900.3,549.7c0.9-0.2,1.8-0.1,2.6,0.4c3.7,2,7.9,1.1,10.9-2c1.3-1.4,1.4-2.7,0.1-4
	c-3-2.8-6-5.5-10.5-5.7c-1.1-0.1-2.4,0.1-2.7-1.6c-0.3-1.6,0.5-2.6,1.9-3.3c2.2-1.3,4.3-2.7,5.9-4.8c-3.4-2.7-6-2.2-9,1.3
	c-0.8,0.9-1.3,3.1-2.9,2c-1.6-1-0.3-2.7,0.4-4c3.8-6.6,9-5.7,14.3-3.2c2,1,1.7,4.9-0.5,7c-0.9,1-2,1.7-2.9,3.2
	c2.6,1.6,5.2,3.5,7.6,5.4c4,3.2,4.5,6.3,1.1,10.1c-3.6,4.1-10.7,5.9-15.2,3.9C898.8,553.2,898.5,552.4,900.3,549.7 M657.8,620.4
	c0.4-3.9,2.9-6.3,5.1-8.9c1.5-1.6,3.3-3,5.3-4.1c1.9-1.1,6.4-1.2,7.2,0.4c1.8,3.3,4.9,6.1,5,10.4c0.1,5.3-2.3,8.8-6.7,11.4
	c-0.7,0.4-1.3,0.7-1.9,1.1c-4.7,2.6-7.6,2.2-10.9-2.1C659.1,626.2,657.7,623.6,657.8,620.4 M666.1,613.5c-1.5,1.5-2.9,3.2-4,5.1
	c-1.5,2.8,0,5,1.4,7.4c1.2,1.9,2.7,2.7,4.8,2.3c4.8-0.8,8.7-5.2,8.8-10c0-3-1.7-5.3-4.2-6.6C670.6,610.4,668.2,611.3,666.1,613.5
	 M718.5,633.8c-1.5,1.5-2.9,0.8-3.7-0.5c-0.9-1.2,0-2.1,1.1-3c3.1-2.9,6-6.2,9.1-9.3c-1.5-2.2-2.9-4.3-4.8-6c-1.1-0.9-1.7-2-0.7-3.3
	c0.9-1.3,2.2-0.6,3.1,0.3c2.1,1.7,4.2,3.2,5.9,6c1.6-1.7,3.3-3.3,4.9-4.9c1.1-1,2-2.6,3.6-0.8c1.5,1.6,0.2,2.6-1,3.7
	c-1.8,1.6-3.5,3.3-5.6,5.3c3.3,3.7,3.6,8.9,6.9,12.8c-0.6,1.1-1.2,2.2-2.4,2.2c-1.2-0.1-1.8-1.2-2.4-2.3c-1.5-2.8-2-6.2-4.1-8.7
	c-0.4-0.4-0.5-1.1-1.1-1.2C723.5,626.8,722,631,718.5,633.8 M791.5,621.1c2.1,2.9,5.1,4.7,7,7.6c1.1,1.7,1.2,3.3-0.3,4.7
	c-2.8,2.7-5.5,5.4-9.3,6.9c-5.3,2.1-13.9-3.8-13.2-10c0.6-4.4,6.1-10.8,10.4-11.6C788.4,618.3,790.3,618.8,791.5,621.1 M792.7,626.8
	c-0.5-0.5-1-0.9-1.5-1.3c-1.9-1.7-5.5-2.6-7.1-1.4c-2.5,1.7-4.6,4.1-4.5,7.4c0.1,2.8,2.3,4.4,4.7,5.3c3.3,1.3,5.8-0.5,8.3-2.3
	C796.8,631.4,796.7,630.1,792.7,626.8 M835.1,522.6c-5.6,1.5-11.3,1.6-16.9,2.5c-6.6,1-13.1,2.9-19.7,4.4c-1.4,0.4-2.8,0.5-4.2,0.6
	c-1.2,0-2.1-0.9-2.2-2.1l0-0.1c0-1.4,1.2-1.3,2.2-1.4c3.6-0.1,7-1.3,10.5-1.9c5.5-1,10.8-2.7,16.4-3.2c7.3-0.8,14.5-2.1,21.8-2.4
	c2.8-0.2,5.4-0.2,8.2-0.3c0.9,0,2,0.2,2,1.4c-0.1,1.2-1,1.4-1.9,1.5C845.8,521.9,840.5,522.3,835.1,522.6 M983,655.1
	c-2,0.2-2.7,1.8-3.7,2.9c-0.7,0.9-1.4,1.8-2.7,0.8c-1.3-0.9-0.8-2,0-3c0.9-1.1,2.1-2,2.7-3.2c-0.6-1.4-2-2.1-2.9-3.4
	c-0.7-0.8-1.5-1.8-0.7-2.8c0.9-1.2,2.1-0.6,3.1,0.3c1.2,1,2.6,1.6,3.6,2.9c1.7-0.4,2.9-1.5,4.1-2.4c0.7-0.6,1.4-1.1,2.3-1.4
	c0.8-0.2,1.5-0.2,2,0.6s0,1.4-0.6,2c-1.5,1.4-3.5,2.3-4.7,4.3c1.3,1.2,2.8,2.2,3.6,3.7c0.5,0.9,1,1.6,0.2,2.5
	c-0.8,0.9-1.4,0.1-2.1-0.3C985.7,657.6,984.4,656.3,983,655.1 M880.9,554c-1.7-0.5-1.8-1.7-1.7-3.1c0.1-4.9,1-9.7,1.8-14.5
	c0.5-2.5,1.1-4.9,0.6-7.4c-0.1-1.2,0.1-1.7,1.3-2c1.2-0.2,1.9,0.3,2.1,1.5c0.5,2.7,0,5.3-0.5,7.9c-0.5,3.9-0.5,7.9-1.5,11.9
	c-0.1,0.7,0,1.5,0.2,2.2C883.7,552.5,883,553.5,880.9,554"/>
<path d="M707.9,384.1c0.1,7,0.5,13.8,1.1,20.6c0.6,6.6,2.1,13,3.2,19.4c1.2,6.7,2.1,13.5,2.6,20.2c0.5,7.7,1.4,15.4,3.2,23
	c0.7,3,0.8,6.1,1.2,9.1c0.3,2.4,0.4,4.8,0.8,7.2c0.6,4.3,0.6,4.3,4.8,4.8c1.1,0.2,2.4,0.4,2.2,1.8c-0.2,1.2-1.3,2.3-2.8,2
	c-2.6-0.5-3.1,0.4-2.7,2.8c0.3,1.4,0.3,3.2-1.6,3.3s-2.4-1.5-2.4-3.3c0.1-2.9-0.2-2.8-3-2.9c-5.2-0.1-10.4,0.9-15.7,0.9
	c-4.7,0.1-9.5,0.7-14.3,1.3c-5,0.5-10,1.5-15,1.7c-5.3,0.2-10.5,1.5-15.7,2.4c-8,1.4-16,2.6-24.2,2.7c-9.4,0.2-18.8,0.8-28,2.5
	c-4.4,0.8-9,1.5-13.5,2c-7.3,0.8-14.6,1-21.8,1.8c-10.9,1.1-21.7,2.9-32.5,4.8c-11.1,1.9-21.9,5.4-32.9,7.8
	c-5.3,1.2-10.8,2-16.2,2.7c-6.5,0.8-13,1.4-19.6,1.8c-9.4,0.6-18.8,2.3-28.2,3.4c-5.3,0.6-10.6,0.9-15.9,1.3
	c-1.5,0.1-3.2-0.1-4.3,1.5c-0.4,0.5-1.2,0.7-1.6,0.3c-1.3-1.6-3-0.9-4.6-0.8c-8.3,0.5-16.6,0.9-24.9,1.8c-7,0.8-14,1.3-21,2.9
	c-3.7,0.8-7.6,0.6-11.3,1.5c-3.6,0.8-7.4,0.9-10.7,2.8c-3.2,1.8-3.9,1.2-4.3-2.1c4.3-1.1,8.4-2.7,12.8-3.5c2.5-0.4,5-0.5,7.5-0.8
	c5.1-0.7,10.2-1.6,15.3-2.3c11.7-1.4,23.5-2.5,35.3-2.9c4.2-0.2,4.8-0.7,3.6-4.8c-0.9-3.2-1.3-6.3-0.5-9.5c0.4-1.8-0.4-3.7-0.7-5.5
	c-0.5-3.3-0.2-6.5-0.8-9.8c-1.2-6.5-2.4-13.1-2.9-19.7c-0.7-9.9-2.5-19.6-3.6-29.5c-0.3-2.6-0.5-5.1-0.6-7.7
	c-0.1-1.7-0.9-2.2-2.4-1.9c-13.3,2.2-26.7,3.2-40,5.7c-10,1.8-20,4.6-30.2,5c-2.2,0.1-2.6,1-2.4,3c1,8.9,1.7,17.9,2.8,26.8
	c0.7,5.9,1,11.8,2.3,17.5c2.5,10.8,2.8,21.8,4.9,32.5c0.2,0.9,0.6,1.7,0.8,2.6c0.4,1.4,0,2.7-1.3,3.1c-1.5,0.5-2.1-0.8-2.3-2
	c-0.6-3.9-1.3-7.7-1.6-11.6c-0.7-10.3-3.5-20.4-4.5-30.6c-0.7-7-2.2-13.9-2.5-21c-0.2-5.9-1-11.8-1.7-17.6c0-1-0.6-1.8-1.4-2.1
	c-1.4-0.5-1.7-2-0.7-2.8c1.7-1.5,1.6-3.3,1.4-5c-0.5-7.7-1.5-15.4-2.3-23c-0.8-8.1-1.2-16.3-1.1-24.4c0-5.6,0.4-11.4-0.4-16.9
	c-0.4-2.7-1.9-5.2,0.1-7.8c0-13.2,0.4-26.3-0.1-39.4c-0.4-10.2-1.3-20.4-2.7-30.6c-0.5-4.5-0.8-8.9-0.8-13.4
	c-0.1-4.2-1.1-8.4-1-12.7c0.1-1.8-1.6-1.9-2.6-2.4c-0.4-0.8,0-1.5,0.4-1.7c2.5-1.1,2-3.2,1.8-5.1c-0.8-7.5-1.1-15.1-1.4-22.6
	c-0.2-6.3-0.1-12.6-0.3-18.9c-0.1-3.7-0.6-7.3-0.7-10.9c-0.2-5.4-0.4-10.8-1.4-16.1c-1.4-0.8-2.8,1-4.3,0.2
	c-0.3-1.4,0.6-2.1,1.6-2.5c2.3-0.8,3.2-2.2,2.3-4.6c-0.2-0.4-0.1-1,0.3-1.3c0.7-0.2,0.9,0.3,1,0.8c0.6,2.7,2.2,3.6,4.9,3
	c7.1-1.5,14.4-2.4,21.5-4c4-0.9,8.3-0.8,12.4-1.4c4.8-0.7,9.6-1,14.4-1.3c8.9-0.5,17.9-0.9,26.8-1.6c12.3-0.9,24.4-2.9,36.7-4.5
	c7.5-1,14.9-2.6,22.4-2.9c3.4-0.1,7,0.2,9.8-2.6c0.5-0.4,1.2-0.4,1.6,0.1l0,0c1.3,1.6,3.1,1.4,4.8,1.2c13-1.3,26.1-2.5,39.1-4
	c7.7-0.9,15.3-2.3,22.9-3.5c7.8-1.3,15.7-2.3,23.5-3c10.1-0.8,20.2-2.4,30.3-3c8.3-0.5,16.5-1.7,24.8-2.4c10.6-1,21.3-2.6,31.9-3.9
	c8.2-1,16.6-1.1,24.9-1.4c5.4-0.1,10.8-0.1,16.2-0.6c1.3-0.1,2.6-0.1,4-0.1c1.7,0.1,3.3,0.4,3.7-2.1c0.2-1.3,3.1-1.7,4.4-0.8
	c1.3,0.8,2.2,4.5,1.3,5.8c-0.6,0.9-0.8,1.8-0.6,2.8c0.9,10.7,1,21.4,1.4,32.2c0.3,7.4,0.8,14.7,0.9,22.2c0.1,1.8,0.3,3.5,2,4.8
	c1.3,1,1.9,2.6,0.2,4c-0.9,0.7-0.9,1.7-0.7,2.8c2,10.3,1.2,20.7,1.3,31.1c0,6.1-1,12.1-0.5,18.2c0.3,4.9,0.2,9.8,0.5,14.7
	c0.5,9.8,1.1,19.6,1.7,29.4c0,1.3,0.3,2.5,0.7,3.7c0.6,1.6,1.2,3.2,0,5c-0.7,1-0.1,2.4-0.1,3.7c0.4,11.1,1.5,22.1,3.3,33
	C706.8,370.5,707.6,377.2,707.9,384.1 M500.2,517.2c1.5-0.4,2.9-0.7,4.4-1.1c4.4-1.1,8.8-2.5,13.2-3.5c6.6-1.5,13.3-2.8,20-4.1
	c9.6-1.8,19.3-3.5,29.1-4c2.9-0.2,5.9-0.8,8.8-1.2c-0.5-4.9-1.6-9.4-1.9-14c-0.5-6.7-0.5-13.4-1.4-20.1c-0.3-1.7-0.5-3.5-0.5-5.2
	c0.3-8.9-1.6-17.5-2.4-26.3c-0.3-3.7-1.4-7.3-2-11c-0.7-4.3-1.2-8.6-1.7-12.9c-0.1-0.9-0.2-1.7-1.4-1.7c-1.6,0-3.2-0.3-4.7,0
	c-5.8,1.3-11.7,1.2-17.6,1.8c-10,1-19.6,4-29.4,5.9c-7.4,1.4-14.7,2.6-22.1,3.6c-3,0.4-4,1.5-3.5,4.4c0.3,1.7,0.5,3.5,0.7,5.2
	c1.2,9.3,1.3,18.7,2.4,28c1.1,8.9,1.3,18,3.6,26.7c0.8,3.3,0.5,6.8,1.8,10c1.6,4,2.2,8.2,2.7,12.4c0.2,1.2,0.2,2.6,1.1,3.5
	c1.1,1.2,0.8,2.2,0,3.5c-1.6,0.1-3.2-0.1-3.4-2.1c-0.5-5.3-1.6-10.5-3.3-15.6c-1.7-5.4-2-11.1-2.9-16.7c-1.7-10.9-2.4-22-3.5-33
	c-0.7-7.1-1.3-14.3-1.9-21.4c-0.4-3.5-0.6-3.6-4.1-2.9c-3.1,0.6-6.1,1.4-9.3,1.7c-11.6,0.8-23,3.8-34.6,4.8
	c-9.5,0.8-18.6,3.6-28,5.2c-1.7,0.3-2.5,1-2.2,2.9c0.3,2.7,0.4,5.5,0.8,8.2c1.7,14.1,3.7,28.2,5.5,42.3c1.4,10.8,2.1,21.7,3.1,32.6
	c0.3,3.4,0.5,3.6,3.7,3.3c13.5-1.3,27-2.1,40.4-4.5c7-1.2,14.3-0.8,21.4-1.9C487.4,519.3,493.7,518.8,500.2,517.2 M647.2,496.4
	c8-1.3,16.1-2.6,24.2-3.8c7.9-1.2,15.8-2.5,23.8-2.7c6.6-0.1,13.1-1.3,19.6-1.4c1.7,0,2.2-0.8,2-2.4c-0.3-2.4-1-4.7-1.1-7.1
	c-0.5-7-1.4-14-2.7-21c-0.7-3.7-1.5-7.4-1.5-11.1c0-6.5-1-12.8-2-19c-1.8-12.2-4.6-24.3-4.8-36.8c-0.1-8.3-0.7-16.7-2.3-24.8
	c-2.3-11.6-3.2-23.4-3.8-35.2c-0.2-3.6-0.4-3.9-4.2-4.1c-5.4-0.4-10.6,0.2-16,0.5c-10.2,0.5-20.4,1-30.5,2.5
	c-7.3,1-14.7,1.6-22.1,1.7c-2.9,0.1-3.9,0.9-3.6,3.5c0.6,5,0.5,9.9,0.9,14.9c0.8,8.6,1.3,17.2,2,25.8c0.3,3.9,0,7.8,0.8,11.7
	c0.7,3.3,1.6,6.4,2.1,9.8c0.7,5.2,1.3,5.6,6.6,5c8.3-0.8,16.6-0.4,24.9-0.6c9.5-0.1,18.9-0.5,28.4-0.1c4.1,0.2,8.3,0.7,12.4,0.2
	c1.4-0.2,2.3-0.2,2.5,1.4c0.2,1.4-0.8,2-2,2c-5.4,0.2-10.8,1.2-16.2,0.3c-1.6-0.3-3.3-0.7-5-0.6c-7.3,0.6-14.6,0.1-21.9-0.1
	c-2.1-0.1-4.1,0.6-6.2,0.6c-6.5,0.1-12.9,0.7-19.4,0.3c-2-0.1-2.5,0.8-2,2.6c0.7,2.8,1.5,5.6,2.1,8.5c1,5.1,1.5,10.2,1.5,15.4
	c0.1,8.8,3.8,17,5,25.7c1.3,9.3,4.4,18.2,5.7,27.6c0.2,1.5,0.1,3.2,1.5,4.3c1.2,1,1.2,2.4,0.6,3.6c-0.5,0.8-1.5,1.2-2.4,0.9
	c-1.3-0.4-2.3-1.6-2.2-3c0-0.9,0-1.8-0.1-2.7c-1.4-7.4-2.9-14.8-4.2-22.2c-0.4-2.3-1.3-4.3-1.6-6.7c-0.3-3.7-1.1-7.4-2.3-10.9
	c-1.3-4-2.2-8.1-2.7-12.4c-0.6-4.2-0.8-8.4-1.1-12.7c-0.4-5-2-9.8-2.9-14.7c-0.4-2.4-1.6-3.1-3.7-2.9c-2.1,0.1-4.3,0.2-6.5,0.5
	c-6.9,1-13.7,2.4-20.6,3.2c-8,1-16,1.5-24.1,1.8c-3.4,0.2-3.7,0.2-3.3,3.7c0.3,3,0.4,6,1.1,8.9c2,8.9,2.9,17.9,4.1,26.8
	c0.8,6,0.5,12,1.3,17.9c0.8,5.8,0.8,11.6,1,17.4c0.1,4.4,0.8,8.6,2,12.8c1,3.3,2.4,4.1,5.8,3.9c6.7-0.3,13.3-2.3,19.9-3.2
	C618.5,498,632.8,498.5,647.2,496.4 M323.4,323.4c0.6,6.6,0.4,13.3,0.6,19.9c0.3,7.8-0.3,15.4-0.3,23.2c0.1,5.5-0.3,6.3,5.3,4.6
	c0.2-0.1,0.5-0.1,0.7-0.2c9.7-1.4,19.4-2.9,29.1-4c11.1-1.3,21.9-4,32.9-5.7c2-0.3,2.8-1.2,2.8-3.3c-0.2-8-1.7-15.9-3-23.7
	c-1.2-7.2-2.3-14.4-1.4-21.8c1-7.8,1.4-15.7,1-23.6c-0.5-8.9-1.9-17.8-2-26.8c0-4.9-1-5.3-5.8-3.9c-4,1.3-8.1,1.9-12.3,2
	c-6.3,0.1-12.5,1.2-18.4,2.9c-6.3,1.8-12.7,2.6-18.9,4.3c-4.6,1.3-9.1,2.4-13.2,5c-1,0.6-1.3,1.3-1.2,2.4c0.3,2.9,0.6,5.8,0.7,8.7
	c0.3,5.7,0.7,11.5,1.3,17.2C322.3,308.2,322.4,315.6,323.4,323.4 M394,295.8c-0.5,5.6-0.9,11.3-1.4,16.9c-0.3,3.8-0.6,7.7,0,11.4
	c1.7,10.3,3.7,20.6,4.6,31.1c0.4,5.6,0.6,5.8,6,4.3c3.8-1,7.8-0.9,11.6-1.8c6.7-1.6,13.6-2.2,20.4-3.7c5-1.1,10.1-1.4,14.9-2.7
	c7.1-2,14.2-3.5,21.4-4.9c1.5-0.3,2.4-1,2.3-2.7c-0.2-3.3-0.4-6.6-0.6-9.9c-0.2-3.1-0.9-3.5-4-2.9c-11,2.1-18-6.4-18.7-15
	c-0.7-8.7,0.2-17.4,3.5-25.7c2.7-6.6,6-12.7,13.5-14.9c1.2-0.4,1.7-1.2,1.5-2.5c-0.4-5.9-0.8-11.8-1.1-17.6c-0.1-2.2-1.3-3.4-3.3-3
	c-4.1,0.8-8.3-0.2-12.4,0.4c-5.2,0.7-10.4,1.3-15.6,1.7c-6.6,0.5-13.3,0.5-19.9,1c-7.2,0.5-14.4,0.8-21.6,1c-2.3,0.1-3.1,1-3.3,3.4
	c0,2.4,0.1,4.8,0.3,7.2C392.8,276.3,393.6,285.8,394,295.8 M498.9,307.1c0,0.8,0.5,1.7-0.6,2.2c-0.8-0.8-0.2-2.1-1.3-3.2
	c-1.1,3.6-3.3,6.9-6.1,9.4c-1.4,1.2-2.7,2.4-3.9,3.9c-1,1.3-1.5,2.5,1,3.6c-3.6,1.7-6.3,4-9.6,5.2c-1.8,0.7-2.8,1.7-2.5,3.9
	c0.5,3.7,0.7,7.5,0.9,11.2c0.1,1.7,1,2.3,2.6,2c5.6-0.8,11.2-1.5,16.9-1.7c8.7-0.2,16.8-3.2,25.2-5c6.7-1.5,13.5-2.6,20.4-3.3
	c3.8-0.3,7.6-0.4,11.4-0.7c1.5-0.1,2.3-0.8,2.3-2.4c-0.2-3.4-0.2-6.8-0.6-10.2c-0.8-6.4-1.6-12.8-1.6-19.3
	c0.1-13.4,1.1-26.9,0.5-40.3c-0.3-5.8-0.9-11.6-1.7-17.4c-0.4-2.3-1.6-3-3.6-2.6c-6.5,1.3-13.1,1.9-19.5,4.1
	c-2.4,0.9-5.1,1.2-7.6,0.9c-10.6-1.1-21.1,0.1-31.6,1.1c-3,0.3-5.9,0.9-8.7,2c-2.5,1-4.9,2.7-8.1,1.5c-1.3-0.5-2.5,0.6-2.3,2.2
	c0.6,6.3,1,12.6,1.2,18.9c0.1,1.2,0.8,1.9,1.9,2.4c6.5,2.5,10.7,7.5,13.9,13.4c0.7,1.1,1.1,2.5,2.3,3.2
	C495.6,295.5,497.1,301.2,498.9,307.1 M695.9,267.2c0-0.8,0-1.5,0.1-2.3c0.7-13.2,1.5-26.4-0.7-39.5c-0.5-3.3-1-3.9-4.1-3.5
	c-10,1.4-20.2,1-30.3,2.9c-12.5,2.4-25.2,4.5-38,5.6c-1.8,0.2-2.6,0.9-2.6,2.8c0.1,6.3,0.1,12.6,0.1,18.9c0,2.1,1,2.9,3,2.5
	c2.1-0.3,4.2-0.5,6.4,0.1c8.2,2.3,11.5,9.1,14.4,16.1c1.1,2.8,2.5,5.7,2.6,8.8c0.4,10.8-6.3,17.8-13.8,24.1c-2.9,2.4-6.3,4-9.9,5.3
	c-1.9,0.7-2.7,2-2.7,4.2c0,3.6,0.8,7.1,1.1,10.6c0.3,4.2,0.7,4.4,4.8,4.3c0.4,0,0.8-0.1,1.2-0.1c12-0.7,24-2.6,36-3.6
	c10.6-0.8,21.1-1.3,31.7-1.3c2.4,0,3.4-0.8,2.9-3.1c-0.3-1.7-0.4-3.5-0.2-5.3c0.2-7.3-0.8-14.6-1.3-21.9
	C696,284.5,696,276.1,695.9,267.2 M451.2,354.4c-7.4,1.5-15,2.5-22.5,4.1c-9.6,2-19.3,2.9-28.8,5c-1.5,0.3-2.2,1.1-2.1,2.5
	c0.3,4.9,0.6,9.8,1.1,14.7c0.6,5.1,1.9,10.2,2.2,15.3c0.8,12,1.7,24,3.9,35.9c0.6,3.3,0.6,3.3,4,2.6c7.3-1.6,14.6-3.7,22-4.6
	c11.9-1.5,23.7-3.6,35.6-5.4c4.9-0.7,9.7-1.5,14.5-2.6c1.2-0.3,1.9-0.6,1.7-2.1c-0.9-10.4-3.1-20.7-3.7-31.1
	c-0.4-9.4-3.1-18.7-3.7-28.1c-0.2-2.7-0.7-5.5-0.7-8.2c0-2.8-1.6-3.1-3.6-2.6C464.6,351.2,458,352.4,451.2,354.4 M563.9,403.3
	c-0.9-3.7-1.8-7.4-2.6-11.1c-0.7-2.9-1.2-5.7-1.5-8.6c-0.7-7.2-3-14.1-3.5-21.4c-0.4-6.2-0.6-12.4-0.4-18.7c0.1-4.8-0.9-5.7-5.6-5.4
	l-0.7,0.1c-4.5,0.5-9.1,0.7-13.6,1.4c-4.9,0.7-9.7,1.3-14.4,2.5c-10,2.6-20.1,4.8-30.4,5.4c-3.8,0.2-7.6,0.8-11.4,1.2
	c-1.4,0.2-2.8,0.8-2.5,2.5c0.8,3.7,0.6,7.6,1.1,11.3c1,6.7,2,13.5,2.9,20.2c0.5,3.5,0.4,7.1,0.8,10.7c1.1,8.1,1.8,16.2,3.2,24.2
	c0.6,3.5,0.9,3.4,4.1,2.8c4.3-0.8,8.6-1.9,13-2.4c6.2-0.9,12.5-2,18.6-3.6c13.2-3.4,26.8-5.2,40.4-5.4c3.3,0,3.8-0.7,2.8-3.8
	C564.2,404.6,564,404,563.9,403.3 M388.2,365.2c-0.7,0.3-1.4,0.4-2.2,0.6c-7.3,0.7-14.4,2.9-21.6,3.9c-7.5,1-15.1,2.1-22.7,3
	c-5.1,0.6-10.2,1.4-15.2,2.5c-2.1,0.4-2.6,1.5-2.5,3.5c0.3,3.7,0.4,7.5,0.4,11.2c-0.2,12,0.6,23.9,1.9,35.8
	c0.7,6.4,1.2,12.8,1.7,19.2c0.1,1.6,0.7,2.2,2.2,1.8c2.8-0.8,5.8-0.6,8.6-1.2c9.6-2,19.3-3.5,29-4.9c10-1.4,20.1-3,30.2-3.8
	c1-0.1,2-0.4,2.9-0.6c1.3-0.2,1.9-1,1.6-2.3c-0.9-3.9-1.2-7.9-1.7-11.8c-1-7.9-1.8-15.9-2.1-23.8c-0.1-3.6-0.3-7.1-1.2-10.6
	c-1.5-5.8-2.2-11.8-2-17.8c0.1-5-1.1-6.2-6-5C389.2,364.9,388.9,365,388.2,365.2 M541.1,169.5c-4.5,1.2-9.1,1-13.6,1.8
	c-6.7,1.2-13.5,2.2-20.2,3c-6.8,0.8-13.6,1.3-20.4,2c-6.2,0.6-12.4,1.5-18.6,2c-2.3,0.2-3.1,1.2-2.8,3.4c0.6,3.7,0.1,7.5,0.1,11.2
	c0.1,6.6-0.4,13.1,0.3,19.7c0.8,7.8,1.7,15.7,2.5,23.5c0.3,3.4,0.8,6.8,1.2,10.2c0.2,2,1,3.4,3.3,3.3c3.1-0.2,6.3-0.5,9.3-1.7
	c1.7-0.7,3.5-1.5,5.5-1.6c11.2-1,22.3-1.9,33.5-1.5c2.8,0.2,5.5-0.2,8.2-0.9c5.3-1.6,10.7-3.1,16.3-3.3c1,0,1.9-0.5,2.9-0.7
	c2-0.5,2.8-1.9,2.4-3.8c-0.8-3.8-0.9-7.8-1.3-11.7c-0.2-1.8-1.1-2.5-2.9-2.2c-1.4,0.2-3,0.7-4.2-0.1c-2.1-1.4-4.4-1.3-6.7-1.6
	c-6.4-0.9-10.2-5.3-9.9-11.8c0.1-3.7,1.3-7.2,2.9-10.5c1.4-2.9,3-5.7,4.4-8.7c1.9-4.1,4.3-7.9,8.3-10.3c4.1-2.5,4.1-2.5,3.3-7.1
	C544.6,170,543.7,168.9,541.1,169.5 M462.8,190c-0.2-2.5-0.1-5.1-0.6-7.7c-0.6-3.2-0.7-3.4-3.7-3.1c-4.1,0.4-8.1,1-12.2,1.4
	c-9.3,0.8-18.4,2.5-27.6,3.5c-8.3,0.9-16.5,2.3-24.8,2.9c-0.9,0.1-1.9,0.1-2.7,0.2c-1.1,0.1-1.7,0.8-1.4,1.9
	c0.7,3.4,0.4,6.8,0.4,10.2c-0.1,17.5,2.4,34.9,1.7,52.4c-0.1,1.4,0.6,2,2,1.8c3-0.3,6.1-0.3,9.2-0.3c10.4-0.2,20.7-1.5,31.1-1.8
	c9.4-0.3,18.7-1.2,28.1-1.8c4.8-0.3,4.9-0.2,4.6-5.4c-0.4-6-1.4-12.1-2.3-18.1c-0.9-6.2-1.3-12.4-1.7-18.6
	C462.4,201.7,462.8,196,462.8,190 M353.6,260.2c4.3-0.5,8.5-2.3,12.7-2.5c7-0.4,14-1.5,20.8-3.4c1.7-0.5,2.1-1.4,2.3-3
	c0.7-6.4-0.6-12.7-0.7-19.1c-0.2-8.2-0.4-16.3-0.9-24.4c-0.4-6.2,0.2-12.5-1.3-18.6c-0.3-1.3-0.9-1.8-2.2-1.7
	c-6,0.7-12.1,0.7-18.2,1.1c-5.7,0.4-11.5,1-17.1,1.7c-4.1,0.6-8.3,0.8-12.4,1.6c-5.7,1.1-11.2,3.1-17,3.4c-0.6,0.1-1.3,0.3-1.9,0.5
	c-1.7,0.3-2.2,1.2-2,3c0.7,8.7,1.3,17.3,1.7,26.1c0.3,5.1,0.3,10.3,0.3,15.4c0,4.4,0.5,8.8,0.5,13.2c0,5.1,0.8,10.2,1.2,15.1
	c0.7,0.3,1.6,0.3,2.3-0.1c5.7-2.9,12.2-3.3,18.2-5.1C344.1,261.9,348.8,262.2,353.6,260.2 M565.4,334.4c4-0.5,8.1-1,12.1-1.6
	c6.1-0.9,12.1-2.1,18.2-2.8c6.5-0.8,13.1-1.3,19.7-1.7c2.2-0.1,3-1.4,2.6-3.3c-0.8-3.8-0.9-7.6-1.2-11.4c-0.2-1.8-1-2.6-2.9-2.8
	c-7.5-0.7-11.5-4.2-13.6-11.4c-0.7-2.4-0.4-5-1.8-7.2c-1.1-1.7-1.2-3.6-1.1-5.5c0.5-8.3,3.6-15.9,7.5-23.1c2-3.7,4.9-7.1,9.2-8.4
	c2.1-0.7,2.8-1.9,2.8-4.1c-0.2-5.7-0.2-11.5-0.3-17.2c0-2.2-1.2-2.9-3.2-2.6c-7.7,1-15.3,2.2-22.9,3.5c-9.7,1.6-19.6,2.8-29,6
	c-6.1,2-6.2,1.9-5.5,8.3c1,9.1,1.4,18.2,1.2,27.4c-0.1,4.4-0.2,8.8-0.3,13.2c-0.2,8.6-0.8,17.1,0.7,25.6c0.7,4.3,1.2,8.6,1.2,12.9
	C558.8,334.4,559.1,334.5,565.4,334.4 M616.7,186.9c1,12.2,2.6,24.3,2.9,36.5c0.1,2.9,1.2,3.8,4.1,3.6c7.8-0.3,15.3-2,23-3.1
	c4-0.6,8-0.9,11.8-1.8c8.4-1.8,16.8-3.2,25.4-3.1c2.5,0,5.1,0.3,7.7-0.3s2.8-2,2.6-4.1c-0.4-4-0.7-8.1-0.9-12.2
	c-0.5-11.8-0.4-23.7-1.2-35.5c-0.2-2.5-0.4-5-0.9-7.5c-0.2-1.3-0.7-2.6-2.5-2.6s-3.7-0.3-5.5-0.1c-8.9,0.9-17.8,0.7-26.6,0.9
	c-12.8,0.3-25.5,2.6-38.2,3.8c-1.7,0.2-2.3,1-1.9,2.7c0.2,0.9,0.7,1.6,0.5,2.7C616.2,173.5,616,180.2,616.7,186.9 M624.2,394.2
	c-2.3-8-2.1-16.3-2.7-24.5c-0.9-11.4-1.5-22.8-2.3-34.1c-0.3-3.7-1.4-4.8-4.9-3.9c-4.1,1.1-8.2,0.6-12.3,1.2
	c-6.6,1.1-13.4,1.4-20,2.7c-6.2,1.1-12.5,2.2-18.8,2.2c-3.3,0-4.1,0.7-4,3.8c0.3,11.1,0.2,22.2,2.5,33.1c0.9,4.2,1.2,8.5,1.8,12.8
	c0.9,5.9,2.6,11.7,3.9,17.5c0.7,3.3,1,3.5,4.3,3.3c11.1-0.8,22.3-1.5,33.3-3.4c6-1,12.1-2.3,18.3-2.2c1.7,0,2.5-0.7,2.1-2.4
	C625,398.5,624.7,396.5,624.2,394.2 M558.6,217.7c-0.8,0.4-1.7,0.8-2.5,1.1c-2.2,0.9-3.4,2.4-3.2,5c0.2,4.3,0.7,8.5,1.5,12.6
	c0.3,1.5,1.5,2.2,3,1.9c1.8-0.3,3.6-0.7,5.4-1.1c5.3-1.6,10.6-3.4,16.2-4.1c11.7-1.5,23.2-4.6,35.1-5.2c1.7-0.1,2.6-1.1,2.5-2.8
	c-0.7-7.2-0.6-14.5-1.6-21.6c-1.2-8.4-2.5-16.9-1.8-25.5c0.4-4.6-0.5-9.1,0.3-13.7c0.3-1.7-1.1-2.3-2.4-1.9c-3.6,0.8-7.2,1-10.9,1.5
	c-4.1,0.7-8.2,1.1-12.4,1.2c-3.3,0.1-6.7,0.1-9.9,0.7c-8.1,1.3-16.2,1.8-24.3,2.5c-5,0.4-5.6,1-5.1,5.8c0.2,1.8,1,2.7,2.8,2.9
	c1.3,0.1,2.3,0.8,3.5,1.3c3.8,1.4,5.7,5,8.8,7.3c4,2.9,7.1,6.9,8.8,11.5c1.5,4.2,1.1,8.2-1.4,11.6
	C567.7,212.7,563.3,215.2,558.6,217.7 M434.5,129.7c2.7-9.6,6.3-18.8,9.9-27.8c0.5-1,0.7-2.2,0.6-3.4c-0.2-0.7,0-1.4,0.4-1.9
	c4.6-4.9,5.3-11.5,7.3-17.5c1.6-4.7,3.2-9.4,4.9-14.1c1.4-3.8,2.3-7.8,3.3-11.7c1.5-5.5,4.7-10.3,7.5-15.1c0.8-1.3,2.6-1,3.6,0.7
	c1.4,2.2,2.3,4.7,2.6,7.2c1.2,11.2,2.9,22.4,5.2,33.5c1.4,6.9,3.3,13.6,5.6,20.1c1.4,4,2.2,8.1,3.6,12.1c0.5,1.5,1.2,3.2-0.1,4.7
	c-1.1,1.3-2,1.4-2.7-0.4c-0.8-2.2-0.9-4.5-1.5-6.8c-1.6-6.1-4.2-11.9-5.9-17.9c-0.7-2.3-1.3-4.6-2-7.3c-4.4,1.8-8.5,3.6-12.7,5.4
	c-4.4,2.1-8.7,4.5-12.8,7.3c-1.2,0.8-2.1,1.5-2.6,2.8c-3.1,8.4-6.3,16.8-9.4,25.3c-0.6,1.8-0.9,3.7-1.6,5.5c-0.4,1-1,2.4-2.4,2.1
	C434.8,132.3,434.3,131.2,434.5,129.7 M462.1,63.5c-3.3,9.3-6.9,18.6-9.9,28.8c8.4-4.4,16-8.8,24.9-10.3
	c-2.3-12.6-4.3-25.1-6.3-37.7C466.3,49.9,464.4,56.6,462.1,63.5 M581,63.3c5.8,0.5,7.3-0.6,8.6-6c0.8-3.4,2.6-6.5,3.1-10
	c0.2-1.2,0.5-2.4,0.3-3.8c-5.5,0.3-10.9,0.4-16.2-0.1c-1.9-0.2-3.8,0.8-5.7,1.7c-0.8,0.4-2.1,1.1-2.6-0.2c-0.3-0.9,0-2.1,1.1-2.8
	c3.2-2.1,6.5-2.7,10.4-2.3c4.3,0.5,8.8,0.8,13.1-0.3c2.7-0.6,3.7,0.2,3.7,2.9c0,3.9-0.8,7.6-2.4,11.1c-1.1,2.2-1.5,4.6-2.2,6.9
	c1.7,1.1,3.7,0.1,5.4,0.9c0.6,0.3,1.4,0.3,2,0.9c0.4,0.5,0.8,0.9,0.6,1.5c-0.2,0.7-0.8,0.8-1.4,0.8c-1.6,0.1-3.3,0.1-5,0.1
	c-2.3-0.1-3.9,0.7-4.4,3.1c-0.8,3.2-2.3,6.2-2.9,9.5c-0.3,1.7-0.3,3.3,0.6,4.8c0.8,1.3,1.3,2.8-0.5,3.6c-1.9,0.8-2.8-0.8-3.3-2.2
	c-1.4-3.5-0.3-6.9,0.7-10.3c0.6-2.1,1.9-3.9,2.1-6.2c-1.8-0.5-3.5,0.3-5.2-0.2c-1.2-0.3-2.5-0.5-2.5-1.9
	C578.2,63.5,579.6,63.3,581,63.3 M527.3,111.3c0.2-0.8,0.4-1.6,0.4-2.4c0-1.4-1-2.3-2-3s-2.1-0.1-3,0.6c-2.3,1.8-4,4.1-5,6.7
	c-1.3,3.2-2.3,6.4-3.5,9.6c-0.4,1.2-0.9,2.7-2.4,2.4c-1.8-0.4-1.5-2.2-1.3-3.5c0.2-1.1,0.8-2.2,1-3.3c0.5-1.8,0.4-3.9-1.5-4.5
	c-1.9-0.7-3.4,0.9-4.1,2.7c-1.2,3.1-2.2,6.3-1.7,9.7c0.1,1,0.1,2,0.1,3c-0.1,1.7-0.9,2.8-2.6,2.8s-2-1.3-2.1-2.8
	c-0.2-3.8,0.9-7.6,0.8-11.4c-0.1-1.3-0.2-2.6-0.4-3.9c-0.3-2,0.7-2.8,2.4-2.1c1.4,0.5,2.3,0.2,3.4-0.6c2.2-1.6,4.5-1.6,6.8-0.3
	c1.6,0.9,2.5,0.5,3.4-1c1.5-2.6,3.5-4.9,6.1-6.5c1.9-1.2,3.9-1.7,5.8-0.4c2,1.2,3.1,3.4,2.8,5.7c-0.1,1.7-0.6,3.5-1.3,5
	c-0.6,1.3-1.1,2.6-1.6,3.7c0.3,1.4,2.5,1.2,1.9,2.8c-0.5,1.2-1.6,1.8-2.9,2.1c-2.3,0.5-3.6-1-2.8-3.2
	C525,116.6,526.2,114.1,527.3,111.3 M699.5,115.2c2,1.4,1.9,2.8-0.4,4.6c-2.1,1.5-4.1,3.1-5.6,5.5c2.1,2.4,4.2,4.8,7.7,5.2
	c1.3,0.1,2.2,0.8,2.5,2c0.3,1.3-0.7,2-1.4,2.8c-0.9,1.1-1.7,0.2-2.7-0.1c-3.1-1.1-5.7-3.1-8.1-5.3c-1.6-1.6-2.7-1.8-4.3,0.3
	c-1.8,2.4-4.1,4.3-6.4,6.3c-1,0.9-2.3,1.2-3.8,0.6c0.6-2,1.7-3.7,3.2-5.1c1.4-1.3,2.8-2.6,4.2-3.9c1.8-1.8,1.7-2.7-0.6-4
	c-1.2-0.6-2.3-1.4-3.3-2.3c-1.2-1.2-1.7-2.6-0.4-3.9c1.4-1.4,2.7-0.2,3.6,0.8c0.9,1,2.1,1.6,3,2.5c1.5,1.5,2.8,1.8,4.3,0
	s3.4-3.4,5.1-5.1C697.1,115.1,698,114.4,699.5,115.2 M317,170.6c0.9,1.1,1.5,2.1,0.3,3.3c-1.8-0.6-3.4-1.6-4.9-2.8
	c-2.1-1.7-4.6-2.7-6.9-4c-1.2-0.6-2.1-0.6-3,0.7c-2.1,3.1-4.4,6-5.9,9.5c-0.2,0.4-0.3,0.8-0.6,1.1c-0.5,0.9-1.7,1.2-2.6,0.7
	c-1.2-0.6-0.8-1.5-0.3-2.3c2.1-3.2,4.2-6.4,6.3-9.6c0.4-0.7,1.1-1.2,1.2-2.3c-1.6-1.1-3.6-1.5-5.3-2.4c-0.8-0.4-1.6-0.8-2.4-1.3
	c-0.8-0.6-1.1-1.5-0.5-2.4c0.6-1,1.3-0.7,2.2-0.3c1.8,0.7,3.5,1.4,5.3,2.1c2.8,1.1,5.4-0.4,5.2-3.4c-0.1-2.6,1.6-4.2,2.7-6.1
	c0.3-0.6,1.1-0.9,1.8-0.6c0.7,0.2,1.2,0.9,1.3,1.7c0.1,2-0.4,4-1.6,5.7c-1.1,1.6-2.4,3.1-3.1,5.1C309.6,165.6,313.9,167.1,317,170.6
	 M538.5,105.5c1.4-1.1,2.1-3.4,4.3-2.6c2.3,0.8,3,2.8,3.2,5.1c0.2,2.5,1.4,3.2,3.9,2.5c1.3-0.5,2.8-0.3,4,0.3
	c0.3,1.2-0.4,1.8-1.3,2.2c-2.6,1.2-5.2,2.3-8.1,0.8c-0.7-0.5-1.7-0.3-2.2,0.4c-0.4,0.6-1,1.1-1.5,1.7c-1.5,1.2-3,2.5-4.9,1.2
	s-2.5-3.2-2-5.5C534.5,109,536.3,107.3,538.5,105.5 M538,111.1c-0.1,0.7-0.6,1.6,0.3,2c0.8,0.5,1.3-0.3,1.8-0.8c1.4-1.3,2-3.2,1.5-5
	C539.6,107.9,539,109.4,538,111.1"/>
<path d="M551.9,125.1c-1.1,0.6-2.2,1.1-3.3,1.7c-2.3,1.2-3.9,0.5-5.2-1.7c-0.7-1.2-1.2-2.4-0.4-3.7c0.3-0.6,1-0.9,1.7-0.8
	c1.6,0.3,1,1.9,1.6,2.8c0.9,0.6,1.6,0.3,2.4-0.2c1.8-0.9,3.4-2,4.9-3.4c2.9-2.8,4.6-5.8,2.9-10c-0.8-2.1-1.4-4.4-2.3-6.6
	c-0.5-1.1-0.4-2,0.7-2.5c1.2-0.5,1.8,0.1,2.3,1.2c1.7,3.5,2.7,7.1,3.1,11c0.3,3.2-1.6,5.7-3.6,7.9
	C555.4,122.7,553.7,124,551.9,125.1 M552.9,83.6c0.3,1.5,0.1,2.6-1.7,2.2c-1.2-0.3-1.7,0.7-2.6,1.3c-0.9-1.1-2.4-1.6-2.1-3.2
	c0.1-0.9,0.7-1.8,1.7-1.8C549.9,81.9,551.9,81.2,552.9,83.6"/>
</svg>
