<svg xmlns="http://www.w3.org/2000/svg" viewBox="0 0 759.9 1016.6" xml:space="preserve">
  <path d="M180.9 440.6c3.6-.4 6.8-1 9.9-.9 3.9.1 5.1-1.2 5.2-5.2.3-10.3-.1-20.6-.2-31-.1-15.3.1-30.5 1-45.8.7-12.1 1-24.2-.2-36.3-.3-3.3-1.8-4.3-4.8-4.1-13.4.7-26.8 1.5-40 4-10.2 2-20.5 1.6-30.7 3-7.9 1-15.9.2-23.8 1.5-3.1.5-6.6-.8-9.7-1.8-2.2-.7-2.5-3.2-1.5-5 .9-1.6 2.4-4.1 4.6-2.6 5.2 3.7 11 2.3 16.5 2.1 13.1-.4 26.3-1.3 39.3-2.8 15.1-1.7 30-4 45.2-4 1.9 0 3.4-.3 4.4-2.4 1.5-3.1 3.7-3.9 5.9-.6 1.5 2.2 3.5 2.3 5.7 2 25.2-3.3 50.5-3 75.7-2.6 4.5.1 9 .5 13.5.7 2.7.1 5.3 0 7.3-2.2 1.3-1.5 3.2-1.6 4.4-.2 2.8 3 6.3 2.5 9.8 2.8 20.7 2.1 41.5 2 62.3 3.3 23.7 1.5 47.5 1.1 71.1 3.8 2.6.3 3.9-.2 5.3-2.3 2.6-4 4.9-3.9 6.8.1 1.4 3 3.8 3.6 6.5 3.6 6 .1 12 .1 18-.2 23.7-1.4 47.2.6 70.9 1.5 12.1.5 24.2.8 36.4.2 16.1-.8 32.2.6 48.2 3 6.7 1 13.5 2.2 20.3 2.4 10 .3 19.9 2.1 29.9.5 2.3-.3 4.5-.8 6.6-1.7 2.3-1.2 5.1-.6 6.8 1.3 2 2 2.2 3.9.5 6.2q-.6 1.05-.6 2.4c-.5 21.1-3 42.1-4.3 63.1-.7 10.6-2.6 21.1-4.2 31.6-1.9 12.9-1 25.9-1.8 38.7-1.2 18.4-1.2 36.9-3 55.3-1.5 15.2-.8 30.6-.2 45.9.5 12.1-.4 24.3-.6 36.4-.4 21.4-1.2 42.8-1 64.2.2 23.9.6 47.8 2.3 71.7 1.3 19.4 1.8 38.8 2.4 58.3.7 23.4.5 46.8 2 70.2.9 14.3 0 28.5-.9 42.7-.4 6.6 1.7 13.2.9 19.9-.9 7.3-.2 14.5.7 21.8.4 3.4 3.3 6.8-.2 10.1-3.2 3-6.8.5-10 .3-18.5-1.5-36.9.8-55.3 2.1-21.5 1.5-43 3.9-64.6 4.8-12.9.5-25.9.9-38.8.3s-26.3.1-39.3-1.1c-8.2-.8-16.7 0-24.8-2.2-.3-.1-.7-.2-1-.2-8.2-.1-16.3.5-24.6-.8-7-1.2-14.9-.3-22.3-.7-9.4-.4-19-1.3-28.2-1.1-11.6.2-23.2-1.1-34.8 0-10.3 1-20-3-30.2-3-7.9 0-15.9-1.2-23.7-.5-14.3 1.3-28.5 1.2-42.8 1.5-13.6.2-27.1-.5-40.7.3-7.9.5-16-.8-23.9 0-15.6 1.5-31.4.5-46.9 3.4-7.2 1.3-14.6 1.2-21.8 2.4-14.2 2.4-28.6 3.9-42.8 6.5-10.8 2-21.7 2.6-32.6 3.3-4.5.3-5.4-1.6-4.8-6.2 1.3-11.3 2.6-22.7 3.4-34 1.8-25.2 2.8-50.4 3.8-75.6.9-22.4 2-44.8 2.9-67.2q1.35-34.65 5.4-69c3.2-26.9 5.6-53.9 7.3-80.9 1.6-25.3 4.8-50.5 6.4-75.8 1.9-28.7 4-57.4 1.6-86.2-.6-7-.9-13.9-1.2-20.9-.2-3.4-1-5.9-5-6-1.3 0-2.8-.4-3-2.1-.2-1.5 1-2.9 2.5-3.1h.2c4.5-.5 4.6-3.5 4.5-6.9-.9-20.9 1.9-41.4 4.9-62 1.1-7.6 2.2-15.4 1.6-23.2-.3-4.4.4-8.6 1-12.9.8-6.2.9-12.2-1.6-18.2-.8-2.2-1.5-4.5-2-6.8 4.5-1.2 5.9 1.5 7 4.2 2.6 6.5 2.9 13.2 2.5 20.1q-1.35 30.9-6 61.5C80 419.1 80.2 431.1 80 443c-.1 5.6 1.3 6.7 6.5 5.1 6.4-2 13-3 19.7-3 21.2-.1 42.2-1.7 63.3-2.9 3.8-.2 7.6-.8 11.9-1.3m-12.2 352.4c-.3-8.3-.4-16.7 0-25 .6-12.5 1.9-24.9 1.9-37.4-.2-25.5.7-50.9 2.3-76.3.6-8.8.1-17.8.1-26.3-4.9-2-8.8-.3-12.7-.2-15.3.6-30.3-3-45.5-2.9-11.8.1-23.6-.5-35.4 1-3.1.4-4.1 1.5-4.5 4.5-.6 4.5-.6 8.9-1.3 13.4-1.2 7.7-1.9 15.5-2.2 23.3-.4 6.8.4 14-.7 20.7-5 31.4-6.7 63.2-9.3 94.8-2.2 26.3-1.9 52.8-3.6 79.2-1.3 20.7-1.9 41.5-2 62.2-.1 13.9-2.5 27.8-4.1 41.6-.4 3.6.6 5 4.1 4.9 5.8-.2 11.6-1 17.3-1.5 12.1-1.2 23.9-3.7 35.9-5.3 17.9-2.3 35.8-5.5 53.9-6.6 7.6-.5 15.3-.2 22.9-1.2 12.1-1.5 24.3-.9 36.4-.9 18.9 0 37.9 0 56.8-.6 3.3-.1 4-1.7 3.7-4.5-1.3-11.8-1.2-23.6-.9-35.4.3-14.8 1.2-29.6 1.7-44.3.3-7.3-.2-14.7.8-22 1.6-11.7 2.4-23.5 2.5-35.2.1-3-1-4.2-4-4.2-4.8 0-9.7.6-14.4.5-16.4-.4-32.6-2.2-49.1.5-12.2 2-24.6 1.9-36.7-.3-7.4-1.3-7.4-1.1-6.1 6.3q.15.75 0 1.5c-2.4 7.5-1.1 15.1-1.3 22.7-.2 13-.9 26-1.1 39.1-.1 11.2-.4 22.3.8 33.4 1.3 11.7-1.7 23.2-.6 34.9.2 2.1-.2 5.6-3.6 5.5-3.1 0-3.3-2.8-3.2-5.2v-4.5c.1-13.8.5-27.6.1-41.4-.5-17.5 0-34.9.5-52.3.4-13.6.5-27.2-.4-40.9-.6-.3-1.3-.5-2-.6-17.3-.9-34.6-.6-51.8.8-13.3 1.1-26.6.7-39.8-1.1-5-.5-9.2-3.9-10.7-8.7-.8-2.2.4-3.7 1.8-4.7 1.9-1.4 3.3.2 4 1.7 2.1 4.8 6.5 6.3 10.7 6 9.9-.7 19.6 1.3 29.4.5 17.1-1.4 34.2-1.2 51.4-.9 7.5 0 7.5 0 8-8.6M690 768.5c-1.3-23.2-2.3-46.4-3.8-69.6-1.6-24.8-.5-49.5.1-74.3.7-28.1 1.2-56.2.7-84.2-.3-16.2 2.8-32.1 2.9-48.2.1-11.3 1-22.6.6-33.9.2-2.1-1.3-3.9-3.4-4.3-6.6-1.8-13.1-3.7-20-4-12.6-.6-25.2-1.2-37.8-1.4-14.1-.2-28.2 1.4-42.4-.3-5.7-.7-7.2 1-7.3 6.8-.2 12.8-.1 25.6-.2 38.5 0 3.4 1.2 5.5 4.9 6.4 4.9 1.2 9.1 4.5 11.4 8.9 1.6 3.1 3.6 6 5.8 8.7 9.4 10.2 9.6 22.2 6.6 34.7-1.4 6.1-5.1 11.4-10.2 14.9-5.8 4.2-12.1 7.6-18.8 10.2-3.2 1.2-4.7 3.2-4.9 6.7-.5 11.3-1.2 22.5-1.7 33.8-.2 4.3 1.6 6.5 6.3 6 18.7-1.8 37.5.4 56.3-1.1 13.8-1.1 27.5 1.9 41.4 1.2 1 0 2 .2 2.9.6 2 1.1 4.8 2.3 4 5s-3.4 3.7-6.4 3.4c-12.2-1-24.5-1.9-36.7-2.9-4.9-.4-9.6 1.5-14.4 1.1-13.8-1.3-27.5-.4-41.3 0-14.4.4-15.3 1.2-15.1 15.8.2 14.1-1.1 28.2-.9 42.4.3 8.8-.1 17.7-1.1 26.4-1 8.4-1.8 17-.8 25.4 1.6 12.4 1.9 24.9 1.1 37.3-.5 6.4.5 12.9 1 19.4.2 3 1.9 4.2 5 4.2 6.3-.2 12.7 0 19 0 11.3-.1 22.5 2.5 33.9 2.1 10.8-.3 21.6.5 32.4 1.4 10.1.8 20.2 2.3 30.8 3.6v-40.3m-228-253.5c.7-22.1-.2-44.2-.8-66.4-.2-6.3-2.4-8.8-8.9-8.3-5.7.5-11.4-.2-16.9-.9-15.6-1.9-31.1-.5-46.6.9-16.1 1.5-32.3.3-48.3-1.3-8.1-.8-16.2-.6-24.3-1.1-2.1-.1-4.3.5-4.3 3.1.1 7.9-2.3 15.5-2.3 23.3 0 21.5 0 42.9-1.1 64.3-.9 17.3-2.3 34.5-4.5 51.7-1.4 10.7-3.7 21.2-3.6 32.1 0 3.7 1.3 5.1 4.9 5 6.5-.2 13 0 19.5 0 17.5 0 35-.2 52.4.2 23.5.5 46.9 2.5 70.2 4.6 6.8.6 8.2-.4 8.4-7.1.3-10.9 1.8-21.5 3.1-32.3 2.9-22.1 1.9-44.5 3.1-67.8m-13.2 225.2c-1.7-19.5.4-38.9 1.6-58.3 1-15.7.6-31.6 3.4-47.2.6-3.5-1.2-5.3-4.6-5.6-12.5-1.3-25.1-3.1-37.6-3.9-18.1-1.2-36.3-1.6-54.6-1.5-7.9 0-15.8.9-23.8.4-5.4-.2-10.9-.1-16.3.4-6.1.5-12.1-1.5-18.3-.3-.7 15.4-1.6 30.4-2.1 45.5-.4 16.4-.7 32.9-.6 49.3 0 26.2-3.2 52.4-2.2 78.7.2 4.6 1.9 4.7 5.2 4.9 8.8.5 17.6-.3 26.4-.7 23.1-1.2 46.2.7 69.3-.4 13.5-.6 27-.4 40.4-.6 3.1-.1 6.9.2 9.2-1.4 2.7-1.9.4-5.9.9-8.9 2.5-16.4 4.3-32.9 3.7-50.4m-5.6 109c.3-12.9.7-25.9 1-38.8.1-3.8-2.4-3.7-5.1-3.4-15.9 2-31.8 1-47.7 1.1-14.6 0-29.2.3-43.8-.1-16.6-.4-33.2 1.1-49.8 1.6-3.4.1-4.2 1.7-4.1 4.7.5 19-3.9 37.7-3.2 56.7.3 8.6-1.3 17.2-1.4 25.9-.2 17.1-1.6 34.2 1.3 51.3 1.1 6.4.5 6.3 7.1 6.2 7.5-.2 14.9-.2 22.4-.2 14.5-.1 28.7 3.4 43.3 3.3 17.5-.1 34.9-.3 52.4.9 8.8.6 17.6.3 26.4.4 3.1 0 4.4-1.3 4.2-4.6-1-12.9-1.8-25.8-1-38.8.5-7.8-1.5-15.6-.7-23.4 1.3-14.4.9-28.7-1.3-42.8m-267.5-51.9c-.4 3.5 1.7 4.1 4.5 4.3 13.8 1.1 27.4 2.2 41.3 1 20.1-1.6 40.3-1.7 60.4-.2 4.7.3 6.1-1.4 6-6-.3-11.3-.9-22.5 0-33.9 2.2-27.2 1.2-54.5 2.1-81.8.4-11.5 1.5-22.9 1.5-34.3 0-6.3.6-12.6.7-18.9 0-2.6-.7-4.3-4-4.4-12.8-.4-25.5.8-38.2 1.6-21.2 1.4-42.5 1.2-63.8 1.9-5 .2-6.4 1.2-6.2 6 .3 6.3-.1 12.6-.1 18.9-.1 19.8-2.5 39.5-2.3 59.3.1 6.1.4 12.3.3 18.4-.1 11.7-1.3 23.2-2.4 34.8-1 10.9 0 21.7.2 33.3m9.4-177.1c5-.2 10-.7 15-.6 29.6.3 59.2-2.6 88.8-2.3 3.2 0 4.6-1.4 5-4.2 1.8-12.7 3.9-25.3 5.1-38 2.9-30.9 4.7-62 4.5-93-.1-12.5 1.2-24.9 2.7-37.3.5-4.2-.6-6.1-5.2-6-10 .4-20 .6-29.9 1.4-14 1.2-28 2.3-42.1 2.7-7 .2-14 .5-20.9 1.1-3 .2-6.4.2-6.6 4.9-.4 11.6-2.8 23.1-5 34.4-2.4 12.6-4.6 25.3-3.6 38 1.9 21.8-3 42.6-7.8 63.4-2.4 10.4-4.6 20.7-4.4 31.4 0 2.6.5 4.4 4.4 4.1m506.9 271.8c.4-5.6 1.7-11.2 1-16.9-1.3-10.2-1.8-20.6-1.8-30.9 0-7.2-.2-14.3-.2-21.5 0-3.7-1.1-5.7-5.1-6.4-4.5-.8-9-.4-13.4-1-10.4-1.5-20.7-4.1-31.3-3.6-4.4.2-8.9-.8-13.4-.8-8.3 0-16.5.1-24.8-1.1-10-1.5-20.1-2.7-30.2-1.1-2.2.3-3.2 1.2-3.5 3.4-1.9 14.7-3.5 29.3-2.1 44.2 1.6 16.2 1.5 32.5 1.5 48.8 0 12.6-1.5 25.1.4 37.7.9 6.2 1 12.7 2 19.2 1.1.1 2.3.2 3.5.2 27-2 54-3.7 81-6 10.6-.9 21.2-1.3 31.8-1 3.9.1 5.3-1.2 4.9-5.7-1-11.8-.2-23.8-1-35.7-.4-6.9.8-13.9.7-21.8M561.8 761.3c.1-11.8-2.8-23.4-1.7-35.3.9-9.1 1.5-18.2 1.7-27.4.5-20.6 0-41.2 2.1-61.8.4-3.8-1-5.1-4.8-5.8-14.5-2.4-29.1-.5-43.7-1.8-16.4-1.4-32.9-2.9-49.5-.6-3.4.5-5.2 1.4-5.7 5.3-1.7 12.9-1.8 25.8-2.8 38.8-1.6 18.9-2.5 37.8-2.9 56.8-.3 15.4.7 30.8-1.6 46.2-1.3 7.6-1.7 15.3-1.4 23 1.9.7 3.9.9 5.9.5 18.4-2.2 36.9-2 55.3-.8 14.9 1 29.8 2.1 44.8 3.3 3.2.2 4.5-.9 4.4-4.2-.1-11.8-.1-23.6-.1-36.2M96.7 617.7c12.5.2 25 .6 37.4 1.9 11.7 1.4 23.6 1.7 35.4 1.1 2.7-.2 4.4-.7 4.5-3.9.5-13.5 4-26.5 6.7-39.7 3.8-18.5 7.4-37.1 5.5-56.2-.6-5.8-.4-11.7.7-17.4 2.4-12.2 4.6-24.5 6.4-36.8 1-6.8 3.1-13.6 2.1-20.9-16.8 1.4-33.3 2.8-49.7 4-9.9.7-19.9 1-29.9 1.4s-20.1 0-30 3c-5.3 1.6-5.9 4.4-5.2 8.7s2.2 8.5 2 12.7c-1 18.9 1.1 37.8 0 56.8-1.3 22.4-3.6 44.7-5 67.1-.4 6.2-1.9 12.5-.7 18.3zm464.5 346c1.8-.4 4 .4 5.7-1.5-2.2-2.3-3.7-5.2-4.2-8.4-1.6-12.3-2.1-24.8-1.3-37.2 1-17.8-.2-35.4-.3-53.1 0-6.5-1.2-13-1-19.4.3-10 .6-19.9 2.5-29.8.4-2.1 1.1-4.6-.9-6.9-4.9 1.7-9.8-1-14.7-.2-7.7 1.3-15.2-.7-22.7-1.5-8.9-.8-17.9-.9-26.8-1.5-13.9-1-27.8-.3-41.5 1.8-3.2.5-4.8 1.6-4.9 4.9-.2 10-1.5 19.8-1.2 29.8s1.7 20.2 2 30.3c.2 9.6-1.2 19.2-.7 28.9.9 18.2-.3 36.5 2 54.8.5 3.5 1.3 5 5 5.1 4.8.1 9.6.5 14.4 1.1 29.2 4.1 58.5 2.6 88.6 2.8m-98.6-356.8c-.1 3.5-.1 7-.3 10.5s1.5 4.8 4.8 4.6c4.8-.4 9.6-.7 14.5-1 12.4-.6 24.6 1.5 36.9 1.8 13.7.3 27.3.8 41 1.2 3.3.1 6.4.2 6.6-4.6.5-10.9 1.2-21.8 1.8-32.7.2-3-1.1-4.6-4.4-5.5-12.9-3.7-20.5-13.3-24.4-25.5-3.2-9.8.1-19 4.7-27.8 6-11.6 12.9-22.2 26-27 3-1.1 3.2-3.6 3.2-6.2v-41.4c0-4.2-1.7-5.8-6.2-5.6-8.9.4-17.9 1.3-26.8-.3-11.8-2-23.8-2.2-35.7-3.4-10.8-1.1-21.6 1.5-32.3-.7-3.6-.8-4.7 1.5-4.6 4.7.3 8.3.8 16.6.9 25 .1 20.8-.1 41.6-.4 62.4-.4 23.6-2.9 47-5.3 71.5m-22.8-201.2c-3.2-4.9-4.6-10.9-3.8-16.7 2-16.3 8.6-30.4 20.9-41.3 5-4.5 5.9-9.1 4.1-15.1-.9-2.8-1.7-5.2-5.4-4.1-1.2.5-2.6-.2-3.1-1.4-.1-.3-.2-.5-.2-.8-.2-4.9-3.7-5.1-7-5.1-6.1 0-12.2-.2-18.4-.7-14.2-1.2-28.5-1.9-42.8-2.2-22-.4-43.9-.2-65.8-3.1-3.2-.4-4.6.6-4.2 4.1.5 5.5 1.3 11 .8 16.4-.9 9.8-.1 19.5.1 29.2.5 16.8.6 33.6-.3 50.4-.3 5.3-1.7 10.5-.1 16.8 5.4 0 11-.4 16.6.1 16.9 1.4 33.8 2.8 50.8 2.3 10.8-.4 21.6-1.6 32.4-1.5 11.8 0 23.6 1.1 35.4 1.6 11.5.5 12.5-.8 11.1-12.4-.3-2.6-1.5-4.3-4.1-4.9-7-1.5-13.1-5.7-17-11.6m251.1 37c.6-5.1 1.1-10.2 1.8-15.4 1.5-11.4 3.5-22.6 4.7-34 1.1-10.4.3-20.9 1.6-31.3 1-8 2.7-16 2.2-24.3-.3-4.6-1.8-5.8-6.4-5.7-17.6.4-35.3-.9-52.7-3.9-16.5-2.9-33.1-2.3-49.7-2.4-4.8 0-6.7 2.6-7 7.2-1.2 15.5-2.2 31.1-4.1 46.6-2.3 18.3-2.1 36.7-1.8 55 .1 4.4 2.2 6.6 6.3 6.7 9 .1 17.9.5 26.8-.2 9.7-.8 19.3 0 28.9.2 14.5.4 28.9 1.4 43.1 4.8 2.6.8 5.1.6 6.3-3.3M309 370.3c0-11.7.1-23.4-.1-35.1.1-5.6-.5-11.3-1.7-16.8-.7-2.9-2.4-4.1-5.3-4.2-13.6-.3-27.2-.8-40.8-1-18.1-.2-36.2 1.9-54.3 2.9-3.6.2-4.4 1.9-3.9 5.3.6 3.9.6 8 .8 11.9.8 16.1-2.1 32.1-1.9 48.2.1 13.1.1 26.2.2 39.3.1 5.6.6 11.2.9 16.6 7.6 0 14.7.3 21.9-.1 25.7-1.4 51.4-3.2 77.2-4.6 4.3-.2 5.8-1.9 5.9-6 .1-6.5.7-12.9.9-19.4.2-12 1.2-24.1.2-37m198.7 67.2c3.7.2 7.3.4 11 .7 15.4 1.1 30.7 4.1 46.2 3.3 7.3-.4 8.3-1 8-8.1-1.1-24.9 2-49.5 3.9-74.2.7-9.3 1.4-18.5 2.1-27.8.2-3.1-.6-5.1-4.3-5.3-16.1-.8-32.2-1.5-48.2-2.7-18.1-1.3-36.2.8-54.4.5-3.8-.1-4.6 1.2-4.5 5 .2 7.6 2.3 12.2 10.4 15.2 10 3.7 14.4 13.7 19.1 22.8 4.5 8.6 4.3 17.3 1.4 26.1-1 3.2-2.5 6.3-5.3 8.3-5.5 4-10.7 8.8-16.9 11.5-8.4 3.6-10 9.5-8.9 17.4v1c-.1 3.7 1.7 5.1 5.5 5.5 11.3 1 22.6.6 34.9.8m-74.2-251.4c3-.2 6.9-2.3 7.6 1.6.7 3.7-3.7 3.9-6.3 4.9-1.9.8-4.3.4-6.4.8-15.8 2.9-31.8 4.8-47.4 8.4-16.7 3.8-33.1 4.6-49.9 4.2-2.3-.1-4.6-.4-6.9-.7-12.8-1.8-18.2-9.8-16.1-22.6s3.8-25.6 5.6-38.4c-.1-.6-.2-1.1-.4-1.7-.9-.2-1.9-.4-2.8-.5-2.6-.2-4.1-1.6-4.2-4.1-.1-2 1.3-3.7 3.3-3.8h.5c4.6 0 5.9-2.9 6.5-6.7 2.1-13.9 4.7-27.8 4.3-42-.1-1.6-.5-3.2-1.1-4.7-.8-2.4-.9-5.2 1.8-6 3.1-1 4.2 1.7 4.9 4.3 2 7.5 1.3 15.2.5 22.8-.9 10.2-2.5 20.4-4.6 30.5 24.8-5.3 48.2-14.6 74.5-13-2.9 5.2-6.9 5-10 5.3-16.8 1.3-32.8 6.6-48.9 10.8-4.8 1.3-9.7 2.2-14.2 4.3-1.6.7-3.1 1.3-3.1 3.3-.4 14.2-5 27.8-5.3 42-.2 10.1 2.5 12.7 12.7 13.6 18.4 1.5 36.3-.9 54.5-4 16.8-2.9 33.6-6.3 51-8.4m89.9-98.2c1.7-.6 3.6-.5 5.2.2 7.7 3.2 16.1.6 21.3-6.1 2.3-3 2.2-5.6-.6-7.8-6.5-5-13.1-9.7-21.9-9.3-2.3.1-4.9.5-5.8-2.6s.4-5.2 3.1-7c4.2-2.9 8.1-6.2 10.7-10.8-7.3-4.7-12.3-3.3-17.7 4.3-1.4 2-2 6.3-5.3 4.5s-1.2-5.3 0-8c6.2-13.9 16.7-13.2 27.8-9.1 4.2 1.5 4.4 9.4.5 14-1.7 2-3.6 3.8-5.2 6.8 5.6 2.7 11.1 5.8 16.3 9.2 8.7 5.5 10.1 11.6 4.1 19.9-6.5 8.9-20.2 13.9-29.5 10.8-5.2-1.6-5.9-3.3-3-9M55.1 276.8c.1-7.7 4.5-13.2 8.4-18.7 2.7-3.6 6-6.7 9.7-9.2 3.6-2.4 12.4-3.7 14.5-.6 4.2 6.3 10.9 11.1 11.9 19.7 1.2 10.5-2.9 18-11 24-1.2.9-2.5 1.7-3.7 2.5-8.8 6.1-14.8 5.8-22-2-4-4.2-7.3-9.1-7.8-15.7m15.1-15.3c-2.8 3.3-5.2 6.9-6.9 10.9-2.4 5.9.9 10.1 4.2 14.4 2.7 3.4 5.9 4.7 10.1 3.6 9.4-2.5 16.3-12 15.4-21.6-.6-6.1-4.4-10.2-9.7-12.3-4.8-1.9-9.3.4-13.1 5m108.5 30c-2.8 3.2-5.6 2-7.5-.1s-.4-4.1 1.5-6.3c5.6-6.4 10.7-13.4 16.1-20.2-3.5-4.1-6.6-8-10.7-10.8-2.3-1.6-3.8-3.6-2.1-6.3s4.2-1.5 6.1-.2c4.4 2.9 9 5.7 12.9 10.8 2.9-3.6 5.8-7.2 8.8-10.8 1.9-2.3 3.5-5.6 7-2.3 3.2 3 .9 5.2-1.3 7.5-3.2 3.6-6.3 7.3-10 11.7 7.4 6.6 9.1 17.1 16.3 24.2-.8 2.2-2 4.6-4.4 4.8s-3.9-2-5.2-4c-3.6-5.3-5.1-12-10-16.5-.8-.8-1.2-2-2.4-2.1-6.7 5.7-9 14.3-15.1 20.6m142.6-39.7c4.8 5.4 11.1 8.4 15.5 13.7 2.6 3.2 3.1 6.3.4 9.4-5.1 5.8-9.9 11.8-17.1 15.5-10.2 5.2-28.5-4.9-28.2-17.4.2-9 9.9-22.7 18.4-25 4.4-1.2 8.1-.5 11 3.8m3.5 11.1c-1.1-.8-2.1-1.6-3.2-2.4-4-3-11.3-4.1-14.4-1.4-4.7 4-8.3 9.1-7.5 15.5.7 5.5 5.3 8.2 10.4 9.5 6.7 1.8 11.5-2.2 16-6.1 7.7-6.7 7.4-9.2-1.3-15.1m63.8-215.7c-11 4.1-22.2 5.5-33.1 8.3-13 3.4-25.5 8.5-38.3 12.7-2.7 1-5.4 1.6-8.2 2-2.3.3-4.5-1.3-4.8-3.7v-.3c-.3-2.7 2.1-2.9 4.1-3.2 7.1-1 13.7-4 20.5-5.9 10.7-3 21-7.5 31.9-9.7 14.3-3 28.4-6.9 42.9-9.1 5.4-.8 10.8-1.5 16.3-2.2 1.9-.2 4 0 4.2 2.4s-1.7 3-3.6 3.3c-10.7 2-21.3 3.7-31.9 5.4M709 281.6c-3.8.9-5 4-6.7 6.6-1.2 2-2.5 3.8-5.1 2.2s-2.1-3.9-.6-6c1.6-2.3 3.7-4.3 4.7-7-1.4-2.8-4.5-3.9-6.5-6.1-1.5-1.6-3.3-3.4-1.9-5.6 1.6-2.5 4-1.6 6.1-.1 2.6 1.8 5.6 2.7 7.7 5.2 3.3-1.2 5.4-3.6 7.7-5.8 1.3-1.3 2.6-2.6 4.4-3.1 1.5-.4 3.1-.8 4.1.8s.3 2.8-.8 4.1c-2.7 3.1-6.4 5.3-8.5 9.4 2.9 2 5.9 3.7 7.9 6.6 1.1 1.6 2.3 2.9.9 4.8s-2.8.4-4.3-.2c-3.3-1.4-6-3.7-9.1-5.8m-223.1-181c-3.5-.6-3.9-3.1-4.1-5.7-.7-9.8 0-19.5.7-29.3.4-5 1.1-9.9-.3-14.8-.6-2.3 0-3.5 2.1-4.2 2.4-.8 3.8.2 4.5 2.5 1.5 5.2.9 10.6.7 15.8-.3 8 .5 15.9-.7 23.9-.1 1.5.2 3 .9 4.3 1.4 3.8.2 6.1-3.8 7.5"/>
</svg>
