<svg version="1.0" xmlns="http://www.w3.org/2000/svg" width="1333.333" height="1333.333" viewBox="0 0 1000 1000">
  <path
    d="M435 11.7c-32.5 1.8-78.8 7.8-114 14.9-88.6 17.8-153.3 49-197 95-36.4 38.3-58.2 88.1-63.1 144.4-1.5 17.1-.6 63.4 1.5 82 12.2 105.3 48.9 221.2 106.3 336 38.2 76.6 77.3 137.5 119.1 185.4 14.2 16.3 54.4 56.9 66.2 66.8 38.9 32.7 86.6 50.9 138.1 52.5 28.2.9 52.5-2.6 78.9-11.3 25.3-8.4 54.7-24.8 73.4-41 4.4-3.8 11.4-9.8 15.5-13.3 23-19.2 50.7-46.9 67.7-67.6 8.3-10.1 29.7-38.9 40.1-54 27.8-40.4 50.5-78.7 73.8-125C907.4 546 942.6 407.8 939.7 291c-.8-33.4-4.2-55.1-12.9-81.8C897.7 119.1 820.3 58.5 699 31c-22.2-5-54.2-10.7-76-13.4-44.5-5.6-48.4-5.8-117-6.1-35.5-.1-67.4 0-71 .2zM562.5 60c75.4 4.7 148 19.5 195.1 39.6 33.9 14.4 55.8 28.8 78.4 51.4 49.8 49.7 64.1 109.4 52 217.7C873.5 498 817.5 642 733.1 767c-28.7 42.5-55.2 74.9-80.5 98.4-19.4 18-43.8 38.5-54.5 45.7-31 20.9-67.3 31.1-105.6 29.6-29.1-1.2-53.6-7.8-78.8-21.5-17.8-9.6-25.8-16.2-55.3-45.7-27.3-27.2-42.1-43.5-56.1-62-77.5-101.8-147.7-254.6-178.2-387.6-5.4-23.2-10.4-52.1-13.1-74.4s-3.8-66.3-2.1-81.1c4.5-39.2 14.4-66.7 34.1-94.7 7.7-10.9 28.3-31.9 39.5-40.3 31.2-23.3 68.8-40.3 115.7-52.3 38.2-9.8 84-17.3 122.8-20.1 8-.6 16.3-1.2 18.5-1.3 10.2-.9 108.8-.6 123 .3z"
  />
</svg>