<svg xmlns="http://www.w3.org/2000/svg" viewBox="0 0 198 153">
  <path d="M54.65 106.93a109.7 109.7 0 0 0-.33-18.24c-.48-4.32-1-8.63-1.08-13-.15-5.33-.24-10.66-.4-16 0-1.06.14-2.17-.63-3.15-.39-.49.07-1.05.44-1.46s.82-.15 1.13.2a1.45 1.45 0 0 0 1 .51 109 109 0 0 0 12.31.21c2.67-.17 5.4.21 8.06-.05 9.36-.9 18.76-.13 28.12-.75a24 24 0 0 1 2.55.05c8.89.35 17.76-.12 26.64-.49 3.79-.15 7.58-.41 11.37-.67 1.95-.14 2.11.13 2.18 2 .32 9.6-.71 19.16-1 28.75-.14 5.58-.35 11.16-.35 16.74 0 3.94.55 7.88.33 11.82-.32 5.85.5 11.65.64 17.48 0 1.45-.18 1.63-1.6 1.65-5.73.08-11.46-.1-17.19.34-2.9.22-5.87-.12-8.82-.1-6.94.07-13.88.3-20.82.2-6.33-.09-12.66-.5-19-.51-2.59 0-5.2.51-7.74.44-3.13-.1-6.27-.13-9.41-.15-2.24 0-4.48.14-6.72.24a2.64 2.64 0 0 1-2-.5c1.15-1 1-2.36 1.08-3.65.56-6.46.93-12.92 1.16-19.4v-2.55m54.77-9.44a11 11 0 0 1-.12 2.24c-.34 1.27.13 1.74 1.35 1.83 4.53.34 9.06.69 13.58 1.1 1.72.16 1.72-1 1.76-2.12.15-4.28.16-8.57.68-12.84.17-1.33-.36-1.75-1.67-1.71-4.63.17-9.27.27-13.91.35-1 0-1.4.4-1.41 1.44 0 3.14-.15 6.3-.26 9.71M90.17 90v9.99c0 1.2.49 1.6 1.61 1.54s2.29 0 3.43-.08a99 99 0 0 1 10.89-.14c1 .05 1.73-.22 1.87-1.42a109 109 0 0 0 .36-12.39c0-.72-.23-1.07-1.07-1-4.63.34-9.28.06-13.91.13-3.15.06-3.15 0-3.23 3.38M75.6 86.59h-3c-.9 0-1.2.4-1.16 1.3.2 4.08.38 8.16.47 12.24 0 1.37.49 1.92 1.93 2 4.75.18 9.43-.93 14.19-.6.73.06 1.09-.42 1-1.16-.47-4 .22-8-.14-12.09-.11-1.22-.46-1.71-1.67-1.64-3.78.23-7.56.06-11.64 0m67.87 10q0-4.35.27-8.67c.13-1.9 0-1.89-1.85-1.93-2.4 0-4.78.53-7.17.22-1.74-.22-3.49-.11-5.23-.2-1 0-1.36.35-1.53 1.36-.77 4.4-.39 8.85-.77 13.27-.15 1.77.25 2 2.1 1.9 2-.15 4.1-.21 6.11-.54 2.28-.37 4.59-.08 6.86-.47.85-.14 1.24-.47 1.2-1.35v-3.6m-49.55 35.09c4 .05 8 .11 12 .13.92 0 2 .17 2-1.35 0-3.85-.06-7.7-.06-11.54 0-.92-.34-1.42-1.31-1.42-4.89 0-9.78 0-14.67.17-.9 0-1.44.43-1.48 1.32-.14 3.8-.27 7.59-.37 11.38 0 .76.4 1.35 1.17 1.23s1.69.15 2.77.08m-14.4-28.59a40.6 40.6 0 0 1-6.14.23c-.85 0-1.52.2-1.47 1.23a84 84 0 0 1-.53 10.89c-.13 1.59.58 2.2 2.16 2.14 1-.05 2.1-.18 3.13-.26 3.78-.28 7.55-.57 11.33-.83.79 0 1.17-.38 1.2-1.2.14-3.68.19-7.36 0-11-.07-1.19-.56-1.56-1.65-1.58a49.4 49.4 0 0 0-8 .4M71.6 68.9c-.14 1.31.43 1.92 1.76 2a27 27 0 0 0 3 .26l8.64-.25c4.2-.13 3.55.42 3.59-3.6v-8.38a1.91 1.91 0 0 0-2-2.17c-4.73-.52-9.35.55-14 .52-.85 0-1.17.68-1.07 1.5.4 3.28.08 6.57.17 10.14m55.2 59.13v.75c0 2.6.28 2.86 2.87 2.7a72 72 0 0 1 8.93-.1 36 36 0 0 0 4.18 0c.65 0 1.32-.2 1.28-1.13-.18-3.81.19-7.66-.58-11.45-.13-.69-.41-.88-1.06-1a98.4 98.4 0 0 0-14.16-.28c-1.82.06-2.33.56-2 2.31a45 45 0 0 1 .52 8.18m-36.3-14.7c0 3.35-.39 3.08 3.18 3.11 4.18 0 8.37-.36 12.55-.08 1 .06 1.66-.4 1.52-1.52-.41-3.39.1-6.78 0-10.17-.06-1.78-.52-2.15-2.28-2.18-4.5-.08-9 .16-13.47.24-1.2 0-1.53.46-1.5 1.61.07 2.9 0 5.8 0 9m13.54-43.04h4.59a2.15 2.15 0 0 0-1.35-1.2 5.08 5.08 0 0 1-1.28-8.37 7.2 7.2 0 0 1 2.22-1.46c1-.37.74-1.32.76-2.07s-.59-.55-1-.57c-5.23-.3-10.47-.07-15.7.08-2.76.08-2.95-.34-2.46 2.88a3.7 3.7 0 0 1 0 1.2c-.48 2.78.09 5.58-.19 8.35-.08.83.17 1.31 1.15 1.31 4.33 0 8.66.24 13.28-.15m-24.29 61.09a45 45 0 0 1 7.17.08c1.13 0 1.59-.28 1.63-1.5.09-3.24.32-6.48.49-9.72.13-2.41.1-2.47-2.27-2.43-4.8.1-9.53 1.14-14.34.9-.83 0-1 .57-1 1.2-.11 2.14-.23 4.28-.3 6.42v5.09h3.17c1.74 0 3.47-.52 5.47-.05m45.08.07c.83-.34.57-1.06.58-1.68 0-3.64-.29-7.26-.57-10.88-.09-1.07-.59-1.38-1.53-1.35-3 .07-6 .1-9-.07-1.34-.07-2.7 0-4 0-.82 0-1.33.32-1.3 1.24.11 3.24-.2 6.49.18 9.72s.43 3 3.57 3.14c3.94.18 7.87-.12 12.06-.1M60.46 86.53c-.9 0-1.8 0-2.7.09-1.56.14-2.07.73-2 2.28.11 3.44.25 6.88.36 10.32.09 2.66.07 2.72 2.7 2.78 3.44.08 6.9.06 10.33.09.76 0 1.43-.11 1.43-1.1a110 110 0 0 0-.48-13.31 1.08 1.08 0 0 0-1.15-1.08c-2.74-.2-5.48-.08-8.48-.07M67 57.24A99 99 0 0 1 56.25 57c-2.1-.23-2.51 0-2.26 1.94.46 3.53 0 7.08.44 10.62.15 1.23.58 1.5 1.68 1.43a38.6 38.6 0 0 1 6.72-.2 42 42 0 0 0 5.83.06c.83 0 1.65-.2 1.61-1.32-.12-3.6.22-7.18-.07-10.77-.08-1-.48-1.59-1.57-1.53h-1.61m59.78 49.31a74 74 0 0 1-.25 7.76c-.09 1.85 0 1.9 1.88 1.9h10.77a31 31 0 0 0 4.23.2 63 63 0 0 0 0-12.67c-.06-1-.68-.8-1.39-.81-4.24 0-8.43.75-12.67.8-2.45 0-2.49.08-2.62 2.79M134 69.93a56.5 56.5 0 0 1 8.82-.3c1 .07 1.74-.11 1.74-1.41 0-3.5.08-7 .13-10.48 0-2.43-.09-2.53-2.54-2.26a101 101 0 0 1-10.44.6c-1.44 0-2.23.5-2.4 2a101 101 0 0 0-.31 10.46c0 .95.39 1.5 1.45 1.43s2.2 0 3.58 0m-31.07 1.65c-3.63 0-7.27.25-10.9 0a5.3 5.3 0 0 0-1.05.07c-.46.06-.95.17-.94.75s.5.57.88.66a4.66 4.66 0 0 1 3.17 2.06 5.89 5.89 0 0 1-2.83 8.66c-.52.23-1.08.45-.94 1.16s.82.6 1.34.6c1.2 0 2.4-.05 3.59-.05 3.39 0 6.8.22 10.2 0 3.23-.22 3 .19 3-3 0-.3.08-.6.09-.9.13-2.89.58-5.75.24-8.66-.12-1-.53-1.42-1.5-1.4h-4.33m22.29 42.17c.52-2.92.11-5.88.28-8.82 0-.71-.43-.92-1-1-1.34-.13-2.67-.3-4-.4-3.33-.26-6.66-.49-10-.74-1-.07-1.38.32-1.36 1.3.08 3.48-.46 7 0 10.46.15 1.24.57 1.59 1.75 1.6 4 0 8 .16 12 .27 2.27.06 2.4 0 2.45-2.7M128 59.68c.06-.3.14-.6.17-.88.28-2.44.18-2.55-2.31-2.48-4.54.14-9.07.37-13.61.3-1.58 0-2.13.71-1.9 2.27.11.75.73.9 1.2 1.2a5.85 5.85 0 0 1 2.7 5.37c-.07 1.92-1.39 3.11-3.15 3.82-.32.14-.83.16-.77.75.37.38.85.22 1.27.21 2.8 0 5.59-.16 8.4-.18 1.75 0 3.5.17 5.24.17 2.25 0 2.52-.3 2.49-2.51a54 54 0 0 1 .28-8M67.7 117.59c2.22-.13 2.21-.13 2.4-2.32 0-.2.08-.4.1-.6a64.5 64.5 0 0 0 .41-10c0-.66-.15-1.26-1-1.23-4.5.2-9-1-13.9.44v10.72c0 2.57.12 2.7 2.75 2.76 3 .08 6 .17 9.2.24M54.53 77.23c.24 2.7.11 5.46.76 8.22 1 0 2-.13 2.88-.14h10.18c1.18 0 1.62-.39 1.7-1.63.21-3.6-.32-7.18.1-10.76.1-.86-.42-1-1.11-1-1.2 0-2.37.14-3.58.06a93 93 0 0 0-9.72 0c-1.13 0-1.58.47-1.34 1.7a22 22 0 0 1 .13 3.55m16.82.46c0 2 0 3.9-.06 5.84-.06 1.29.38 1.74 1.69 1.8 4.5.17 9 .42 13.46.22.81 0 2.1.56 2.34-.6s-1.11-1.39-2-1.73a4.07 4.07 0 0 1-2.46-5.57c.65-1.8 1.53-3.35 3.46-4.05.49-.17.9-.5.74-1.13S87.85 72 87.4 72c-4.83.13-9.66.6-14.48-.06-1.09-.15-1.59.35-1.58 1.42v4.34m46.56-6.4c-2.19.07-4.39.13-6.58.21-.9 0-1.37.44-1.3 1.41.21 3.45-.3 6.88-.3 10.33 0 2 .2 2.19 2.14 1.92a81 81 0 0 1 8.37-.3c2.06-.05 4.12 0 6.5 0-.71-1.23-1.63-1.25-2.2-1.82-3.6-3.63-1.85-7.8 1.47-10 .54-.36 1.38-.42 1.4-1.75Zm-55.8 47.34c-1-.06-2.1-.14-3.14-.16-3.73-.1-3.54-.3-3.6 2.91 0 .2-.08.39-.1.6-.18 2.64-.41 5.27-.53 7.91-.06 1.56.42 2 1.94 1.88a100 100 0 0 1 11.22-.23c1.3 0 1.86-.37 1.9-1.75a87 87 0 0 1 .44-9.68c.16-1.07-.4-1.4-1.4-1.4-2.14 0-4.29 0-6.73-.07M129.75 84l-1.39.6a64.5 64.5 0 0 0 14.52-.09c.78-.06.9-.63.94-1.28.17-3.44.38-6.88.52-10.31.07-1.87-.11-2.1-2-2.05-4.14.11-8.26.32-12.4.5-.28 0-.62 0-.7.44.09.07.2.24.3.24 2.89-.15 3.95 2 4.87 4.08 1.34 3-.76 6.57-4.66 7.87M86.24 21.43c.3-.6.14-1.45 1-1.46s1.05.75 1.2 1.34c.63 2.62 1 5.31 1.8 7.88a76 76 0 0 0 3.08 9.66c.24.54.44 1.14-.23 1.42s-1-.27-1.2-.82c-.6-1.8-1.23-3.6-1.7-5.43a1.55 1.55 0 0 0-1.65-1.37c-1.35 0-2.7 0-4.05-.07a2.13 2.13 0 0 0-2.4 1.73 48 48 0 0 1-2.5 6.09c-.23.47-.34 1.26-1 1s-.42-1-.17-1.54c1.86-3.93 3.49-8 5.13-12a57 57 0 0 1 2.77-6.43m1 9.84c1.45-.06 1.93-.66 1.47-2.14-.4-1.28-.45-2.66-.8-3.95-.22-.82 0-1.8-.9-2.7L83.67 31c1.33.13 2.32.23 3.56.32m16.52 10c.62.18.9.5.54 1a1.73 1.73 0 0 1-1.52.8 1.29 1.29 0 0 1-1.25-1.1 5.6 5.6 0 0 1 .31-2.8c.23-.71.48-1.46-.42-2-1 .46-1 1.42-1.24 2.26-.09.39-.07.8-.16 1.19s-.15 1-.75.93-.75-.63-.71-1.14a10.4 10.4 0 0 0 .27-2.36 7 7 0 0 0-.26-.93c-1.38 1-1.54 2.37-1.67 3.72-.07.74 0 1.5-.11 2.24a.73.73 0 0 1-.6.75c-.51.07-.68-.32-.81-.71a3.3 3.3 0 0 1 0-1.63 14.6 14.6 0 0 0-.09-4.47c-.09-.51-.6-1.26.18-1.6s.85.62 1.37 1c.87-.62 1.8-1.31 2.87-.3.08.08.36 0 .54-.1 1.93-.69 3.38.55 3.11 2.67-.11.87-.63 1.69-.4 2.66.27 0 .56-.09.83-.12m16.07-18.45c.54.69 0 1.08-.23 1.55a8.8 8.8 0 0 0-1.36 3.34c.41.43.8.3 1.2.22.67-.14 1.1.12 1.13.82a.88.88 0 0 1-1 1c-1.8-.51-2.1.75-2.55 1.92-.37 1-.77 1.95-1.18 2.91-.18.44-.28 1.14-1 .88s-.47-.9-.26-1.42c.52-1.23 1.05-2.46 1.56-3.65-.2-.16-.27-.26-.35-.27-.66-.12-1.74.47-1.84-.62-.08-.9 1-.78 1.61-.93.46-.1.9-.19 1.09-.66.44-1.2.84-2.4 1.27-3.67-1.54-.24-2.88.42-4.28.3-.6-.05-1.36 0-1.35-.82s.83-.71 1.4-.69a18.2 18.2 0 0 0 4.29-.44 2.6 2.6 0 0 1 1.86.21M56.2 52c-.63 1-1.26.79-1.87.13A4 4 0 0 0 53 51a6.7 6.7 0 0 0-1.71 1.8c-.32.4-.69 1.07-1.3.56s-.22-1.17.26-1.53c1.32-1 1.74-2 .19-3.12a.63.63 0 0 1-.13-.87c.5-.41.95-.12 1.27.26.78.9 1.41.84 2.18 0 .4-.47.9-1.55 1.57-1 .83.7-.39 1.2-.67 1.8a4.3 4.3 0 0 1-.55.77C54.32 51 56 50.74 56.2 52m89-4.41c1 0 1.11-.79 1.53-1.3s.53-1.3 1.29-.78 0 1-.24 1.53a1.8 1.8 0 0 1-.33.5c-.9 1-1 1.85.17 2.73.39.3 1 .72.4 1.32s-1 .08-1.37-.36c-.93-1.18-1.69-.88-2.43.2-.3.43-.64 1.1-1.27.6s-.22-1.06.2-1.53l1.12-1.22c-.3-.53-.53-1-.81-1.47s-.63-.9-.06-1.31.87.16 1.2.5a4.7 4.7 0 0 0 .6.58m-34.6-10.85a7.84 7.84 0 0 1 1.2 5.27 2.62 2.62 0 0 1-2.8 2.31 1.91 1.91 0 0 1-1.82-2.15c.33-.22.56 0 .76.2a1.2 1.2 0 0 0 1.58.42 1.61 1.61 0 0 0 1-1.55 7.33 7.33 0 0 0-1-3.84c-.25-.42-1.06-.79-.38-1.33s1.07.12 1.53.67"/>
  <path d="M108.59 39.92c.3.54.3 1-.13 1.29s-.86 0-1.2-.28a2.15 2.15 0 0 0-1.34-.56 1.77 1.77 0 0 1-1.58-1.87 2.41 2.41 0 0 1 1.59-2.34c.73-.3 1.87.87 1.94 2 0 .65-.05 1.31.72 1.8"/>
</svg>