<svg xmlns="http://www.w3.org/2000/svg" viewBox="0 0 198 153">
  <path d="M49.37 106.76A119.3 119.3 0 0 0 49 87c-.53-4.67-1-9.34-1.17-14-.16-5.77-.26-11.54-.44-17.31 0-1.15.16-2.35-.68-3.41-.42-.53.08-1.15.47-1.58s.89-.16 1.23.21a1.5 1.5 0 0 0 1.13.55 120 120 0 0 0 13.29.21c2.9-.2 5.84.21 8.73-.06 10.14-1 20.32-.14 30.46-.82.92-.06 1.84 0 2.76.06 9.63.37 19.25-.14 28.87-.53 4.11-.17 8.21-.44 12.31-.73 2.11-.15 2.29.14 2.36 2.19.35 10.4-.77 20.76-1 31.14-.16 6-.38 12.1-.39 18.14 0 4.27.6 8.54.36 12.8-.35 6.35.54 12.63.7 18.94 0 1.57-.2 1.77-1.74 1.79-6.21.08-12.41-.11-18.62.37-3.14.24-6.36-.14-9.55-.11-7.52.07-15 .32-22.56.21-6.86-.09-13.71-.54-20.58-.54-2.81 0-5.63.55-8.38.46-3.4-.1-6.8-.13-10.2-.16-2.43 0-4.85.16-7.28.26a2.8 2.8 0 0 1-2.08-.58c1.24-1.09 1-2.56 1.17-4 .61-7 1-14 1.25-21v-2.76m59.34-10.23a11.5 11.5 0 0 1-.14 2.43c-.36 1.38.15 1.88 1.47 2 4.91.38 9.82.76 14.71 1.2 1.87.17 1.87-1.14 1.91-2.3.17-4.64.17-9.29.74-13.91.18-1.44-.39-1.9-1.81-1.85-5 .18-10 .29-15.07.38-1.1 0-1.52.43-1.53 1.55 0 3.41-.17 6.81-.28 10.52m-20.86-8.1c0 .86.05 1.73.05 2.59 0 2.74.06 5.49 0 8.23 0 1.31.54 1.73 1.75 1.67s2.48 0 3.71-.09a106 106 0 0 1 11.81-.15c1.07 0 1.86-.24 2-1.54a118 118 0 0 0 .39-13.43c0-.78-.25-1.16-1.16-1.09-5 .37-10 .06-15.07.15-3.41.06-3.41 0-3.5 3.66m-15.78-3.7h-3.27c-1 0-1.3.44-1.25 1.42.21 4.41.4 8.83.5 13.25 0 1.49.53 2.08 2.09 2.14 5.15.2 10.22-1 15.37-.64.79.06 1.19-.45 1.1-1.25-.52-4.36.24-8.73-.15-13.1-.12-1.32-.5-1.86-1.81-1.78-4.1.25-8.19.06-12.61 0m73.52 10.83q0-4.71.3-9.4c.14-2 0-2-2-2.09-2.6 0-5.17.58-7.77.25-1.88-.24-3.78-.12-5.66-.22-1.07-.06-1.47.38-1.66 1.47-.83 4.76-.42 9.59-.83 14.38-.16 1.91.27 2.21 2.27 2.06 2.21-.16 4.44-.23 6.62-.59 2.47-.4 5-.09 7.43-.51.92-.15 1.35-.51 1.31-1.46V95.6m-53.7 38.06c4.33 0 8.66.11 13 .14 1 0 2.15.18 2.12-1.46-.06-4.17-.07-8.34-.07-12.51 0-1-.36-1.54-1.41-1.54-5.3 0-10.6 0-15.9.19-1 0-1.56.46-1.6 1.43q-.22 6.16-.4 12.33c0 .82.43 1.46 1.26 1.34s1.83.15 3 .08m-15.56-31a45 45 0 0 1-6.64.27c-.92 0-1.65.21-1.6 1.32a91 91 0 0 1-.58 11.75c-.14 1.71.62 2.38 2.34 2.31 1.13 0 2.26-.2 3.39-.28q6.14-.46 12.28-.9c.85 0 1.26-.41 1.29-1.29.15-4 .2-8 0-12-.07-1.29-.6-1.69-1.79-1.71a54 54 0 0 0-8.69.43m-8.6-37.08c-.16 1.42.46 2.08 1.9 2.18a31 31 0 0 0 3.22.27c3.12-.1 6.25-.18 9.37-.27 4.54-.13 3.84.46 3.89-3.91v-9.07c0-1.35-.46-2.17-2.16-2.36-5.11-.55-10.12.6-15.19.57-.93 0-1.28.74-1.17 1.61.44 3.56.09 7.12.19 11m59.82 64.08v.81c0 2.82.3 3.1 3.11 2.93a76 76 0 0 1 9.67-.1 40 40 0 0 0 4.53-.05c.7 0 1.43-.21 1.38-1.21-.19-4.14.21-8.3-.62-12.41a1.09 1.09 0 0 0-1.15-1 107.6 107.6 0 0 0-15.34-.31c-2 .07-2.53.61-2.16 2.51a49.7 49.7 0 0 1 .57 8.86m-39.33-15.9c0 3.62-.42 3.33 3.45 3.36 4.53 0 9.06-.39 13.6-.09 1.11.07 1.79-.43 1.64-1.64-.44-3.67.11-7.35 0-11-.07-1.92-.57-2.32-2.47-2.36-4.87-.09-9.73.18-14.59.26-1.3 0-1.66.5-1.63 1.75.07 3.14 0 6.28 0 9.74M103 67.08h5a2.28 2.28 0 0 0-1.46-1.28c-3.74-1.56-4.16-6.65-1.39-9.07a8.2 8.2 0 0 1 2.41-1.58c1.1-.4.8-1.43.82-2.24s-.63-.6-1.11-.63c-5.67-.31-11.34-.06-17 .1-3 .08-3.21-.38-2.68 3.12a3.7 3.7 0 0 1 0 1.29c-.52 3 .1 6-.2 9.05-.09.9.17 1.41 1.24 1.41 4.69 0 9.38.26 14.38-.17m-26.35 66.19a48 48 0 0 1 7.77.09c1.22 0 1.73-.31 1.76-1.62.11-3.51.35-7 .54-10.53.14-2.61.11-2.68-2.47-2.63-5.19.1-10.31 1.23-15.53 1-.9 0-1.06.61-1.1 1.29-.12 2.32-.25 4.63-.32 7v5.51h3.43c1.88 0 3.76-.56 5.93 0m48.84.08c.9-.37.61-1.16.62-1.82.06-3.94-.31-7.87-.62-11.79-.09-1.16-.63-1.49-1.65-1.47-3.23.08-6.46.12-9.69-.07-1.46-.08-2.92 0-4.38 0-.89 0-1.44.36-1.41 1.35.12 3.51-.22 7 .2 10.53s.46 3.24 3.86 3.4c4.27.2 8.52-.13 13.07-.1M55.66 84.67c-1 0-1.95 0-2.92.08-1.68.16-2.24.8-2.19 2.48.12 3.73.28 7.45.4 11.18.09 2.88.07 2.94 2.93 3 3.73.09 7.46.07 11.19.1.82 0 1.55-.12 1.55-1.19a118 118 0 0 0-.53-14.42 1.15 1.15 0 0 0-1.24-1.17c-3-.22-5.93-.09-9.19-.07m7.12-31.74a108 108 0 0 1-11.66-.27c-2.28-.25-2.73.06-2.46 2.1.51 3.83 0 7.68.48 11.5.17 1.33.63 1.61 1.83 1.56 2.42-.11 4.81-.54 7.27-.22a46 46 0 0 0 6.32.07c.9 0 1.79-.22 1.75-1.43-.14-3.89.23-7.78-.08-11.67-.08-1.1-.52-1.72-1.7-1.66h-1.75m64.75 53.42a76 76 0 0 1-.28 8.41c-.09 2 0 2.06 2.05 2.06h11.66a33 33 0 0 0 4.58.21 68.4 68.4 0 0 0 .06-13.72c-.06-1-.74-.87-1.5-.88-4.6 0-9.14.81-13.73.87-2.65 0-2.7.09-2.84 3m7.81-39.67a61 61 0 0 1 9.55-.32c1.12.08 1.88-.13 1.88-1.53 0-3.79.09-7.57.14-11.35 0-2.64-.09-2.75-2.74-2.45a107 107 0 0 1-11.32.65c-1.55 0-2.41.54-2.61 2.17-.45 3.77-.28 7.55-.36 11.33 0 1 .43 1.61 1.58 1.55s2.38 0 3.88 0m-33.65 1.79c-3.94 0-7.88.27-11.82 0a5.3 5.3 0 0 0-1.13.07c-.5.07-1 .19-1 .82s.54.61 1 .71a5.06 5.06 0 0 1 3.43 2.23A6.38 6.38 0 0 1 89 81.68c-.56.24-1.17.48-1 1.25s.89.65 1.45.65h3.89c3.68 0 7.37.24 11 0 3.5-.24 3.3.2 3.25-3.24 0-.32.09-.64.1-1 .14-3.13.63-6.24.26-9.39-.13-1.11-.57-1.53-1.62-1.51h-4.69m24.14 45.69c.57-3.17.12-6.37.31-9.55 0-.78-.47-1-1.14-1.07-1.45-.14-2.9-.32-4.35-.43-3.61-.28-7.22-.53-10.83-.81-1-.07-1.5.36-1.47 1.41.08 3.77-.5 7.54 0 11.34.17 1.34.62 1.72 1.89 1.73 4.32 0 8.64.18 13 .29 2.46.07 2.58 0 2.65-2.91m2.94-58.56c.06-.32.15-.64.18-1 .31-2.64.19-2.76-2.49-2.68-4.92.15-9.84.39-14.76.31-1.71 0-2.29.77-2 2.46.12.81.78 1 1.31 1.3a6.39 6.39 0 0 1 2.92 5.82c-.07 2.08-1.51 3.38-3.41 4.15-.35.14-.9.17-.84.8.4.41.92.25 1.38.24 3-.06 6.06-.18 9.08-.2 1.9 0 3.79.18 5.68.18 2.44 0 2.73-.32 2.7-2.72a56 56 0 0 1 .3-8.7m-65.3 62.72c2.41-.14 2.4-.14 2.6-2.52 0-.21.09-.42.11-.64a69 69 0 0 0 .45-10.85c0-.71-.16-1.37-1-1.33-4.86.22-9.76-1-15.06.48V115c0 2.78.12 2.93 3 3 3.24.08 6.48.18 10 .26M49.25 74.59c.25 2.94.12 5.91.81 8.9 1.11 0 2.12-.14 3.13-.15h11c1.28 0 1.76-.43 1.84-1.78.24-3.88-.34-7.77.12-11.65.11-.93-.45-1.07-1.2-1.07-1.3 0-2.57.15-3.88.06a100 100 0 0 0-10.54 0c-1.22 0-1.7.51-1.44 1.84a26 26 0 0 1 .14 3.85m18.21.5c0 2.11 0 4.22-.06 6.32-.07 1.4.41 1.89 1.83 1.94 4.86.19 9.72.45 14.58.24.88 0 2.28.61 2.54-.63s-1.21-1.51-2.17-1.88a4.4 4.4 0 0 1-2.68-6c.71-2 1.66-3.63 3.75-4.39.53-.19 1-.54.8-1.22s-.71-.55-1.2-.54c-5.23.15-10.46.65-15.69-.06-1.18-.16-1.71.38-1.7 1.54v4.71m50.44-6.92-7.12.22c-1 0-1.49.48-1.42 1.53.24 3.74-.32 7.46-.33 11.19 0 2.14.22 2.38 2.33 2.09a86 86 0 0 1 9.06-.32c2.23-.06 4.47 0 7 0-.77-1.33-1.77-1.35-2.39-2-3.9-3.93-2-8.44 1.59-10.84.59-.39 1.5-.45 1.52-1.89Zm-60.42 51.26c-1.13-.07-2.27-.15-3.4-.18-4-.1-3.84-.33-3.9 3.16 0 .21-.1.42-.11.64-.2 2.85-.45 5.7-.57 8.56-.08 1.69.45 2.19 2.1 2a115 115 0 0 1 12.15-.25c1.41 0 2-.39 2.06-1.88a92 92 0 0 1 .48-10.5c.17-1.15-.44-1.52-1.52-1.51-2.32 0-4.65 0-7.29-.07m73.27-37.59-1.51.64c5.54.76 10.64.31 15.73-.09.85-.07 1-.69 1-1.39.18-3.73.4-7.45.55-11.17.08-2-.11-2.27-2.17-2.22-4.48.12-9 .35-13.43.54-.3 0-.67 0-.76.48.1.08.22.26.33.25 3.13-.15 4.28 2.16 5.28 4.43 1.45 3.28-.83 7.12-5.05 8.53m-47.08-67.7c.34-.65.14-1.57 1-1.59s1.19.81 1.38 1.45c.68 2.84 1.11 5.74 2 8.53C89 26 89.73 29.65 91.24 33c.26.58.48 1.23-.24 1.53s-1.1-.28-1.29-.88c-.65-1.95-1.34-3.9-1.85-5.89a1.68 1.68 0 0 0-1.79-1.48c-1.46 0-2.92 0-4.38-.08a2.31 2.31 0 0 0-2.6 1.88 54 54 0 0 1-2.71 6.6c-.25.51-.37 1.36-1.14 1.06s-.45-1.11-.18-1.68c2-4.25 3.78-8.61 5.56-13a59 59 0 0 1 3-7m1 10.65c1.57-.06 2.09-.71 1.59-2.31-.43-1.38-.49-2.88-.87-4.28-.24-.89 0-1.95-1-2.94l-3.59 9.18c1.45.14 2.51.25 3.86.35m17.92 10.82c.67.19 1 .54.58 1.08a1.93 1.93 0 0 1-1.65.89 1.4 1.4 0 0 1-1.35-1.2 5.93 5.93 0 0 1 .34-3c.24-.77.52-1.58-.46-2.13-1 .51-1.11 1.54-1.34 2.46-.1.41-.08.86-.17 1.28s-.17 1.08-.82 1-.81-.68-.77-1.23a11.7 11.7 0 0 0 .3-2.57c0-.25-.14-.49-.29-1-1.49 1.11-1.66 2.57-1.8 4-.08.8-.06 1.62-.12 2.43a.8.8 0 0 1-.67.81c-.56.08-.73-.35-.88-.77a3.74 3.74 0 0 1 0-1.76 15.8 15.8 0 0 0-.09-4.85c-.11-.55-.65-1.36.19-1.73s.93.67 1.5 1.08c.97-.58 1.97-1.32 3.12-.24.08.08.39 0 .58-.11 2.09-.75 3.66.6 3.37 2.89-.13.94-.68 1.83-.44 2.88l.91-.13m17.4-20c.59.75 0 1.18-.24 1.68a9.6 9.6 0 0 0-1.48 3.63 1.18 1.18 0 0 0 1.29.24c.72-.15 1.19.12 1.22.88a1 1 0 0 1-1.13 1.07c-1.94-.55-2.27.82-2.76 2.09-.41 1.05-.84 2.11-1.28 3.15-.2.47-.31 1.23-1 .95s-.52-1-.28-1.54c.55-1.34 1.13-2.66 1.68-3.95-.22-.18-.29-.28-.37-.3-.72-.12-1.89.52-2-.67-.09-1 1.06-.85 1.75-1 .49-.12 1-.21 1.18-.72.48-1.3.91-2.62 1.38-4-1.68-.25-3.13.46-4.64.34-.66-.06-1.48 0-1.46-.89s.89-.77 1.51-.75a20.2 20.2 0 0 0 4.66-.42 2.83 2.83 0 0 1 2 .22M51.05 47.24c-.69 1-1.36.86-2 .14a4.2 4.2 0 0 0-1.4-1.19 7.3 7.3 0 0 0-1.85 1.94c-.35.43-.75 1.16-1.41.6s-.24-1.26.28-1.66c1.43-1.08 1.88-2.12.2-3.37a.69.69 0 0 1-.14-.91c.55-.45 1-.14 1.38.27.85 1 1.52.91 2.36-.05.44-.51 1-1.68 1.7-1.06.9.75-.42 1.3-.73 1.95a5.3 5.3 0 0 1-.59.82c.19 1.44 2 1.16 2.23 2.52m96.4-4.77c1.05 0 1.2-.85 1.65-1.41s.58-1.41 1.4-.85 0 1.13-.25 1.66a2.5 2.5 0 0 1-.36.54c-1 1.05-1.1 2 .18 3 .43.31 1.11.78.44 1.42s-1.11.1-1.49-.38c-1-1.28-1.83-1-2.64.21-.32.47-.69 1.19-1.37.67s-.24-1.15.22-1.65.79-.87 1.22-1.33c-.32-.57-.59-1.09-.88-1.59s-.69-1-.08-1.41.94.16 1.3.54a8 8 0 0 0 .66.62M110 30.71a8.53 8.53 0 0 1 1.31 5.67 2.82 2.82 0 0 1-3 2.54 2.07 2.07 0 0 1-2-2.32c.36-.25.61-.05.83.21a1.29 1.29 0 0 0 1.71.46 1.76 1.76 0 0 0 1-1.68 8 8 0 0 0-1.13-4.16c-.27-.45-1.16-.86-.42-1.44s1.16.13 1.66.72" fill="#010101"/>
  <path d="M107.81 34.17c.31.58.32 1.07-.15 1.39s-.93.06-1.28-.3a2.5 2.5 0 0 0-1.45-.61 1.92 1.92 0 0 1-1.72-2 2.61 2.61 0 0 1 1.71-2.52c.79-.31 2 .93 2.11 2.12 0 .71-.06 1.43.78 1.94" fill="#010101"/>
</svg>