<svg xmlns="http://www.w3.org/2000/svg" viewBox="0 0 198 153">
  <path d="M18.14 107.94v-6.18c-.24 3.11-.66 6.22-.64 9.35v.79c0 .27-.14.68-.56.71s-.61-.36-.59-.76c.08-1.61.08-3.23.29-4.82a80.7 80.7 0 0 0 .11-13.55 29 29 0 0 0-.51-3.28 6.78 6.78 0 0 1-3.31 3.42 1.26 1.26 0 0 1-1.47.08c-.55-.37-.19-.81-.22-1.24-.14-1.62.1-3.21.11-4.82 0-1.46.39-1.71 1.79-1.23a6.16 6.16 0 0 1 3 2.51c-.11-2.32-.17-4.33-.31-6.33-.05-.75-1.09-.76-1.22-1.49-2.17 1.2-3.66.41-4.2-2a4.68 4.68 0 0 1 .91-4.32 1.92 1.92 0 0 1 2.79-.15 2.81 2.81 0 0 0-2.76 2.65 3.63 3.63 0 0 0 .92 3.12c.24.26.53.58 1 .31a.87.87 0 0 0 .43-.71.74.74 0 0 0-.66-.78c-.37-.09-.93 0-.74-.7s.64-.55 1.11-.48a1.9 1.9 0 0 0 .66.07c1.11-.25 1.37.44 1.51 1.3.06.4-.21.81.21 1.37a28 28 0 0 0 .21-4.2c-.29-3 .22-6 .08-9-.16-3.51.25-7-.36-10.54-.19-1.12.22-1.5 1.36-1.5 4.23 0 8.47-.18 12.7 0 10 .4 19.93.14 29.9.13h30.95c8.91-.07 17.83 0 26.74-.24 4.64-.14 9.28-.06 13.92-.1 8.58-.07 17.15-.07 25.72-.28 4.72-.12 9.45 0 14.17-.21s9.64-.29 14.47-.37h2.92c.81 0 1.15.2.92 1.13a40 40 0 0 0-1.24 9.87c0 4-.25 8-.6 12-.34 3.83-.14 7.66-.26 11.49 0 .6.45.8.75 1.23a2.18 2.18 0 0 0-.61 2.11 29 29 0 0 1-.15 6.17c-.09.62-.31 1.29.55 1.71a1.84 1.84 0 0 0-.75 1.81q.06 4-.23 8c0 .76-.15 1.35-1.11.66-.73-.51-1.62-.19-2.4-.18-10.59.18-21.19.53-31.79.67-4.6.06-9.21.08-13.81.24s-9 0-13.49.07c-5.5 0-11 .31-16.49.44-3.23.08-6.45 0-9.67.15-4.53.19-9.06.39-13.59.45h-2c-4 0-8 .44-12 .48-5.42.06-10.84.3-16.26.52-6.8.29-13.6.58-20.4.56-4.08 0-8.15.16-12.22.14-1.46 0-2.91-.25-4.37-.21a1.1 1.1 0 0 1-.83-.3.48.48 0 0 1 .53-.58c1.22 0 1.13-.84 1.15-1.61 0-1.09 0-2.17-.06-3.37m159.38-42.07-1.31 1.59c1.08.33 2.34-.66 3.12.6-.3.6-.8.57-1.29.59a10 10 0 0 0-2.45.24c-.39.11-.85.29-1.14-.14s0-.84.32-1.19l1.82-2.38a7.6 7.6 0 0 0-3.13-.12c-9.33-.07-18.66.1-28 .23-1.51 0-2.16.67-2.18 2.27l2.34.16c.38 0 1-.15 1 .46s-.62.63-1.05.6c-.82 0-1.63-.15-2.46-.12-1.13 0-1.39-.38-1-1.48.19-.58.62-1.1.52-1.8a3.5 3.5 0 0 0-.48-.07c-2.74.06-5.47.11-8.21.19a4 4 0 0 0-3.2 2.9c.94.38 1.84-.12 2.76-.12.29 0 .64 0 .68.39s-.21.47-.48.53a6.25 6.25 0 0 1-3.21.23c-1.16-.36-1.37-1-.71-2 .4-.61 1.07-1 1.43-1.89h-1.36c-4.27.07-8.54 0-12.82.13-5.58.13-11.16.07-16.75.09-1.68 0-2.24.47-2.63 2.24 1 .36 2.12 0 3.06.72-.48.8-1.16.7-1.77.63a19 19 0 0 0-2-.2c-1 0-1.15-.44-.67-1.32.36-.65.74-1.28 1.19-2.06h-1.35c-2.7 0-5.4 0-8.1.06a3.55 3.55 0 0 0-3.88 2.75h2.89c.37 0 .8.18.68.69s-.48.5-.88.31a2.33 2.33 0 0 0-1.54-.09 8 8 0 0 1-1.45.1c-.46 0-.94 0-1.14-.52s.15-.77.44-1.06a5.5 5.5 0 0 0 1.38-2.06H48.07c-.37 0-.78-.1-1.07.2-.94 1-1.87 2-3 3.19 1.4 0 2.54.31 3.68-.12.46-.17 1.08-.38 1.24.24s-.55.62-1 .77a8.9 8.9 0 0 1-4.11.16 1.15 1.15 0 0 1-1.08-.84c-.15-.53.2-.82.54-1.13a14.5 14.5 0 0 0 2.23-2.26 1.7 1.7 0 0 0-.37-.1c-3.25 0-6.49.1-9.73 0-5.2-.14-10.4.09-15.59.1-.62 0-.9.16-.91.8q-.09 4.55-.23 9.08c0 .6.28.81.8.84 1 0 1.95.14 2.92.15 7.11.06 14.23.1 21.34.18.71 0 1-.23.94-.89v-1.35c0-.45.18-.71.59-.69s.51.39.55.74a5 5 0 0 1 0 .56c-.07 1.7-.07 1.7 1.68 1.71 6.33 0 12.66 0 19 .08 5.32.09 10.64.09 16 .14 1.13 0 1.69-.25 1.62-1.46 0-.38 0-1 .58-.92s.53.63.43 1.06c-.24 1.12.31 1.34 1.29 1.33h9.56c1.36 0 1.49-.1 1.46-1.45 0-.51 0-1 .64-1s.51.55.54.94c.12 1.54.2 1.62 1.73 1.63h12.24c5.69 0 11.39 0 17.08.22.84 0 1.32-.15 1.18-1.11a2.3 2.3 0 0 1 .06-.78.43.43 0 0 1 .49-.37.46.46 0 0 1 .44.43 7 7 0 0 1 0 .78c-.05.77.31 1.09 1.08 1.06s1.64 0 2.47 0h7.4a2.5 2.5 0 0 0-.06-1.73c-.07-.37-.25-.83.25-1s.66.36.77.76a3 3 0 0 1 .11.67c.06 1 .54 1.27 1.53 1.26 4.34-.06 8.68-.13 13 0 5.24.1 10.49 0 15.73.06 1.05 0 1.91 0 1.71-1.45a.51.51 0 0 1 .49-.63c.44 0 .54.32.56.69s.08.81.14 1.36h6.53c.66 0 .6-.57.6-1 0-3.75.47-7.47.74-11.2.06-.75-.17-.93-.83-.92h-5a1.57 1.57 0 0 0-1.5 1M98 89.15c.27-.39.71-.8.2-1.26a.89.89 0 0 0-1.31 0c-.26.25-.61.78-1 .3s.16-.8.44-1.12a1.43 1.43 0 0 1 1.42-.46c1.47.27 1.78.8 1.55 2.68a1.38 1.38 0 0 0 .87.12h12.6c4.41 0 8.83.11 13.24.15h5c.68 0 .85-.52 1-1a.48.48 0 0 0-.19-.68 1.21 1.21 0 0 0-1.37.1c-.18.14-.33.31-.52.43a.47.47 0 0 1-.62 0 .45.45 0 0 1-.09-.61c.4-.59.8-1.17 1.66-1.15s1.8.17 2.25 1.15c.25.56-.34 1.06-.15 1.64a1 1 0 0 0 .3.12c2.85 0 5.7.05 8.55 0 1 0 1.19-.88 1.39-1.71a1.9 1.9 0 0 0-1.25.43c-.44.25-.8.14-.73-.4s.73-.89 1.28-1.13 1-.37 1.44.12a1.33 1.33 0 0 1 .4 1.43c-.12.33-.43.64-.2 1.13a46.5 46.5 0 0 0 6.68.16h24c.71 0 1.35 0 1.74-.75.16-.3.19-.57-.12-.79s-.52-.35-.82-.12a3 3 0 0 0-.46.49c-.18.2-.37.42-.66.23s-.25-.52-.14-.81a1.57 1.57 0 0 1 2.09-.91c1.49.63 1.62.91 1.23 2.65h5.16c.64 0 .71-.42.72-.91 0-1.16.08-2.32.14-3.48a56 56 0 0 0 .35-6.09h-5.61c-1 0-1.49.21-1.35 1.32.06.46.11 1.21-.65 1.16s-.67-.68-.56-1.16c.25-1.14-.32-1.31-1.29-1.31h-12.37c-5.58 0-11.16-.08-16.75-.17-.94 0-1.29.29-1.22 1.21 0 .56 0 1.14-.59 1.47-.66-.17-.56-.7-.57-1.18C143 79 143 79 141.49 79h-7.53c-1 0-1.83-.09-1.73 1.29a.61.61 0 0 1-.65.65c-.46 0-.54-.37-.5-.72.13-1.07-.46-1.23-1.35-1.24-9.56 0-19.11-.14-28.66-.2-2.29 0-2.29 0-2.33 2.33v.44c0 .31 0 .65-.43.66a.63.63 0 0 1-.72-.68 6.4 6.4 0 0 1 0-1.45c.2-1-.25-1.33-1.22-1.32h-8.54c-2.53 0-2.54 0-2.79 2.56 0 .51-.3.8-.77.75s-.49-.49-.44-.88a14 14 0 0 1 .21-1.44c.16-.77-.18-1-.9-1-5.31 0-10.63-.13-16-.17-6.78 0-13.56.09-20.34-.18-.89 0-1.14.32-1 1.13.09.54.12 1.19-.63 1.17s-.62-.65-.57-1.14c.11-1-.31-1.24-1.23-1.21-1.8.06-3.6 0-5.4 0l-18.31-.22c-.61 0-1.13 0-1.09.85.16 3-.32 6.06 0 9.09.08.72.31 1 1 1 1.68 0 3.36.15 5.05.14 6.78 0 13.56 0 20.35.08a1.11 1.11 0 0 0 1.25-.88c.15-.59-.32-.86-.71-1.15-.55-.42-1-.14-1.38.24s-.45.9-1.14.9c-.44-.61-.09-1.09.33-1.53.57-.61 1.21-1.21 2.14-.82 1.42.6 2.23 1.6 1.76 3.27 2.81.16 5.5 0 8.19 0h12.25c4.09 0 8.15-.1 12.23.12 1.23.06 2.47 0 3.71 0a.92.92 0 0 0 .93-.67.57.57 0 0 0-.16-.7c-.38-.31-.69-.11-1 .14s-.53.35-.76 0a.6.6 0 0 1 .15-.81 1.74 1.74 0 0 1 2-.44c1.07.47 1.09 1.38.94 2.5h9.09a7.2 7.2 0 0 0 3-.27m-10.55 11.63h-3.59c-3 0-5.91.15-8.87.07-1.41 0-2.48.09-3.25 1.49s-2.12 1.34-3.39 1.24-1.66-1-1.94-2.07a5 5 0 0 0-.2-.55h-1.6c-4.38.07-8.77 0-13.15.14-6.21.27-12.42-.29-18.63 0-1 0-1.8.1-2.14 1.26a3.3 3.3 0 0 1-.95 1.24c-1.34 1.33-4.06 1-4.6-.79s-1.48-2-3-1.84a12 12 0 0 1-1.8 0c-.59 0-.9.2-.9.85 0 2.88-.1 5.77-.09 8.65 0 2.28.28 2.51 2.6 2.51 3.22 0 6.44-.19 9.65 0 5.21.22 10.41-.11 15.61-.25 7.41-.19 14.82-.51 22.23-.75 6.5-.2 13-.54 19.52-.57 3.24 0 6.49-.2 9.74-.27 5.58-.13 11.15-.4 16.73-.51 6.44-.14 12.88-.13 19.31-.26 3.9-.08 7.79-.07 11.69-.15q14.06-.26 28.1-.7c2.69-.09 5.39-.08 8.09-.11.68 0 1.32-.06 1.27-1-.13-2.31-.25-4.63-.38-7 0-.6-.34-.81-1-.81h-13.46c-1.68 0-3.24 0-4.59 1.38a2.54 2.54 0 0 1-3.71-.33 2.11 2.11 0 0 0-2.48-1 6.4 6.4 0 0 1-1.24 0h-34a1.65 1.65 0 0 0-1.57.79c-1.64 2.35-4.1 2.26-5.5-.19a1.12 1.12 0 0 0-1.17-.61l-27.43.06m86.43-10.15q-9.22 0-18.45-.08-5.61 0-11.24-.11a1.39 1.39 0 0 0-1.63 1.4 6.54 6.54 0 0 0 3.37-.51c.3-.14.62-.44.87 0s-.11.61-.37.83a4.28 4.28 0 0 1-2.88.74c-.74 0-1.52.16-2.09-.51s0-1.25.23-2h-8.91c-.94 0-1.36.6-1.58 1.48 1.11.48 2.36-.26 3.37.46-.13.66-.53.73-1 .71s-.89 0-1.34 0c-.69 0-1.44.31-2-.4s.07-1.33.32-2v-.21a.8.8 0 0 0-.21-.06l-31.33-.21c-.84 0-1.25.48-1.47 1.28 1.59.5 3.22-.17 4.73.3-.07.62-.39.79-.73.8-1.42 0-2.85.09-4.27 0-.75 0-1-.66-.83-1.32a5 5 0 0 1 .48-1.11c-3.49 0-6.86.08-10.23 0-1.45 0-2.18.66-2.94 1.86.91-.14 1.66.24 2.44-.09.29-.13.67-.36.89.07s-.19.7-.52.83a6.13 6.13 0 0 1-3.74.09c-.58-.13-.65-.66-.27-1.16l1.14-1.48c-.33 0-.5-.09-.68-.09H47.22a2.49 2.49 0 0 0-2.44 2c1.36.4 2.82-1 4.46.28a11 11 0 0 1-5.3.76c-.6-.07-.79-.6-.54-1.22a9 9 0 0 1 1.12-1.79c-.41 0-.66-.09-.91-.09H31.93c-3.89 0-7.93.06-11.93-.04-1.12 0-1.44.35-1.36 1.42.2 2.53.32 5.07.46 7.61 0 .75.43 1 1.16 1 1.12 0 2.24.06 3.37.13a1.09 1.09 0 0 0 1.13-.54 7 7 0 0 1 .64-.78A18 18 0 0 1 27.69 97c.92-.77 2.9.16 3.22 1.66s1.16 1.6 2.39 1.56c6.52-.17 13 0 19.56-.09 3.67-.06 7.34 0 11 0a3.67 3.67 0 0 0 3.28-1.42c2.12-2.54 3.75-2.53 5.22.17a1.73 1.73 0 0 0 1.85 1.1l38.79-.16c1.6 0 2.81-.11 3.83-1.68a2.64 2.64 0 0 1 4.64.46c.38 1.07 1 1.27 2 1.26 7.83 0 15.67-.06 23.5-.07h11.81c.39 0 .93.15 1.07-.38a5.4 5.4 0 0 1 1.67-2.2c.76-.79 1.6-1.42 2.77-1a2.59 2.59 0 0 1 2 2.55c0 .71.33 1 1 1h15.07c.51 0 .92-.16.89-.75-.11-2.52.41-5 .21-7.53-.05-.55-.25-.82-.82-.81h-5.62c-.55 0-1 .19-.93.89 1 .48 2.15-.31 3.06.42-.14.66-.61.64-1 .68-.59.06-1.2 0-1.79.09-1.91.21-2.13-.06-1.45-1.78 0 0 0-.14-.08-.29h-1.16m5.09-26.55c1.83 0 3.66-.07 5.49-.08.69 0 1-.26 1.06-1 .09-1 .4-2 .53-3 .19-1.53.3-3.08.45-4.72h-1.87c-6.71-.06-13.41.26-20.11.39-5.88.11-11.76.13-17.64.22-7.75.11-15.5.11-23.26.26-9.13.18-18.25.19-27.38.21-12.86 0-25.72 0-38.58.06-3.36 0-6.73.11-10.1.13-2.58 0-5.16 0-7.73-.07h-8.5c-3.79-.12-7.57 0-11.36 0-.46 0-.85.09-.78.68.25 2.32-.15 4.63-.12 6.95 0 .91.25 1.24 1.21 1.23h18.42c1.38 0 2.76-.08 4.15 0a9 9 0 0 0 3.3-.12 1.79 1.79 0 0 0-.89-1.34c-.88-.6-1.36.52-2.1.55-.18-1.12.18-1.62 1.18-1.73a2.73 2.73 0 0 1 2.73 1.76c.22.42.32 1 1 .9 2.51-.18 5 0 7.52 0 5.28-.15 10.57-.05 15.85-.09h13.61c.39 0 1 .08.89-.54s-.5-.71-1-.68a2.26 2.26 0 0 0-1.33.77c-.25.22-.57.43-.89.11s-.08-.63.19-.85a6.4 6.4 0 0 1 1.07-.8 2 2 0 0 1 3.09 1.38c.14.66.56.6 1 .6h9.67c.35 0 .72 0 .8-.45s-.28-.55-.5-.8c-.58-.63-1.1.21-1.64 0-.06-1.1.46-1.83 1.16-1.55S99 63 99.21 63.8c.29 1.28 1.1 1.19 2 1.16 6-.2 11.92-.07 17.88-.15 4 0 7.93-.2 11.9-.12.41 0 .91.17 1.26-.34-.34-.94-.91-.6-1.46-.25-.31.2-.62.37-.88 0s0-.71.29-1a2 2 0 0 1 2.72.13 3.6 3.6 0 0 1 .72 1.25h9.25c.47 0 1-.09.92-.71s-.63-.62-1.13-.51a4 4 0 0 0-.42.16c-.26.11-.53.17-.69-.12s0-.58.26-.78a2 2 0 0 1 3.08.86c.12.34 0 .76.39 1.11h1.28c4.24-.07 8.47-.16 12.7-.2 5.36 0 10.73-.07 16.09-.11a10 10 0 0 0 1.45-.13c.36-.06.64-.3.43-.72s-.46-.65-.89-.41a2.7 2.7 0 0 0-.67.59c-.21.22-.43.47-.75.22a.67.67 0 0 1-.16-.82 1.93 1.93 0 0 1 3.11-.62 4.2 4.2 0 0 1 .86 1.81m8.45 1.19c-.85-.6-1.26-.22-1.32.66-.27 3.73-.66 7.46-.74 11.21 0 .51 0 1 .71 1s.81-.38.84-.93c.18-3.92.38-7.85.51-11.94m-.6 28.15a13 13 0 0 1-.16-1.78c0-1.07-.63-1.11-1.4-1.05-.92.06-.67.67-.61 1.23a11 11 0 0 1 0 1.12c.07 1.87-.37 3.72-.24 5.59 0 .76.28 1.05 1.06 1.06s1.07-.3 1.1-1c0-1.64.14-3.28.21-5.13m-.18-4.82c.19-3.12-.24-6.23.08-9.33-1.08-.31-1.52.09-1.57 1-.13 2.76-.29 5.51-.43 8.27 0 .5-.07 1 .67 1 .59 0 1.27.13 1.25-1m-.29 16.25c0-.94.08-1.87.07-2.81 0-1.56-.22-1.72-1.87-1.29.12 2.59.23 5.2.36 7.8 0 .33.11.63.52.58a.72.72 0 0 0 .71-.73c.06-1.12.14-2.24.21-3.55M12.34 90.26c0 .72-.16 1.47.29 2.14 1.48-.65 2.62-2 2.48-2.79a3 3 0 0 0-2.59-2.1 11.3 11.3 0 0 0-.18 2.75m5.53-21.67v-1.24c0-.41.13-.85-.4-.89s-.47.54-.47.83c-.07 2.94-.11 5.88-.15 8.82 0 .34-.12.88.44.85s.34-.57.38-.91c.3-2.42.08-4.85.19-7.46M165.2 99.38a2.05 2.05 0 0 0 0-1.32c-.24-.59-.78-1.16-1.33-.74a4.3 4.3 0 0 1-1.34.64 2.22 2.22 0 0 0-1.27 1.04c-.2.38-.08.74.35.73 1.16 0 2.36.31 3.59-.36M17.65 57.31a2.39 2.39 0 0 0-.73 2.18A24 24 0 0 1 17 64c0 .43-.15.89.13 1.29.22.08.45.07.54-.09a6.9 6.9 0 0 0 .33-2.89 13.9 13.9 0 0 0-.4-5.55 2.6 2.6 0 0 0 0 .55m-.83 25.77c.17 1.91-.06 3.87.51 6a1.65 1.65 0 0 0 .3-1.46 19.2 19.2 0 0 1-.1-4 41 41 0 0 0 .16-4.62c0-.35.11-.8-.61-.84a22.6 22.6 0 0 0-.21 4.93m9.5 18.1c-.38 0-.89-.22-.81.53a1.74 1.74 0 0 0 1.85 1.69 2.37 2.37 0 0 0 2.45-2.21h-3.49m160-37.5c.65.42.87.06.88-.53 0-1.16.33-2.29.45-3.43a31 31 0 0 0 .6-4.25c-.89-.25-1 .37-1 .86-.2 2.42-.52 4.82-.9 7.35M29.21 100.22c1.05-.1 1.21-.4.87-1.32s-.91-.52-1.47-.5a3.38 3.38 0 0 0-2.91 1.82zm39-.2a17 17 0 0 0 3.27 0c-.13-1.1-.66-1.81-1.27-1.85a3.23 3.23 0 0 0-2.51 1.58c-.06.26.17.27.51.32m1.67 2.46a1.71 1.71 0 0 0 1.15-1.39A16.7 16.7 0 0 0 68 101c-.77 0-.78.46-.5 1 .53 1 1.41.75 2.42.49m50.48-3.91c-1.47-1-2.67-.58-3.21 1.12a13 13 0 0 0 2.64.11c.87 0 1.08-.35.57-1.23m-.16 2.32a9.8 9.8 0 0 0-3.19 0c.09.84.62 1.29 1.17 1.26.8 0 1.72-.15 2-1.26M17.86 93.25a9.2 9.2 0 0 0-.47-3c.39 2.56.24 5.16.64 7.71 0-1.51-.3-3-.17-4.73m146 7.77c-.82-.74-1.61-.27-2.4 0a1.68 1.68 0 0 0 2.4 0M26.43 44.93c.09-1.06.19-2 .29-3.07a7 7 0 0 1 1.71.12 3.67 3.67 0 0 0 1.89 0c1.2-.16 1.45.91 1.66 1.9a10.6 10.6 0 0 1 1-1.22 1.11 1.11 0 0 1 1.33-.19c.45.19.78.46.72 1a1.25 1.25 0 0 0 .54 1.27c.22.15.38.39.18.67a.47.47 0 0 1-.7.08 1.35 1.35 0 0 0-1.73 0c-.67.41-1.09-.06-1.47-.58-.26.39.06 1.14-.7 1s-.49-.74-.46-1.2.45-1.14-.2-1.66a1.54 1.54 0 0 0-.87 1.46c0 .45-.25.88-.74.8s-.47-.58-.45-1 .39-.77-.07-1.2c-.58.24-.7.78-.81 1.31v.67c-.06.46.1 1.17-.53 1.18s-.64-.68-.62-1.31" fill="#010101"/>
  <path d="M13.76 70.33a2.53 2.53 0 0 1-2.15 0c-.69-.4-1.18-.75-.89-1.84a6.9 6.9 0 0 0-.47-3.73 1.51 1.51 0 0 1 .83-2.09c1-.33 2.56.3 2.79 1.12s-.49 1.11-.69 1.68c2.75 2.43 2.89 3.5.58 4.82m-1.4-.84c1.13 0 1.94-.51 1.9-1.21-.06-.9-1.4-1.77-2.56-1.58.33.87.08 1.84.66 2.79m-.85-4.75c.65.31.93-.08 1.16-.57a.82.82 0 0 0-1.09-.41c-.42.18-.33.52-.07 1M20 42.05a8.4 8.4 0 0 0-.7 1.86c-.12.42-.3 1-.89.74s-.39-.75-.19-1.17c.88-1.94 1.74-3.9 2.69-5.81.29-.6.24-1.71 1.3-1.55s.63 1.14.79 1.77c.41 1.72 1.16 3.34 1.41 5.1 0 .26.1.52.11.77s-.09.62-.44.69-.62-.22-.7-.57-.08-.89-.17-1.33c-.19-1-.61-1.58-1.77-1.17-.49.17-1.05.13-1.44.67m2.26-2.89c-.16-.3 0-.77-.49-1a5.3 5.3 0 0 0-.93 2.13c.75 0 1.65.28 1.42-1.17M12.18 99.28c.4-.68.27-1.8 1.21-1.77s.8 1.13 1 1.79c.51 1.63.95 3.29 1.41 4.93.13.45.27 1-.38 1.08s-.64-.34-.71-.8a6.4 6.4 0 0 0-.35-1.18c-.15-.43-.13-1.09-.79-1.06s-1.43.11-1.73 1a11 11 0 0 1-.77 1.74c-.18.35-.5.64-.91.4s-.14-.59 0-.9c.68-1.7 1.34-3.41 2-5.2m1.4 1.5a1.53 1.53 0 0 0-.35-1.09 3.7 3.7 0 0 0-.54 1.5.83.83 0 0 0 .89-.41m-3.13 13.38c.06-1.4.13-2.71.16-4 0-.45.16-.62.6-.77A24 24 0 0 1 14 109a.48.48 0 0 1 .62.35.53.53 0 0 1-.43.68 7 7 0 0 1-1.44.16c-1 0-1 .58-1.05 1.32s.48.82 1.11.75a2.24 2.24 0 0 1 1.87.24c-.25.87-1 .78-1.6.83s-1.27 0-1.42.94c-.23 1.35.16 1.81 1.54 1.65s1.23-.15 1.75.19a2.86 2.86 0 0 1-3.39.74c-1.34-.47-1.15-1.57-1.09-2.72m1.39-61.92c1.17-.19 2 .25 2.16 1.12.16 1-.56 1.55-1.36 2-.49.26-1.5.08-1 1.12a1.3 1.3 0 0 0 1.89.64l.51-.23c.34-.17.77-.43 1 0s-.21.78-.65 1c-1.59.71-2.62.61-3.36-.36A3.66 3.66 0 0 1 11 53a7 7 0 0 1 .82-.73m.33 2.07a2 2 0 0 0 .48-.26c.23-.22.39-.51.08-.76s-.69 0-.91.29-.52.68.35.73m28.29-17c-.54-.67-1.17-.12-1.76-.2-.37-.05-.83 0-.9-.44s.43-.64.82-.7a10 10 0 0 1 1.46-.07c1.86 0 1.93.06 1.41 1.81-.14.49 0 .72.44 1s.52.83-.1.86c-1.23.08-1.28 1-1.47 1.8-.13.55-.32 1-.9.85s-.28-.72-.11-1.14a7 7 0 0 0 .27-.93c-.23-.45-1-.26-.94-.88s.61-.49 1-.61c.64-.21.64-.77.81-1.33m-4.6 6.76c-.2-.63-.54-1.16-.34-1.74.21-.19.46-.18.55 0a6.6 6.6 0 0 1 1.3 3.38c0 1.13-1.16 1.07-1.95 1.29a.88.88 0 0 1-1.22-.75c2.27-.56 2.27-.56 1.66-2.14M34.79 40c.48.1.81.26.55.75a.46.46 0 0 1-.73.19c-.41-.33-.39-.67.18-.94" fill="#010101"/>
</svg>