<svg xmlns="http://www.w3.org/2000/svg" viewBox="0 0 198 153">
  <path d="M14.61 89.37a29 29 0 0 1-.26-5.5 2.67 2.67 0 0 0-1.61-2.82h.07c-1.81 1.1-3.06.68-3.81-1.32a4.59 4.59 0 0 1 .74-5 1.75 1.75 0 0 1 2.58-.25c-.53.45-1.29.32-1.78.87a3.88 3.88 0 0 0 0 5c.25.25.52.59 1 .38a.85.85 0 0 0 .52-.91c0-.46-.32-.64-.75-.67-.64 0-1-.38-.48-.92s1.5 0 2.27-.16c.41-.07.74.56.83 1.07a5 5 0 0 1 0 .78 1.3 1.3 0 0 0 .39 1.08v-3.6c.07-5.77.29-11.54.18-17.31 0-1.16-.17-2.31-.24-3.47 0-.75.3-1.05 1.08-1 5 0 10 0 15.07.11 15.29.4 30.59.06 45.88.15 8.84.06 17.69 0 26.53 0 4.2 0 8.39 0 12.59-.1 5.91-.15 11.83 0 17.74-.13 7.53-.13 15.06-.06 22.58-.24 5.13-.12 10.27-.05 15.4-.23 4.94-.17 9.88-.2 14.82-.29.77 0 1.14.13.89 1.12a38.5 38.5 0 0 0-1.24 9.33 119 119 0 0 1-.53 12.11c-.37 3.62-.08 7.21-.19 10.81 0 .71-.4 1.52.72 1.91a2.61 2.61 0 0 0-.7 2.24 34 34 0 0 1-.17 6.28s0 .08 0 .11c.38 1.79-.2 3.55-.17 5.33s-.09 3.67-.12 5.5c0 1.21-.16 1.29-1.21.79a4.53 4.53 0 0 0-2.31-.1c-2 .13-4 .13-6.06.14-7.91 0-15.81.44-23.71.52-5.13 0-10.27.09-15.4.25-4.49.14-9 0-13.48.08-7.79.24-15.58.33-23.36.54-5 .14-10.1.47-15.16.46-5.31 0-10.61.4-15.92.5-5 .09-10.1.27-15.14.48-6.84.27-13.68.6-20.52.58-4.05 0-8.08.2-12.12.15-1.57 0-3.13-.26-4.71-.21a.62.62 0 0 1-.6-.28c0-.47.35-.56.66-.57.87 0 1.08-.6 1.09-1.27v-10.44a1.19 1.19 0 0 0-.27 1c0 3.19-.64 6.33-.52 9.53 0 .39-.06.82-.56.8s-.57-.48-.55-.85c.12-2 .31-4 .41-5.93a56 56 0 0 0 .21-8.51c-.25-2.54-.17-5.13-.61-7.75v-.06m31.74-23.23c-1.71.46-2.36 2.1-3.76 3.18a6 6 0 0 0 3.87 0c.37-.14.81-.16 1 .27s-.22.63-.6.75a10 10 0 0 1-4.45.22 1.13 1.13 0 0 1-1.09-.82c-.12-.54.19-.82.53-1.14a14.6 14.6 0 0 0 2.26-2.31c-.58 0-1.07-.11-1.55-.1-8 .08-16-.16-24.05.06-1 0-1.11.35-1.13 1.14-.05 2.62 0 5.24-.17 7.86-.12 1.78-.06 1.77 1.77 1.81 3 .06 6.06.16 9.09.19h14.17c.67 0 1-.23 1-.9a10 10 0 0 1 .06-1.46.52.52 0 0 1 .53-.48c.33 0 .46.26.49.52a5.2 5.2 0 0 1 0 1.24c-.11 1 .31 1.28 1.29 1.28 11.39.06 22.78.16 34.17.23a4.6 4.6 0 0 0 2.23-.1c.61-.34.37-1.16.53-1.76.07-.26.21-.51.53-.47s.4.3.42.57a2 2 0 0 1 0 .56c-.15.92.19 1.27 1.15 1.26q4.89 0 9.78.05c1 0 1.36-.43 1.29-1.35 0-.52 0-1.08.66-1s.56.63.56 1c0 1.39 0 1.45 1.47 1.47l26.41.25a3.25 3.25 0 0 0 1.89-.56c1.72-1.13 3.47-2.22 5.22-3.31.3-.19.72-.46 1-.08s-.16.63-.45.84l-.52.38a2.39 2.39 0 0 1 .13 2.73h7.14c1.62 0 1.63 0 1.38-1.64 0-.38-.14-.82.32-.95s.62.31.73.67a2.2 2.2 0 0 1 .11.55c.05 1.07.56 1.41 1.66 1.4h28.34c1 0 1.82-.06 1.62-1.42a.49.49 0 0 1 .52-.59c.31 0 .45.25.49.53.07.44.13.88.22 1.46h6.31c.72 0 .73-.63.75-1.16.06-1.46 0-2.92.17-4.38.24-2.08.33-4.17.53-6.26.08-.87-.22-1.24-1.13-1.16a32 32 0 0 1-3.37.09 3.72 3.72 0 0 0-4.07 2.65c1 .11 2.14-.68 3 .38-.28.63-.83.61-1.34.65a12 12 0 0 0-2.46.25c-.34.09-.79.18-1-.19s0-.77.28-1.1l1.95-2.49a12.3 12.3 0 0 0-3.14 0c-9.22 0-18.43 0-27.65.24-1.48 0-2 .51-2.17 2.07a10.6 10.6 0 0 0 2.32.32c.37 0 1-.17.94.46s-.6.64-1.05.62c-.86 0-1.71-.16-2.58-.12s-1.29-.38-1-1.32a7.7 7.7 0 0 0 .63-2c-2.85 0-5.65-.07-8.45.17-.78.07-1.26.59-2 1.19 1.29-.16 2.07-1.18 3.17-.93.15.46-.16.65-.17.88 0 .67-.85.83-.86 1.49s-2.42 3.07-3 2.76a2 2 0 0 0-1.67 0c-.39.1-.61-.15-.76-.5-.34-.74-1-1.18-1.48-1.89s-.42-.87.08-1.23a3.4 3.4 0 0 0 1.2-1.45c-.62-.49-1.32-.29-2-.28-8.58.09-17.16-.07-25.74.17-2.1.06-2.43.22-3 2.11.67.42 1.46.21 2.18.35.33.07.75 0 .79.46s-.4.63-.76.66a13.8 13.8 0 0 1-3.33-.32c-.56-.09-.61-.57-.34-1.06s.71-1.29 1-1.93a1.73 1.73 0 0 0-1.29-.24h-8A3.54 3.54 0 0 0 82.46 69c.61.16 1.19-.13 1.79-.12a3.2 3.2 0 0 1 1.54.16c.25.13.42.33.31.63s-.3.53-.58.41c-1.1-.47-2.23-.08-3.34-.15-.4 0-.84 0-1.06-.48s.12-.76.39-1.07A6.3 6.3 0 0 0 83 66.25zm38.38 23.1c2.21.05 4.41.1 6.61.13h4.16a1.15 1.15 0 0 0 1.08-.84.56.56 0 0 0-.26-.77 1 1 0 0 0-1.14.07c-.29.23-.63.79-1 .32s.2-.86.5-1.19a1.4 1.4 0 0 1 1.33-.34c1.37.24 1.67.76 1.53 2.74h.66c8.69 0 17.39-.06 26.08.15 1 0 2.29 0 2.63-1.08.75-2.4 3-1.58 4.38-2.46.26.57-.29.63-.32 1.06.84-.63 1.3-.17 1.72.44.65.94-.06 1.38-1 1.93a45 45 0 0 0 8.21.06c.7-.05 1.06-.82 1-1.6-.56-.12-.82.27-1.17.45s-.72 0-.68-.4c0-.59.54-.86 1-1.09s1-.51 1.56-.06a1.34 1.34 0 0 1 .55 1.38c-.08.38-.45.71-.19 1.22a41 41 0 0 0 4.45.15q13.11 0 26.21.08a1.33 1.33 0 0 0 1.23-.62c.19-.3.38-.6 0-.89s-.64-.37-1 0-.39.67-.91.64c-.45-.46-.3-.93.09-1.35a1.44 1.44 0 0 1 2-.31 4.9 4.9 0 0 1 1.19.83c.44.53-.23 1.09-.2 1.73 1.6 0 3.14-.05 4.66 0 1 0 1.25-.38 1.25-1.25a42 42 0 0 1 .25-5.61 16 16 0 0 0 .15-3.47 38 38 0 0 0-4.77-.13 5 5 0 0 0-1.78.08c-.85.33-.21 1.12-.3 1.7-.06.35-.13.71-.54.75s-.64-.32-.71-.71a1.9 1.9 0 0 1 0-.67c.16-.83-.15-1.16-1-1.17q-14.56 0-29.12-.08c-.81 0-1.18.31-1.2 1.1 0 .55.05 1.14-.52 1.51-.69-.16-.58-.68-.55-1.16.07-1-.27-1.42-1.33-1.46-2.18-.08-4.35.12-6.52 0-.54 0-1.44-.24-1.67.32-.61 1.42-2.25 1.73-2.87 3.21a2.27 2.27 0 0 0-1.85-.78c-1.33.22-1.16-.56-1-1.31.29-1.52.32-1.52-1.31-1.52L106 79c-2.47 0-4.94-.07-7.41-.12-1.32 0-1.53.17-1.56 1.41a7.4 7.4 0 0 1-.07 2c-.72.1-1.1-.11-1-.89v-1.12c.07-1.29-.06-1.46-1.32-1.47-3.07 0-6.15 0-9.22-.05-1.8 0-1.82 0-1.91 1.76 0 .63.22 1.63-.8 1.48-.8-.12-.36-.94-.24-1.5.32-1.46.08-1.73-1.39-1.74-3.44 0-6.88-.16-10.33-.17-8.39 0-16.78-.15-25.17-.27-.93 0-1.33.26-1.13 1.23.1.46.09 1-.52 1s-.79-.52-.73-1c.15-1.1-.35-1.33-1.35-1.32-3.11 0-6.22.06-9.32-.07-4.87-.2-9.75 0-14.61-.29-.6 0-.88.17-.83.85a24 24 0 0 1 0 2.81 29.2 29.2 0 0 0 .13 7.17c.24 0 .46.08.68.1a83 83 0 0 0 8.65.17c5.69 0 11.38.26 17.06.11a1.13 1.13 0 0 0 1.23-.89c.17-.6-.31-.86-.71-1.14-.56-.38-1-.1-1.4.27s-.45.9-1.11.92c-.54-.68-.05-1.18.35-1.64s1.19-1.13 2.06-.78c1.42.58 2.26 1.58 1.84 3.18a1.76 1.76 0 0 0 1.09.17h13.16c6.18 0 12.37-.1 18.55.14h3.48c.49 0 .71-.36.89-.75a.44.44 0 0 0-.13-.6.75.75 0 0 0-1 .07c-.27.22-.6.43-.85 0s0-.65.3-.87A1.7 1.7 0 0 1 83.2 87a1.47 1.47 0 0 1 1 1.57c0 .3-.19.71.51.79m27 11.36c-3.06 0-6.13-.07-9.19 0-5 .17-10 .09-15 .11H71.89a1.35 1.35 0 0 0-1.4.72c-1.19 2.47-3.39 2.5-5.65 2.4 0-.14-.11-.22-.09-.28.45-2-.17-2.83-2.26-2.81-4.15 0-8.3.15-12.45.17H30.92a1.81 1.81 0 0 0-2 1.16c-.86 1.79-2 2.29-4 2a2.48 2.48 0 0 1-2-2.25 1.16 1.16 0 0 0-1.3-1.05h-3.25c-.57 0-.82.22-.82.8 0 3.32-.25 6.64-.06 10a1 1 0 0 0 1 1.11 30 30 0 0 0 6.05.1c5.54-.05 11.08.13 16.63-.17 3.77-.21 7.56-.16 11.34-.29 7.86-.26 15.72-.59 23.58-.85 7.36-.25 14.72-.44 22.08-.64 5.39-.15 10.78-.32 16.17-.42 6.1-.12 12.21-.18 18.31-.25 4.12 0 8.24 0 12.36-.12 6.89-.15 13.78-.37 20.67-.54 4.76-.12 9.52-.23 14.27-.29.93 0 1.22-.27 1.18-1.24-.09-2-.13-4.11-.24-6.17-.05-1-.29-1.3-1.3-1.29q-7.14.08-14.28 0a3.74 3.74 0 0 0-2.92 1 2.67 2.67 0 0 1-4.06 0 2.52 2.52 0 0 0-2.41-1c-11.53 0-23.06.11-34.59.06a1.66 1.66 0 0 0-1.9 1.33 1.86 1.86 0 0 1-2.25 1.37c-.76-.08-1.47-.65-2.28-.23-.38.2-.78.59-1.23.23s.29-.79.09-1.24c-.41-.51-1.11.16-1.57-.37-.27-.27.42-.91-.5-1.09M143 90.54h-1.35c-.89 0-1.25.46-1.29 1.4a6 6 0 0 0 3.3-.58c.26-.16.55-.35.79 0s0 .63-.28.84a4.55 4.55 0 0 1-2.86.82c-2.15.06-2.49-.3-2.09-2.44-2.75 0-5.47-.07-8.19.19 1.08.57 1.9 1.61 1.72 2.35.26.18.72-.1.87.41-.15.64-.83.76-1.27 1.11a1.44 1.44 0 0 1-1.87 0c-.55-.45.32-.81.41-1.26-1.22.32-2 1.47-3.36 1.42a5.64 5.64 0 0 0-.85-2.93 2.27 2.27 0 0 0-2.23-1.36q-13.59-.06-27.19-.18a1.45 1.45 0 0 0-1.65 1.27 1.3 1.3 0 0 0 .36.13h3.37c.38 0 1-.2.94.44 0 .48-.54.55-1 .56-1 0-2 .05-2.92.05-1.9 0-2.19-.35-1.77-2.21a1.85 1.85 0 0 0-1.17-.24h-9.11c-1.19 0-1.72.66-2.26 1.63.82.1 1.51.46 2.26.06.29-.15.66-.34.85.12s-.18.64-.47.78a5.58 5.58 0 0 1-3.82.11c-.61-.15-.55-.69-.24-1.19s.85-.73 1-1.28c-.37-.33-.76-.2-1.12-.21h-7c-9.29.1-18.57-.38-27.86-.06a2.53 2.53 0 0 0-2.46 1.9c1.39.4 2.89-.78 4.25.31a11 11 0 0 1-4.86.86c-.74 0-1.09-.65-.7-1.41.28-.56.62-1.09.94-1.65a2.15 2.15 0 0 0-1.24-.14H26.96c-3 0-5.92-.12-8.88-.19-.57 0-1 0-1 .8-.06 2.77.19 5.53.37 8.29 0 .44.13.92.75.94l4 .16a.68.68 0 0 0 .69-.3 9.6 9.6 0 0 1 2.55-2.33 2.29 2.29 0 0 1 3.79.91c.77 1.78.77 1.78 2.68 1.75h30.43c1.17 0 2.07-.16 2.21-1.58 0-.54.57-.73 1-.93a31 31 0 0 1 4-1.24c.51-.15 1.41-.5 1.5.05s.91 1.46-.33 2c.83.28 1.15.7.63 1.63h4.16c3.59 0 7.18-.11 10.77-.12q12.42-.08 24.85-.1a2.3 2.3 0 0 0 1.4-.3 50 50 0 0 1 4.67-2.91c1.31-.7 1.32-.76 1.86.58.42.16 1.26-.4 1.14.68-.06.58-.06 1.17-.1 1.76a2.76 2.76 0 0 0 1.56.21h15c4.27 0 8.53-.18 12.8 0 2.09.09 4.19 0 6.29 0 .69 0 1.58.17 1.93-.76a6.9 6.9 0 0 1 2.06-2.34 2.06 2.06 0 0 1 2.48-.44c.91.45 1.7 1 1.69 2.16 0 1 .49 1.29 1.42 1.27h14.39c.52 0 1.18 0 1.12-.73-.19-2.43.53-4.85.09-7.29-.11-.63-.29-.94-1-.93h-5.29c-.6 0-1 .19-1 .87 1 .53 2.16-.36 3.24.65a8.85 8.85 0 0 1-4.2.56c-.55 0-.74-.56-.51-1.13.12-.3.43-.52.35-1-9.77.09-19.55-.07-29.55-.18M17.36 64.42c0 .86.55.84 1.14.84 8.36 0 16.72-.13 25.07.11a1 1 0 0 0 .92-.27c-.64-1.51-.86-1.56-2.91-.7A1.28 1.28 0 0 1 43 62.63a2.63 2.63 0 0 1 2.28 1.62c.43 1 1.07 1 2 1H80.6A3.06 3.06 0 0 1 83.33 63c1.1 0 1.79.74 2.12 2.28h4.23c2 0 4 0 6.07-.06.42 0 1 0 .83-.61a.94.94 0 0 0-1.11-.73c-.31 0-.54.43-1 .21a1.22 1.22 0 0 1 .53-1.42c.46-.4.88-.12 1.31.17a2.63 2.63 0 0 1 1.56 2.33c2 .1 3.87-.07 5.77-.09C110.08 65 116.52 65 123 65c1.47 0 3 .17 4.23-.91s2.77-1.17 3.9-2.09c.32-.27.74-.76 1.15-.29s-.24.73-.49 1a.4.4 0 0 0-.06.12c-.21 1 2 .54.86 2h8.54a.63.63 0 0 0 .62-.77c-.06-.42-.4-.51-.77-.46a5 5 0 0 0-.64.19c-.29.09-.61.22-.78-.15s.07-.57.31-.76a1.8 1.8 0 0 1 3 .93c.16 1.13.77 1.07 1.54 1.06 4-.07 8.08-.16 12.13-.2 4.87 0 9.75 0 14.62-.09.4 0 .83.12 1.17-.2 0-1.13 0-1.19.52-1.61 1.27-1.08 2.67-.69 3.24 1 .16.43.23.74.78.73 1.72 0 3.45 0 5.17-.05.49 0 .71-.2.81-.72.43-2.24.62-4.52.93-6.78.1-.78-.09-1.2-1-1.16-2 .09-4 .12-6.05.16-7.68.14-15.35.31-23 .41-10.34.12-20.68.18-31 .28-7.42.07-14.84.08-22.25.09-4.22 0-8.45.16-12.68 0-3.39-.11-6.81.1-10.21.08-6.92 0-13.84-.11-20.75-.14-2.65 0-5.31.11-8 .11-3.21 0-6.43-.06-9.64-.1-5.09-.06-10.18-.13-15.27-.17-1.84 0-3.67.09-5.51.12-.57 0-.78.26-.79.82-.05 2.29-.14 4.57-.21 7.05m165.3 10.06a14.4 14.4 0 0 0-.11 2.78c-.05.55-.08 1 .66 1s.91-.3.93-.95c.06-1.35 0-2.69.13-4 .19-2.38.25-4.78.35-7.16 0-.46-.09-.83-.66-.83s-.62.33-.65.74c-.22 2.76-.43 5.51-.65 8.47m.28 25.03c.59 0 .75-.3.83-.82a46.6 46.6 0 0 0 .14-7.38c0-1-.79-.71-1.34-.74s-.83.39-.74 1a21.6 21.6 0 0 1-.14 4.69 15.4 15.4 0 0 0 0 2.35c0 .71.33 1 1.23.94m-.91-14.41c0 1.16 0 2.32-.06 3.47-.05.89.36 1.09 1.14 1s.79-.6.83-1.17c.17-2.69-.29-5.36 0-8 0-.42.33-1.07-.42-1.18s-1 .38-1.08 1.09c-.1 1.53-.24 3-.37 4.79m0 21.16v2c0 .31 0 .63.44.67a.67.67 0 0 0 .78-.49 4.3 4.3 0 0 0 .18-.88c.09-2 .15-4 .26-6 .05-.8-.3-1-1.05-1s-.9.49-.87 1.1c.08 1.49.16 3 .23 4.68M16.33 73.67q0-3.3.1-6.62c0-.34.09-.73-.43-.73s-.49.39-.49.73q-.12 4.49-.2 9c0 .35-.08.79.62.87.38-1 .16-2 .4-3.22m-.24 6.3c0-1.63 0-1.63-.69-2-.52 3.66-.09 7.2.12 10.75h.63a51.5 51.5 0 0 1-.06-8.75m.48-20c-.08-1.07.24-2.2-.38-3.35-.17.45.31.93 0 1-1.05.33-.61 1.14-.64 1.76v4.47c0 .42-.18.88.14 1.27.85-.26.91-.57.91-5.18m10.07 43.18a2.59 2.59 0 0 0 1.51-2 19 19 0 0 0-3.7-.1c-.5 0-.59.34-.49.78.25 1.15.85 1.48 2.68 1.29m158.39-47.21a1.8 1.8 0 0 0-.53 1.63 28 28 0 0 1-.7 5.32 3.4 3.4 0 0 0-.09.77c0 .26.06.56.4.58s.49-.26.51-.59c.12-2.39.74-4.71 1.07-7.07.07-.46.06-.75-.66-.64m-23.17 43.82c1 .2 1-.49 1-1.16s-.47-1.51-1-1.27c-.9.39-2 .5-2.66 1.41-.15.22-.33.43-.18.71s.43.27.69.28h2.2m-135.26.36a5 5 0 0 0 .67 0c.45-.07 1.09.25 1.31-.3a1.49 1.49 0 0 0-.51-1.51c-.1-.1-.22-.19-.32-.28-1.22.54-2.81.38-3.59 2.09ZM16 94.63a11.6 11.6 0 0 0 .45 3.37c-.41-2.64-.1-5.33-.63-8-.17 1.47.33 2.91.2 4.6m68-30.13c-1.07-.63-1.55-.49-2.45.78h1.83c.4 0 .76-.1.62-.77m76.62 36.14c-.47.09-1-.17-1.45.28a1.53 1.53 0 0 0 2.44-.09c-.22-.29-.54-.14-1-.19m12.5-36.48c.28.45.71.18 1.08.2a.53.53 0 0 0 .6-.38.65.65 0 0 0-.3-.67.57.57 0 0 0-.72 0 1.85 1.85 0 0 0-.66.87" fill="#010101"/>
  <path d="M8.77 63.3a2.26 2.26 0 0 1 3.3 0c.54.63.43 1-.64 2.16a6.2 6.2 0 0 1 1.77 1.43 1.88 1.88 0 0 1-.46 3c-1.26.83-3 .61-3.61-.46A.74.74 0 0 1 9 69c.58-1.62 0-3.13-.44-4.65a1.21 1.21 0 0 1 .22-1m1.63 5.14c.08.64.21 1.25 1.08 1 .63-.22 1.35-.43 1.21-1.33a2.19 2.19 0 0 0-2.41-1.43c-.18.55.21 1.07.12 1.81m-.57-4c.72.88 1 0 1.41-.3a.94.94 0 0 0-1.15-.54c-.34.09-.42.38-.26.84M20 41.42c-1.37 0-1.56 1.06-1.92 2-.2.52-.14 1.55-1.05 1.19s-.17-1 .05-1.53C18 41 18.88 39 19.8 36.91c.2-.43.44-.83 1-.82s.63.52.71 1c.38 2.12 1.3 4.1 1.64 6.23.08.5.25 1.08-.42 1.18S22 44 22 43.47a8 8 0 0 0-.15-1c-.2-1-.73-1.44-1.85-1m.69-3c-.93.36-.92 1.25-1.39 2A2.72 2.72 0 0 0 21 40c-.1-.5-.2-1-.38-1.64m-6 51a5.42 5.42 0 0 1-3.93 4.44c-.68.13-1.33-.21-1.24-.92.25-1.92 0-3.86.32-5.79.14-.91.55-1.08 1.27-.88a4.93 4.93 0 0 1 3.54 3.1c0 .07 0 .06 0 0m-4 .19c.08.93-.25 1.92.35 2.79 1.69-.82 2.61-1.94 2.43-2.91a2.85 2.85 0 0 0-2.53-2.06c-.09.73-.17 1.45-.25 2.18m3.08 15.7c-1-.38-.64-1.38-1-2-.23-.37 0-1.13-.7-1.08s-1.52.07-1.86 1a15 15 0 0 1-.78 1.74c-.18.36-.48.66-.9.43s-.16-.57 0-.88c.81-2 1.6-4 2.43-6 .15-.38.26-.94.83-.93s.7.56.83 1c.51 1.87 1 3.73 1.55 5.6.13.43.33.88-.33 1.17m-1.93-5.53c-.07-.08-.11-.39-.24-.19a8 8 0 0 0-.58 1.3c0 .08 0 .19.07.29a1 1 0 0 0 .94-.31c-.06-.36-.12-.73-.19-1.09m.37 16c.47-.07.84-.11 1 .34a3.33 3.33 0 0 1-3.66.62c-.92-.52-1-1.42-.88-2.44a36 36 0 0 0 .25-4 .85.85 0 0 1 .76-1c.85-.23 1.72 0 2.55-.28a.46.46 0 0 1 .62.33.52.52 0 0 1-.34.63 3.7 3.7 0 0 1-.87.18c-1.8.14-1.8.15-1.6 2.08.91.27 1.89-.21 2.88.17-.23.92-1 .78-1.59.88s-1.47 0-1.56 1c-.11 1.38.16 1.7 1.55 1.59.26 0 .52-.07.87-.12m-.79-60.59c-.5.17-.92.3-1.33.42.06 1.4.78 1.84 2.1 1.41.46-.15 1.11-.88 1.41-.07s-.64.78-1.12 1c-1.55.65-2.42.4-3.17-.84a3.54 3.54 0 0 1 .66-4.5 1.52 1.52 0 0 1 2.5.45c.53 1.09-.36 1.54-1.05 2.15m-1-.86a1.18 1.18 0 0 0 1-.48c.13-.21.17-.41 0-.59s-.36-.2-.52-.1c-.35.3-1 .48-.54 1.18m17-9.1c-.52-.68.28-1.35-.13-2-.77.31-.85 1-.95 1.62v.89c0 .29-.1.66-.47.66s-.63-.42-.61-.79c.05-1.19.17-2.37.27-3.65.88.23 1.72-.06 2.47.42.27.18.48 0 .72-.13a1.34 1.34 0 0 1 1.89 1 12.6 12.6 0 0 1 0 2.45c0 .26-.22.38-.48.36a.48.48 0 0 1-.48-.4 2.7 2.7 0 0 1 .07-1.33c.11-.42.16-.82-.35-1.12-.61.27-.74.81-.83 1.42s-.25 1.07-1.06.64M37.84 36h1c1.82 0 1.87.07 1.36 1.8-.12.4-.12.7.32.92a.61.61 0 0 1 .28.92c-1.26-.12-1.59.8-1.77 1.79-.1.57-.32 1-.9.86s-.29-.71-.14-1.12.21-.64.28-.89-.17-.28-.27-.35c-.33 0-.6-.15-.62-.52s.3-.49.6-.56a1.36 1.36 0 0 0 1.15-1.65h-1.7c-.38 0-.83.07-.91-.42s.35-.59.71-.69a3.5 3.5 0 0 1 .66-.07m-6.93 7.6c.59-.81 1.11-1.59 2.22-1 .31.16.61.36.6.74a1.7 1.7 0 0 0 .56 1.64.38.38 0 0 1 0 .59c-.21.25-.46.18-.71.06s-.67-.63-1.2-.29-1 .67-1.52.13a1.42 1.42 0 0 1-.05-1.84" fill="#010101"/>
  <path d="M34.3 42.27c.66 0 .75.46.91.87s.4 1 .61 1.56.46 1.28-.14 1.74a2.66 2.66 0 0 1-2.31.55.63.63 0 0 1-.52-.73c.06-.06.11-.15.17-.15 2.15-.17 2.14-.18 1.41-2.23-.18-.5-.57-1-.13-1.61m-.3-1.46c-.43.5-.76.34-1-.07a.4.4 0 0 1 .22-.63c.51-.14.86 0 .78.7" fill="#010101"/>
</svg>