<svg xmlns="http://www.w3.org/2000/svg" viewBox="0 0 98.62 113.07"><title>amaj7</title><path d="M4.94,87a109.71,109.71,0,0,0-.33-18.24c-.48-4.31-1-8.62-1.07-13-.15-5.33-.24-10.66-.41-16,0-1.06.15-2.17-.63-3.14-.39-.5.07-1.06.44-1.47s.82-.14,1.13.2a1.41,1.41,0,0,0,1,.51,111.61,111.61,0,0,0,12.27.19c2.67-.18,5.4.2,8.06-.05,9.36-.9,18.76-.14,28.12-.76a24.12,24.12,0,0,1,2.55.06c8.89.34,17.76-.13,26.64-.49,3.8-.16,7.58-.41,11.37-.68,1.95-.14,2.12.13,2.18,2,.32,9.6-.71,19.16-1,28.74C95.19,70.49,95,76.07,95,81.65c0,3.94.55,7.89.33,11.82-.32,5.86.5,11.65.65,17.48,0,1.45-.19,1.63-1.61,1.66-5.73.07-11.45-.11-17.19.33-2.9.23-5.87-.12-8.81-.09-6.94.06-13.89.3-20.82.19-6.34-.09-12.67-.5-19-.5-2.59,0-5.2.51-7.73.43-3.14-.1-6.28-.12-9.42-.15-2.24,0-4.48.14-6.71.24a2.62,2.62,0,0,1-1.95-.49c1.14-1,1-2.37,1.07-3.65.56-6.46.93-12.93,1.16-19.41,0-.8,0-1.6,0-2.55m54.77-9.44a10.39,10.39,0,0,1-.12,2.24c-.34,1.27.14,1.74,1.36,1.83,4.52.35,9,.7,13.58,1.11,1.71.15,1.72-1,1.76-2.13.15-4.28.15-8.57.68-12.83.16-1.34-.36-1.76-1.68-1.71-4.63.16-9.27.26-13.9.34-1,0-1.41.4-1.42,1.44,0,3.14-.15,6.3-.26,9.71M40.46,70c0,.8,0,1.59,0,2.4,0,2.53.06,5.06,0,7.59,0,1.2.49,1.6,1.61,1.54s2.29,0,3.43-.07a99.08,99.08,0,0,1,10.9-.15c1,.05,1.72-.22,1.86-1.41a107,107,0,0,0,.36-12.4c0-.72-.22-1.07-1.07-1-4.63.34-9.27.06-13.91.14-3.15,0-3.15,0-3.23,3.37M25.89,66.62h-3c-.9,0-1.2.4-1.15,1.31.19,4.07.37,8.15.47,12.23,0,1.38.48,1.92,1.92,2,4.75.18,9.44-.94,14.19-.6.73,0,1.1-.43,1-1.16-.47-4,.22-8.06-.14-12.1-.1-1.21-.45-1.71-1.67-1.63-3.78.22-7.56,0-11.64,0m67.87,10q0-4.33.28-8.67c.13-1.89,0-1.89-1.86-1.93-2.4-.05-4.77.53-7.17.23-1.74-.23-3.49-.12-5.23-.21-1,0-1.35.35-1.53,1.36-.76,4.4-.38,8.86-.77,13.27-.15,1.77.25,2,2.1,1.91,2-.15,4.1-.22,6.11-.55,2.28-.37,4.59-.08,6.87-.46.84-.15,1.24-.48,1.2-1.35,0-1.1,0-2.2,0-3.6M44.19,111.75c4,0,8,.11,12,.13.92,0,2,.17,2-1.35-.06-3.84-.07-7.69-.07-11.54,0-.91-.34-1.42-1.3-1.42-4.9,0-9.79,0-14.68.17-.9,0-1.44.43-1.48,1.32q-.21,5.7-.37,11.38c0,.76.4,1.35,1.17,1.24s1.69.14,2.77.07M29.83,83.16a41.9,41.9,0,0,1-6.13.24c-.85,0-1.52.2-1.48,1.22a86.3,86.3,0,0,1-.52,10.9c-.13,1.58.57,2.2,2.16,2.13,1,0,2.1-.18,3.12-.26l11.34-.83c.78,0,1.16-.37,1.2-1.2.13-3.68.18-7.36,0-11-.06-1.19-.55-1.56-1.65-1.57a48.1,48.1,0,0,0-8,.39M21.9,48.93c-.15,1.31.43,1.92,1.75,2a29.25,29.25,0,0,0,3,.26c2.88-.1,5.77-.17,8.65-.26,4.2-.12,3.55.43,3.59-3.6q0-4.2,0-8.38c0-1.23-.43-2-2-2.16-4.72-.53-9.35.54-14,.51-.86,0-1.18.68-1.08,1.5.41,3.28.09,6.57.17,10.14M77.1,108.08v.75c0,2.6.28,2.86,2.87,2.7a71.9,71.9,0,0,1,8.93-.09,38.68,38.68,0,0,0,4.17,0c.65,0,1.33-.2,1.28-1.12-.18-3.82.19-7.66-.57-11.46a1,1,0,0,0-1.06-.95,98.58,98.58,0,0,0-14.17-.28c-1.82.06-2.33.56-2,2.32a44.92,44.92,0,0,1,.52,8.17m-36.3-14.7c0,3.35-.39,3.08,3.18,3.11,4.19,0,8.37-.36,12.55-.08,1,.07,1.66-.4,1.52-1.52-.4-3.39.1-6.78,0-10.17-.06-1.78-.52-2.14-2.28-2.17-4.5-.09-9,.16-13.46.23-1.2,0-1.54.47-1.5,1.62.06,2.89,0,5.79,0,9M54.4,50.34H59a2.07,2.07,0,0,0-1.35-1.2,5.08,5.08,0,0,1-1.28-8.37,7,7,0,0,1,2.22-1.46c1-.38.74-1.33.76-2.07s-.59-.56-1-.58c-5.23-.3-10.47-.06-15.69.09-2.77.08-3-.35-2.47,2.88a3.71,3.71,0,0,1,0,1.2c-.49,2.77.09,5.57-.19,8.35-.08.82.16,1.3,1.14,1.3,4.33,0,8.66.24,13.28-.15M30.13,111.42a45.16,45.16,0,0,1,7.17.08c1.13,0,1.6-.28,1.63-1.5.09-3.24.32-6.48.5-9.71.13-2.42.1-2.48-2.28-2.43-4.8.09-9.52,1.13-14.34.9-.83,0-1,.56-1,1.2-.12,2.14-.24,4.28-.3,6.42-.05,1.62,0,3.25,0,5.08h3.16c1.74,0,3.47-.52,5.47,0m45.08.07c.84-.34.57-1.06.58-1.67,0-3.65-.29-7.26-.57-10.89-.09-1.07-.58-1.37-1.53-1.35-3,.07-6,.1-8.94-.07-1.35-.07-2.7,0-4,0-.82,0-1.33.33-1.3,1.24.1,3.24-.21,6.49.18,9.72s.42,3,3.57,3.14c3.93.18,7.86-.12,12-.1M10.75,66.57c-.9,0-1.8,0-2.7.08-1.56.15-2.07.74-2,2.28.11,3.45.25,6.88.36,10.32.09,2.66.07,2.72,2.7,2.79,3.45.08,6.9.06,10.33.08.76,0,1.43-.11,1.44-1.09a109.46,109.46,0,0,0-.49-13.31,1.07,1.07,0,0,0-1.15-1.09c-2.74-.19-5.47-.07-8.48-.06m6.57-29.3A99.12,99.12,0,0,1,6.54,37C4.44,36.8,4,37.08,4.28,39c.47,3.53,0,7.08.44,10.62.15,1.23.58,1.5,1.68,1.44a37.64,37.64,0,0,1,6.72-.21,42,42,0,0,0,5.83.07c.83,0,1.65-.21,1.61-1.32-.12-3.6.22-7.18-.06-10.78-.09-1-.48-1.59-1.58-1.53-.45,0-.9,0-1.61,0M77.1,86.58a74.62,74.62,0,0,1-.26,7.77c-.09,1.84,0,1.9,1.89,1.9,3.6,0,7.17,0,10.76,0a30.79,30.79,0,0,0,4.23.19,63.88,63.88,0,0,0,.06-12.67c-.06-1-.68-.8-1.39-.8-4.25,0-8.44.74-12.67.79-2.45,0-2.5.08-2.62,2.79M84.3,50a54,54,0,0,1,8.81-.3c1,.06,1.74-.12,1.74-1.42,0-3.49.08-7,.13-10.47,0-2.44-.09-2.54-2.54-2.27a95.72,95.72,0,0,1-10.44.6c-1.43,0-2.23.51-2.4,2a101.33,101.33,0,0,0-.33,10.45c0,1,.39,1.5,1.45,1.43s2.2,0,3.58,0M53.24,51.61c-3.64,0-7.27.25-10.91,0a5.3,5.3,0,0,0-1,.07c-.45.06-.94.18-.93.76s.49.56.87.65a4.64,4.64,0,0,1,3.17,2.06,5.89,5.89,0,0,1-2.83,8.67c-.51.22-1.08.44-.94,1.15s.82.6,1.34.6c1.2,0,2.4,0,3.59,0,3.39,0,6.8.22,10.2,0,3.23-.22,3,.19,3-3,0-.3.08-.6.09-.9.13-2.88.58-5.75.25-8.66-.12-1-.54-1.41-1.5-1.4-1.35,0-2.7,0-4.34,0M75.54,93.79c.53-2.93.11-5.89.28-8.82.05-.72-.42-.93-1-1-1.33-.12-2.67-.3-4-.4-3.33-.26-6.67-.49-10-.74-.94-.07-1.38.33-1.36,1.3.08,3.48-.46,7,0,10.46.16,1.24.57,1.59,1.75,1.6,4,0,8,.17,12,.27,2.27.06,2.4,0,2.45-2.7m2.71-54.06c.06-.3.14-.6.17-.88.28-2.43.18-2.54-2.3-2.47-4.54.13-9.08.36-13.62.3-1.58,0-2.12.71-1.89,2.26.1.76.72.9,1.2,1.2a5.9,5.9,0,0,1,2.7,5.37c-.07,1.92-1.4,3.12-3.15,3.83-.33.13-.84.16-.78.74.38.38.85.23,1.28.22,2.79-.05,5.59-.16,8.4-.18,1.74,0,3.49.17,5.24.16,2.25,0,2.52-.3,2.48-2.51a53.71,53.71,0,0,1,.29-8M18,97.62c2.22-.13,2.22-.13,2.4-2.32,0-.2.08-.39.1-.6a63.26,63.26,0,0,0,.41-10c0-.66-.14-1.26-.95-1.22-4.5.2-9-1-13.9.44,0,3.54,0,7.13,0,10.71,0,2.57.11,2.7,2.74,2.77,3,.07,6,.16,9.21.23M4.83,57.26c.23,2.7.11,5.46.75,8.22,1,0,2-.13,2.89-.13,3.39,0,6.78,0,10.17,0,1.18,0,1.62-.4,1.7-1.64.22-3.6-.32-7.18.1-10.76.1-.86-.41-1-1.11-1-1.2,0-2.37.15-3.57.06A95.69,95.69,0,0,0,6,52c-1.13,0-1.57.47-1.33,1.7a23.2,23.2,0,0,1,.13,3.55m16.81.46c0,2,0,3.9-.06,5.84-.06,1.29.38,1.74,1.69,1.8,4.5.18,9,.42,13.46.22.81,0,2.1.57,2.34-.6s-1.11-1.39-2-1.73a4.06,4.06,0,0,1-2.47-5.57c.66-1.8,1.53-3.35,3.46-4,.49-.18.9-.51.74-1.13s-.66-.52-1.11-.5c-4.83.13-9.66.6-14.48-.06-1.09-.15-1.58.35-1.58,1.43v4.34m46.56-6.38-6.58.2c-.9,0-1.36.44-1.3,1.41.22,3.45-.3,6.89-.3,10.33,0,2,.2,2.19,2.14,1.93a75.45,75.45,0,0,1,8.37-.3c2.06-.06,4.12,0,6.51,0-.72-1.24-1.64-1.26-2.2-1.83-3.6-3.62-1.86-7.8,1.46-10,.54-.36,1.39-.42,1.4-1.74ZM12.39,98.67c-1,0-2.1-.13-3.13-.16-3.73-.09-3.55-.3-3.6,2.92,0,.2-.09.39-.1.6-.19,2.63-.42,5.26-.53,7.9-.07,1.56.41,2,1.94,1.88a102.26,102.26,0,0,1,11.21-.23c1.31,0,1.87-.36,1.91-1.74a84.81,84.81,0,0,1,.43-9.69c.16-1.07-.4-1.4-1.39-1.4-2.15,0-4.3,0-6.74-.06M80,64l-1.39.6a64.51,64.51,0,0,0,14.52-.09c.78-.06.9-.63,1-1.28.16-3.44.37-6.87.51-10.31.07-1.87-.1-2.1-2-2-4.13.1-8.26.31-12.39.49-.28,0-.63,0-.71.44.09.08.21.25.3.24,2.89-.14,4,2,4.88,4.08,1.33,3-.77,6.58-4.66,7.87M36.54,1.46c.3-.6.13-1.44,1-1.46s1.05.75,1.2,1.35c.62,2.62,1,5.3,1.8,7.87a78.13,78.13,0,0,0,3.07,9.67c.24.54.44,1.13-.22,1.41s-1-.26-1.2-.81c-.6-1.8-1.23-3.6-1.71-5.44a1.55,1.55,0,0,0-1.65-1.37c-1.35,0-2.7,0-4-.07a2.13,2.13,0,0,0-2.4,1.73,51.37,51.37,0,0,1-2.5,6.1c-.24.47-.34,1.25-1.06,1s-.42-1-.17-1.54c1.86-3.93,3.5-8,5.13-12a55.74,55.74,0,0,1,2.78-6.43m1,9.84c1.44-.06,1.92-.66,1.46-2.13-.39-1.28-.45-2.66-.8-4-.22-.81,0-1.8-.9-2.7L34,11c1.33.14,2.32.23,3.56.33m16.53,10c.62.17.9.5.53,1a1.78,1.78,0,0,1-1.52.8A1.31,1.31,0,0,1,51.81,22a5.44,5.44,0,0,1,.32-2.79c.22-.72.47-1.46-.43-2-1,.47-1,1.42-1.23,2.27-.1.38-.08.8-.16,1.18s-.16,1-.76.94-.75-.63-.7-1.14a11.11,11.11,0,0,0,.27-2.37,7.11,7.11,0,0,0-.27-.93c-1.38,1-1.53,2.37-1.66,3.72-.08.75-.06,1.5-.11,2.24a.74.74,0,0,1-.6.75c-.52.08-.68-.32-.82-.7a3.33,3.33,0,0,1,0-1.63,14.88,14.88,0,0,0-.09-4.47c-.1-.52-.6-1.26.17-1.61s.85.63,1.38,1c.86-.62,1.8-1.32,2.86-.3.08.07.37,0,.54-.11,1.93-.68,3.38.56,3.11,2.67-.11.87-.62,1.69-.4,2.66q.42-.08.84-.12M70.11,2.85c.54.69,0,1.09-.22,1.55a8.63,8.63,0,0,0-1.36,3.35c.4.42.79.3,1.2.22.66-.14,1.09.11,1.12.81a.87.87,0,0,1-1,1c-1.8-.51-2.1.75-2.55,1.92-.38,1-.78,2-1.19,2.92-.18.43-.27,1.13-.94.87s-.48-.9-.26-1.42c.51-1.23,1-2.46,1.55-3.65-.2-.16-.26-.25-.35-.27-.66-.11-1.74.48-1.84-.62-.08-.9,1-.78,1.62-.92.45-.11.9-.2,1.09-.67.44-1.2.84-2.4,1.27-3.67-1.55-.23-2.89.42-4.28.3-.6,0-1.37,0-1.35-.81S63.4,3,64,3.05a18.29,18.29,0,0,0,4.3-.42,2.58,2.58,0,0,1,1.85.21M6.49,32c-.63,1-1.25.79-1.87.13a4,4,0,0,0-1.29-1.1,6.39,6.39,0,0,0-1.71,1.8c-.32.4-.69,1.08-1.31.56s-.22-1.16.27-1.53c1.31-1,1.73-2,.18-3.11a.64.64,0,0,1-.13-.87c.51-.41,1-.12,1.28.26.77.9,1.4.84,2.17-.06.4-.46.9-1.55,1.57-1,.83.69-.38,1.2-.67,1.8a5.15,5.15,0,0,1-.55.77C4.61,31,6.27,30.77,6.49,32m89-4.4c1,0,1.1-.79,1.52-1.31s.54-1.3,1.29-.78,0,1-.23,1.53a2.1,2.1,0,0,1-.34.5c-.9,1-1,1.86.18,2.73.39.3,1,.72.4,1.32s-1,.09-1.38-.36c-.93-1.18-1.69-.88-2.43.2-.3.43-.64,1.1-1.27.6s-.21-1.06.2-1.52l1.13-1.23c-.3-.53-.54-1-.81-1.47s-.64-.9-.07-1.3.87.15,1.2.5a8.08,8.08,0,0,0,.6.57M60.9,16.76A7.91,7.91,0,0,1,62.1,22a2.61,2.61,0,0,1-2.8,2.34,1.92,1.92,0,0,1-1.82-2.15c.33-.22.56,0,.76.21a1.19,1.19,0,0,0,1.58.41,1.6,1.6,0,0,0,1-1.55,7.41,7.41,0,0,0-1-3.84c-.25-.41-1.07-.79-.39-1.33s1.08.12,1.54.67"/><path d="M58.88,20c.3.53.3,1-.13,1.28s-.86.05-1.2-.28a2.25,2.25,0,0,0-1.34-.56,1.76,1.76,0,0,1-1.58-1.87,2.4,2.4,0,0,1,1.59-2.33c.73-.3,1.87.86,2,2,0,.64-.06,1.31.71,1.8"/></svg>