<svg xmlns="http://www.w3.org/2000/svg" viewBox="0 0 1024 608" xml:space="preserve">
  <path d="M119.923 394.991c.006-9.488.006-18.478.006-27.468-1.096 13.844-2.925 27.635-2.839 41.555.008 1.166.02 2.332-.006 3.498-.037 1.667-.623 3.04-2.488 3.149-2.347.137-2.714-1.598-2.626-3.364.356-7.146.356-14.346 1.287-21.42 2.64-20.07 1.251-40.14.484-60.21-.174-4.575-1.37-9.11-2.245-14.597-2.993 7.654-8.616 11.678-14.73 15.2-2.115 1.218-4.148 1.96-6.513.384-2.472-1.646-.853-3.597-1.017-5.548-.604-7.182.475-14.26.521-21.383.043-6.528 1.718-7.607 7.95-5.466 5.332 1.832 9.296 5.494 13.285 11.144-.48-10.309-.758-19.235-1.378-28.138-.233-3.345-4.84-3.367-5.43-6.622-9.642 5.349-16.275 1.834-18.643-8.937-1.577-7.174-.84-13.528 4.003-19.194 3.066-3.586 8.276-4.194 12.43-.68-7.675.68-11.25 5.12-12.272 11.793-.8 5.22.545 9.929 4.106 13.848 1.05 1.156 2.354 2.587 4.31 1.372 1.204-.747 2.038-1.824 2.07-3.235.044-1.917-1.03-3.036-2.914-3.478-1.67-.393-4.172-.219-3.316-3.093.724-2.43 2.833-2.46 4.95-2.126.975.154 2.023.492 2.936.288 4.932-1.103 6.076 1.956 6.697 5.796.284 1.756-.943 3.615.924 6.066.396-6.715 1.514-12.77.949-18.665-1.282-13.358.983-26.608.37-39.925-.719-15.61 1.084-31.297-1.608-46.866-.859-4.968.976-6.646 6.012-6.664 18.823-.066 37.673-.81 56.464-.064 44.3 1.757 88.597.624 132.89.565 22.595-.03 45.21-.201 67.797-.13 23.25.071 46.525-.034 69.757-.204 39.61-.29 79.234.166 118.844-1.05 20.615-.634 41.258-.274 61.888-.449 38.101-.323 76.213-.283 114.3-1.24 20.99-.526 41.995.085 62.95-.927 21.442-1.035 42.885-1.289 64.334-1.668 4.328-.077 8.658-.016 12.986-.09 3.59-.061 5.115.894 4.064 5.054-3.634 14.376-5.52 28.912-5.517 43.876.004 17.778-1.111 35.6-2.666 53.322-1.493 17.028-.583 34.037-1.13 51.044-.087 2.69 1.986 3.574 3.322 5.49-3.068 2.508-2.977 5.725-2.715 9.366.656 9.138.635 18.309-.653 27.43-.39 2.758-1.38 5.714 2.45 7.616-3.337 2.342-3.38 5.129-3.34 8.011a411 411 0 0 1-1.019 35.43c-.245 3.39-.66 5.997-4.95 2.944-3.219-2.292-7.182-.852-10.644-.795-47.1.778-94.183 2.333-141.29 2.972-20.468.279-40.952.347-61.405 1.049-19.988.686-39.953.107-59.923.303-24.445.24-48.88 1.378-73.324 1.978-14.318.351-28.656.095-42.963.676-20.127.818-40.248 1.714-60.39 1.99-2.987.042-5.976-.1-8.963-.07-17.778.183-35.482 1.953-53.28 2.134-24.094.245-48.184 1.292-72.263 2.31-30.208 1.277-60.42 2.545-90.654 2.465-18.118-.049-36.216.736-54.323.61-6.465-.045-12.927-1.097-19.435-.922-1.328.036-2.644-.299-3.652-1.35-.296-1.84 1.116-2.596 2.324-2.559 5.441.165 5.057-3.752 5.108-7.167.072-4.82-.152-9.643-.244-14.964m708.365-186.16-5.82 7.03c4.782 1.504 10.398-2.935 13.851 2.707-1.33 2.634-3.576 2.521-5.735 2.6-3.656.136-7.32.04-10.904 1.08-1.705.495-3.756 1.285-5.051-.635-1.433-2.123.194-3.714 1.423-5.303 2.673-3.456 5.315-6.936 8.079-10.55-4.993-1.97-9.475-.533-13.913-.563-41.466-.275-82.922.483-124.38 1.06-6.706.093-9.591 2.953-9.695 10.06 3.461.231 6.933.436 10.4.707 1.689.133 4.33-.667 4.23 2.042-.09 2.476-2.765 2.802-4.67 2.687-3.651-.222-7.271-.654-10.957-.54-4.986.153-6.152-1.708-4.599-6.587.824-2.587 2.757-4.893 2.325-8-.878-.127-1.526-.313-2.169-.3-12.152.263-24.305.487-36.454.858-5.836.179-12.993 6.768-14.24 12.887 4.167 1.668 8.166-.547 12.247-.541 1.305.002 2.877-.181 3.051 1.711.13 1.412-.95 2.128-2.132 2.376-4.701.984-9.362 2.51-14.262 1.007-5.179-1.59-6.11-4.356-3.154-8.97 1.74-2.716 4.735-4.51 6.342-8.393-2.483 0-4.272-.024-6.06.004-18.981.296-37.962.09-56.948.553-24.804.607-49.63.333-74.447.42-7.467.025-9.955 2.078-11.7 9.968 4.25 1.582 9.423.025 13.594 3.185-2.149 3.542-5.133 3.126-7.843 2.808-2.97-.348-5.9-.83-8.916-.908-4.272-.11-5.127-1.932-2.964-5.86 1.576-2.862 3.267-5.662 5.292-9.154-2.43 0-4.053-.01-5.677.002-11.994.093-23.987.209-35.981.28-9.45.057-14.075 3.315-17.23 12.201 4.269 0 8.558-.118 12.835.06 1.657.069 3.568.793 3.038 3.042-.501 2.129-2.161 2.24-3.95 1.38-2.225-1.071-4.453-.858-6.819-.363-2.091.438-4.3.384-6.458.41-2.02.026-4.16-.032-5.08-2.31-.86-2.123.687-3.416 1.992-4.707 2.484-2.458 4.592-5.157 6.101-9.132-8.327 0-16.245-.009-24.164.002-45.984.06-91.967.121-137.95.203-1.63.003-3.473-.446-4.764.908-4.186 4.387-8.285 8.857-13.225 14.162 6.222.12 11.263 1.365 16.33-.525 2.052-.766 4.815-1.693 5.52 1.045.778 3.02-2.451 2.747-4.388 3.426-6.032 2.114-12.153 1.478-18.273.711-2.268-.284-4.156-1.284-4.82-3.728-.646-2.373.898-3.642 2.435-5.02 3.429-3.076 6.972-6.06 9.888-10.061-.786-.216-1.214-.436-1.641-.436-14.42.032-28.85.435-43.26.054-23.107-.611-46.187.402-69.28.43-2.734.004-3.997.726-4.053 3.574a3989 3989 0 0 1-.984 40.36c-.08 2.664 1.216 3.584 3.553 3.71 4.321.234 8.64.624 12.964.663 31.61.286 63.223.452 94.832.811 3.144.036 4.253-1.002 4.185-3.945-.046-1.994.024-4 .184-5.99.127-1.587.777-3.15 2.61-3.073 1.82.077 2.256 1.736 2.438 3.278.097.82.03 1.664-.004 2.496-.311 7.567-.314 7.573 7.476 7.595 28.132.081 56.27-.167 84.393.335 23.647.423 47.29.435 70.934.665 5.05.05 7.519-1.132 7.215-6.502-.095-1.696.157-4.298 2.563-4.113 2.83.216 2.35 2.83 1.935 4.733-1.09 4.993 1.37 5.956 5.727 5.918 14.16-.125 28.322.016 42.484.07 6.035.023 6.606-.433 6.513-6.444-.035-2.242.116-4.27 2.802-4.285 2.71-.017 2.28 2.445 2.416 4.14.552 6.87.893 7.236 7.702 7.252 18.123.043 36.247.01 54.37.146 25.317.19 50.643-.208 75.945.995 3.713.177 5.855-.694 5.21-4.947-.168-1.118.076-2.33.3-3.467.215-1.082.97-1.728 2.146-1.637 1.147.088 1.844.77 1.957 1.888.116 1.156.163 2.331.098 3.49-.193 3.427 1.405 4.832 4.79 4.701 3.66-.14 7.33-.053 10.995-.054 11.085-.004 22.17-.002 32.882-.002 1.448-3.295.098-5.456-.278-7.696-.274-1.636-1.09-3.663 1.134-4.211 2.391-.59 2.946 1.602 3.43 3.39.26.96.447 1.96.499 2.952.23 4.371 2.383 5.68 6.786 5.622 19.288-.254 38.573-.58 57.874-.191 23.296.469 46.607.128 69.911.295 4.669.034 8.493-.13 7.589-6.444-.196-1.367.503-2.777 2.176-2.803 1.935-.029 2.384 1.4 2.494 3.065.118 1.8.372 3.593.636 6.027 9.794 0 19.408.07 29.019-.042 2.933-.034 2.66-2.552 2.65-4.485-.087-16.672 2.083-33.197 3.305-49.78.246-3.326-.754-4.141-3.698-4.106-7.479.089-14.962.17-22.438.023-3.155-.063-4.954 1.433-6.667 4.543M474.654 311.487c1.219-1.736 3.184-3.55.896-5.603-1.714-1.537-3.765-1.835-5.806.078-1.177 1.104-2.73 3.463-4.493 1.344-1.765-2.12.73-3.579 1.95-4.967 1.637-1.864 3.763-2.513 6.32-2.04 6.52 1.202 7.927 3.544 6.893 11.9 1.198.825 2.57.537 3.873.54 18.66.037 37.321-.03 55.98.093 19.626.129 39.25.45 58.874.656 7.322.078 14.646.056 21.968.105 3.026.02 3.767-2.301 4.653-4.462.489-1.193.418-2.347-.867-3.012-2.097-1.085-4.17-1.035-6.1.428-.791.602-1.473 1.358-2.298 1.902-.879.58-1.887.733-2.753-.075-.834-.78-.991-1.845-.396-2.728 1.771-2.628 3.537-5.198 7.358-5.092 4.217.117 8.023.766 9.994 5.102 1.135 2.496-1.488 4.722-.658 7.295.467.191.911.53 1.356.532 12.66.054 25.323.23 37.98.016 4.594-.078 5.288-3.916 6.17-7.6-2.602-.299-3.975 1.028-5.548 1.905-1.946 1.085-3.548.614-3.218-1.774.419-3.035 3.22-3.993 5.67-5.056 2.225-.966 4.43-1.609 6.41.571 1.663 1.83 2.658 3.756 1.748 6.337-.523 1.48-1.874 2.835-.881 5.003 9.78 1.469 19.772.706 29.721.74 35.49.117 70.978.094 106.467.18 3.148.008 6.015-.201 7.725-3.35.72-1.327.869-2.514-.538-3.49-1.122-.78-2.3-1.57-3.626-.56-.782.596-1.397 1.418-2.054 2.167-.794.905-1.62 1.888-2.927 1.022-1.376-.913-1.117-2.27-.639-3.588 1.361-3.748 5.664-5.618 9.323-4.058 6.59 2.81 7.18 4.048 5.46 11.777 7.681 0 15.313-.008 22.944.004 2.806.004 3.12-1.864 3.193-4.042.171-5.151.339-10.303.63-15.448.498-8.76 1.917-17.471 1.515-27.06-8.36 0-16.642.2-24.908-.08-4.43-.151-6.627.893-6.003 5.83.263 2.084.484 5.396-2.905 5.193-2.716-.162-2.943-3.036-2.484-5.164 1.099-5.087-1.409-5.853-5.715-5.831-18.325.094-36.652.006-54.977-.124-24.814-.176-49.63-.367-74.44-.768-4.188-.067-5.771 1.28-5.459 5.392.188 2.472.133 5.067-2.584 6.514-2.962-.765-2.517-3.104-2.544-5.236-.08-6.506-.086-6.556-6.745-6.579-11.164-.038-22.33.117-33.492-.068-4.308-.071-8.133-.369-7.665 5.774.12 1.575-1.192 2.852-2.908 2.858-2.04.008-2.398-1.642-2.21-3.196.573-4.753-2.075-5.474-6.02-5.497-42.462-.246-84.923-.62-127.384-.9-10.143-.066-10.143.037-10.318 10.34a56 56 0 0 1-.06 1.998c-.07 1.338 0 2.848-1.897 2.918-2 .073-3.16-1.02-3.21-3.007-.054-2.157-.212-4.377.198-6.467.906-4.618-1.098-5.89-5.393-5.863-12.662.08-25.326-.137-37.99-.166-11.229-.025-11.28.013-12.378 11.353-.222 2.293-1.314 3.574-3.406 3.332-2.134-.246-2.202-2.188-1.994-3.917.258-2.139.511-4.287.955-6.392.716-3.403-.78-4.403-3.99-4.43-23.632-.205-47.264-.585-70.897-.764-30.138-.228-60.284.398-90.41-.803-3.966-.158-5.056 1.424-4.462 5.04.392 2.387.497 5.282-2.8 5.197-2.873-.074-2.785-2.914-2.544-5.072.476-4.245-1.376-5.521-5.467-5.389-7.989.26-15.992.178-23.988.092-27.126-.29-54.25-.633-81.376-.991-2.729-.036-5.039.017-4.849 3.802.675 13.456-1.46 26.906-.044 40.39.337 3.207 1.357 4.374 4.5 4.378 7.48.01 14.933.645 22.439.614 30.153-.122 60.308.154 90.462.344 2.925.018 4.896-1.099 5.58-3.9.639-2.614-1.45-3.826-3.166-5.138-2.439-1.865-4.246-.612-6.14 1.069-1.529 1.355-1.995 4.01-5.054 4.027-1.994-2.743-.398-4.86 1.434-6.803 2.566-2.722 5.383-5.383 9.53-3.637 6.3 2.653 9.9 7.077 7.828 14.507 12.474.708 24.422.017 36.37-.017 18.149-.052 36.302-.156 54.448.11 18.124.267 36.254-.434 54.373.53 5.484.293 10.996.031 16.495.101 2.179.027 3.39-1.093 4.12-2.966.467-1.201.34-2.303-.721-3.146-1.693-1.343-3.062-.468-4.46.623-1.093.853-2.387 1.585-3.406-.017-.823-1.292-.394-2.616.67-3.613 2.634-2.464 5.539-3.49 9.122-1.929 4.74 2.066 4.836 6.101 4.168 11.082 13.821 0 27.124.075 40.424-.043 4.284-.037 8.648.845 13.478-1.187m-47.602 51.875c-5.323.05-10.646.088-15.97.15-13.137.152-26.286.681-39.41.317-6.298-.175-11.063.397-14.48 6.623-3.117 5.677-9.399 5.967-15.062 5.514-5.186-.414-7.376-4.578-8.595-9.212-.202-.768-.549-1.499-.92-2.493-2.45 0-4.77-.034-7.087.006-19.484.335-38.97-.211-58.46.64-27.578 1.204-55.175-1.285-82.776.047-4.545.22-8.015.42-9.523 5.608-.603 2.073-2.584 3.866-4.227 5.494-5.97 5.916-18.035 4.327-20.428-3.506-2.325-7.609-6.613-9.037-13.351-8.193-2.623.328-5.327.067-7.992-.018-2.641-.083-3.999.89-4.017 3.758-.082 12.816-.449 25.634-.375 38.449.058 10.118 1.225 11.175 11.561 11.174 14.286-.002 28.596-.845 42.85-.249 23.172.97 46.271-.49 69.388-1.092 32.937-.857 65.864-2.293 98.794-3.328 28.918-.908 57.824-2.423 86.784-2.528 14.406-.052 28.852-.9 43.29-1.224 24.788-.556 49.562-1.758 74.35-2.273 28.6-.595 57.214-.572 85.815-1.142 17.316-.346 34.637-.319 51.955-.649 41.63-.793 83.252-1.766 124.867-3.147 11.989-.397 23.993-.329 35.99-.487 3.004-.04 5.846-.274 5.612-4.466-.574-10.298-1.1-20.6-1.657-30.898-.145-2.68-1.506-3.615-4.244-3.607-19.939.063-39.878.03-59.817-.083-7.462-.042-14.418.046-20.419 6.148-4.498 4.574-12.942 3.508-16.46-1.498-2.996-4.265-6.308-5.373-11.04-4.314-1.758.393-3.65.249-5.482.25-50.318.02-100.636.045-150.953-.011-3.09-.004-5.056.776-6.977 3.522-7.305 10.44-18.212 10.041-24.455-.837-1.374-2.394-2.931-2.74-5.205-2.734-40.322.103-80.645.178-121.874.29m384.093-45.111c-27.323-.119-54.647-.205-81.97-.367-16.65-.1-33.3-.286-49.95-.5-4.015-.052-6.719 1.277-7.269 6.234 5.276.351 10.253.016 14.995-2.261 1.316-.633 2.731-1.963 3.851-.057.993 1.69-.46 2.72-1.64 3.682-3.755 3.063-8.243 3.276-12.784 3.312-3.302.025-6.767.688-9.307-2.295-2.434-2.857-.01-5.524 1.016-8.65-13.613 0-26.595-.032-39.577.018-4.19.016-6.072 2.632-7.04 6.572 4.94 2.13 10.484-1.169 14.98 2.037-.572 2.908-2.37 3.253-4.554 3.13-1.982-.11-3.972-.111-5.958-.09-3.065.033-6.398 1.38-8.793-1.78-2.57-3.391.327-5.887 1.454-8.677.1-.247-.099-.613-.17-.927-.315-.098-.63-.28-.945-.282q-69.63-.487-139.257-.945c-3.745-.025-5.567 2.12-6.51 5.706 7.036 2.192 14.298-.76 21.004 1.331-.308 2.763-1.739 3.501-3.228 3.544-6.324.183-12.663.409-18.977.139-3.368-.144-4.25-2.943-3.729-5.887.264-1.492 1.226-2.86 2.151-4.9-15.515 0-30.502.345-45.46-.163-6.434-.218-9.675 2.932-13.09 8.284 4.06-.624 7.415 1.083 10.862-.404 1.307-.563 2.997-1.61 3.939.293 1.041 2.106-.844 3.137-2.302 3.716-5.45 2.163-11.13 1.661-16.62.41-2.567-.585-2.894-2.962-1.188-5.189 1.57-2.047 3.143-4.091 5.05-6.575-1.438-.182-2.221-.368-3.004-.369-52.65-.029-105.3-.056-157.949-.04-5.393.002-9.24 3.3-10.848 9.003 6.037 1.777 12.523-4.234 19.824 1.222-8.505 3.069-15.911 4.403-23.547 3.419-2.703-.349-3.512-2.7-2.4-5.446 1.114-2.749 2.935-5.09 4.955-7.95-1.824-.183-2.935-.388-4.047-.39-17.304-.034-34.609.06-51.912-.082-17.632-.145-35.268-.356-52.89-.89-4.982-.151-6.39 1.527-6.024 6.271.87 11.263 1.417 22.552 2.032 33.834.183 3.358 1.895 4.598 5.15 4.617 4.99.03 9.983.273 14.965.573 2.209.133 3.86-.377 5.062-2.365.766-1.266 1.825-2.364 2.811-3.485 2.875-3.27 6.746-5.344 10.048-8.112 4.083-3.423 12.88.684 14.341 7.359 1.465 6.697 5.14 7.092 10.618 6.95 28.97-.75 57.949.149 86.935-.397 16.273-.306 32.614-.043 48.924.087 5.581.045 10.026-.861 14.586-6.32 9.42-11.276 16.657-11.242 23.184.763 2.247 4.131 4.332 4.9 8.219 4.874 57.424-.39 114.848-.81 172.273-.92 7.125-.015 12.498-.5 17.025-7.49 5.178-7.995 17.557-6.405 20.604 2.035 1.721 4.766 4.312 5.645 8.848 5.615 34.82-.234 69.643-.243 104.465-.298 17.492-.027 34.985.014 52.477-.035 1.727-.005 4.121.63 4.747-1.69 1.173-4.344 4.597-6.793 7.428-9.775 3.367-3.547 7.097-6.323 12.316-4.415 5.225 1.91 8.913 5.246 8.871 11.342-.022 3.14 1.466 4.528 4.576 4.517 22.328-.08 44.656-.124 66.984-.18 2.261-.006 4.103-.712 3.983-3.351-.507-11.165 1.806-22.247.907-33.43-.2-2.474-1.088-3.655-3.618-3.636-8.33.063-16.662.046-24.993.102-2.424.017-4.205.862-4.12 3.957 4.249 2.127 9.53-1.36 13.563 1.89-.608 2.911-2.676 2.836-4.41 3.004-2.648.257-5.338.103-7.98.394-8.46.932-9.444-.245-6.411-7.911.092-.233-.158-.6-.366-1.302-1.365 0-2.838 0-5.186-.008m22.63-118.008c8.144-.135 16.288-.319 24.433-.38 3.036-.024 4.367-1.151 4.679-4.379.429-4.445 1.81-8.791 2.358-13.232.842-6.83 1.324-13.704 1.998-20.976-3.35 0-5.832.021-8.313-.003-29.805-.296-59.576 1.15-89.363 1.705-26.125.486-52.255.61-78.382.994-34.464.505-68.931.488-103.397 1.158-40.557.788-81.131.816-121.698.946-57.147.183-114.294.118-171.44.248-14.974.034-29.946.506-44.92.58-11.45.056-22.901-.233-34.352-.306-12.592-.08-25.193.182-37.776-.197-16.83-.507-33.649.117-50.472-.042-2.054-.02-3.776.431-3.496 3.021 1.117 10.318-.631 20.588-.517 30.897.045 4.053 1.113 5.496 5.361 5.467 27.294-.182 54.59-.087 81.885-.154 6.14-.015 12.266-.367 18.426-.169 4.82.155 9.835 1.165 14.695-.526-.394-3.014-2.03-4.64-3.976-5.967-3.893-2.657-6.04 2.342-9.337 2.462-.766-4.964.826-7.212 5.241-7.688 5-.54 9.127 2.12 12.168 7.841.984 1.851 1.42 4.185 4.392 3.977 11.13-.78 22.28.102 33.403-.217 23.484-.674 46.968-.23 70.45-.418 20.158-.162 40.318-.075 60.477-.125 1.765-.005 4.235.352 3.962-2.388-.222-2.23-2.222-3.152-4.478-3.04-2.555.129-4.131 1.914-5.898 3.44-1.14.984-2.562 1.928-3.969.488-1.499-1.534-.34-2.784.83-3.771 1.52-1.283 3.055-2.63 4.79-3.563 5.99-3.22 12.256-.51 13.711 6.128.643 2.93 2.501 2.686 4.453 2.685 8.995-.002 17.99-.055 26.984-.102 5.328-.027 10.656-.064 15.983-.12 1.555-.017 3.203-.23 3.58-2.034.364-1.733-1.265-2.445-2.26-3.54-2.538-2.788-4.876.955-7.276.176-.258-4.883 2.056-8.118 5.173-6.897 3.36 1.316 7.56 3.076 8.362 6.6 1.29 5.668 4.85 5.293 8.916 5.156 26.473-.897 52.964-.34 79.445-.664 17.624-.216 35.268-.904 52.91-.548 1.834.037 4.052.761 5.617-1.513-1.526-4.173-4.05-2.677-6.526-1.094-1.364.873-2.74 1.614-3.877-.106-1.198-1.81-.082-3.164 1.292-4.26 3.924-3.13 8.31-2.73 12.078.593 1.973 1.739 2.444 4.188 3.198 5.552 14.136 0 27.617.014 41.097-.016 2.107-.005 4.396-.403 4.097-3.144-.336-3.07-2.792-2.761-5.022-2.281-.642.138-1.238.481-1.856.73-1.146.462-2.347.75-3.068-.564-.801-1.46.083-2.54 1.156-3.44 4.42-3.705 11.713-1.63 13.661 3.805.547 1.524.065 3.38 1.77 4.924 1.705 0 3.69.027 5.675-.004 18.82-.289 37.638-.67 56.459-.863 23.825-.243 47.651-.324 71.477-.515 2.153-.018 4.33-.182 6.447-.556 1.635-.288 2.857-1.332 1.941-3.212-.774-1.59-2.056-2.862-3.981-1.83-1.13.606-2.038 1.674-2.955 2.623-.965.998-1.931 2.108-3.358.993-1.18-.923-1.192-2.319-.7-3.663 1.969-5.371 10-6.98 13.817-2.727 1.93 2.15 2.987 4.748 3.815 8.045m37.582 5.26c-3.778-2.64-5.601-.965-5.885 2.951-1.202 16.596-2.942 33.158-3.273 49.812-.046 2.3-.144 4.38 3.14 4.436 3.006.051 3.61-1.667 3.726-4.113.827-17.438 1.683-34.874 2.292-53.087m-2.678 125.129c-.256-2.636-.793-5.282-.707-7.907.156-4.768-2.785-4.922-6.228-4.677-4.071.29-2.987 3.008-2.698 5.472.193 1.643.1 3.319.16 4.978.31 8.312-1.623 16.516-1.06 24.867.226 3.368 1.261 4.663 4.715 4.712 3.493.05 4.763-1.365 4.87-4.648.237-7.289.619-14.572.948-22.797m-.781-21.419c.809-13.857-1.086-27.699.336-41.472-4.821-1.37-6.753.384-6.965 4.667-.608 12.253-1.29 24.502-1.926 36.754-.114 2.21-.322 4.55 2.961 4.561 2.63.01 5.656.579 5.594-4.51m-1.326 72.225c.123-4.163.353-8.326.345-12.49-.012-6.955-1.013-7.644-8.327-5.73.52 11.499 1.036 23.092 1.584 34.683.067 1.424.501 2.774 2.324 2.535 1.802-.238 3.047-1.125 3.157-3.212.263-4.982.623-9.959.917-15.786M94.12 316.404c.188 3.19-.674 6.555 1.332 9.506 6.562-2.893 11.605-8.653 10.98-12.383-.76-4.542-6.312-9.117-11.496-9.32-1.199 3.662-.521 7.495-.816 12.197m24.605-96.32c.044-1.825.167-3.653.107-5.475-.05-1.546.611-3.814-1.75-3.987-2.463-.18-2.149 2.276-2.184 3.715-.314 13.061-.51 26.126-.655 39.19-.016 1.489-.558 3.93 1.938 3.761 2.31-.157 1.505-2.528 1.695-4.051 1.338-10.73.352-21.52.849-33.153M773.52 356.929c.47-1.963.74-4.018-.031-5.871-1.084-2.602-3.477-5.15-5.938-3.283-1.956 1.485-3.828 2.132-5.952 2.845-2.416.81-4.326 2.442-5.569 4.693-.92 1.67-.394 3.287 1.512 3.23 5.194-.157 10.507 1.391 15.978-1.614M117.733 169.973c-2.617 2.713-3.935 5.89-3.245 9.683 1.204 6.623.504 13.274.455 19.92-.014 1.915-.662 3.964.596 5.727.95.366 1.98.318 2.36-.407 2.096-4.013 1.073-8.49 1.397-12.713.631-8.224.945-16.567-1.774-24.65 0 .624 0 1.248.211 2.44m-3.665 114.508c.742 8.51-.275 17.21 2.237 26.509 2.16-2.628 1.49-4.614 1.364-6.493-.395-5.933-1.291-11.866-.463-17.813.944-6.782.306-13.585.482-20.375.04-1.531.49-3.525-2.705-3.72-1.712 6.881-.77 13.928-.915 21.892m42.186 80.467c-1.668.048-3.956-.968-3.562 2.35.566 4.771 3.446 7.461 8.218 7.494 5.858.041 9.573-3.301 10.89-9.804-4.93 0-9.859 0-15.546-.04m711.202-166.655c2.889 1.854 3.9.239 3.952-2.357.106-5.172 1.423-10.168 1.984-15.244.7-6.328 2.84-12.49 2.663-18.882-3.949-1.14-4.412 1.647-4.592 3.814-.887 10.736-2.3 21.394-4.007 32.67m-698.334 162.39c4.68-.437 5.38-1.76 3.85-5.859-1.386-3.713-4.025-2.332-6.535-2.246-5.3.182-9.199 2.432-12.91 8.111 5.816 0 10.251 0 15.595-.006m173.433-.893c4.847.192 9.702.514 14.537-.214-.609-4.88-2.949-8.061-5.659-8.217-3.654-.21-10.508 4.033-11.175 7.008-.263 1.174.774 1.219 2.297 1.423m7.402 10.925c2.559-1.245 4.762-2.774 5.127-6.16-4.738-.772-9.199-.405-13.648-.337-3.406.051-3.454 2.04-2.242 4.333 2.386 4.514 6.267 3.34 10.763 2.164m224.343-17.38c-6.532-4.366-11.865-2.585-14.25 4.979 3.906.945 7.847.38 11.743.502 3.862.121 4.787-1.565 2.507-5.481m-.683 10.33c-4.682-.931-9.315-.634-14.187-.023.422 3.734 2.739 5.74 5.201 5.631 3.573-.157 7.663-.666 8.986-5.607m-454.922-33.953c-.319-4.463-.333-8.97-2.115-13.256 1.741 11.37 1.095 22.912 2.853 34.271.208-6.71-1.332-13.345-.738-21.015m649.042 34.53c-3.633-3.296-7.138-1.228-10.675-.22 3.434 2.444 6.866 3.744 10.675.22M156.761 114.95c.423-4.71.828-8.973 1.27-13.63 2.536.134 5.272-.245 7.621.536 2.949.981 5.424.542 8.39.13 5.342-.744 6.435 4.012 7.398 8.42 1.606-1.96 2.873-3.851 4.596-5.426 1.948-1.779 3.752-1.744 5.917-.839 2.014.842 3.46 2.068 3.218 4.457-.236 2.337.351 4.218 2.376 5.621.993.688 1.688 1.745.809 2.982-.841 1.182-2.182 1.143-3.1.381-2.608-2.162-5.031-1.765-7.707-.134-2.965 1.807-4.849-.288-6.51-2.576-1.174 1.703.244 5.05-3.128 4.358-3.078-.631-2.15-3.326-2.016-5.344.164-2.462 1.985-5.068-.918-7.39-2.886 1.36-3.63 3.742-3.867 6.498-.17 1.99-1.087 3.912-3.26 3.553-2.217-.366-2.111-2.58-2.03-4.475.073-1.69 1.744-3.42-.287-5.353-2.6 1.065-3.12 3.478-3.592 5.846-.191.955.075 1.994-.057 2.97-.27 2.016.443 5.19-2.38 5.231-3.09.045-2.812-3.035-2.743-5.817"/>
  <path d="M100.458 227.827c-3.428 1.06-6.548 1.945-9.557.183-3.067-1.795-5.232-3.351-3.97-8.192 1.388-5.322-.326-11.166-2.08-16.56-1.412-4.348-.008-8.085 3.702-9.297 4.431-1.448 11.35 1.346 12.407 4.97.967 3.317-2.185 4.957-3.063 7.484 12.197 10.783 12.842 15.57 2.56 21.412m-6.227-3.725c5.021.03 8.644-2.277 8.446-5.38-.256-4.01-6.206-7.843-11.363-6.998 1.448 3.864.344 8.152 2.917 12.378m-3.774-21.131c2.906 1.38 4.112-.355 5.158-2.534-1.269-2.053-2.967-2.57-4.83-1.8-1.881.778-1.472 2.32-.328 4.334m37.71-100.815c-1.597 2.817-2.291 5.555-3.088 8.277-.545 1.863-1.318 4.37-3.967 3.269-2.42-1.007-1.705-3.32-.845-5.21 3.927-8.626 7.754-17.304 11.946-25.801 1.323-2.682 1.086-7.597 5.789-6.897 4.288.637 2.823 5.052 3.506 7.86 1.853 7.627 5.18 14.841 6.263 22.673.159 1.15.445 2.288.52 3.44.096 1.453-.421 2.745-1.966 3.055-1.897.381-2.781-1.006-3.103-2.527-.412-1.943-.35-3.986-.746-5.933-.877-4.297-2.75-7.03-7.905-5.205-2.154.762-4.647.587-6.404 3M138.24 89.29c-.742-1.313.166-3.398-2.166-4.253-1.618 2.928-3.81 5.539-4.163 9.483 3.356-.234 7.321 1.207 6.329-5.23m-44.8 267.228c1.766-3.018 1.184-8.021 5.362-7.878 4.333.15 3.546 5.008 4.468 7.96 2.264 7.25 4.198 14.605 6.251 21.921.556 1.982 1.195 4.29-1.668 4.773-2.32.392-2.875-1.52-3.18-3.537-.272-1.788-.92-3.535-1.54-5.25-.697-1.921-.58-4.86-3.506-4.715-3.087.154-6.378.475-7.7 4.307-.918 2.663-2.112 5.253-3.419 7.753-.793 1.518-2.233 2.833-4.063 1.742-1.762-1.051-.627-2.584-.08-3.962 3.002-7.576 5.965-15.168 9.075-23.114m6.206 6.659c-.035-1.63-.137-3.241-1.536-4.867-1.05 2.2-2.326 4.038-2.412 6.699 1.573-.036 2.846.025 3.948-1.832m-13.921 59.467c.266-6.252.587-12.059.727-17.87.048-1.983.707-2.748 2.686-3.41 4.043-1.354 8.242-.674 12.29-1.53 1.203-.253 2.458.16 2.752 1.544.316 1.485-.378 2.75-1.89 3.041-2.108.407-4.284.763-6.416.691-4.435-.149-4.582 2.596-4.644 5.903-.074 3.948 2.109 3.62 4.904 3.331 2.693-.278 5.61-1.156 8.298 1.04-1.075 3.888-4.236 3.469-7.11 3.707-2.81.232-5.627.215-6.293 4.165-1.016 6.02.718 8.058 6.852 7.325 5.451-.652 5.451-.652 7.778.857-2.881 4.172-8.888 5.457-15.083 3.287-5.958-2.088-5.114-6.978-4.851-12.08m6.173-275.205c5.233-.85 8.983 1.089 9.604 4.965.746 4.647-2.47 6.897-6.013 8.696-2.21 1.121-6.662.355-4.655 4.965 1.59 3.652 4.793 4.316 8.416 2.82a43 43 0 0 0 2.276-1.017c1.501-.725 3.436-1.916 4.386.028 1.158 2.368-.944 3.458-2.873 4.323-7.092 3.18-11.674 2.716-14.943-1.574-4.48-5.88-4.435-14.361.194-19.949.945-1.14 2.177-2.044 3.608-3.256m1.507 9.205c.713-.377 1.543-.63 2.116-1.16 1.042-.962 1.723-2.253.366-3.383-1.843-1.535-3.09-.008-4.05 1.289-.954 1.288-2.299 3.023 1.568 3.254m125.709-75.594c-2.373-2.978-5.201-.536-7.821-.907-1.657-.234-3.692.193-4.01-1.946-.376-2.521 1.908-2.856 3.666-3.108 2.132-.307 4.317-.321 6.48-.336 8.288-.058 8.576.278 6.284 8.057-.642 2.177.008 3.202 1.926 4.36 1.813 1.093 2.31 3.672-.424 3.84-5.473.336-5.684 4.471-6.542 7.995-.592 2.432-1.418 4.635-3.992 3.77-2.64-.888-1.255-3.2-.477-5.073.564-1.356.808-2.844 1.162-4.153-1-1.97-4.473-1.117-4.15-3.895.278-2.397 2.72-2.172 4.317-2.713 2.81-.95 2.845-3.414 3.58-5.891m-20.444 30.045c-.884-2.835-2.403-5.178-1.5-7.764.948-.819 2.025-.803 2.442-.183 3.076 4.568 5.614 9.68 5.791 15.045.165 5.007-5.18 4.751-8.67 5.723-2.691.75-4.79-.182-5.417-3.328 10.082-2.504 10.082-2.504 7.354-9.493m-4.736-18.173c2.113.428 3.597 1.155 2.443 3.292-.685 1.268-1.971 1.908-3.257.876-1.838-1.475-1.748-2.973.814-4.168"/>
</svg>