<svg xmlns="http://www.w3.org/2000/svg" viewBox="0 0 1024 608" xml:space="preserve">
  <path d="M117.017 312.043a131.5 131.5 0 0 1-1.146-24.427c.255-5.494-1.275-9.527-7.16-12.516.942.076.538-.09.318.045-7.953 4.845-13.593 2.946-16.863-5.921-2.951-8.005-2.868-15.665 3.288-22.408 3.36-3.68 7.375-4.194 11.433-1.113-2.333 1.986-5.715 1.425-7.872 3.853-5.123 5.765-5.25 16.482.2 22.007 1.12 1.137 2.305 2.626 4.287 1.696 1.687-.792 2.464-2.178 2.305-4.045-.175-2.04-1.453-2.822-3.353-2.975-2.856-.23-4.451-1.676-2.104-4.068 2.813-2.867 6.643-.175 10.048-.741 1.85-.308 3.308 2.494 3.707 4.746.2 1.133.089 2.322.099 3.486.011 1.256-.224 2.572 1.707 4.783 0-6.16-.053-11.069.01-15.977.322-25.644 1.31-51.282.814-76.933-.1-5.141-.745-10.27-1.059-15.409-.204-3.343 1.303-4.674 4.805-4.637 22.321.234 44.655-.1 66.965.485 67.964 1.784 135.933.286 203.898.685 39.312.23 78.627.136 117.939-.04 18.64-.085 37.277.014 55.924-.464 26.27-.674 52.568-.127 78.845-.584 33.456-.58 66.924-.276 100.366-1.053 22.815-.53 45.633-.24 68.444-1.033 21.947-.764 43.916-.882 65.875-1.267 3.433-.06 5.064.554 3.951 4.978-3.41 13.56-5.493 27.276-5.499 41.425-.006 17.961-.547 36.006-2.38 53.858-1.649 16.057-.34 32.018-.853 48.009-.102 3.176-1.757 6.777 3.197 8.508-3.165 3.009-3.181 6.4-3.112 9.947.18 9.317.804 18.657-.727 27.933-.028.164-.066.34-.032.498 1.69 7.95-.89 15.762-.776 23.68.117 8.142-.397 16.291-.554 24.44-.103 5.35-.697 5.726-5.357 3.512-3.29-1.564-6.961-.666-10.267-.455-8.984.573-17.958.59-26.937.63-35.144.159-70.25 1.963-105.395 2.306-22.801.223-45.62.398-68.412 1.117-19.987.63-39.98-.24-59.925.37-34.607 1.06-69.224 1.45-103.83 2.396-22.452.613-44.881 2.056-67.352 2.025-23.614-.032-47.165 1.8-70.772 2.215-22.436.396-44.883 1.21-67.308 2.123-30.392 1.24-60.778 2.706-91.195 2.597-17.966-.065-35.91.908-53.86.66-6.96-.097-13.917-1.13-20.92-.908-.967.03-2.007-.21-2.65-1.274-.155-2.065 1.517-2.484 2.908-2.514 3.874-.084 4.815-2.69 4.836-5.665.106-15.257.05-30.514.05-46.383-1.606 1.681-1.186 3.218-1.173 4.57.136 14.165-2.88 28.155-2.327 42.344.068 1.73-.266 3.67-2.494 3.563-2.12-.103-2.525-2.113-2.424-3.774.534-8.794 1.362-17.571 1.8-26.369.625-12.58 2.211-25.072.938-37.795-1.133-11.318-.745-22.794-2.733-34.435-.154-.342-.136-.307-.136-.307m141.047-102.73c-7.602 2.058-10.473 9.313-16.724 14.124 6.54 1.715 11.87 1.962 17.218-.12 1.636-.638 3.58-.715 4.316 1.185.834 2.15-1.005 2.794-2.665 3.341-6.504 2.145-13.143 1.843-19.774.967-2.14-.283-4.232-1.047-4.846-3.656-.557-2.366.806-3.644 2.353-5.065 3.452-3.17 7.155-6.134 10.034-10.249-2.6-.184-4.74-.487-6.876-.464-35.634.384-71.272-.697-106.91.292-4.448.124-4.947 1.567-5.013 5.076-.217 11.643 0 23.29-.757 34.93-.515 7.902-.25 7.868 7.876 8.023 13.468.257 26.934.733 40.404.852 20.992.186 41.987.116 62.98.248 2.958.018 4.288-1.052 4.29-4.038.001-2.152.23-4.317.538-6.45.177-1.222.996-2.167 2.366-2.156 1.446.01 2.035 1.16 2.167 2.325.206 1.81.34 3.675.142 5.477-.484 4.403 1.346 5.702 5.707 5.724 50.63.248 101.259.688 151.889 1.025 3.305.022 6.94 1.012 9.844-.569 2.723-1.481 1.673-5.125 2.377-7.792.31-1.179.948-2.263 2.37-2.117 1.432.148 1.755 1.359 1.862 2.567.073.827.153 1.685.02 2.493-.678 4.083.859 5.626 5.116 5.592 14.495-.118 28.993-.023 43.487.225 4.494.076 6.031-1.935 5.717-6.037-.177-2.304-.17-4.772 2.928-4.627 2.811.132 2.491 2.765 2.48 4.663-.036 6.174.067 6.438 6.527 6.503 39.127.39 78.254.711 117.38 1.139 3.157.035 5.79-.815 8.402-2.514 7.671-4.99 15.43-9.846 23.196-14.686 1.373-.856 3.236-2.052 4.499-.37 1.494 1.992-.683 2.795-1.978 3.731-.89.644-1.774 1.298-2.328 1.704 3.283 3.973 2.376 7.822.582 12.12 10.813 0 21.281.023 31.75-.009 7.205-.021 7.223-.058 6.136-7.264-.257-1.704-.66-3.658 1.41-4.218 2.104-.57 2.767 1.339 3.26 2.972.24.791.405 1.627.45 2.45.254 4.728 2.496 6.234 7.382 6.218 41.99-.134 83.98-.007 125.97.158 4.545.017 8.096-.273 7.209-6.283-.2-1.355.601-2.709 2.314-2.633 1.35.06 1.977 1.096 2.175 2.355.307 1.946.584 3.898.964 6.46 9.465 0 18.753.106 28.037-.058 3.19-.056 3.26-2.796 3.358-5.18.266-6.482-.044-12.959.73-19.456 1.098-9.23 1.5-18.543 2.35-27.806.357-3.882-.94-5.504-5.004-5.188-4.972.386-9.986.603-14.965.423-9.186-.332-14.417 2.893-18.124 11.776 4.491.48 9.52-3.033 13.538 1.664-1.247 2.816-3.677 2.754-5.961 2.925-3.645.272-7.314.094-10.912 1.083-1.544.424-3.52.823-4.622-.81-1.273-1.885.101-3.448 1.244-4.91l8.645-11.06c-5.051-1.19-9.509-.197-13.961-.202-40.962-.039-81.92.242-122.875 1.08-6.607.134-9.024 2.274-9.637 9.205 3.357.901 6.796 1.28 10.286 1.428 1.662.07 4.313-.763 4.171 2.026-.121 2.405-2.653 2.873-4.644 2.784-3.818-.17-7.595-.735-11.459-.531-4.395.232-5.74-1.69-4.541-5.901.803-2.822 2.663-5.326 2.8-8.93-12.692.11-25.127-.313-37.549.784-3.462.306-5.61 2.588-8.75 5.253 5.705-.695 9.199-5.238 14.072-4.118.684 2.062-.727 2.89-.753 3.91-.078 2.984-3.774 3.696-3.839 6.61-.075 3.348-10.746 13.67-13.332 12.276-2.92-1.573-4.928-.622-7.41.003-1.75.44-2.7-.655-3.395-2.204-1.478-3.293-4.642-5.271-6.583-8.407-1.717-2.772-1.857-3.877.39-5.492 2.342-1.685 4.148-3.7 5.34-6.415-2.792-2.21-5.905-1.298-8.78-1.267-38.126.405-76.259-.308-114.382.759-9.337.261-10.828.97-13.57 9.39 3 1.862 6.477.92 9.677 1.56 1.461.292 3.338.146 3.52 2.042.21 2.168-1.779 2.783-3.378 2.915-4.996.412-9.928-.59-14.811-1.41-2.49-.417-2.715-2.536-1.475-4.717 1.612-2.837 3.125-5.73 4.655-8.552-2.067-1.608-3.963-1.084-5.723-1.086-11.788-.012-23.575.05-35.363.088-8.789.029-13.602 3.512-16.678 12.12 2.703.71 5.27-.549 7.912-.506 2.314.036 4.681-.461 6.872.69 1.125.592 1.876 1.457 1.372 2.823-.431 1.17-1.319 2.32-2.576 1.79-4.906-2.062-9.902-.318-14.834-.63-1.808-.114-3.762-.073-4.712-2.133-.992-2.152.53-3.387 1.723-4.773 2.326-2.703 5.044-5.15 6.505-9.29-54.366 0-108.151 0-162.815.004m170.592 102.683c9.79.197 19.578.428 29.367.577 6.165.094 12.331.054 18.496.097 2.598.017 3.868-1.632 4.768-3.733.616-1.438.23-2.62-1.14-3.401-1.75-.998-3.361-1.002-5.08.322-1.29.994-2.795 3.515-4.51 1.414-1.926-2.36.9-3.825 2.233-5.277 1.55-1.689 3.657-2.065 5.977-1.66 6.079 1.06 7.436 3.363 6.806 12.181.965.07 1.943.2 2.92.204 38.641.138 77.285-.263 115.922.678 4.541.11 10.178.07 11.695-4.783 3.344-10.694 13.141-7.058 19.485-10.967 1.116 2.53-1.303 2.826-1.456 4.715 3.752-2.776 5.798-.742 7.66 1.955 2.898 4.196-.263 6.136-4.326 8.606 13.006 1.372 24.788 1.073 36.508.237 3.107-.221 4.682-3.632 4.515-7.114-2.46-.52-3.614 1.216-5.188 2.013-1.81.916-3.182.124-3.034-1.773.203-2.616 2.414-3.802 4.574-4.825 2.283-1.081 4.535-2.29 6.963-.272 1.945 1.617 2.977 3.527 2.423 6.128-.36 1.69-1.986 3.162-.82 5.42 6.5.687 13.115.665 19.763.666 38.825.006 77.65.182 116.474.343 2.391.01 4.203-.767 5.493-2.769.843-1.31 1.658-2.633.028-3.942-1.43-1.148-2.831-1.649-4.409-.09-1.117 1.104-1.716 2.982-4.02 2.87-2.01-2.074-1.348-4.172.377-6.003 2.556-2.715 5.566-3.601 8.952-1.396 1.802 1.173 3.93 2.1 5.257 3.687 1.984 2.374-1.004 4.851-.85 7.693 7.098 0 13.918-.226 20.714.082 4.284.194 5.518-1.69 5.519-5.534.001-8.325.004-16.66 1.142-24.934.699-5.08 1.067-10.162.646-15.441-7.25-.923-14.23-.528-21.19-.585-2.655-.022-5.57-.524-7.908.379-3.788 1.462-.926 4.98-1.355 7.545-.262 1.569-.585 3.161-2.395 3.34-2.097.207-2.848-1.447-3.147-3.171-.166-.956-.088-2.002.1-2.964.72-3.673-.664-5.183-4.463-5.188-43.14-.064-86.28-.185-129.418-.381-3.6-.017-5.231 1.374-5.321 4.918-.062 2.426.236 5.058-2.317 6.694-3.074-.73-2.586-3.022-2.44-5.165.287-4.23-1.222-6.305-5.934-6.474-9.651-.345-19.296.541-28.956-.173-2.411-.178-6.388-1.087-7.447 1.392-2.699 6.319-10.002 7.685-12.746 14.289-2.689-2.662-5.72-3.879-8.195-3.475-5.92.965-5.178-2.506-4.528-5.837 1.318-6.752 1.439-6.735-5.782-6.761-27.325-.1-54.651-.154-81.976-.308-10.978-.061-21.955-.304-32.932-.52-5.858-.116-6.815.755-6.912 6.293-.051 2.953.57 5.948-.336 9.026-3.185.467-4.887-.473-4.571-3.946.15-1.65.015-3.323.105-4.98.31-5.73-.278-6.487-5.887-6.533-13.664-.113-27.33-.082-40.994-.225-7.967-.082-8.092-.024-8.452 7.853-.127 2.784.946 7.25-3.57 6.56-3.563-.545-1.586-4.196-1.05-6.687 1.386-6.445.325-7.666-6.204-7.72-15.3-.123-30.588-.72-45.895-.768-37.287-.118-74.572-.656-111.856-1.157-4.155-.055-5.954 1.142-5.041 5.455.434 2.05.397 4.374-2.313 4.644-3.111.309-3.51-2.278-3.226-4.449.636-4.878-1.582-5.897-6.016-5.852-13.815.14-27.65.258-41.448-.302-21.63-.878-43.292.153-64.904-1.313-2.675-.181-3.926.795-3.705 3.807.302 4.141.27 8.327.09 12.48-.457 10.591-1.595 21.186.592 31.854 1.07.163 2.038.355 3.016.453 12.8 1.293 25.646.785 38.465.735 25.275-.1 50.538 1.198 75.818.506 3.116-.086 4.743-1.341 5.467-3.96.729-2.636-1.395-3.83-3.187-5.06-2.468-1.694-4.291-.453-6.198 1.2-1.55 1.342-2.012 3.989-4.94 4.075-2.406-3.015-.235-5.233 1.547-7.252 2.377-2.695 5.287-5.05 9.142-3.489 6.344 2.57 10.048 7.01 8.187 14.13 1.837 1.122 3.376.769 4.839.771 19.497.037 38.995-.048 58.491.069 27.483.164 54.973-.44 82.45.654 5.156.205 10.325.14 15.487.138 2.177-.001 3.159-1.6 3.958-3.316.473-1.018.327-1.948-.59-2.668-1.6-1.257-3.061-.827-4.527.317-1.224.954-2.668 1.916-3.77.013-.912-1.575.06-2.91 1.307-3.884 2.496-1.951 5.215-2.987 8.346-1.519 2.945 1.382 4.882 3.38 4.495 6.979-.144 1.345-.835 3.179 2.296 3.539m119.777 50.472c-13.626.023-27.263-.297-40.875.147-22.154.724-44.305.379-66.457.487-23.161.114-46.322.13-69.484.172-2.637.005-4.883.469-6.2 3.198-5.296 10.977-15.099 11.093-25.14 10.643-.21-.625-.46-.967-.4-1.24 2.016-9.006-.75-12.571-10.02-12.477-18.449.19-36.896.652-55.346.738q-42.488.198-84.975-.032c-4.27-.022-6.753.906-8.8 5.162-3.818 7.933-9.066 10.166-17.544 8.975-5.764-.81-8.203-5.303-9.15-10-.773-3.845-2.875-4.552-5.752-4.685-4.816-.223-9.647-.076-14.47-.174-2.51-.05-3.623 1.006-3.643 3.552-.117 14.779-1.072 29.549-.26 44.34.167 3.055 1.269 4.318 4.283 4.906 8.945 1.743 17.936.532 26.862.459 24.638-.2 49.281.566 73.921-.762 16.78-.904 33.615-.7 50.415-1.268 34.93-1.18 69.85-2.646 104.78-3.8 32.717-1.08 65.44-1.93 98.163-2.84 23.949-.667 47.897-1.405 71.85-1.863 27.123-.518 54.25-.793 81.376-1.11 18.316-.214 36.637-.122 54.948-.517 30.621-.66 61.236-1.643 91.855-2.408 21.147-.53 42.296-1.013 63.446-1.295 4.125-.055 5.42-1.216 5.231-5.492-.402-9.145-.564-18.298-1.06-27.447-.232-4.254-1.319-5.76-5.785-5.711-21.162.225-42.327.225-63.49.038-5.057-.045-9.068.849-12.958 4.589-5.71 5.489-14.025 5.4-18.059-.149-2.976-4.095-6.388-4.42-10.713-4.4-51.247.223-102.495.485-153.74.253-5.243-.024-7.066 1.874-8.416 5.91-1.668 4.992-4.861 6.59-10.02 6.08-3.36-.333-6.524-2.851-10.118-.987-1.699.881-3.486 2.593-5.47.997-2.226-1.792 1.283-3.487.417-5.488-1.853-2.28-4.954.709-7.01-1.68-1.17-1.184 1.867-4.035-2.192-4.82m139.153-45.194c-1.998.035-3.997.121-5.994.093-3.96-.056-5.592 2.026-5.748 6.21 5.256.113 10.15.036 14.645-2.595 1.186-.694 2.446-1.554 3.525-.109 1.235 1.653-.027 2.78-1.232 3.732-3.736 2.953-8.138 3.485-12.722 3.62-9.541.281-11.054-1.312-9.278-10.847-12.22.037-24.335-.313-36.406.876 4.785 2.53 8.448 7.163 7.658 10.414 1.145.802 3.177-.415 3.856 1.834-.674 2.87-3.676 3.361-5.67 4.941-2.742 2.173-5.954 2.012-8.302.082-2.42-1.99 1.423-3.581 1.813-5.59-5.405 1.409-9.002 6.52-14.913 6.319-.2-5.18-1.272-8.879-3.794-13.056-2.74-4.538-5.178-5.993-9.884-6.016-40.282-.197-80.562-.46-120.843-.81-4.173-.037-6.444 1.613-7.364 5.658.733.275 1.18.587 1.627.588 4.995.011 9.99-.057 14.985-.03 1.685.009 4.285-.87 4.183 1.951-.077 2.131-2.403 2.464-4.288 2.51-4.33.108-8.661.192-12.993.204-8.435.023-9.706-1.559-7.861-9.81-1.544-1.17-3.397-1.067-5.207-1.072-13.498-.038-26.999.104-40.491-.17-5.291-.108-7.624 2.919-10.034 7.261 3.655.404 6.715 2.036 10.037.26 1.299-.694 2.963-1.517 3.804.514.754 1.822-.803 2.862-2.093 3.46-5.558 2.569-11.382 1.924-17.006.509-2.705-.681-2.425-3.058-1.027-5.28 1.292-2.056 3.742-3.249 4.495-5.728-1.622-1.427-3.363-.876-4.95-.89-10.329-.092-20.659-.239-30.986-.124-41.276.458-82.545-1.697-123.822-.267-5.304.183-8.738 2.738-10.955 8.46 6.198 1.79 12.868-3.458 18.908 1.36-6.981 2.853-14.222 4.264-21.607 3.847-3.257-.185-4.832-2.906-3.103-6.296 1.262-2.475 2.76-4.83 4.19-7.302-1.898-1.116-3.755-.633-5.52-.64-21.66-.075-43.322-.012-64.981-.182-13.156-.103-26.31-.536-39.463-.85-2.552-.062-4.614.14-4.68 3.55-.243 12.334.847 24.603 1.647 36.885.126 1.94.594 4.075 3.362 4.172 5.986.209 11.97.469 17.957.695 1.218.046 2.424-.195 3.064-1.314 2.68-4.678 7.37-7.097 11.325-10.374 6.159-5.104 13.65-3.419 16.855 4.039 3.401 7.916 3.401 7.915 11.902 7.798 1.666-.023 3.332-.051 4.998-.051 43.318-.002 86.635-.042 129.952.058 5.226.012 9.233-.73 9.842-7.04.233-2.407 2.54-3.243 4.582-4.135 5.673-2.479 11.695-3.835 17.606-5.525 2.27-.649 6.27-2.23 6.649.252.404 2.646 4.066 6.46-1.484 9.086 3.712 1.239 5.14 3.141 2.823 7.237 6.868 0 12.684.052 18.498-.01 15.95-.172 31.898-.487 47.848-.573 36.82-.197 73.64-.295 110.46-.422 2.175-.008 4.27-.01 6.215-1.341 6.727-4.609 13.536-9.062 20.75-12.933 5.807-3.116 5.859-3.379 8.282 2.595 1.836.708 5.59-1.78 5.07 3.033-.279 2.566-.3 5.16-.44 7.822 2.278 1.373 4.659.915 6.93.913 22.16-.02 44.32-.152 66.48-.117 18.954.03 37.902-.834 56.865-.02 9.303.4 18.641.237 27.954-.027 3.085-.088 7.026.723 8.608-3.407 1.766-4.612 5.797-7.194 9.123-10.365 3.12-2.974 6.864-4.025 11.026-1.97 4.05 2.001 7.56 4.473 7.518 9.61-.036 4.372 2.204 5.713 6.301 5.622 7.993-.18 15.993-.024 23.99-.05q19.995-.063 39.99-.191c2.327-.015 5.245.215 4.973-3.262-.848-10.81 2.35-21.54.399-32.392-.508-2.823-1.3-4.192-4.279-4.146-7.83.122-15.66.107-23.491.141-2.65.012-4.494.852-4.382 3.863 4.325 2.372 9.64-1.6 14.417 2.883-6.553 3.05-12.698 2.586-18.643 2.481-2.461-.043-3.303-2.497-2.3-4.996.539-1.34 1.933-2.34 1.587-4.325-43.455.407-86.909-.307-131.338-.788m-558.32-116.078c-.19 3.79 2.43 3.69 5.048 3.699 37.15.12 74.304-.556 111.451.497 1.423.04 3.027.174 4.083-1.215-2.835-6.67-3.84-6.906-12.937-3.076-1.597-4.595 1.344-8.26 6.45-7.895 4.793.342 8.322 3.187 10.117 7.206 1.905 4.265 4.762 4.65 8.734 4.64 37.306-.088 74.612-.016 111.918.006 12.13.007 24.262.001 36.173.001 1.791-6.076 7.158-10.345 12.156-10.21 4.905.13 7.98 3.316 9.415 10.158 6.19 0 12.495.03 18.8-.007q13.494-.082 26.988-.255c1.853-.024 4.24-.11 3.684-2.731-.466-2.2-2.457-3.576-4.933-3.259-1.388.178-2.408 1.95-4.383.945-.99-2.605.304-4.673 2.243-6.32 2.077-1.762 3.927-.517 5.848.753 3.724 2.461 7.073 5.081 6.92 10.369 8.756.43 17.204-.317 25.66-.405 28.642-.297 57.288-.206 85.932-.285 6.543-.018 13.097.745 18.821-4.068 5.091-4.28 12.2-5.22 17.432-9.517 1.43-1.173 3.298-3.373 5.129-1.256 2.032 2.349-1.055 3.223-2.17 4.62-.201.253-.322.57-.281.496-.926 4.354 8.948 2.413 3.847 8.73 12.673 0 24.813 0 36.953-.004.332 0 .666-.042.996-.083 2.022-.251 3.011-1.48 2.741-3.42-.261-1.88-1.778-2.29-3.404-2.06-.971.136-1.898.577-2.85.865-1.283.388-2.714.954-3.49-.67-.707-1.483.33-2.537 1.39-3.392 4.716-3.807 12.326-1.756 13.16 4.162.706 4.992 3.413 4.73 6.828 4.671 17.974-.31 35.948-.668 53.924-.846 21.662-.214 43.325-.247 64.987-.415 1.751-.014 3.69.544 5.2-.9.004-5.009.096-5.294 2.302-7.168 5.633-4.788 11.855-3.051 14.423 4.28.677 1.932 1.016 3.313 3.434 3.264 7.663-.157 15.328-.194 22.993-.247 2.172-.015 3.143-.902 3.583-3.184 1.923-9.978 2.78-20.092 4.136-30.141.47-3.478-.37-5.347-4.42-5.164-8.96.403-17.934.555-26.905.722-34.112.635-68.223 1.396-102.338 1.81-45.972.557-91.947.806-137.92 1.247-32.968.317-65.943.38-98.907.403-18.762.013-37.531.714-56.327.098-15.09-.494-30.264.448-45.406.34-30.742-.218-61.483-.492-92.225-.594-11.784-.04-23.57.476-35.355.474-14.286-.003-28.571-.284-42.857-.447-22.625-.259-45.25-.593-67.875-.741-8.152-.053-16.305.38-24.46.507-2.552.04-3.468 1.175-3.526 3.678-.237 10.152-.614 20.3-.93 31.334m734.91 45.057c-1.147 4.082-.098 8.246-.468 12.345-.22 2.43-.356 4.295 2.95 4.337 3.043.04 4.017-1.335 4.133-4.217.24-5.969.045-11.933.538-17.917.873-10.58 1.116-21.214 1.587-31.826.09-2.02-.42-3.672-2.956-3.654-2.224.015-2.728 1.467-2.872 3.291-.96 12.244-1.93 24.487-2.913 37.641m1.126 111.452c2.62.201 3.36-1.335 3.678-3.624 1.519-10.925.849-21.887.639-32.836-.081-4.2-3.502-3.15-5.964-3.258-2.953-.13-3.677 1.737-3.3 4.269 1.037 6.988-.11 13.913-.62 20.851-.256 3.49-.172 6.935.092 10.422.238 3.135 1.474 4.602 5.475 4.176m-4.059-64.033c-.066 5.143.041 10.296-.253 15.425-.226 3.939 1.614 4.834 5.094 4.671 3.743-.175 3.502-2.701 3.661-5.232.752-11.92-1.274-23.823-.173-35.754.172-1.86 1.478-4.784-1.856-5.248-3.338-.464-4.608 1.694-4.818 4.85-.452 6.784-1.07 13.556-1.655 21.288m.04 94.035c.037 2.995.06 5.99.12 8.984.028 1.382.207 2.78 1.945 2.992 1.684.206 2.954-.54 3.458-2.191.387-1.266.74-2.587.802-3.899.424-8.966.682-17.941 1.179-26.903.197-3.561-1.342-4.64-4.677-4.672-3.711-.036-3.987 2.193-3.854 4.908.323 6.62.677 13.237 1.026 20.781M124.666 242.3c.148-9.807.288-19.614.452-29.42.025-1.506.392-3.27-1.893-3.259-2.092.01-2.168 1.739-2.205 3.252-.322 13.287-.638 26.573-.884 39.86-.029 1.546-.344 3.515 2.775 3.85 1.694-4.249.71-8.982 1.755-14.283m-1.063 28.27c.187-7.24.187-7.24-3.067-9.086-2.31 16.262-.366 32.013.558 47.793l2.806-.004c-1.778-12.629-.673-25.178-.297-38.702m2.159-89.077c-.376-4.78 1.035-9.775-1.68-14.886-.78 1.969 1.337 4.111-.153 4.576-4.677 1.46-2.732 5.073-2.829 7.8-.235 6.615-.107 13.245-.024 19.867.023 1.889-.792 3.935.65 5.669 3.764-1.183 4.006-2.53 4.036-23.026m44.733 191.915c3.491-1.82 6.01-4.369 6.73-8.777-5.67-.969-11.066-.522-16.44-.414-2.242.045-2.637 1.474-2.2 3.44 1.135 5.114 3.801 6.568 11.91 5.751M874.59 163.372c-2.473 1.86-2.353 4.7-2.353 7.248-.001 8.03-1.615 15.816-3.088 23.635-.212 1.13-.489 2.287-.438 3.418.05 1.129.28 2.484 1.793 2.588 1.78.122 2.178-1.195 2.253-2.625.555-10.637 3.313-20.941 4.78-31.442.286-2.056.257-3.326-2.947-2.822M771.632 358.124c4.51.873 4.346-2.205 4.374-5.151.03-3.29-2.087-6.743-4.614-5.652-3.998 1.726-8.99 2.194-11.817 6.276-.659.95-1.481 1.903-.8 3.152.659 1.21 1.924 1.193 3.07 1.218 2.982.066 5.967.057 9.787.157m-601.162 1.59c.993 0 2.001.117 2.974-.023 2.012-.29 4.842 1.131 5.827-1.335.959-2.4-.524-4.776-2.268-6.674-.44-.479-.978-.867-1.438-1.267-5.427 2.409-12.495 1.693-15.945 9.3zm-47.178-24.292c-.187 5.082.665 10.043 1.93 14.969-1.838-11.733-.47-23.716-2.827-35.407-.738 6.557 1.488 12.937.897 20.438m302.367-133.879c-4.764-2.812-6.893-2.198-10.882 3.436 2.891 0 5.522.057 8.15-.02 1.768-.053 3.368-.471 2.732-3.416M766.207 362.14c-2.105.41-4.559-.733-6.456 1.246 3.838 3.48 7.486 3.305 10.865-.392-.98-1.288-2.422-.605-4.409-.854m55.527-162.098c1.282 1.966 3.193.758 4.811.884 1.167.091 2.317-.372 2.653-1.715.32-1.281-.396-2.193-1.318-2.955-1.022-.845-2.08-.762-3.177-.101-1.329.8-2.096 2.037-2.97 3.887"/>
  <path d="M91.063 196.21c4.31-4.284 11.116-4.082 14.694.097 2.382 2.78 1.899 4.544-2.864 9.581 2.994 1.734 5.768 3.685 7.897 6.376 4.049 5.119 3.31 10.025-2.07 13.55-5.604 3.671-13.362 2.706-16.029-2.04-.386-.686-.839-1.685-.616-2.31 2.58-7.216-.004-13.92-1.95-20.674-.464-1.612-.065-2.926.938-4.58m7.286 22.823c.316 2.859.896 5.546 4.778 4.217 2.798-.958 6.004-1.895 5.358-5.893-.634-3.915-6.164-7.126-10.67-6.357-.823 2.45.909 4.775.534 8.033m-2.533-17.66c3.19 3.894 4.307.1 6.229-1.36-1.294-2.25-3.01-2.986-5.093-2.401-1.502.421-1.859 1.695-1.136 3.76m45.016-102.424c-6.122.152-6.964 4.726-8.533 8.756-.91 2.337-.627 6.903-4.687 5.305-3.625-1.427-.767-4.583.218-6.81 4.036-9.125 8.209-18.188 12.29-27.291.864-1.927 1.935-3.705 4.25-3.642 2.674.073 2.808 2.33 3.163 4.333 1.675 9.43 5.77 18.222 7.29 27.701.355 2.215 1.09 4.812-1.865 5.25-3.01.446-3.012-2.335-3.245-4.506a51 51 0 0 0-.673-4.421c-.868-4.41-3.24-6.414-8.208-4.675m3.064-13.487c-4.136 1.562-4.115 5.543-6.176 8.97 3.33.068 5.574-.162 7.856-1.706-.436-2.217-.88-4.471-1.68-7.264m-26.909 226.532c-.6 8.45-8.99 18.094-17.47 19.718-2.992.573-5.918-.928-5.505-4.07 1.127-8.56.085-17.19 1.42-25.751.63-4.04 2.462-4.786 5.65-3.935 7.332 1.958 12.76 6.252 15.753 13.792.182.296.164.26.152.246m-17.67.825c.35 4.125-1.133 8.516 1.524 12.392 7.55-3.647 11.64-8.59 10.832-12.91-.852-4.56-5.5-8.435-11.272-9.148a434 434 0 0 0-1.084 9.666m13.679 69.762c-4.478-1.675-2.847-6.107-4.614-8.94-1.031-1.654.098-5.03-3.126-4.84-3.217.189-6.77.32-8.257 4.308-.985 2.641-2.204 5.206-3.472 7.728-.789 1.569-2.144 2.9-3.989 1.906-1.824-.984-.706-2.525-.149-3.908 3.602-8.934 7.096-17.911 10.785-26.808.706-1.704 1.166-4.195 3.728-4.129 2.791.073 3.1 2.466 3.677 4.594 2.256 8.308 4.591 16.595 6.904 24.889.536 1.92 1.45 3.91-1.487 5.2m-8.56-24.54c-.338-.369-.49-1.76-1.076-.86-1.137 1.747-1.8 3.81-2.57 5.779-.133.342.175.858.278 1.29 1.64.143 3.036-.006 4.175-1.398a214 214 0 0 0-.806-4.811m1.606 71.173c2.091-.297 3.755-.465 4.57 1.54-3.258 3.784-11.55 5.429-16.263 2.75-4.13-2.349-4.533-6.326-3.951-10.84.763-5.912 1.023-11.91 1.12-17.878.044-2.635.707-3.662 3.37-4.388 3.773-1.028 7.645-.216 11.357-1.283 1.198-.344 2.413.086 2.747 1.471.309 1.276-.31 2.381-1.508 2.813-1.231.444-2.573.683-3.885.79-7.964.646-8.005.674-7.102 9.272 4.034 1.176 8.411-.965 12.792.743-1.006 4.104-4.306 3.457-7.033 3.913-2.96.494-6.566-.12-6.944 4.59-.492 6.125.723 7.517 6.868 7.055 1.158-.087 2.305-.314 3.862-.548M102.56 159.93c-2.228.744-4.112 1.32-5.911 1.869.255 6.23 3.454 8.165 9.332 6.257 2.04-.662 4.946-3.883 6.266-.292 1.113 3.03-2.856 3.47-4.991 4.36-6.892 2.869-10.729 1.77-14.084-3.75-4.004-6.59-2.812-14.713 2.938-20.015 3.698-3.411 8.891-2.503 11.104 2.021 2.36 4.825-1.613 6.832-4.655 9.55m-4.692-3.809c1.846-.092 3.582-.406 4.69-2.14.59-.924.754-1.81-.1-2.647-.617-.606-1.477-1.096-2.18-.49-1.57 1.35-4.26 2.164-2.41 5.277m75.368-40.451c-2.339-3.018 1.226-5.987-.577-9.124-3.428 1.38-3.783 4.347-4.23 7.191-.206 1.308-.104 2.662-.206 3.99-.106 1.382-.413 2.894-2.093 2.908-2.187.017-2.772-1.873-2.697-3.515.244-5.276.751-10.54 1.189-16.229 3.94 1.035 7.676-.259 10.977 1.885 1.2.78 2.161-.2 3.24-.574 3.905-1.355 7.678.363 8.371 4.485.594 3.533.074 7.266-.09 10.904-.051 1.125-.962 1.691-2.13 1.592-1.102-.094-1.911-.656-2.127-1.763-.389-1.99-.257-3.975.291-5.934.516-1.844.75-3.625-1.532-4.971-2.701 1.186-3.29 3.588-3.682 6.313-.345 2.395-1.143 4.733-4.704 2.842m47.057-40.732c1.79-.021 3.123-.034 4.456-.03 8.061.027 8.302.316 6.017 7.982-.542 1.817-.538 3.147 1.443 4.12 1.448.71 2.206 2.01 1.242 4.061-5.595-.518-7.09 3.552-7.868 7.987-.44 2.52-1.442 4.586-4 3.821-2.799-.837-1.318-3.16-.613-5.005.531-1.39.894-2.843 1.233-3.947-.211-1.129-.743-1.491-1.443-1.579-1.447-.181-2.664-.695-2.73-2.345-.068-1.723 1.305-2.18 2.636-2.464 3.959-.848 5.381-3.38 5.127-7.334-2.651 0-5.106-.016-7.56.006-1.673.015-3.667.29-4.055-1.873-.394-2.195 1.568-2.647 3.184-3.077.796-.211 1.648-.211 2.931-.323m-30.83 33.772c2.636-3.56 4.96-7.064 9.899-4.398 1.377.743 2.693 1.613 2.639 3.311-.09 2.784.27 5.245 2.74 7.046.86.628.983 1.731.21 2.653-.94 1.12-2.025.775-3.155.266-1.685-.76-2.962-2.802-5.347-1.291-2.053 1.3-4.376 2.988-6.728.552-2.315-2.398-1.933-5.112-.258-8.14"/>
  <path d="M204.553 102.74c2.922-.08 3.332 2.021 4.04 3.863.89 2.317 1.763 4.643 2.725 6.93 1.146 2.725 2.054 5.673-.637 7.735-2.916 2.235-6.478 3.414-10.248 2.456-1.414-.36-2.627-1.439-2.322-3.274.27-.255.488-.647.735-.667 9.55-.754 9.528-.763 6.284-9.891-.795-2.238-2.534-4.445-.577-7.152m-1.211-6.508c-1.923 2.221-3.371 1.542-4.454-.313-.661-1.133-.282-2.443.995-2.797 2.26-.627 3.844.06 3.459 3.11"/>
</svg>