<svg xmlns="http://www.w3.org/2000/svg" viewBox="0 0 198 153">
  <path d="M150.69 74.72a64 64 0 0 0-5.11 5 26 26 0 0 1-3 2.89c-1.72 1.63-3.06 3.59-4.85 5.13a1.53 1.53 0 0 1-2.45 0c-3.87-3.61-7.41-7.6-11-11.44-2.26-2.41-4.51-4.9-6.81-7.27-2.12-2.16-4.31-4.26-6.26-6.49-1.37-1.51-2.58-3.09-3.82-4.71a48 48 0 0 0-3.62-4.15c-1.77-1.87-3.38-4-5.24-5.78-.41-.37-.36-.64-.1-1.1.51-.91 1.5-1.29 2.2-2 3-3 6.42-5.53 9.45-8.57 1.6-1.6 3.34-3.11 5.09-4.62a62.4 62.4 0 0 0 7-7.33 40 40 0 0 1 3.35-3.18c1.92-1.82 3.94-3.43 5.71-5.41.54-.56.92-.46 1.32.07 2.83 3.52 6.18 6.65 9.29 9.91a62 62 0 0 0 5 5.08 34 34 0 0 1 2.36 2.61c5.35 5.4 10.65 10.84 16 16.31 1.59 1.68 3.14 3.31 4.57 5.13a1 1 0 0 1-.15 1.55 49 49 0 0 1-4.09 4.09 66 66 0 0 0-4.9 4.59c-2.66 2.55-5.39 5-7.93 7.71a15.6 15.6 0 0 1-2 2M160 60.3l-3-2.79c-.36 1.81-1.05 3.18-2.61 3.92a4.61 4.61 0 0 1-4.58-.22.67.67 0 0 0 .39.76 24.7 24.7 0 0 1 3.47 3c.75.66 1.46 1.35 2.16 2 .19.2.49.37.16.67s-.51.17-.81-.08l-.26-.28c-1.83-1.61-3.45-3.48-5.44-4.94a.87.87 0 0 0-1.33 0 64 64 0 0 1-4.73 4.44c-.6.4-.55 1 0 1.44 1.79 1.65 3.5 3.29 5.24 5 1.12 1.07 1.43 1.08 2.5 0 .12-.11.16-.22.29-.33 1.68-1.67 3.24-3.39 5-5s3.39-3.22 5-4.93a.71.71 0 0 0 .09-.89c-.28-.71-1-1.06-1.51-1.75M114.69 48.2c-1.34 1.22-1.34 1.22-.12 2.48 2 2.17 4 4.37 6 6.57.56.61 1 .74 1.67.19 1.83-1.5 3.35-3.26 5.07-4.89a.54.54 0 0 0 .08-.81c-.48-.61-.88-1.29-1.43-1.9a63 63 0 0 1-5.2-5.9c-.4-.61-.87-.47-1.36 0a117 117 0 0 0-4.73 4.29m-2 15a11 11 0 0 0 .89.9c.26.2.49.29.78 0 2-1.7 3.94-3.36 5.89-5.05.45-.41.39-.72 0-1.13-2.14-2.52-4.6-4.82-6.77-7.3a.67.67 0 0 0-1.09-.05c-2 1.65-4.05 3.3-6.08 5 2.18 2.41 4 5.1 6.36 7.6m5-23c-1.36-1.67-3-3.11-4.45-4.66a.89.89 0 0 0-1.51 0c-1.8 1.79-3.72 3.52-5.59 5.22-.45.41-.39.64-.05 1 2 2.24 4.06 4.56 6.25 6.65a.67.67 0 0 0 1.09 0c.7-.71 1.43-1.29 2.16-2 1.06-1 2.16-2 3.18-3 .82-.74.79-1 .13-1.82a11.5 11.5 0 0 1-1.21-1.42M144 37.05c.65-.51 1.29-.94 1.94-1.46a8.1 8.1 0 0 0 1.8-1.59.87.87 0 0 0 .09-1c-.42-.88-1.3-1.35-1.92-2-1.71-1.8-3.53-3.49-5.08-5.35-.4-.45-.71-.54-1.2-.1-1.59 1.44-3.26 2.88-4.84 4.32a.83.83 0 0 0-.07 1.24 84 84 0 0 0 6.49 7.48c.33.37.57.3.93.05a10.8 10.8 0 0 0 1.86-1.59m-20 34.23c1.3-1.19 2.57-2.41 3.79-3.59.29-.26.72-.44.36-.92a89 89 0 0 0-6.2-6.92.84.84 0 0 0-1.25-.07c-1.9 1.51-3.69 3.13-5.49 4.76-.57.52-.59.9-.06 1.4 1.15 1.1 2.3 2.21 3.41 3.36s2 2.08 2.85 3.13c.48.53.87.55 1.36 0a8.2 8.2 0 0 1 1.23-1.15m6.47-21.69 2.9-2.85c.9-.89.91-1.13 0-2.1-1.14-1.34-2.32-2.73-3.5-4a28 28 0 0 0-2.55-2.81c-.41-.37-.79-.55-1.17-.06a55 55 0 0 1-5 4.47c-.49.44-.31.8 0 1.24 2.09 2.56 4.47 4.86 6.52 7.53a.68.68 0 0 0 1.13.09l1.63-1.48m9.2-11.38a76 76 0 0 1-5.63-6.63.6.6 0 0 0-1-.12L128 36a.82.82 0 0 0-.1 1.28c2.14 2.44 4.47 4.77 6.45 7.36a.66.66 0 0 0 1.13 0c1.31-1.42 2.81-2.63 4.2-4 1.23-1.11 1.23-1.11.12-2.33.07 0 0 0-.11-.2m-16 22.34a55 55 0 0 1 4.46 5.09c.55.77 1 .79 1.71.16 1.7-1.4 3.19-3 5-4.31.57-.44.51-.91.07-1.4-1.33-1.47-2.66-2.93-4-4.48l-2.07-2.28a.84.84 0 0 0-1.36 0c-1.67 1.6-3.16 3.31-4.94 4.78-.57.44-.51.91 0 1.37.29.33.67.66 1.07 1.1m-2.58-30.84c1.74 1.83 3.48 3.67 5.18 5.55.41.44.75.65 1.28.17 1.43-1.44 3-2.61 4.56-4 1-.92 1-1 .09-2-2-2.28-4.34-4.3-6.25-6.65-.37-.49-.68-.42-1.13 0a36.6 36.6 0 0 0-3.81 4c-1.4 1.41-1.4 1.41.08 3m12.58 46.13-4.81 4.36c2.1 2.55 4.49 4.54 6.64 6.75.74.74 1.26.49 1.87-.07 1.55-1.32 2.76-3 4.27-4.38.37-.33.34-.69 0-1.09l-5.09-5.63c-1.3-1.42-1.15-1.34-2.72-.13l-.13.19m6.49-19.54c.36-.26.69-.55 1.09-.84.72-.51.71-1 .08-1.63a19 19 0 0 1-1.75-1.69c-1.36-1.58-2.72-3.24-4-4.87-.52-.65-1-.67-1.56-.07-1.47 1.4-2.86 2.82-4.37 4.18-.65.59-.55 1 0 1.64 1.85 2 3.69 4.15 5.5 6.22 1 1.06 1.35 1.08 2.26 0a15.8 15.8 0 0 1 2.79-2.9m-24.67-19.51a36.7 36.7 0 0 1 3.94 4.59c.51.73.82.74 1.51.11 1.55-1.4 3.14-2.84 4.73-4.2.53-.48.59-.91.11-1.44-2-2.16-4-4.28-5.91-6.52-.6-.65-1-.55-1.56 0a44 44 0 0 1-3.84 3.71 5.2 5.2 0 0 0-1 .84.59.59 0 0 0 0 .94c.64.62 1.27 1.23 2 2M144.45 44a33 33 0 0 1-2.45-3c-.41-.45-.71-.54-1.2-.1-1.55 1.4-3.1 2.88-4.69 4.25-.53.48-.51.83-.07 1.4 1.1 1.45 2.4 2.72 3.54 4.14a21.3 21.3 0 0 0 2.42 2.7.88.88 0 0 0 1.33 0c1.46-1.33 2.93-2.66 4.44-4 .57-.52.51-.91 0-1.44l-3.39-4m-16.3-24.28a11 11 0 0 1-1.39 1.33c-.72.43-.66.83-.18 1.36 2.22 2.36 4.44 4.65 6.66 7a.59.59 0 0 0 .94.05l4.48-4.07a1 1 0 0 0 0-1.67c-2.15-2.21-4.26-4.53-6.37-6.78-.44-.48-.79-.39-1.16 0a30 30 0 0 1-2.95 2.82m-17.57 28a64 64 0 0 1-4.84-5.34c-.43-.56-.86-.62-1.43-.11-1.51 1.45-3.1 2.89-4.69 4.25-.61.56-.59.91 0 1.44 1.82 1.84 3.35 3.94 5.21 5.75.41.37.54.92 1.11 1.22a4.5 4.5 0 0 1 1.35-1.37c1.09-.77 2.18-1.53 3.19-2.38 2-1.5 2-1.54.13-3.46m26.51 24.89c-1.22 1.11-1.23 1.35 0 2.54a32 32 0 0 1 2.37 2.45l2.55 2.86c.56.61 1 .71 1.64.08 1.43-1.53 2.87-3 4.38-4.42 1.1-1.07 1.15-1.27 0-2.33-1.71-1.65-3.42-3.21-5.13-4.85a.92.92 0 0 0-1.36-.11 51 51 0 0 0-4.47 3.83M145.3 37a15.6 15.6 0 0 0-2.19 1.76c-1.18 1-1.15 1.19-.12 2.41s2 2.24 2.91 3.38 1.77 2 2.65 3.08c.19.21.45.49.77.28s.26-.46.19-.77a5.3 5.3 0 0 1-.15-.83c-.4-2.9 1.16-4.61 4.11-4.47a4 4 0 0 1 2.08.57.54.54 0 0 0 .74 0c.28-.26.1-.54-.08-.75a5.4 5.4 0 0 0-.81-1c-2.05-1.93-3.85-4.16-5.94-6.06-.44-.41-.71-.46-1.12-.09a23 23 0 0 1-3 2.46m22.09 20.36a11 11 0 0 0 .94-.85c.5-.6.83-1.13.13-1.83-1.41-1.47-2.66-3-4-4.55-.55-.61-.94-.56-1.62-.16-2.13 1.34-3.74 3.24-5.69 4.78-.81.66-.78.86 0 1.64a10 10 0 0 1 .92 1c1.3 1.27 2.64 2.58 4 3.81.3.25.6.58 1 .21a24 24 0 0 0 4.32-4.07m-36.45 20 3.14-2.85c.49-.44.54-.79.1-1.28-1-1.06-1.92-2-2.8-3.17a22 22 0 0 0-1.89-1.92.51.51 0 0 0-.86 0c-1.72 1.63-3.58 3.1-5.11 4.85a1.09 1.09 0 0 0 .15 1.72c1.54 1.29 2.67 2.86 4.08 4.25.22.25.4.61.86.71a29 29 0 0 1 2.33-2.34M139 70a12.3 12.3 0 0 1 1.79-1.62c1-.89.91-1.13 0-2.07a75 75 0 0 1-3.6-3.72c-.88-1-1.19-1.14-2.28-.22-1.3 1.1-2.46 2.37-3.91 3.39a4 4 0 0 0-.82.81.74.74 0 0 0 0 1.13l4.43 4.89c.55.61 1 .63 1.56 0A12.7 12.7 0 0 1 139 70m4.09-3.92a35 35 0 0 0 4-3.59c1.22-1.18 1.22-1.11.07-2.29-1.33-1.39-2.55-2.81-3.84-4.24a.82.82 0 0 0-1.32-.14 28 28 0 0 0-4.58 4.45c-.53.63-.48 1 .05 1.52 1.44 1.51 2.93 3 4.37 4.5.44.48.8.31 1.3-.21m13.66-21.45a3.53 3.53 0 0 1-2.39 4.24 4.5 4.5 0 0 1-3.25-.39c-.34-.21-.8-.39-1.13.06s.08.74.38 1c1.64 1.41 3 3.11 4.6 4.59.86.78 1 .83 1.87 0a55 55 0 0 1 5.53-4.79c.56-.36.58-.75.14-1.24-1.59-1.67-3.06-3.46-4.86-5-.26-.21-.48-.38-.77-.12s-.64.44-.39.88c.06.23.17.43.27.79m-8.21 12.72a5.3 5.3 0 0 1 2.34-2.57c1.16-.61 2.29.15 3.45.28a.5.5 0 0 0 0-.19 29 29 0 0 0-5.08-5.19.53.53 0 0 0-.74.08l-4.76 4.32a.71.71 0 0 0-.06 1.16c1.48 1.63 2.92 3.22 4.44 4.82a1.2 1.2 0 0 0 1 .51c-.58-1-1.31-1.93-.62-3.22m19-37.81c-.45-.34-.87-.63-1.24-.88-1.73-1.25-1.4-1-3 .2-1.13.8-1.89 2-3.1 2.81-.48.29-.46.72 0 1a5.5 5.5 0 0 0 1.43.93c1 .28 1.54 1.2 2.45 1.72a.46.46 0 0 1 .12.7c-.29.34-.59.09-.81-.08-1.12-1.06-2.57-1.68-3.77-2.67a1 1 0 0 0-1.55 0 26 26 0 0 1-2.28 1.71c-.8.58-.9 1-.11 1.51 1.85 1.3 3.32 3 5.17 4.22.3.17.6.5.35.8s-.63.12-1-.09a24.3 24.3 0 0 1-3.56-2.94c-.78-.62-1.61-1.28-2.44-1.87s-.85-.93 0-1.55A112 112 0 0 0 163 18l.29-.26c1.34-1.22 1.34-1.22 2.93-.2a60 60 0 0 0 5.09 3.46c.31.17.45.41.24.75s-.49.44-.79.11c-.92-.94-2.18-1.43-3.19-2.29m9.43 7.15c1 .12 1.4.88 1.71 1.64a1 1 0 0 1-.69 1.44c-.56.21-.65.52-.64 1.1.1 1.17-.47 1.69-1.6 1.6a3.26 3.26 0 0 1-2.68-2.39c-.06-.39-.12-.86.43-.92s.41.38.47.69a2.3 2.3 0 0 0 1.55 1.71.72.72 0 0 0 .83-.15.57.57 0 0 0-.08-.82 5.8 5.8 0 0 0-.88-1.14.51.51 0 0 1-.12-.7c.17-.23.4-.14.66 0a4.3 4.3 0 0 0 .69.27c.43.06 1 .2 1.07-.3s-.35-.88-.89-1c-.35-.06-.86.19-.84-.35s.54-.64 1-.69m-37.4-4.4c-.12-.63.15-.74.66-.67a2.9 2.9 0 0 0 1.28 0c.18-.53-.18-1.1 0-1.67.05-.27 0-.7.46-.64s.37.4.39.68.05.62.07.9c.09.66.38 1.07 1.13.91.31-.06.82-.16.87.39s-.45.56-.72.51c-.93 0-1 .5-.76 1.13.07.16.1.36.17.52.06.31.13.63-.27.76a.55.55 0 0 1-.68-.42 3.4 3.4 0 0 1-.19-.87c-.14-1.21-.17-1.25-1.46-1.27-.3-.1-.66 0-.92-.28M173 50.5c.42.3.24.68.19 1-.16.73.14 1 .88 1 .39 0 1.18-.25 1.15.45s-.72.35-1.11.33c-.74 0-.8.43-.79 1s.3 1.15-.29 1.24-.55-.69-.61-1.16c0-1.09 0-1.09-1.2-1-.35 0-.82.16-.84-.35s.46-.48.77-.47c.93 0 1.26-.32 1.19-1.3a.63.63 0 0 1 .66-.83M170.73 29c0-.47.34-.69.63-.95 1-.92 2-1.88 3-2.81.25-.22.5-.52.83-.23s.06.55-.15.81a6.6 6.6 0 0 1-1 1 15 15 0 0 0-2.49 2.33c-.36.34-.64.44-.84-.19M63.3 120.29a59 59 0 0 0 2.39-10.63c.36-2.58.7-5.1 1.22-7.69.66-3.12 1.36-6.18 2.07-9.29a2.6 2.6 0 0 0 .07-1.91c-.15-.32.2-.57.48-.78s.5 0 .61.26a.87.87 0 0 0 .52.41 64 64 0 0 0 7.08 1.86c1.57.28 3.07.87 4.66 1.09 5.52.8 10.85 2.62 16.39 3.59a7.4 7.4 0 0 1 1.48.43c5.08 1.47 10.27 2.47 15.5 3.54 2.22.43 4.43.86 6.66 1.24 1.14.22 1.22.36 1 1.49-1.21 5.6-3.16 11-4.63 16.48-.89 3.18-1.8 6.41-2.6 9.61-.56 2.3-.79 4.62-1.47 6.89-1 3.32-1.39 6.79-2.11 10.18-.21.86-.35.94-1.15.74-3.32-.76-6.61-1.69-10-2.24-1.68-.3-3.41-.89-5.06-1.3-4-.93-8-1.82-12.1-2.87-3.67-1-7.25-2.07-10.93-3-1.5-.37-3.07-.42-4.55-.84-1.81-.5-3.62-.95-5.42-1.45-1.29-.32-2.65-.54-3.94-.8a1.8 1.8 0 0 1-1.06-.55c.79-.42.88-1.25 1.17-2 1.24-3.66 2.38-7.35 3.46-11.05a6.4 6.4 0 0 1 .25-1.46m33 2.31a5 5 0 0 1-.37 1.27c-.4.69-.19 1 .54 1.26l7.69 2.58c1 .35 1.16-.34 1.32-1 .71-2.43 1.33-4.94 2.2-7.33.3-.72 0-1.07-.71-1.25-2.69-.55-5.38-1.16-8.11-1.78-.59-.14-.86 0-1 .66-.45 1.81-1 3.6-1.55 5.57m-10-7.07a13 13 0 0 0-.29 1.4c-.35 1.44-.67 2.95-1.08 4.38-.17.7 0 1 .69 1.13s1.33.33 2 .44a62 62 0 0 1 6.32 1.45c.58.19 1 .14 1.27-.54a67 67 0 0 0 2-7.11c.1-.42 0-.66-.5-.74-2.72-.45-5.35-1.26-8.07-1.94-1.83-.39-1.83-.39-2.31 1.53m-8-4.06-1.71-.42c-.53-.13-.74 0-.87.58-.48 2.38-1 4.75-1.49 7.17-.2.8 0 1.18.85 1.4 2.69.77 5.57.81 8.3 1.7.41.16.7-.11.76-.55.31-2.41 1.25-4.62 1.67-7 .12-.71 0-1.08-.73-1.2-2.28-.4-4.44-1-6.78-1.68m37.82 15.6c.4-1.66.88-3.35 1.39-5 .33-1.11.27-1.07-.79-1.39a36 36 0 0 1-4.19-.92c-1-.36-2-.55-3-.86-.57-.2-.85 0-1.1.58-1.06 2.46-1.48 5.07-2.33 7.58-.35 1-.13 1.22 1 1.43s2.37.47 3.6.55c1.39.11 2.68.6 4 .71.5 0 .76-.1.89-.63s.37-1.27.57-2.07M82.46 140.2c2.29.61 4.64 1.19 6.93 1.76.54.13 1.1.38 1.32-.52.5-2.26 1-4.45 1.6-6.69.13-.54 0-.86-.55-1-2.83-.7-5.66-1.39-8.52-2-.54-.14-.92.05-1 .53-.65 2.17-1.24 4.34-1.83 6.52-.11.42 0 .85.52.86a15 15 0 0 0 1.57.51m-4.24-18.61c-1.2-.19-2.39-.42-3.57-.71-.48-.12-.88-.11-1 .48a50 50 0 0 1-1.88 6.22c-.27.9 0 1.36.93 1.53.59.15 1.25.2 1.85.29l6.69 1.14c.49.07.75 0 .87-.52.58-2.12 1.16-4.25 1.58-6.41.11-.71-.1-1-.74-1.14a47 47 0 0 0-4.71-.88m.28-20.89c-.29.72 0 1.18.72 1.42.58.2 1.09.44 1.67.58l5.05 1.11c2.42.54 2 .77 2.6-1.57l1.2-4.86a1.18 1.18 0 0 0-.86-1.57c-2.65-1-5.47-1-8.2-1.68-.48-.12-.78.2-.85.7a54 54 0 0 1-1.34 5.9M102 142.75l-.1.43c-.37 1.49-.25 1.69 1.27 1.95a42 42 0 0 1 5.19 1.23c.79.25 1.6.39 2.41.59.37.09.77.08.9-.46a47 47 0 0 0 1.31-6.7c0-.4-.08-.58-.45-.68a53.6 53.6 0 0 0-8.13-2.17c-1.08-.21-1.42 0-1.51 1a27.4 27.4 0 0 1-.89 4.77m-18.89-13.63c-.47 1.92-.65 1.71 1.37 2.26 2.4.6 4.91 1 7.27 1.74.58.2 1 0 1.07-.64.27-2 1-3.89 1.45-5.88.19-1 0-1.3-1-1.61-2.6-.69-5.21-1.17-7.84-1.76-.69-.17-1 0-1.08.7-.3 1.68-.77 3.38-1.22 5.19m14-22.93 2.67.65a1.26 1.26 0 0 0-.63-.89 3 3 0 0 1 .45-5 5.8 5.8 0 0 1 1.49-.54c.64-.07.62-.64.72-1.07s-.24-.4-.51-.46c-3-.91-6-1.55-9.09-2.19-1.61-.34-1.65-.63-1.85 1.3a1.5 1.5 0 0 1-.17.69c-.66 1.54-.74 3.22-1.29 4.78-.17.47-.08.78.45.91 2.57.63 5 1.41 7.76 1.86M74.39 138a30 30 0 0 1 4.15 1.08c.64.16.95.07 1.17-.61.52-1.86 1.08-3.7 1.65-5.54.4-1.38.41-1.43-1-1.72-2.79-.63-5.66-.72-8.41-1.51-.48-.12-.67.18-.76.55-.35 1.21-.76 2.42-1.08 3.7-.29 1-.46 1.87-.72 2.93l1.81.45a9.2 9.2 0 0 1 3.18.67m26.06 6.43c.53-.09.47-.56.55-.88.57-2.07.88-4.26 1.24-6.38.1-.66-.13-.88-.71-1-1.72-.36-3.49-.8-5.17-1.33-.79-.25-1.55-.38-2.35-.58a.66.66 0 0 0-.92.51c-.41 1.88-1 3.71-1.27 5.64s-.16 1.77 1.63 2.33c2.26.72 4.59 1.13 7 1.72m-30.87-35.15A14 14 0 0 0 68 109c-.93-.12-1.28.13-1.5 1-.43 2-.83 4-1.26 6-.33 1.57-.33 1.57 1.15 2 2 .54 4 1 6 1.53.43.1.81.14 1-.43a76 76 0 0 0 1.61-7.71.64.64 0 0 0-.48-.8 40 40 0 0 0-5-1.28m8-16a49.5 49.5 0 0 1-6.2-1.7c-1.21-.41-1.46-.3-1.62.79-.23 2.09-1 4.11-1.24 6.21-.07.72.11.93.75 1.09a24 24 0 0 1 3.92.85 24 24 0 0 0 3.35.89c.48.11 1 .13 1.15-.51.46-2.1 1.13-4.14 1.49-6.27.09-.6-.05-1-.69-1.13zm27.52 37a31.6 31.6 0 0 1-1.27 4.44c-.31 1.06-.27 1.12.8 1.39l6.24 1.54a18 18 0 0 0 2.43.71 42.3 42.3 0 0 0 1.86-7.3c.08-.55-.25-.57-.68-.68-2.46-.61-5-.77-7.44-1.32-1.45-.31-1.45-.31-1.94 1.22m9.38-20.12a33.5 33.5 0 0 1 5.17 1.1c.57.2 1 .2 1.21-.55.5-2 1-4 1.54-6 .34-1.39.3-1.46-1.11-1.69-2.08-.29-4.08-.67-6.13-1.12a1.23 1.23 0 0 0-1.68.84 62 62 0 0 0-1.7 6 .76.76 0 0 0 .65 1.06 12 12 0 0 1 2 .4m-18.18-3.47c-2.09-.46-4.26-.88-6.3-1.55a2 2 0 0 0-.6-.09c-.28 0-.56 0-.64.29s.19.39.39.49a2.74 2.74 0 0 1 1.53 1.63 3.52 3.52 0 0 1-2.9 4.61c-.34 0-.7.11-.7.56s.39.49.71.57c.69.17 1.4.29 2.08.52 2 .48 3.92 1.08 5.87 1.45s1.74.54 2.13-1.29c0-.16.13-.31.19-.52a43 43 0 0 0 1.4-5 .77.77 0 0 0-.66-1 13.3 13.3 0 0 0-2.5-.68m6.85 27.58a43 43 0 0 0 1.43-5.09c.1-.42-.14-.6-.45-.73-.78-.25-1.5-.54-2.29-.79-1.89-.64-3.78-1.22-5.66-1.85a.67.67 0 0 0-1 .55 60 60 0 0 0-1.49 6c-.06.72.1 1 .79 1.16 2.3.57 4.57 1.24 6.91 1.87 1.26.37 1.38.35 1.75-1.15m9.32-30.9a4 4 0 0 0 .24-.5c.5-1.35.48-1.47-1-1.78-2.63-.59-5.28-1.07-7.94-1.78-.91-.23-1.33.12-1.45 1 0 .44.29.64.52.87a3.5 3.5 0 0 1 .79 3.48 2.51 2.51 0 0 1-2.36 1.74c-.17 0-.51 0-.53.32.16.27.45.23.72.29 1.61.35 3.28.7 4.89 1.1 1 .25 2 .6 3 .85 1.28.32 1.48.2 1.8-1.08a28 28 0 0 1 1.29-4.56m-43.01 24.93c1.3.27 1.3.27 1.72-1 0-.11.11-.2.13-.31a36 36 0 0 0 1.65-5.76c.1-.38.08-.78-.36-.83-2.64-.54-5.1-1.82-8.13-1.72l-1.53 6.19c-.36 1.5-.32 1.56 1.21 2 1.71.42 3.46.91 5.31 1.42m-1.82-25.2a38 38 0 0 0-.75 4.86c.6.09 1.14.22 1.67.35l5.88 1.45c.69.17 1 0 1.19-.72.62-2.06.87-4.21 1.6-6.24.17-.47-.07-.64-.5-.74-.69-.18-1.41-.24-2.09-.46a49 49 0 0 0-5.61-1.39c-.64-.16-1 0-1 .78s-.26 1.29-.4 2.11m9.65 2.66c-.28 1.12-.55 2.25-.88 3.35-.24.74 0 1.07.71 1.26 2.59.75 5.13 1.49 7.77 2 .48.11 1.15.62 1.41 0s-.44-1-.92-1.3a2.45 2.45 0 0 1-.65-3.56 3.66 3.66 0 0 1 2.6-1.85c.3 0 .6-.13.59-.53s-.29-.42-.57-.43a50.7 50.7 0 0 1-8.38-2.12c-.61-.27-1 0-1.1.58-.14.81-.34 1.61-.58 2.57m27.82 3c-1.29-.27-2.57-.58-3.82-.83a.67.67 0 0 0-.94.61c-.38 2-1.15 4-1.64 6-.27 1.12-.2 1.3 1 1.42a48 48 0 0 1 4.89 1c1.19.23 2.41.59 3.74.92-.25-.8-.77-1-1-1.38-1.56-2.6 0-4.75 2.28-5.56.37-.13.86 0 1-.82ZM66 128.08c-.58-.2-1.21-.41-1.79-.55-2.13-.58-2-.66-2.51 1.19 0 .11-.1.2-.13.31l-1.45 4.51c-.28.9 0 1.24.85 1.35a66 66 0 0 1 6.51 1.43c.74.18 1.12.05 1.37-.74a50 50 0 0 1 1.62-5.58c.26-.61 0-.85-.61-1-1.29-.26-2.52-.56-3.89-1m44-10.38-.88.12a38 38 0 0 0 8.4 2c.44 0 .63-.25.72-.62.59-2 1.19-3.9 1.79-5.9.32-1.06.25-1.24-.88-1.47-2.42-.54-4.85-1-7.22-1.49-.16 0-.38-.1-.5.16 0 .06.07.18.13.2 1.68.3 2 1.74 2.25 3 .36 2-1.33 3.76-3.81 3.94m-16.2-42.27c.24-.28.27-.84.8-.71s.48.57.5 1c0 1.59-.17 3.19-.11 4.79a56 56 0 0 0 .38 6c.08.36.11.71-.3.78s-.55-.31-.58-.65c-.06-1.15-.18-2.26-.18-3.39 0-.58-.23-.91-.77-1-.8-.2-1.55-.38-2.33-.63a1.25 1.25 0 0 0-1.64.67 36 36 0 0 1-2.31 3.17c-.18.24-.4.69-.73.44s-.13-.65.11-.93c1.64-2 3.16-4.1 4.7-6.21a35 35 0 0 1 2.46-3.3M93 81.15c.87.16 1.21-.1 1.16-1s.11-1.61.08-2.41A2.4 2.4 0 0 0 94 76l-3.13 4.43 2 .68m8.14 8.12c.34.2.46.4.17.67a1.24 1.24 0 0 1-1 .26.82.82 0 0 1-.59-.83 3.3 3.3 0 0 1 .55-1.56c.21-.4.48-.79 0-1.19-.6.14-.78.66-1 1.16-.11.21-.17.47-.28.67s-.25.56-.56.43-.33-.48-.27-.74a6.3 6.3 0 0 0 .5-1.35 1.5 1.5 0 0 0 0-.58 2.67 2.67 0 0 0-1.49 1.9 10 10 0 0 0-.37 1.27.43.43 0 0 1-.48.34c-.33 0-.34-.26-.38-.55a2.1 2.1 0 0 1 .24-1 8.4 8.4 0 0 0 .58-2.58c0-.33-.14-.82.33-.88s.39.49.66.79c.57-.26 1.2-.5 1.69.24 0 .07.21.06.33 0a1.35 1.35 0 0 1 1.44 2c-.17.46-.61.86-.6 1.49a1.3 1.3 0 0 1 .58 0M113 80.88c.23.46-.16.65-.33.89a5.5 5.5 0 0 0-1.27 1.72c.14.32.44.28.66.28.39 0 .63.21.53.64a.55.55 0 0 1-.74.44c-.94-.52-1.33.12-1.77.75s-.7 1-1.11 1.54c-.18.24-.32.6-.67.4s-.13-.6 0-.84c.49-.61.94-1.29 1.43-1.91-.08-.13-.12-.2-.17-.21-.36-.15-1.08 0-1-.64s.7-.28 1-.31.56 0 .74-.22c.43-.62.82-1.27 1.27-2-.87-.38-1.72-.14-2.5-.44-.36-.15-.8-.2-.68-.68s.59-.31.91-.23a8.5 8.5 0 0 0 2.57.35 2.06 2.06 0 0 1 1 .42m-40.95 7.8c-.51.45-.87.3-1.08-.21a3.1 3.1 0 0 0-.59-.82 4.7 4.7 0 0 0-1.27.76c-.26.16-.53.55-.82.14s.06-.72.38-.87c.89-.4 1.29-.87.55-1.79a.34.34 0 0 1 .07-.49c.37-.14.55.08.71.34.29.64.68.68 1.29.27.28-.22.76-.78 1-.37s-.38.64-.62.92a3 3 0 0 1-.42.35c-.24 1 .76 1 .75 1.77m52.09 10.19c.59.15.76-.32 1-.54s.51-.66.86-.24-.15.59-.39.87a.53.53 0 0 1-.28.21c-.68.46-.85.93-.29 1.63.18.22.49.57 0 .8s-.6-.09-.75-.41c-.36-.82-.82-.77-1.41-.23-.23.22-.53.54-.84.19s0-.62.33-.89.55-.37.81-.53c-.08-.36-.17-.67-.27-1s-.24-.62.13-.76.46.23.63.44a4 4 0 0 1 .4.44m-18.21-11.17a4.57 4.57 0 0 1-.05 3.22 1.51 1.51 0 0 1-1.93.94 1.15 1.15 0 0 1-.77-1.5c.24-.05.32.08.4.22a.72.72 0 0 0 .84.49.91.91 0 0 0 .76-.78 4.8 4.8 0 0 0 0-2.39c-.1-.3-.53-.64 0-.8s.63.21.81.6" fill="#010101"/>
  <path d="M104.05 89.21c.08.36 0 .63-.24.73s-.49-.06-.65-.33a1.5 1.5 0 0 0-.67-.5 1 1 0 0 1-.65-1.29 1.37 1.37 0 0 1 1.24-1.11c.47-.06 1 .74.84 1.39a1.1 1.1 0 0 0 .13 1.11m-64.7-17.77c-1.24-3.36-2.39-6.62-3.7-9.84-1.48-3.67-2.9-7.37-4.45-11.07-1-2.49-2.16-4.89-3.29-7.29-.3-.65.06-.79.53-1l6.86-2.54 10-3.7c6.81-2.52 13.59-5 20.38-7.55 2.37-.87 4.74-1.93 7-3 1.75-.82 3.7-1.25 5.48-2.15a.81.81 0 0 1 1.21.56c1.07 3.06 2.4 6 3.43 9.11.73 2.13 1.48 4.32 2.31 6.41.91 2.3 1.52 4.72 2.51 6.93.5 1 .63 2.35 1.69 3.13.07 0 .11.14.14.24.43 2.89 1.91 5.45 3 8.12.89 2.25 1.8 4.55 2.59 6.84a5.6 5.6 0 0 0 .53 1.27c.51.75.21 1-.51 1.3-2.58 1-5.18 1.86-7.67 2.9-3.26 1.32-6.66 2.29-9.9 3.67-2.39 1-4.81 2.07-7.25 2.91-4.4 1.57-8.48 4-13 5.28-3 .89-5.86 2.23-8.79 3.2a8.4 8.4 0 0 0-3.38 1.48 2.83 2.83 0 0 1-.92-2 47 47 0 0 0-4-11.15c-.25-.67-.49-1.34-.83-2.09m12.56-29.65a54 54 0 0 1-2.13-5.43c-.23-.62-.55-.86-1.19-.68-1 .24-1.78.72-2.68 1-1.88.64-3.66 1.53-5.55 2.12-1 .33-1.1.52-.73 1.5.76 2.06 1.75 4.1 2.31 6.24.25.85.65 1 1.48.68 2.58-1 5.13-1.83 7.7-2.79 1.66-.61 1.7-.8.79-2.63M57 81.33A59.5 59.5 0 0 0 65.25 78c.65-.3.76-.63.53-1.25-.94-2.2-1.85-4.5-2.78-6.75-.23-.62-.58-.61-1.13-.35-2.66 1-5.32 2.09-8 3.08-.56.21-.87.5-.62 1.17l2.58 7c.12.48.44.71 1.11.46m-3.11 1.1c1.44-.54 1.44-.54.94-2.05-.64-1.88-1.43-3.7-2-5.61l-.22-.8a.76.76 0 0 0-1-.44c-2.64 1.1-5.47 1.85-8.12 3-.59.28-.72.56-.5 1.18a37 37 0 0 1 2 6.25c.31 1.47.34 1.4 1.82 1 2.33-.69 4.68-1.62 7.18-2.48m-23-40.33c-2.09.83-2.09.83-1.28 2.88l.14.36c.73 1.66 1.5 3.25 2.28 4.9.22.44.36 1 1.1.76 2.52-.81 4.9-1.81 7.42-2.62.95-.3 1.07-.75.74-1.8-.75-2.19-1.71-4.3-2.56-6.44a.79.79 0 0 0-1.08-.54 5 5 0 0 0-.93.34 34 34 0 0 1-5.83 2.16M67.44 77c2.54-.76 4.92-1.94 7.37-2.91.47-.17.93-.34.72-.91a41 41 0 0 0-3-7.23.7.7 0 0 0-1-.31c-.71.32-1.34.67-2.06.94-1.75.65-3.54 1.37-5.26 2.12-.65.3-.76.63-.48 1.23.89 2.08 1.79 4.21 2.73 6.27.14.36.2.86 1 .8m-18-21c-.72.26-1.46.48-2.23.77s-.8.53-.55 1.2c.74 2 1.81 4 2.45 6 .16.41.42.49.87.44a8.9 8.9 0 0 0 2.55-.89c2-.79 3.93-1.74 6-2.56.77-.28 1-.68.68-1.48-.75-1.72-1.45-3.45-2.15-5.19a1 1 0 0 0-1.47-.63c-2 .9-4 1.32-6.12 2.33m21.92-22.64c.21.57.42 1.14.57 1.72a.83.83 0 0 0 1.33.57c2.43-1.19 5.13-1.66 7.54-2.91.79-.41.9-.74.61-1.52-.78-2.11-1.85-4.06-2.46-6.21-.2-.69-.64-.76-1.25-.53-2.38.88-4.75 1.75-7.07 2.79-.8.35-1 .78-.69 1.6.46 1.41.88 2.85 1.42 4.46M89 59.52c-1.84.57-3.59 1.39-5.47 1.85-.59.16-1.08.41-.82 1.13a41.6 41.6 0 0 0 2.73 6.26c.63 1.06.82 1.1 2 .68 2.2-.87 4.34-1.72 6.56-2.54.57-.21.75-.51.54-1.08a62 62 0 0 0-2.34-6.64c-.19-.52-.56-.56-1-.39s-1.26.41-2.14.73m-40.5 5.11a1 1 0 0 0 0-.35c-.84-2.1-1.67-4.19-2.56-6.27-.17-.46-.51-.57-1-.38-2.56 1-5.29 1.54-7.82 2.65-.75.34-.86.68-.61 1.35L39 67.76a.62.62 0 0 0 .92.42c2.62-.85 5.24-1.7 7.85-2.73a1.33 1.33 0 0 0 .81-.82m5.51 7.28c2.47-.92 5-1.78 7.37-2.9.75-.34.92-.7.63-1.47-.63-1.7-1.28-3.45-1.86-5.18-.42-1.13-.49-1.16-1.55-.71L50.47 65c-.62.23-.59.63-.4 1.15l2 5c.57 1.2.64 1.24 2 .74m6.67-37.6c.49 1.34 1 2.63 1.52 4 .26.72.69 1.09 1.55.71.65-.3 1.36-.45 2-.69 1.7-.63 3.51-.83 5-1.93.32-.23.61-.4.44-.86A58 58 0 0 0 69.11 29c-.3-.65-.74-.72-1.41-.47a50 50 0 0 1-5.46 1.9c-.63.18-1.19.56-1.81.79-.42.15-.42.45-.41.8a10.6 10.6 0 0 0 .72 2.25m-1.65 6.48c.7-.32 1.35-.62 2.07-.89s.71-.61.48-1.23a56 56 0 0 1-2.31-6.24c-.16-.59-.47-.65-1-.46-2.35.93-4.72 1.81-7.09 2.69-1 .36-1.19.61-.75 1.62l2.44 6.14c.27.72.73.84 1.45.58a48 48 0 0 1 4.7-2.21M77.84 63.4a34 34 0 0 0-3.77 1.22c-.8.24-.95.77-.55 1.38a43.6 43.6 0 0 1 2.77 6.54.84.84 0 0 0 1.31.51 44 44 0 0 1 6.65-2.46c.74-.22 1-.59.57-1.32A62 62 0 0 1 82 62.75a.85.85 0 0 0-1.32-.57zm-33.68 12 1.08-.4c1.94-.78 4-1.14 5.93-2.19.5-.25.8-.53.51-1-.86-1.68-1.37-3.54-2.12-5.26-.28-.6-.67-.86-1.27-.58-2.58 1.13-5.32 1.79-7.9 2.74-.83.31-1 .73-.68 1.49.64 1.41 1.34 2.84 1.93 4.27.66 1.63.66 1.63 2.31 1l.21-.08m9.47-29.72c-.51-1.22-.59-1.25-1.77-.81L46.18 47c-.87.33-1.73.7-2.61 1-.31.11-.67.24-.57.68s.49.35.81.28l1-.19A2.68 2.68 0 0 1 48 51.42 4.38 4.38 0 0 1 46.41 55c-.32.23-.62.52-.38 1s.63.12 1 .06c1.57-.35 3-1.11 4.51-1.61 1.3-.43 2.54-.89 3.85-1.31.74-.22.9-.57.64-1.29-.82-2-1.56-4.06-2.36-6.23M90.83 58c.57-.21.77-.46.42-1.09a11 11 0 0 1-.7-1.74 30.5 30.5 0 0 0-1.68-4.07c-.3-.47-.49-.52-1-.33-1.76.48-3.32 1.47-5.14 2-.74.22-1.48.43-2.2.7s-.94.64-.67 1.36c.66 1.63 1.27 3.28 1.91 5 .47 1.29.49 1.34 1.85.89zM61.18 45.64a4.19 4.19 0 0 1 1.25-3.27 1.2 1.2 0 0 0 .1-1.63c-.33-.58-.83-.33-1.27-.11-2.32 1-4.71 2-7 3.17-.55.26-.42.62-.26 1l2.31 6.25c.55 1.49.76 1.59 2.26 1l6.91-2.56c.15-.06.36-.14.34-.36a.53.53 0 0 0-.39-.56 2.2 2.2 0 0 0-.73-.08 4.24 4.24 0 0 1-3.54-2.92M77.1 34.94l-3.87 1.43c-.31.12-.55.27-.47.65s.31.52.71.49h1a1.29 1.29 0 0 1 1.13.49 6 6 0 0 0 1.19 1.32 2.12 2.12 0 0 1 .71 1.14 4.15 4.15 0 0 1-1.06 4.09c-.17.18-.36.31-.22.67a1.69 1.69 0 0 0 1.55-.22c2.09-1 4.18-2 6.33-2.87 1.08-.4 1.2-.56.73-1.67-.91-2.13-1.5-4.38-2.46-6.48-.32-.71-.65-.82-1.3-.52a22 22 0 0 1-4 1.47M77 47.72c.57 1.37 1.08 2.77 1.67 4.19.38 1 .73 1.19 1.76.81 2.27-.84 4.47-1.71 6.7-2.65 1.12-.47 1.13-.77.64-1.76A46 46 0 0 1 86 44l-.57-1.55c-2.61 1-5.1 2.07-7.6 3.23-1.34.67-1.33.37-.82 2.06m-6.4 9.17c-.67.25-.81.65-.5 1.36.64 1.4 1.28 2.81 1.85 4.18.77 1.77.77 1.77 2.61 1.2 2-.62 3.93-1.27 5.87-2.05.82-.31 1-.78.69-1.61-.58-1.42-1-3-1.67-4.36-.26-.55-.43-1.48-1.37-1.31a28 28 0 0 0-2.86.82c-1.49.55-2.91 1.31-4.62 1.77m-2 9.24a17 17 0 0 0 2.61-1.2c.62-.23.74-.69.46-1.29-.84-1.8-1.58-3.64-2.37-5.45-.28-.6-.73-.55-1.2-.38-2.18.92-4.36 1.67-6.48 2.75a1 1 0 0 0-.63 1.5c.55 1.62 1.24 3.18 1.73 4.81.33 1.23.53 1.27 1.71.84s2.62-1 4.16-1.6M34.66 57l1 2.21c.19.52.52.63 1 .41 2.4-1.13 5.09-1.47 7.48-2.6.4-.2 1.18-.14 1.08-.75s-.85-.21-1.3-.16a2.18 2.18 0 0 1-2.6-2 4.62 4.62 0 0 1 .89-4.11c.34-.35.21-.72-.05-1.09s-.57-.26-.88-.14l-1.54.57c-2 .67-3.83 1.53-5.87 2-1.07.28-1.15.54-.77 1.58.48 1.29 1 2.63 1.56 4m28.7-6c-1.66.62-3.25 1.21-4.92 1.77-.8.23-.94.64-.6 1.39.73 1.66 1.43 3.4 2.11 5.08.29.78.68.87 1.38.55 2.18-.93 4.38-1.8 6.56-2.72a.9.9 0 0 0 .62-.99c-.39-1.85-1.42-3.52-2-5.31-.15-.42-.41-.49-.83-.52-.94 0-1.44.71-2.35.93m13.5-1.54L76 47.3c-.23-.62-.58-.78-1.25-.54-2.31.91-4.66 1.84-6.92 2.86-.76.34-.85.72-.55 1.37a40 40 0 0 1 1.93 4.74c.18.64.65.64 1.16.45 2.38-.88 4.77-1.7 7.14-2.58.72-.27.87-.67.57-1.32-.43-.84-.81-1.7-1.26-2.77m-6-9.37a4.8 4.8 0 0 1 1-1.67.86.86 0 0 0 0-1.23c-.35-.46-.74-.26-1.14-.05a5.8 5.8 0 0 1-1.52.8c-1.85.39-3.49 1.35-5.28 1.72-.44.1-.81.35-.67.89s.39.91 1.1.76a3.5 3.5 0 0 1 1.87.13c2.46.79 2.71 5.1.87 6.31-.38.26-.73.56-.42 1.09s.74.26 1.08.07c2.16-1 4.36-1.85 6.58-2.67.31-.11.67-.25.76-.63a1 1 0 0 0-.87-.15 2.22 2.22 0 0 1-2.53-1.12 5.16 5.16 0 0 1-.84-4.25ZM42.75 13.46c2.16-.68 4.13.06 4.53 1.79a4.16 4.16 0 0 1-.69 3.19c-.18.3-.51.53-.56 1a12.8 12.8 0 0 1 2.54 1 2.85 2.85 0 0 1 .35 4.44A6.6 6.6 0 0 1 45.28 27c-.67.08-.53.79-.88 1.09a2.22 2.22 0 0 1-1.28-3 1.6 1.6 0 0 0 0-1C42.49 22 41.87 20 41.23 17.9c-.1-.26-.14-.54-.42-.67s-.74-.08-.73-.55a1.9 1.9 0 0 1 .44-1.33 5.5 5.5 0 0 1 2.23-1.89m1.81 7.25c-.58.51-1.31.9-1 1.9s.44 1.83.71 2.72.79 1.18 1.63.75a9 9 0 0 0 2.3-1.55 2.81 2.81 0 0 0 .66-2.65 3.75 3.75 0 0 0-4.3-1.17m-1.31-6.55a5.3 5.3 0 0 0-1.51 1.15.75.75 0 0 0-.25.91 30 30 0 0 1 1.18 3.67c.14.53.45.59.95.35A5 5 0 0 0 45.9 18c.52-1 1-2 .35-3s-1.77-1-3-.84m8.13 7.72-.25-.67c-.11-.31-.5-.57-.27-.9s.57 0 .86.1.38-.08.49-.24c.75-1 1.14-1.07 2.23-.48.22.1.38.22.59.31.28-.34.5-.71.78-1.05a1.17 1.17 0 0 1 2.07.06 2.7 2.7 0 0 1 .63 2 2.4 2.4 0 0 0 0 .92c.12.78.47.95 1.17.45a.61.61 0 0 1 .71-.14 1.19 1.19 0 0 1-1 1.25 1.43 1.43 0 0 1-1.58-.94 3.2 3.2 0 0 1-.12-1.6c.08-.73-.13-1.47-.82-1.57s-.84.72-1 1.27a1.65 1.65 0 0 0 .07 1.14 4.75 4.75 0 0 1 .22 2c0 .25 0 .49-.38.56s-.45-.13-.6-.37a4 4 0 0 1-.37-2.09c0-.3.12-.63-.08-.85a1.44 1.44 0 0 0-1.24-.83c-.57 0-.61.58-.73 1a3.5 3.5 0 0 0 .14 2.29l.4 1.09c.14.36.17.76-.25.91s-.56-.26-.68-.57a29 29 0 0 0-.99-3.05m7.37-8.77a2.19 2.19 0 0 1-2.34-2.53c.34-1.77 1.66-3 3.16-2.7a1 1 0 0 1 .91.72 55 55 0 0 0 2.22 5.51l.19.52c0 .28.09.55-.22.67s-.51-.11-.66-.35c-.31-.7-.58-1.42-.87-2.19-.21-.57-.5-.88-1-.27a1.72 1.72 0 0 1-1.36.62m-1.39-1.54c.53.63 1.13 1 1.92.59a1.65 1.65 0 0 0 .77-1.87 2.4 2.4 0 0 0-.44-1.19.8.8 0 0 0-1.26-.24 2.63 2.63 0 0 0-1.02 2.71ZM26.54 37c.09-.39.26-.56.6-.45a.48.48 0 0 1 .3.65v.07c-.15.53-.48 1.06-.36 1.54.17.64 1 .28 1.33.74a.19.19 0 0 0 .1.14c-.41 1.09-1.16.19-1.71.28a3.9 3.9 0 0 0-.44 1.34c-.13.28-.28.51-.62.4a.48.48 0 0 1-.31-.7 2.4 2.4 0 0 1 .22-.5c.22-.67.23-1.14-.58-1.42a3.1 3.1 0 0 1-.91-.55c-.16-.11-.34-.28-.19-.51s.32-.24.54-.14.21.09.33.11c1.39.7 1.44.68 1.7-1m50.19-18.11c.17-.47.32-.88.44-1.34.08-.26.25-.44.51-.36a.45.45 0 0 1 .28.6 10 10 0 0 1-.38 1c-.33.71-.12 1.1.6 1.3l1.37.38c-.07.78-.34 1-1 .73a6.7 6.7 0 0 0-1.45-.58 2.8 2.8 0 0 0-.41 1.44c-.06.31-.18.6-.55.56s-.35-.46-.34-.76a1.5 1.5 0 0 1 .14-.4c.41-.8.39-1.5-.61-1.83-.29-.13-.68-.39-.41-.79s.57 0 .83.05.58.5.98 0" fill="#010101"/>
</svg>