<svg xmlns="http://www.w3.org/2000/svg" viewBox="0 0 1024 592" xml:space="preserve">
  <path d="M111.705 215.943c.664-13.152-1.436-25.727-1.168-38.384.059-2.78-.602-5.638-1.317-8.358-1.23-4.679-.703-5.858 4.19-5.303 10.14 1.148 20.3 1.006 30.437.796 42.27-.874 84.542-.855 126.816-.897 22.323-.022 44.664.466 66.965-.264 31.81-1.04 63.62-.522 95.427-.95 31.46-.422 62.845-2.67 94.277-3.76 14.508-.503 28.924 1.399 43.397 1.864 21.82.7 43.64.017 65.459-.134 22.812-.157 45.634-.216 68.43-.967 31.295-1.031 62.6-.487 93.894-1.277 19.8-.5 39.614-.432 59.421-.631 9.611-.097 9.783-.102 9.317 9.533-.835 17.283-2.192 34.544-2.764 51.833-.368 11.103.807 22.16 2.002 33.26 1.341 12.45 1.494 25.129.677 37.742-1.183 18.259-3.858 36.398-3.957 54.75-.068 12.657 1.776 25.25.836 37.93-.836 11.287-1.398 22.594-1.962 33.898-.138 2.76-1.14 4.41-3.989 4.737-1.639.188-3.274.713-4.9.67-23.287-.61-46.577.698-69.876-.443-10.106-.494-20.282.79-30.443-.026-3.245-.26-5.255 1.258-6.893 4.437-4.813 9.346-11.504 11.91-19.472 8.426-3.367-1.472-5.598-3.941-6.262-7.282-.996-5.005-3.835-5.845-8.466-5.837-47.308.084-94.616-.058-141.924-.142-2.832-.005-5.667.03-8.495-.084-6.327-.254-11.406.452-16.446 6.067-6.813 7.59-16.153 7.601-21.755-.78-3.986-5.965-8.916-5.77-14.337-5.841-14.767-.194-29.555-.677-44.303-.154-26.427.938-52.837-.576-79.25.02-20.29.456-40.574 1.197-60.865 1.509-17.623.27-35.222-1.04-52.83-1.435-23.122-.52-46.264-.13-69.397-.134-29.624-.007-59.248-.008-88.871-.05-2.065-.002-4.417.653-5.848-1.665 3.903-8.78 3.552-18.132 3.409-27.296-.209-13.341.928-26.595 1.496-39.886.752-17.58.552-35.167.196-52.751-.168-8.323.766-16.594.963-24.88.455-19.141-.737-38.26-1.82-57.861M499.5 361.166c-54.613.217-109.234-.33-164.427 1.221 2.965 4.451.455 5.395-3.132 5.795-2.808.314-5.6.815-8.383 1.315-8.054 1.445-8.831.725-7.019-6.695-1.51-.978-3.214-.56-4.821-.537-13.315.192-26.628.497-39.943.667-35.625.456-71.25.912-106.875 1.22-3.896.033-6.255 1.36-7.565 5.456 4.2 0 8.137-.071 12.07.033 1.743.046 4.24-.268 4.34 2.21.108 2.627-2.53 2.938-4.394 3.01-4.817.185-9.67.277-14.467-.106-5.447-.435-5.923-1.89-2.85-6.624.679-1.045 1.942-1.933 1.215-3.922-7.52 0-15.163.01-22.806-.002-8.147-.014-8.673.808-7.81 8.93 1.481 13.941-.39 28.008 1.79 42.392.646.602 2.044.327 3.336.368 17.959.567 35.924.137 53.893.587 22.414.561 44.86.185 67.287-.113 30.778-.41 61.5 1.927 92.32.87 25.917-.89 51.865-1.648 77.872-.762 31.28 1.066 62.624.225 93.94.322 3.743.011 6.047-.572 7.119-4.91 1.478-5.982 8.047-11.045 12.883-11.09 9.276-.088 13.7 2.221 15.609 9.965 1.325 5.38 4.076 6.092 8.82 6.045 19.982-.2 39.967-.124 59.95-.011 31.435.177 62.871.371 94.304.811 4.414.062 6.782-1.021 8.656-5.24 2.07-4.66 6.277-9.002 11.453-8.251 5.595.811 11.293 3.98 14.04 9.403 1.808 3.571 3.91 4.23 7.345 4.203 15.47-.12 30.941-.083 46.412-.08 15.16.002 30.323-.042 45.483.1 3.81.035 6.163-1.485 5.342-5.194-1.64-7.413-.817-14.887-1.292-22.318-.49-7.646-.823-15.324-.159-22.969.715-8.227.859-8.232-7.533-8.087-18.469.32-36.941.476-55.41.72-38.476.51-76.963.242-115.446.31-40.23.072-80.465-.182-120.687.415-16.486.245-32.977.087-50.46.543m332.005-58.329c4.832-.033 9.664-.135 14.494-.074 2.777.035 3.741-1.165 3.834-3.908.431-12.793 1.107-25.579 2.784-38.278.557-4.216-.991-5.661-5.15-5.56-10.16.247-20.33.148-30.493.314-3.29.054-7.028-1.143-9.76.808-2.473 1.767-.585 5.346-1.295 8.039-.427 1.62-.553 3.577-2.84 3.34-1.852-.194-2.132-1.87-2.224-3.424-.049-.83.034-1.665.03-2.498-.038-6.001-.377-6.27-6.174-5.754-2.318.206-4.66.18-6.991.205-41.15.42-82.298.885-123.448 1.167-4.631.031-6.4 1.657-5.886 6.195.306 2.711 2.414 7.057-2.096 7.2-3.782.12-2.657-4.404-2.455-6.943.409-5.148-1.661-6.67-6.627-6.43a781 781 0 0 1-34.434.871c-4.478.018-7.954-.085-6.858 6.144.351 1.997-.132 5.415-3.14 5.377-3.41-.042-2-3.163-1.848-5.047.367-4.523-.93-6.618-6.062-6.415-14.31.57-28.64.405-42.964.687-31.81.627-63.635.59-95.453.513-7.844-.02-12.94 2.905-15.54 10.617 4.838.435 10.387-3.326 14.317 2.65-6 1.256-12 2.215-18.001 2.223-3.387.005-4.239-3.178-2.115-6.301 1.787-2.628 4.57-4.622 5.608-8.162-17.348 0-34.148-.106-50.945.072-4.39.046-5.86 3.543-6.895 7.454 3.796 0 7.24-.087 10.677.044 1.329.05 2.81.603 2.766 2.288-.041 1.572-1.25 2.207-2.753 2.31-1.822.127-3.643.45-5.46.419-3.813-.066-8.137.365-10.57-3.141-2.224-3.204 1.638-5.604 2.747-8.948-1.801 0-3.252-.009-4.704.002-12.978.092-25.957.148-38.934.29-33.143.36-66.285.786-99.428 1.113-4.78.048-7.02 2.675-8.623 7.46 4.176 0 7.79-.025 11.402.012 1.362.013 2.93.176 3.094 1.847.196 1.993-1.487 2.446-3.015 2.546-2.657.173-5.328.175-7.993.2-3.353.032-6.708.185-8.84-3.281-2.295-3.735 1.655-5.165 2.789-7.64-4.314-1.76-8.641-.377-12.884-.538a422 422 0 0 0-28.345-.116c-18.653.545-37.305.848-55.94-.12-3.677-.19-4.652.664-4.719 4.171-.26 13.48-.67 26.96-1.232 40.43-.127 3.06.781 4.28 3.833 4.254 5.813-.05 11.629.162 17.442.11 22.6-.199 45.199-.533 67.799-.625 3.829-.016 6.573-.846 8.741-4.29 1.749-2.779 4.314-5.128 7.38-6.597 2.084-.998 4.43-2.122 6.535-.156 2.302 2.152 5.071 4.201 6.397 6.904 1.785 3.636 4.3 4.019 7.676 3.89 15.462-.585 30.924-1.306 46.392-1.522 24.643-.345 49.291-.401 73.938-.39 4.316 0 7.294-1.111 10.158-4.68 5.818-7.251 12.483-6.641 17.674 1.218 1.469 2.223 3.214 2.574 5.464 2.544 6.663-.087 13.345-.461 19.986-.102 5.781.313 9.802-.648 13.758-5.962 6.966-9.355 15.199-7.49 19.463 3.466.756 1.943 2.07 2.345 3.895 2.317 19.285-.291 38.571-.559 57.857-.823 20.646-.284 41.294-.064 61.943-.614 5.76-.153 10.551-.574 14.777-5.125 6.246-6.727 14.059-5.758 19.133 2.072 1.3 2.007 2.675 2.673 4.842 2.646 6.997-.085 13.998-.238 20.992-.078 3.292.076 5.095-1.255 6.695-4.04 6.018-10.482 15.366-10.726 21.628-.412 1.783 2.937 3.724 3.767 6.806 3.728 35.971-.456 71.943-.906 107.916-1.205 4.838-.04 8.52-.784 12.146-4.854 8.13-9.126 13.385-8 19.4-.76 3.185 3.835 6.082 4.98 10.433 4.701 2.158-.138 4.331-.039 7.493-.045m-581.569-44.333c3.267-.878 6.607-.625 9.932-.693 21.65-.448 43.302.15 64.957-.616 17.288-.611 34.607-.287 51.912-.419 2.63-.02 5.436.57 7.785-1.009 1.465-.985 3.344-2.395 2.468-4.402-.884-2.026-2.8-1.968-4.647-.763-1.5.978-2.95.795-3.748-.909-.754-1.607.02-2.896 1.379-3.848 1.742-1.222 3.639-1.526 5.707-.982 5.328 1.4 7.575 5.249 6.495 10.93 13.274 0 26.585.01 39.896-.008 3.329-.005 6.66-.026 9.985-.184 1.694-.081 2.671-1.218 3.004-2.868.22-1.093-.19-1.943-1.054-2.61-1.367-1.053-2.564-.252-3.668.445-.975.617-1.776 1.501-2.705 2.2-.875.658-1.851.755-2.756.054-.903-.7-1.005-1.686-.705-2.709.44-1.498 1.35-2.684 2.681-3.483 2.645-1.589 5.469-2.798 8.494-1.312 4.033 1.98 5.542 5.446 4.707 10.07 6.335.513 12.275-.186 18.228-.273 23.123-.338 46.251-.312 69.377-.414 17.82-.078 35.641-.125 53.461-.227 7.077-.04 7.169-.18 8.267-7.023.287-1.788 1.032-3.348 3.169-3.046 2.054.29 2.627 1.753 2.228 3.71-1.013 4.98 1.567 5.984 5.936 5.818 11.981-.458 23.972-.76 35.96-.854 4.11-.032 7.412-.018 6.585-5.667-.202-1.382-.06-3.727 2.27-3.798 2.218-.067 2.72 1.806 2.526 3.542-.59 5.291 2.364 5.913 6.672 5.802 20.48-.524 40.966-.083 61.458-.796 21.786-.758 43.612-.385 65.42-.489 7.518-.036 7.531-.012 8.215-7.433.16-1.734.39-3.65 2.44-3.807 2.562-.196 2.627 2.012 2.799 3.848.093.994.127 1.998.108 2.996-.064 3.342 1.894 4.423 4.823 4.17 11.959-1.03 23.944-.654 35.92-.763 6.755-.062 6.79-.042 6.836-6.563.077-10.814-.233-21.647.333-32.434.252-4.793-1.34-5.583-5.495-5.479-10.647.267-21.302.248-31.954.21-8.004-.03-10.835 1.54-14.944 8.826 4.988-.467 9.936-1.016 14.898-1.343 1.513-.1 3.214.517 3.192 2.415-.02 1.693-1.303 2.87-3.017 2.628-5.607-.795-10.87.92-16.242 1.91-1.82.335-3.741.458-4.94-1.421-1.284-2.015-.385-3.707.742-5.52 1.335-2.148 4.246-3.261 4.473-6.424-.927-.132-1.57-.305-2.214-.302-27.782.093-55.57-.105-83.344.424-16.487.314-32.972.42-49.459.607-6.37.072-9.015 1.93-11.124 7.931 4.385 2.456 10.6-2.704 14.265 2.914-.476 1.516-1.22 1.994-2.055 2.02-5.327.163-10.666.49-15.98.28-3.74-.15-3.66-2.855-2.368-5.43 1.227-2.441 2.814-4.702 4.578-7.592-4.233 0-7.713-.032-11.192.006-11.143.12-22.286.23-33.428.42-4.615.08-6.444 3.1-7.515 7.335 3.337.33 6.24.984 9.268.391 1.822-.356 4.143-.43 4.443 1.884.306 2.356-1.942 2.839-3.828 2.879-4.494.095-8.994.155-13.485.016-3.482-.107-4.25-1.968-2.843-5.056 1.003-2.2 3.067-3.955 2.98-7.432-13.389 0-26.683-.309-39.96.06-33.639.938-67.282.222-100.922.541-6.792.064-11.802 3.844-13.491 10.916 5.228 1.66 11.262-1.573 16.2 2.74-6.916 2.406-13.93 3.969-21.116 2.578-2.665-.516-3.205-3.236-1.601-5.672 2.168-3.293 4.47-6.498 6.715-9.743-1.52-1.33-3.09-.757-4.503-.767-13.13-.093-26.281.342-39.38-.303-7.901-.39-11.46 4.545-15.874 9.568 5.046 2.156 10.55-.464 15.431 2.478-.698.93-.973 1.71-1.471 1.9-5.812 2.2-11.85 1.698-17.635.407-2.987-.666-3.79-3.63-1.406-6.343 2.101-2.39 4.322-4.676 7.039-7.599-18.932.91-36.855.058-54.789.444-27.812.599-55.655.733-83.46.054-8.525-.208-13.306 3.296-17.998 9.785 3.604 0 6.76-.067 9.908.034 1.209.038 2.309.658 2.455 2.049.12 1.148-.667 2.116-1.65 2.17-5.107.28-10.28.906-15.318.367-3.79-.404-4.105-3.08-1.46-6.033 2.106-2.353 5.389-3.777 6.558-8.315-9.826 1.493-19.084 1.08-28.295.678-23.62-1.031-47.244.436-70.849-.542-4.695-.195-6.597 1.21-6.368 6.129.544 11.636.737 23.29.998 34.938.16 7.118.422 7.416 7.748 7.427 19.488.03 38.976.1 58.465.101 12.33.002 24.66-.133 36.99-.11 2.81.006 4.873-.894 5.983-3.535.564-1.344.388-2.603-.721-3.656-2.278-2.164-3.886-.396-5.618.904-.86.646-1.87.845-2.688-.044-.933-1.014-.633-2.143-.051-3.236 1.747-3.287 6.51-4.486 10.116-2.407 4.592 2.65 5.687 6.544 3.086 11.782 4.296 0 7.934 0 12.37-.025m338.223 52.469c-1.637-1.198-3.53-.776-5.322-.76-39.282.34-78.564.812-117.847.97-6.119.024-10.982.956-15.466 5.789-5.177 5.579-12.829 4.033-16.645-2.693-1.253-2.207-2.671-2.459-4.843-2.396-7.659.22-15.325.397-22.985.314-3.853-.042-6.542.665-9.18 4.192-6.843 9.15-16.311 8.114-21.23-1.857-.842-1.707-1.959-2.182-3.56-1.895-5.115.917-10.283.24-15.403.335-23.641.44-47.29.09-70.933 1.037-12.147.487-24.324.23-36.488.345-2.673.026-5.426-.069-6.511 3.298-1.86 5.772-6.531 8.717-11.945 9.193-5.52.486-9.145-3.639-11.44-8.312-1.338-2.724-3.107-3.412-5.898-3.4-28.156.117-56.313.17-84.47.149-3.162-.002-4.825.715-5.128 4.332-1.016 12.15-.292 24.308-.558 36.457-.046 2.1.77 3.624 3.108 3.69 9.97.279 19.944.701 29.914.664 3.366-.013 5.07-3.187 4.6-6-.472-2.825-3.358-2.657-5.775-1.835-.794.27-1.58.567-2.639-.386-.16-3.884 2.275-5.341 5.836-5.068 5.667.435 8.31 5.116 7.155 12.165 1.104 1.045 2.49.756 3.785.71 23.81-.854 47.634-.038 71.458-.83 24.13-.801 48.302-.426 72.455-.536 7.917-.037 11.496-2.898 12.784-10.466-2.814-2.011-4.114.309-5.626 1.995-.986 1.101-2.147 1.662-3.514.793-1-.634-1.037-1.714-.58-2.67 1.396-2.919 3.11-5.74 6.595-6.272 3.253-.498 5.846 1.394 7.705 3.754 1.94 2.463.553 5.042-.767 7.433-.695 1.259-1.994 2.315-1.5 4.12 2.136 1.32 4.513.664 6.767.64 26.787-.288 53.573-.733 80.36-.942 22.49-.175 44.984-.016 67.476-.145 54.609-.314 109.217-.81 163.826-1.038 44.488-.186 88.978.005 133.466-.16 21.805-.08 43.61-.634 65.415-.863 3.43-.036 5.026-.97 5.263-4.784.806-12.97.22-25.913-.104-38.869-.075-3.032-1.296-4.154-4.226-4.08-5.33.135-10.695.483-15.988.047-7.556-.622-14.164-.014-17.233 8.34-.162.442-.614.781-.943 1.158-6.146 7.042-17.048 5.663-20.292-3.084-1.66-4.48-3.798-5.608-8.252-5.545-36.623.517-73.249.838-109.874 1.107-3.125.023-5.076.934-7.01 3.552-5 6.761-14.544 6.7-19.43-.047-1.8-2.485-3.68-3.373-6.635-3.292-7.636.21-15.28.196-22.92.16-1.878-.01-2.952.402-3.785 2.338-2.405 5.59-9.172 9.832-14.96 9.374-5.77-.456-7.83-4.958-10.063-10.226m224.245-108.645c12.801.904 25.566-.274 38.345-.66 2.876-.087 2.928-2.031 2.932-4.186.012-5.494-.938-10.917-.796-16.45.157-6.111 3.445-11.904 1.618-18.26-1.986-.978-4.18-.61-6.297-.553-17.969.487-35.942.069-53.918.671-18.307.613-36.646.156-54.968.405-38.579.523-77.155 1.25-115.733 1.798-26.96.384-53.888.069-80.835-1.622-18.23-1.144-36.53.154-54.807 1.614-27.043 2.16-54.218 1.335-81.332 1.965-33.129.77-66.273.944-99.413 1.113-53.302.27-106.605.329-159.908.47-7.93.02-15.86.002-24.044.002-.042 12.175-.188 23.111.942 34.034.285 2.751 1.92 3.189 4.082 3.242 8.308.202 16.615.534 24.924.554 7.963.019 15.96-.836 23.883-.34 17.631 1.1 35.255.102 52.876.47 1.716.036 3.722.013 3.5-2.377-.206-2.227-1.978-3.464-4.132-3.622-1.461-.108-2.225 1.288-3.07 2.308-.891 1.074-1.87 2.154-3.307.96-1.185-.985-1.076-2.31-.477-3.654 1.73-3.88 6.144-5.38 10.096-3.578 4.122 1.88 6.322 5.01 6.32 9.064 27.404 0 54.381.066 81.358-.022 20.948-.068 41.895-.302 62.842-.557 1.634-.02 3.968.53 4.433-2.105.256-1.451-.498-2.7-1.787-3.286-2.059-.936-3.443 0-4.43 1.922-.936 1.824-2.327 3.168-4.25 1.25-1.642-1.637-1.809-3.623.226-5.176 2.475-1.89 4.808-4.561 8.373-3.55 3.691 1.045 5.932 3.87 6.457 7.551.433 3.031 1.675 3.643 4.586 3.587 10.128-.197 20.275.284 30.39-.116 6.37-.253 12.867.597 19.514-.911-1.12-4.466-3.712-4.686-6.91-3.602-1.469.498-3.05 1.074-3.89-.768-.957-2.1.72-3.005 2.201-3.804 4.946-2.67 10.362-.865 13.58 5.385 1.567 3.041 3.373 3.505 6.247 3.385 14.962-.625 29.908.5 44.894.18 30.307-.648 60.635-.295 90.955-.387 2.159-.006 4.346-.1 6.468-.464 2.061-.353 2.944-2.068 3.258-3.967.169-1.023-.276-2.068-1.253-2.531-1.847-.876-3.248.304-4.433 1.428-1.193 1.133-2.07 2.592-3.175 3.83-.563.63-1.362.975-2.248.57-.83-.378-1.463-1.122-1.248-1.955.97-3.772 3.622-6.254 6.741-8.318 2.613-1.73 4.877-.99 7.369.602 4.077 2.605 3.24 6.43 2.605 10.376 15.405.66 30.331.054 45.258-.37 1.991-.057 4.185.085 4.983-2.374.727-2.24-.449-3.815-2.12-5.143-2.135-1.696-3.672-.345-5.27.956-1.143.93-2.39 2.253-3.845.618-1.504-1.689-.514-3.205.92-4.234 2.36-1.694 4.632-4.573 7.903-3.09 3.85 1.747 7.263 4.475 7.577 9.15.195 2.908.991 4.127 4.103 4.107 24.283-.161 48.568-.123 72.851-.277 15.302-.096 30.603-.415 45.905-.635 5.497-.08 10.993-.17 16.49-.24 1.839-.024 3.278-.697 3.91-2.505.57-1.631-.078-2.927-1.4-3.927-1.615-1.223-3.347-1.488-5.105-.388-.69.432-1.243 1.094-1.816 1.693-1.093 1.141-2.323 2.232-3.862 1.02-1.661-1.309-1.086-2.907-.084-4.434 3.175-4.835 8.174-5.63 13-2.373 3.665 2.474 4.056 6.221 5.248 10.53m49.603 96.073c.396-3.796.98-7.583 1.15-11.389a176 176 0 0 0-1.108-28.808c-.16-1.326-.09-3.297-2.274-3.296-2.25 0-2.514 1.724-2.73 3.463-1.677 13.537-2.234 27.152-2.816 40.764-.048 1.124-.158 2.38 1.325 3.332 2.194-.657 6.132 2.045 6.453-4.066m-4.39 113.276c.266-4.968.505-9.937.803-14.903.673-11.236 1.846-22.451 1.313-33.736-.094-2-.375-3.694-2.973-3.61-2.643.086-2.621 1.933-2.742 3.847-.985 15.572-.08 31.115.711 46.658.101 1.983.605 3.944.923 5.915l.974-.106c.298-1.09.595-2.181.992-4.065m4.104-100.044c.178-5.671-3.472-4.724-6.804-4.377-1.087 1.869-.806 3.577-.818 5.206-.083 10.942.97 21.876.24 32.827-.144 2.154-.097 4.324-.079 6.486.012 1.429.306 2.778 2.186 2.594 1.585-.155 2.973-.627 2.772-2.715-1.273-13.19.37-26.195 2.503-40.021m-745.495 53.79c-2.44 15.974-.35 32.054-1.075 48.07-.053 1.17.664 2.265 2.553 2.058 2.741-3.611.96-7.805.961-11.78a3246 3246 0 0 0-.153-35.444c-.013-1.273 1.314-3.648-2.286-2.905m410.339 51.153h18.698c.036-3.647-.943-5.905-2.182-8.066-1.13-1.97-2.592-3.83-5.115-2.562-1.605.806-2.769.187-4.217-.047-4.642-.75-9.74 6.106-7.184 10.675M114.3 188.184c.018 4.668 1.957 9.11 1.623 13.826-.105 1.485.758 2.18 2.151 2.043 1.575-.155 1.675-1.474 1.637-2.635q-.48-14.94-1.059-29.877c-.066-1.692-.93-2.955-2.776-2.82-1.9.14-1.662 1.772-1.663 3.061-.002 5.154.043 10.309.087 16.401m5.519 64.884c-.029-3.984-.013-7.97-.094-11.952-.197-9.604-.455-19.207-.647-28.81-.028-1.398.074-2.876-1.817-2.871-1.86.004-1.832 1.57-1.922 2.901a17 17 0 0 0-.036 1.992q1.006 21.104 2.038 42.207c.035.715.408 1.223 1.386 1.378 1.358-.976.906-2.58 1.092-4.845m743.256-89.35c-2.143-3.715-2.927-1.15-3.17.868-.912 7.572-1.907 15.158-2.242 22.766-.202 4.584.757 9.22 1.194 13.833l1.64-.038c1.767-12.157 1.446-24.516 2.578-37.43m-746.336 139.45c-.09 2.613-1.155 5.355 1.441 9.046 1.862-17.032 1.775-32.735.908-48.457-2.056 12.81-3.698 25.626-2.35 39.411m743.977-69.36c-2.229-8.852.11-17.959-1.21-26.897-2.722 14.227-1.927 28.504-2.234 43.009 2.639.19 4.1.163 3.88-2.716-.318-4.138-.292-8.302-.436-13.397M727.373 429.324c7.3 3.236 13.326.077 14.366-7.91-4.815 0-9.584-.017-14.353.005-2.84.013-3.463 1.51-2.419 3.905.524 1.202 1.24 2.321 2.406 4m82.18-121.877-14.603.866c.787 6.197 4.285 9.126 8.884 8.11 4.713-1.039 7.507-4.898 5.718-8.976m-84.96 109.026c5.897 3.096 11.745-.72 17.818 1.013-1.07-8.476-9.164-4.505-11.895-8.834-3.214 1.527-5.18 3.836-5.923 7.821m-115.93-104.62c.182-.701.08-1.456-.627-1.645-4.842-1.298-9.607-1.192-14.321.554 1.312 5.383 3.746 7.075 8.054 5.698 2.487-.795 5.057-1.648 6.895-4.606m-66.637 109.38c-5.459-1.275-10.86.032-16.736-.21 1.787 4.22 4.34 6.071 8.283 5.918 3.965-.153 7.374-1.207 8.453-5.708M116.687 316.628c1.8 14.248-1.18 28.489-.44 42.86 2.725-.565 1.714-2.351 1.743-3.663.256-11.77.534-23.541.646-35.313.014-1.46 1.304-3.733-1.949-3.884m106.553-.902c-.475 3.775 1.991 5.495 4.996 5.966 4.446.696 7.298-1.817 9.431-6.21-4.883-1.598-9.38.17-14.427.244m582.233-18.548c-3.704.512-6.713 2.004-8.898 6.525 5.52-.291 10.322.882 15.056-1.6-.787-3.247-2.933-4.248-6.158-4.925m-355.104 5.095c-6.315-1.85-10.052-.298-12.159 5.417 3.396 0 6.647.08 9.892-.022 3.472-.11 4.374-1.83 2.267-5.395m-219.492 1.507c-3.057 1.139-5.082 3.187-6.193 6.633 4.64.777 8.767.618 13.324-.021-1.538-3.303-3.278-5.701-7.13-6.612m420.771-2.782c-.864 1.172-2.047 2.215-1.546 4.242 4.3-.543 8.712.257 13.077-.91-1.998-5.702-6.103-7.013-11.531-3.332m-261.18 11.596c-1.965-.09-3.947-.382-5.89-.216-1.94.166-5.08-.44-4.758 2.7.289 2.81 3.063 2.89 5.505 2.7 2.624-.203 4.712-1.346 6.345-3.331.634-.77.551-1.508-1.201-1.853m212.81-11.204c-3.236-.511-4.99 1.662-7.766 4.12 5.193.207 9.408.644 13.767-.192-.87-3.335-3.284-3.214-6.002-3.928m-212.77 7.27c3.117-.384 3.015-1.662.81-3.268-3.137-2.284-6.204-1.312-8.894 2.778 2.427.93 4.93.186 8.084.49m267.478.578c-2.363.209-4.865-.435-7.231.875 3.55 4.147 7.745 3.935 10.775-.28-.783-.86-1.838-.47-3.544-.595m-211.79 2.578c-2.98-.308-6.041-1.296-8.935.779 3.587 4.181 7.73 3.779 8.934-.78m-119.02 50.386c-1.546.23-3.627-.649-4.35 2.167 2.909.508 5.179-.295 8.68-1.811-2.109-.196-2.883-.268-4.33-.356M135.677 99.896c-.595-3.842-.989-7.21-.128-10.728.58-2.374.406-4.917-.592-7.347-1.928-4.698 2.226-10.836 7.369-10.67 4.565.15 7.58 3.13 9.964 6.688 2.084 3.11.933 6.136-.94 8.816-1.5 2.145-3.403 4.01-5.354 6.26 1.68 1.303 3.359 2.586 5.019 3.893 4.725 3.721 4.277 10.32-.923 13.153-4.095 2.23-8.69 3.354-13.039 4.749-3.526 1.13-5.285-3.419-6.72-6.054-1.28-2.354 1.368-2.384 3.193-2.88 2.724-.74 1.942-3.422 2.15-5.88m4.542-18.405c1.074 2.632-.667 5.552.592 8.253 4.086-1.904 6.478-4.146 7.413-6.489 1.022-2.56-.378-4.163-2.08-5.59-1.369-1.148-2.786-2.584-4.868-1.52-2.092 1.072-2.142 2.744-1.057 5.346m7.194 24.554c3.41-4.207 1.002-7.56-6.564-8.797-.585 3.488-1.099 6.943-.32 10.393 2.53.897 4.386-.269 6.884-1.596M549.41 95.352c2.156-.399 3.376.142 3.54 2.089.132 1.571-.703 2.205-2.218 2.735-6.41 2.243-12.766 4.647-19.09 7.124-1.702.666-3.18 1.077-4.521-.463-1.336-1.535-2.6-3.238-2.006-5.388 2.91-10.523 2.819-21.242 2.076-31.978-.23-3.318.349-4.833 4.157-4.927 4.168-.104 8.084-1.87 11.614-4.154 2.007-1.297 3.566-1.008 4.49 1.046.98 2.185-.209 3.432-2.37 3.953a27 27 0 0 0-2.866.868c-10.555 3.82-11.607 5.781-9.346 17.498 2.725.435 4.693-1.254 6.763-2.545 2.428-1.515 4.183-.86 5.181 1.623 1.017 2.53-.888 3.003-2.756 3.631-10.403 3.497-10.392 3.527-9.892 14.817 5.655-1.964 11.256-3.91 17.244-5.93M80.664 408.536c.617-7.593.618-7.682 7.859-7.525 3.135.068 6.285.439 9.379.964 1.688.286 4.056.633 3.76 3.078-.256 2.103-2.392 1.777-4.014 2.035-2.562.407-4.905-.707-7.386-.83-3.034-.15-4.805.905-4.614 4.437 3.977 3.127 10.615-1.778 14.442 4.516-4.324 1.565-8.194 1.674-12.055 1.416-2.153-.145-4.202-.398-4.487 2.412-.327 3.227 2.267 2.823 4.112 2.723 2.968-.162 5.912-.74 8.874-1.07 1.969-.22 3.964.185 4.246 2.409.31 2.436-2.015 2.244-3.532 2.459-5.054.715-10.01 2.286-15.267 1.08-3.532-.81-4.734-2.484-3.85-6.005.967-3.854 1.657-7.777 2.533-12.099m2.743-207.924c.663-4.99 3.715-7.48 7.914-6.937 4.326.56 7.69 4.58 6.706 8.838-.628 2.72-.18 4.185 2.054 5.82 2.64 1.934 2.825 4.62 1.004 7.49-2.927 4.615-8.9 7.45-13.64 6.294-4.15-1.011-4.97-3.097-2.636-6.702 2.006-3.098 1.323-11.234-1.402-14.803m12.376 10.586c-5.37-1.303-6.34-.08-4.466 6.475 2.441-1.633 6.24-1.548 4.466-6.475m80.615-112.195c6.46-2.025 9.643.798 8.388 7.136-.546 2.758-1.099 5.03 2.316 6.586 2.134.973 1.52 2.701-.577 3.557-1.878.767-3.814 1.435-5.626-.173-1.942-1.724-2.279-3.945-1.94-6.387.302-2.172 2.037-4.166 1.01-6.915-3.75 1.456-4.726 4.094-4.768 7.515-.024 1.97-.285 4.485-3.038 4.193-2.25-.238-2.258-2.485-2.296-4.374-.035-1.745.664-3.717-1.297-5-7.476 2.717-1.067 12.308-7.19 15.564-2.106-.545-2.421-1.922-2.488-3.222-.11-2.15.603-4.5-.027-6.44-2.553-7.856 2.051-9.951 8.282-11.074 1.187-.214 2.478-.575 3.372.172 2.342 1.958 3.917.568 5.88-1.138m-74.322 177.082c-4.243 1.764-3.75-2.037-4.82-3.77-8.881 2.251-11.59 1.479-15.05-4.188-3.31-5.418-2.106-12.443 2.918-17.853 2.81-3.027 6.238-4.956 10.102-6.187 1.576-.502 3.191-.284 3.69 1.499.457 1.626-.914 2.193-2.253 2.71-4.622 1.789-8.603 4.467-10.554 9.223-1.646 4.014-1.375 7.88 2.29 10.84 2.967 2.396 5.679.709 7.328-1.504 1.89-2.535-.8-3.194-2.663-3.9-1.333-.505-2.517-1.33-1.889-2.96.708-1.837 2.426-2.475 4.112-1.863 3.676 1.333 7.178 2.984 7.057 7.867-.081 3.29.007 6.583-.268 10.086m-9.679 90.313c-4.351-.41-7.65.238-9.01 4.764-.533 1.773-2.023 3.593-4.076 2.687-2.451-1.081-.957-3.124-.202-4.684 3.114-6.427 6.207-12.87 9.53-19.19.87-1.656 2.14-3.855 4.412-3.474 2.626.44 1.79 3.098 2.317 4.914 1.285 4.42 2.39 8.83 4.445 13.099 1.902 3.95 1.96 8.812 2.673 13.297.221 1.397-1 2.121-2.209 2.212-1.846.138-2.592-1.039-2.786-2.776-.455-4.07-.529-8.334-5.094-10.85m.62-6.446c-.497-1.314-.57-2.864-2.06-3.74-1.62 1.306-2.349 2.998-2.696 5.496 1.767-.496 3.578 1.172 4.755-1.756m4.639-55.471c.631 1.017 1.063 1.73 1.456 2.463 4.84 9.019-.47 17.818-10.711 17.646-2.866-.049-4.935-.737-3.491-4.555 2.03-5.369.012-10.837-.234-16.26-.048-1.079-.907-1.748-1.869-2.154-1.302-.549-2.593-1.268-2.12-2.88.517-1.764 2.285-1.848 3.74-1.78 5.499.253 9.84 2.717 13.23 7.52m-8.164 1.591c.265 2.943.497 5.889.808 8.826.145 1.373-.429 3.247 1.66 3.6 1.622.275 2.79-.852 3.75-2 1.906-2.275 1.17-4.735.017-6.95-1.247-2.391-2.439-5.066-5.689-5.393-.146-.014-.375.802-.546 1.917m-6.967-149.165c2.242-3.266 4.353-6.244 8.58-5.197 2.495.619 4.07 2.457 3.854 5.125-.337 4.154-2.47 7.097-6.528 8.51-.904.315-1.733.847-2.787 1.375.772 2.98 2.794 3.287 5.007 2.618 1.72-.52 3.3-1.522 4.925-2.343 1.84-.931 3.67-1.11 4.705.95.914 1.82-.707 2.628-2.008 3.4-.286.17-.58.325-.867.492-5.392 3.13-10.984 3.43-14.04.754-3.262-2.858-3.743-9.898-.841-15.684m114.501-90.144c3.649 4.024 1.255 8.603 2.075 12.745.443 2.243.146 4.648.058 6.975-.078 2.021-.875 3.86-3.223 3.466-2.024-.34-2.323-2.187-1.812-3.966.68-2.364.471-4.584-.632-6.72-.344-.164-.647-.443-.927-.422-6.099.464-9.192-1.535-9.368-6.092-.158-4.107 3.688-7.089 9.134-7.063 1.493.007 3.013-.087 4.695 1.077m-8.256 6.874c4.141 1.708 3.533-1.1 4.144-3.579-2.871-.005-4.44.532-4.144 3.58m396.548-12.746c2.94 4.3.084 5.813-2.908 7.375-3.515 1.835-6.902 2.36-10.05-.635-.628-.597-.665-1.5-.258-2.312.513-1.02 1.403-1.284 2.484-1.204 1.515.112 3.097 1.5 4.939-.543-4.852-1.372-9.61-3.215-8.113-9.236.87-3.497 5.447-4.854 8.686-3.417 3.431 1.523 3.798 2.746 2.062 7.29.957.775 1.961 1.59 3.158 2.682m-24.039 7.324c0-3.342.554-6.283-.32-9.264-.515-1.758.288-3.47 2.317-3.693 2.196-.241 2.796 1.565 2.859 3.275.145 3.973.05 7.955.133 11.93.045 2.177-.25 4.384-2.913 4.181-2.624-.2-2.71-2.443-2.317-4.578.09-.489.167-.98.24-1.851"/>
</svg>