<svg xmlns="http://www.w3.org/2000/svg" viewBox="0 0 198 153">
  <path d="M51.09 110.08c0-6.47.14-12.8-.08-19.13-.24-7.21-.25-14.43-.56-21.65-.21-4.85-.6-9.7-1-14.54-.1-1.26.57-1.32 1.48-1.32h32.66c13.17 0 26.35.11 39.52 0q6.95 0 13.9-.69c3.52-.33 7.1.19 10.65-.19a1.52 1.52 0 0 1 1.75 1.71c-.07 5.89.29 11.78.13 17.68-.11 4.13-.17 8.29-.06 12.44.11 4.48-.42 9-.08 13.45.16 2.12-.38 4.39.92 6.37a.7.7 0 0 1 .07.47c-1.09 5.22-.22 10.45-.09 15.68.11 4.42.16 8.85.09 13.28a9 9 0 0 0 .09 2.45c.43 1.58-.28 1.94-1.66 1.93-5 0-10-.1-14.94.09-6.39.24-12.78-.31-19.18 0-4.73.21-9.47.51-14.21.44-8.53-.13-17 1.46-25.53.83-5.67-.42-11.36.15-17-.13-2.29-.12-4.55-.53-6.73.42-.87-1.4-.45-2.72-.26-4a86.4 86.4 0 0 0 .33-21.55c-.12-1.3-.11-2.62-.2-4.06m40.1-42.72A92 92 0 0 1 91 56.7c0-1.21-.36-1.77-1.63-1.92-1.76-.22-3.5.07-5.22 0-3.61-.11-7.21.27-10.82.13-2-.07-2.18.22-2.19 2.15 0 4 .36 8.07 0 12.11-.13 1.58.48 2.1 2.06 2.09 5 0 9.94.06 14.92.06 3.23 0 3.4-.25 3-4m-16.29 70.74a105 105 0 0 0 16.23-.39c1.26-.09 1.71-.59 1.66-1.84-.17-4.42-.27-8.85-.4-13.28 0-1.16-.63-1.37-1.73-1.34-5.19.14-10.39.18-15.59.23-1.09 0-1.81.32-1.81 1.56v13.47c0 1 .41 1.55 1.68 1.59m-5.93-.16c2.79-.05 2.8-.05 2.85-2.94.08-3.59-.09-7.19.21-10.78a8 8 0 0 0 0-1.47 1.37 1.37 0 0 0-1.51-1.4c-5.24.18-10.48-.31-15.73 0-1.2.06-1.61.48-1.59 1.68a73 73 0 0 1-.62 11.93c-.41 2.73-.28 2.61 2.48 2.8 4.54.32 9.08.16 13.93.23M55.11 54.62c-4.09.07-4.09.07-4 4.09v.66c.24 3.27.45 6.54.76 9.8.08.85 0 1.94 1.42 2 4.76.18 9.52 0 14.28.22 1.84.09 2.34-.63 2.4-2.58.12-4.21-.17-8.41-.3-12.61a1.4 1.4 0 0 0-1.49-1.57 13.5 13.5 0 0 0-1.8 0 56.7 56.7 0 0 1-11.28 0m40.33 82.61c4.81.26 9.6-.21 14.41-.32.85 0 1.79 0 1.84-1.14a69.6 69.6 0 0 0-.5-14.21c-.14-1-.77-1.26-1.64-1.21-1.36.09-2.72.29-4.08.29-3.44 0-6.88.13-10.31.28-1.34.06-1.69.63-1.62 1.83.24 4.13.42 8.26.67 12.39.05.77-.09 1.71 1.23 2.09M78.09 90.13c-1.42 0-2.84-.07-4.26-.14-1.24-.06-1.73.42-1.72 1.72 0 3.94.6 7.85.4 11.79 0 .83.43 1.15 1.17 1.31a20 20 0 0 0 4.88.14c3.93-.14 7.84-.5 11.76-.62 1.53 0 2.23-.53 2.15-2.1-.17-3.38-.35-6.77-.4-10.15 0-1.52-.66-2.08-2.08-2-3.87.23-7.75-.33-11.9 0m51.64-24.82c0 1.09 0 2.19-.06 3.28-.07 1.36.65 2 1.9 1.84 4.9-.52 9.81.41 14.73-.2 1.59-.2 2-.66 2-2.17 0-4-.56-8.08-.33-12.14.07-1.32-.63-1.68-1.82-1.68-4.6 0-9.19 0-13.78.3-1.57.11-2.22.66-2.24 2.28 0 2.73-.23 5.46-.4 8.49M143.2 121c-3.49-.17-7 .14-10.48-.32-1.05-.13-2.06 0-2.06 1.44a72.4 72.4 0 0 0 .74 12.4c.39 2.24.67 2.39 2.92 2.35 4.26-.06 8.51-.2 12.77-.24 1.09 0 1.56-.38 1.63-1.5.25-4.25.35-8.5.21-12.76 0-1-.63-1.31-1.49-1.33h-4.24m-72.12-16.82a2.2 2.2 0 0 0 .16-.64c-.1-4.08-.2-8.17-.35-12.26 0-.85-.5-1.34-1.5-1.32-5 0-10-.73-15-.4-1.53.1-1.93.61-1.89 1.92.11 4 .22 8 .29 12 0 .92.45 1.26 1.3 1.29 5 .15 10 .42 15.06.25a2 2 0 0 0 1.93-.8m4.84 15.94c4.81 0 9.62.06 14.43-.25 1.47-.1 2-.65 2-2.1 0-3.34 0-6.68.06-10 0-2.17-.07-2.31-2.18-2.24-5.36.18-10.71.45-16.06.64-1.23 0-1.41.73-1.37 1.74q.19 4.91.33 9.81c.07 2.27.15 2.36 2.78 2.42m35-59.91c0 2.58 0 5.15.07 7.72 0 1.37.5 2.3 2.15 2.2 1.31-.08 2.63.08 3.94.06 3.27 0 6.54.76 9.81-.06.71-.18 1.27-.35 1.33-1.17a97.5 97.5 0 0 0 .32-12.44c-.06-1.28-.77-1.73-2.08-1.69a90 90 0 0 1-10.49-.2 27 27 0 0 0-3.6.21c-.75 0-1 .5-1.18 1.13-.38 1.3-.15 2.62-.27 4.24m-6.83 10c1.36-.08 2.73-.18 4.09-.24 1.16 0 1.64-.59 1.58-1.77a89 89 0 0 1 0-12.1c.1-1.1-.37-1.39-1.44-1.38-4.6.08-9.19.07-13.78.08-1.93 0-2.36.33-2.33 2.27.07 4 .23 8 .33 12 0 1.39.73 1.92 2.08 1.89 3.06-.08 6.06-.85 9.45-.71m17.63 50.36a54 54 0 0 0-7.2-.3c-1.49-.06-2.08.7-1.85 2 .76 4.28.53 8.6.57 12.91 0 1.28.66 1.81 1.86 1.67a77.7 77.7 0 0 1 12.94 0c1.43.08 2-.37 1.84-1.86a103 103 0 0 1-.69-12.92c0-1.37-.7-1.86-1.95-1.8l-5.52.27m-64.93-.74h2.14c3.82 0 7.63.57 11.46 0 1-.13 1.67-.36 1.54-1.43-.44-3.44-.11-6.89-.31-10.33-.06-1.17-.59-1.87-1.83-1.8-5.09.31-10.17-.29-15.25-.25-1.55 0-2.22.55-2.09 2.12.23 2.83.47 5.66.59 8.5.12 3.24.06 3.24 3.27 3.17h.48m34.93-44.8c-.1-2.44-.17-2.5-2.52-2.5h-11c-1.7 0-3.4.07-5.09.1-.62 0-1.3 0-1.42.81s.58.93 1.18 1 1.19.19 1.78.3a4.88 4.88 0 0 1 3.7 6.51c-1 2.26-2.17 4.45-4.88 5.18-.66.18-1.44.54-1.26 1.46s1 .61 1.64.68c2.89.38 5.78 0 8.66.07 2.45.09 4.91.08 7.37.21 1.39.08 1.93-.35 1.89-1.84-.11-3.89-.06-7.78-.06-12m55.66 44.38c1.07 0 1.61-.29 1.38-1.56a24.5 24.5 0 0 1-.14-3.43 60 60 0 0 0-.26-8c-.16-1-.52-1.16-1.49-1.24-3.33-.27-6.64.4-10 .14-1.39-.11-2.82-.19-4.24-.19s-2 .48-2 1.93c.08 3.22.06 6.44.08 9.66 0 2.47 0 2.61 2.55 2.67 4.59.11 9.18 0 14.07 0m-42.67-39.63a7.46 7.46 0 0 1 4.19-4.77c1.28-.57 1.42-1.55 1.19-2.71s-1.22-1.07-2.09-1c-4.63.27-9.27.46-13.88 1-1.09.13-1.14.79-1.14 1.61v12.11c0 2.92.31 3.18 3.21 3.18h13.4c.34 0 .68 0 .82-.36a1 1 0 0 0-.25-1.2 9 9 0 0 0-1.15-.59 7.47 7.47 0 0 1-4.31-7.23m33.88-8.18H131c-.59 0-1.1.11-1.21.82a1.08 1.08 0 0 0 .93 1.31 16 16 0 0 1 1.7.6c.72.3 1.43.69 1.55 1.55a10.6 10.6 0 0 0 1.21 3 3.8 3.8 0 0 1 .51 2.36c-.5 2.77-1.61 5.1-4.39 6.27-.4.17-.82.34-.85 1 .79.82 1.82.65 2.84.56 4.19-.36 8.38-.79 12.59-.88 2.12 0 2.44-.2 2.31-2.35-.24-4.2.23-8.39-.11-12.59-.12-1.38-.58-1.83-1.89-1.73a32 32 0 0 1-7.64.05m-8.28 21.68c.06 2.72.14 5.44.18 8.16 0 2 .51 2.52 2.51 2.54 4.37 0 8.74-.08 13.1-.27 2.24-.1 2.42-.65 2.17-2.61a71 71 0 0 1-.26-8.51v-3c-5.1.07-10 .27-15 .7-2.79.25-2.56-.26-2.74 3m-16.78 11.55c-1.31 0-1.83.62-1.7 2 .24 2.77.37 5.56.53 8.34.19 3.54.18 3.52 3.68 3.74 3.77.24 7.53.28 11.3.19 1.59 0 2.25-.7 2.21-2.31-.07-2.84.09-5.68-.07-8.51-.06-1.11.25-2.79-1.51-3a44 44 0 0 0-5.38-.36c-2.93-.09-5.86.35-9.06 0m-9.22 14.55c1.77.17 3.48-.35 5.23-.39 1.22 0 1.69-.71 1.61-1.94-.25-3.6-.45-7.2-.65-10.81-.06-1.22-.94-1.41-1.84-1.38-4.26.17-8.52.13-12.77.56-1.42.14-2 .73-2 2.18-.06 3.11.09 6.23-.14 9.34-.18 2.31.11 2.52 2.41 2.5 2.63 0 5.25-.05 8.16-.06m-52.11-37c.09 1.47.23 2.94.26 4.42 0 1 .46 1.38 1.41 1.3 4.81-.41 9.59.69 14.4.31.8-.07 2.13.45 2.25-.62s-1.29-.88-2-1.1c-2.55-.72-3.68-2.46-3.22-5 .5-2.76 1.65-5.07 4.24-6.46.78-.43.76-1.14.61-1.86s-.78-.81-1.41-.81h-3c-3.77-.1-7.54.16-11.31-.18-2-.18-2.25.17-2.25 2.2v7.86m52.72 7.9c-3.16 0-6.33 0-9.49-.07-1.54-.06-2 .46-1.94 2 .2 3.33.34 6.66.38 10 0 1.48.61 1.9 2 1.84 4.32-.2 8.63-.34 12.94-.46 1.14 0 1.57-.48 1.75-1.65.55-3.45-.22-6.87 0-10.3 0-.81-.42-1.07-1.11-1.38-1.45-.64-2.8.27-4.48.06m24 5.93V92.2c0-1.24-.53-1.73-1.81-1.71-4.53.09-9.06.21-13.59.46-1.54.09-1.88.71-1.82 2a77 77 0 0 1 .25 9.33c-.08 1.2.67 1.48 1.68 1.49q6.89 0 13.78.14c1.38 0 1.86-.63 1.78-1.92-.11-1.74-.19-3.48-.28-5.53m-4.38-19.83a9.1 9.1 0 0 1 2.8-2.24 1.55 1.55 0 0 0 .83-2.06c-.28-.95-1.11-.95-1.89-.82a9.7 9.7 0 0 1-3.08.37c-3.37-.5-6.77.11-10.14-.4-.8-.12-1.57.09-1.69 1.12s.12 1.78 1.36 2a6.9 6.9 0 0 1 3.12 1.36c3.67 2.87 1.36 10.37-2.48 11.28-.83.2-1.63.48-1.44 1.6s1.14.88 1.83.84c4.31-.27 8.63-.45 13-.37a1.7 1.7 0 0 0 1.7-.65c-.33-.63-.89-.68-1.43-.77a4.2 4.2 0 0 1-3.65-3.49 9.4 9.4 0 0 1 1.15-7.86ZM93.45 13.34c4.08.16 7 2.74 6.6 5.91a7.36 7.36 0 0 1-3.22 4.95c-.5.4-1.15.63-1.55 1.42C96.52 26.67 98 27.52 99 29a5.2 5.2 0 0 1-2.18 7.8c-2.38 1-4.85 1.8-7.49 1.22-1.25-.28-1.44 1-2.23 1.34a4.13 4.13 0 0 1-.31-5.92 2.86 2.86 0 0 0 .59-1.83c.28-3.86.5-7.73.72-11.59a1.71 1.71 0 0 0-.26-1.41c-.39-.42-1.18-.63-.94-1.38a3.83 3.83 0 0 1 1.58-2 9.7 9.7 0 0 1 5-1.8m-1.55 13.42c-1.34.46-2.78.74-2.9 2.62-.09 1.69-.4 3.37-.49 5.06s.64 2.51 2.32 2.3a16.2 16.2 0 0 0 4.92-1.23c1.62-.75 3-2.85 2.76-4.15-.43-2.42-3.84-4.93-6.61-4.6m2-12a8.9 8.9 0 0 0-3.27 1c-.57.28-1 .64-1 1.35a51.5 51.5 0 0 1-.32 7c-.08 1 .4 1.33 1.41 1.2A9.6 9.6 0 0 0 96 23c1.45-1.28 3-2.79 2.47-4.86s-2.39-2.8-4.58-3.28Zm8.92 18.34v-1.3c0-.58-.49-1.26.1-1.7.74-.55 1 .34 1.43.67s.69.11 1-.11c1.93-1.2 2.57-1.11 4.12.56.26.27.49.57.77.91.69-.44 1.31-.87 2-1.25 1.64-1 3.1-.43 3.53 1.38a5.14 5.14 0 0 1-.2 3.83 6 6 0 0 0-.48 1.56c-.28 1.42.24 1.9 1.68 1.51.42-.11.82-.32 1.26.21a2.09 2.09 0 0 1-2.49 1.48 2.58 2.58 0 0 1-2.13-2.57 5.5 5.5 0 0 1 .78-2.82c.57-1.2.67-2.62-.39-3.24s-1.88.7-2.59 1.5a2.8 2.8 0 0 0-.6 2 9.2 9.2 0 0 1-.92 3.63c-.18.41-.45.8-1 .7a1 1 0 0 1-.77-1 6.8 6.8 0 0 1 .65-3.82c.21-.51.59-1 .45-1.54a2.66 2.66 0 0 0-1.58-2.16c-1-.32-1.39.63-1.87 1.27a6.8 6.8 0 0 0-1.23 4v2.14c0 .71-.18 1.44-1 1.4s-.76-.82-.75-1.41a49 49 0 0 0 .23-5.83M121 22.84a4 4 0 0 1-2.43-5.76c1.65-2.84 4.73-4 7.14-2.63a1.83 1.83 0 0 1 1.08 1.85c-.28 3.62.19 7.22.25 10.83a6.4 6.4 0 0 1 0 1c-.06.52-.22 1-.84 1s-.83-.51-.85-1c-.06-1.42-.08-2.85-.1-4.27 0-1.09-.3-1.77-1.56-1.11a3.6 3.6 0 0 1-2.69.11m-1.38-3.52c.45 1.38 1.33 2.36 2.86 2.16a3.1 3.1 0 0 0 2.52-2.69 4.7 4.7 0 0 0 0-2.27 1.41 1.41 0 0 0-2-1.17c-1.68.63-3.13 1.63-3.38 3.95ZM51 43.23c.38-.58.81-.81 1.3-.42s.35.86.09 1.33a1 1 0 0 1-.09.14c-.56.8-1.47 1.47-1.58 2.44-.14 1.18 1.47 1.14 1.83 2.07a1.5 1.5 0 0 1 .07.35c-1.36 1.59-2.09-.42-3.13-.61-.8.49-1.07 1.38-1.63 2-.35.42-.8.68-1.27.32a.92.92 0 0 1-.07-1.44c.22-.25.45-.48.66-.72.85-.95 1.07-1.84-.11-2.75a7 7 0 0 1-1.24-1.52c-.23-.31-.37-.72 0-1a.75.75 0 0 1 1 .08 5 5 0 0 1 .48.45c2.03 1.99 2.19 1.96 3.69-.72m96.93.82 1.63-2c.3-.36.69-.62 1.13-.3a.76.76 0 0 1 .08 1.16 15 15 0 0 1-1.3 1.47c-1 1-.85 1.8.23 2.56.7.5 1.43 1 2.14 1.45-.58 1.35-1.22 1.54-2.23.62a11.6 11.6 0 0 0-2.12-1.86 6.1 6.1 0 0 0-1.65 2.18c-.31.53-.69.94-1.3.62s-.34-1-.07-1.55a3 3 0 0 1 .51-.64c1.19-1.14 1.59-2.26.11-3.51-.44-.38-.85-1.08-.24-1.57s1 .28 1.45.64.7 1.29 1.63.73" fill="#010101"/>
</svg>