<svg xmlns="http://www.w3.org/2000/svg" viewBox="0 0 198 153">
  <path d="M35.8 34.79c.08-2.4-.24-4.64-.24-6.88a5 5 0 0 0-.24-1.52c-.24-.88-.16-1 .72-1a42 42 0 0 0 5.44.16c7.6-.16 15.2-.16 22.8-.16 4 0 8 .08 12.08-.08 5.76-.16 11.44-.08 17.2-.16s11.28-.48 17-.64c2.64-.08 5.2.24 7.84.32 3.92.16 7.84 0 11.76 0 4.08 0 8.24 0 12.32-.16 5.6-.16 11.28-.08 16.88-.24 3.6-.08 7.12-.08 10.72-.08 1.76 0 1.76 0 1.68 1.68-.16 3.12-.4 6.24-.48 9.36a38 38 0 0 0 .4 6 48 48 0 0 1 .16 6.8c-.24 3.28-.72 6.56-.72 9.84 0 2.24.32 4.56.16 6.8-.16 2-.24 4.08-.32 6.08a.81.81 0 0 1-.72.88c-.32 0-.56.16-.88.16-4.16-.08-8.4.16-12.56-.08-1.84-.08-3.68.16-5.44 0-.56-.08-1 .24-1.28.8-.88 1.68-2.08 2.16-3.52 1.52A1.64 1.64 0 0 1 145.4 73c-.16-.88-.72-1-1.52-1h-27a3.16 3.16 0 0 0-3 1.12 2.32 2.32 0 0 1-3.92-.16 2.61 2.61 0 0 0-2.56-1c-2.64 0-5.28-.16-8 0-4.72.16-9.52-.08-14.24 0-3.68.08-7.28.24-11 .24-3.2.08-6.32-.16-9.52-.24-4.16-.08-8.32 0-12.48 0h-16c-.4 0-.8.08-1-.32a11.4 11.4 0 0 0 .64-4.88c0-2.4.16-4.8.24-7.2.16-3.2.08-6.32 0-9.52 0-1.52.16-3 .16-4.48 0-3.68-.24-7.12-.4-10.64M105.56 61c-9.84 0-19.68-.08-29.6.24.56.8.08 1-.56 1l-1.52.24c-1.44.24-1.6.16-1.28-1.2-.24-.16-.56-.08-.88-.08-2.4 0-4.8.08-7.2.16l-19.2.24a1.23 1.23 0 0 0-1.36 1h2.16c.32 0 .8-.08.8.4s-.48.56-.8.56c-.88 0-1.76.08-2.64 0s-1-.32-.48-1.2a.68.68 0 0 0 .24-.72h-4.08c-1.44 0-1.6.16-1.44 1.6.24 2.48-.08 5 .32 7.6a1.4 1.4 0 0 0 .64.08c3.2.08 6.48 0 9.68.08 4 .08 8.08 0 12.08 0 5.52-.08 11 .32 16.64.16 4.64-.16 9.36-.32 14-.16 5.6.16 11.28.08 16.88.08.64 0 1.12-.08 1.28-.88a2.82 2.82 0 0 1 2.32-2c1.68 0 2.48.4 2.8 1.76.24 1 .72 1.12 1.6 1.12h10.8c5.68 0 11.28.08 17 .16a1.33 1.33 0 0 0 1.52-1 2.32 2.32 0 0 1 2.08-1.52 3.53 3.53 0 0 1 2.56 1.68 1.15 1.15 0 0 0 1.36.72h16.48c.72 0 1.12-.24 1-1a22.4 22.4 0 0 1-.24-4 24 24 0 0 1 0-4.16c.16-1.52.16-1.52-1.36-1.44-3.36.08-6.64.08-10 .16-7 .08-13.84.08-20.8.08-7.28 0-14.48 0-21.76.08-2.8 0-5.76 0-9 .08m59.76-10.48H168c.48 0 .64-.24.72-.72a65 65 0 0 1 .48-6.88c.08-.72-.16-1-1-1-1.84.08-3.68 0-5.52.08-.56 0-1.28-.24-1.76.16s-.08 1-.24 1.44c-.08.32-.08.64-.48.64s-.4-.32-.4-.64V43c0-1.12-.08-1.12-1.12-1h-1.28l-22.24.24c-.8 0-1.12.32-1 1.12.08.48.4 1.28-.4 1.28s-.48-.8-.48-1.28c.08-1-.32-1.2-1.2-1.12-2.08.08-4.16.16-6.16.16-.8 0-1.44 0-1.2 1.12.08.32 0 1-.56 1s-.32-.56-.32-.88c.08-.8-.16-1.2-1.12-1.12-2.56.08-5.12.08-7.76.16-5.76.08-11.44.08-17.2.08a2.62 2.62 0 0 0-2.8 1.92c.88.08 1.84-.56 2.56.48a15.3 15.3 0 0 1-3.28.4c-.64 0-.8-.56-.4-1.12a6.7 6.7 0 0 0 1-1.44h-9.2c-.8 0-1 .64-1.28 1.36h1.92c.24 0 .48.08.48.4s-.24.4-.48.4-.64.08-1 .08c-.72 0-1.44.08-1.92-.56s.32-1 .48-1.6H83c-2.32 0-4.64 0-7 .08l-18 .19c-.88 0-1.28.48-1.52 1.36h2.12c.24 0 .56 0 .56.32s-.24.48-.56.48h-1.44c-.64 0-1.2 0-1.6-.56s.32-1 .48-1.36a5.7 5.7 0 0 0-2.32-.08c-1.68-.08-3.44-.08-5.12 0-3.36.08-6.72.16-10.08 0-.64 0-.8.08-.88.72l-.24 7.28c0 .56.16.8.72.8h3.12c4.08 0 8.16-.08 12.24-.08a1.62 1.62 0 0 0 1.6-.8 3.3 3.3 0 0 1 1.36-1.2c.4-.16.8-.4 1.2 0a4.3 4.3 0 0 1 1.12 1.28 1.29 1.29 0 0 0 1.36.72c2.8-.08 5.6-.24 8.32-.24 4.4-.08 8.88-.08 13.28-.08a2 2 0 0 0 1.84-.91c1-1.28 2.24-1.2 3.2.24a1 1 0 0 0 1 .48c1.2 0 2.4-.08 3.6 0a2.43 2.43 0 0 0 2.48-1c1.28-1.68 2.72-1.36 3.52.64a.7.7 0 0 0 .72.4c3.44-.08 7-.08 10.4-.16 3.68-.08 7.44 0 11.12-.08a3 3 0 0 0 2.64-1 2 2 0 0 1 3.44.4.86.86 0 0 0 .88.48c1.28 0 2.48-.08 3.76 0a1.32 1.32 0 0 0 1.2-.72c1.12-1.92 2.8-1.92 3.92-.08a1.13 1.13 0 0 0 1.2.64L156 51a2.54 2.54 0 0 0 2.16-.88c1.44-1.68 2.4-1.44 3.52-.16a2.06 2.06 0 0 0 1.84.88 2.65 2.65 0 0 1 1.76-.4m-104.64-8a13 13 0 0 1 1.76-.16c3.92-.08 7.76 0 11.68-.08 3.12-.08 6.24-.08 9.36-.08a3 3 0 0 0 1.48-.12c.24-.16.64-.4.48-.8s-.48-.32-.8-.16-.56.16-.64-.16a.53.53 0 0 1 .24-.72 1.18 1.18 0 0 1 1-.16 1.58 1.58 0 0 1 1.2 2h9a.6.6 0 0 0 .56-.48.59.59 0 0 0-.16-.52.48.48 0 0 0-.64.08 2.1 2.1 0 0 0-.48.4c-.16.08-.32.16-.48 0A.59.59 0 0 1 94 41a1.24 1.24 0 0 1 .48-.64 1.5 1.5 0 0 1 1.52-.21 1.62 1.62 0 0 1 .92 1.85 22 22 0 0 0 3.28-.08c4.16-.08 8.32-.08 12.48-.08 3.2 0 6.4 0 9.6-.08 1.28 0 1.28 0 1.52-1.28.08-.32.16-.64.56-.56a.46.46 0 0 1 .4.64c-.16.88.32 1 1 1 2.16-.08 4.32-.16 6.48-.16.72 0 1.36 0 1.2-1 0-.24 0-.64.4-.72s.48.32.48.64c-.08 1 .4 1 1.2 1 3.68-.08 7.36 0 11-.16 3.92-.16 7.84-.08 11.76-.08 1.36 0 1.36 0 1.44-1.36 0-.32.08-.64.4-.72.48 0 .48.4.48.72v.56c0 .64.32.8.88.72 2.16-.16 4.32-.08 6.48-.16 1.2 0 1.2 0 1.2-1.2 0-1.92-.08-3.92.08-5.84.08-.88-.24-1-1-1q-2.88.12-5.76 0a2.5 2.5 0 0 0-2.72 1.6l2.72-.24c.24 0 .56.08.56.4s-.24.48-.56.48a9.4 9.4 0 0 0-3 .32.76.76 0 0 1-.88-.24c-.24-.4-.08-.64.16-1s.8-.56.8-1.12a4 4 0 0 1-.4-.08c-5 0-10 0-15 .08-3 .08-5.92.08-8.88.08a1.77 1.77 0 0 0-2 1.44c.8.48 1.92-.48 2.56.56a.66.66 0 0 1-.4.4c-1 0-1.92.08-2.88.08-.64 0-.64-.48-.4-1s.48-.88.8-1.36h-2c-2 0-4 .08-6 .08-.8 0-1.12.56-1.36 1.36a6 6 0 0 0 1.68.08c.32-.08.72-.08.8.32s-.32.48-.72.48h-2.4c-.64 0-.8-.32-.48-.88.16-.4.56-.72.56-1.36-2.4 0-4.8-.08-7.2 0-6.08.16-12.08 0-18.16.08a2.34 2.34 0 0 0-2.4 2c1 .32 2-.32 2.88.48a7.86 7.86 0 0 1-3.84.48c-.48-.08-.56-.56-.32-1 .4-.56.8-1.2 1.2-1.76-.24-.24-.56-.16-.8-.16-2.4 0-4.72.08-7.12-.08-1.44-.08-2.08.8-2.88 1.76.88.4 1.92-.08 2.8.48-.16.16-.16.32-.24.32a5.46 5.46 0 0 1-3.2.08c-.56-.08-.72-.64-.24-1.12s.8-.88 1.28-1.36c-3.44.16-6.64 0-9.84.08-5 .08-10 .16-15 0a3.44 3.44 0 0 0-3.2 1.76h1.84c.24 0 .4.08.48.4a.37.37 0 0 1-.32.4 15.5 15.5 0 0 1-2.72.08c-.72-.08-.72-.56-.24-1.12.4-.4 1-.64 1.2-1.52a37 37 0 0 1-5.12.16c-4.24-.16-8.48.08-12.72-.08-.88 0-1.2.24-1.12 1.12.08 2.08.16 4.16.16 6.32 0 1.28.08 1.36 1.36 1.36h17.2a1 1 0 0 0 1-.64.5.5 0 0 0-.16-.64c-.4-.4-.72-.08-1 .16-.16.08-.32.16-.48 0s-.08-.4 0-.56a1.36 1.36 0 0 1 1.84-.4 1.47 1.47 0 0 1 .56 2.16 9.5 9.5 0 0 1 2.16-.16m60.88 9.44a1.38 1.38 0 0 0-1-.16c-7 .08-14.16.16-21.2.16a3.35 3.35 0 0 0-2.8 1 1.75 1.75 0 0 1-3-.48.71.71 0 0 0-.88-.4c-1.36 0-2.72.08-4.16.08a1.76 1.76 0 0 0-1.68.72c-1.2 1.68-3 1.44-3.84-.32-.16-.32-.32-.4-.64-.32a16.4 16.4 0 0 1-2.8.08c-4.24.08-8.48 0-12.8.16-2.16.08-4.4.08-6.56.08-.48 0-1 0-1.2.56a2.38 2.38 0 0 1-2.16 1.68 2.21 2.21 0 0 1-2.08-1.52 1 1 0 0 0-1-.64H38.6c-.56 0-.88.16-1 .8-.16 2.16-.08 4.4-.08 6.56 0 .4.16.64.56.64 1.76.08 3.6.16 5.36.08.64 0 .88-.56.8-1.12s-.64-.48-1-.32a.38.38 0 0 1-.48-.08c0-.72.4-1 1-.88 1 .08 1.52 1 1.28 2.16a1.08 1.08 0 0 0 .72.16c4.32-.16 8.56 0 12.88-.16s8.72-.08 13-.08A2 2 0 0 0 74 58.47c-.48-.4-.72.08-1 .32-.16.16-.4.32-.64.16s-.16-.32-.08-.48c.24-.56.56-1 1.2-1.12a1.5 1.5 0 0 1 1.36.64c.32.48.08.88-.16 1.36-.16.24-.32.4-.24.72.4.24.8.08 1.2.08 4.8-.08 9.68-.16 14.48-.16h12.16c9.84-.08 19.68-.16 29.52-.16h24c3.92 0 7.84-.08 11.76-.16.64 0 .88-.16 1-.88.16-2.32 0-4.64 0-7 0-.56-.24-.72-.8-.72-1 0-1.92.08-2.88 0-1.36-.08-2.56 0-3.12 1.52 0 .08-.08.16-.16.24a2.13 2.13 0 0 1-3.68-.56 1.26 1.26 0 0 0-1.52-1c-6.56.08-13.2.16-19.76.16a1.46 1.46 0 0 0-1.28.64 2.17 2.17 0 0 1-3.52 0 1.07 1.07 0 0 0-1.2-.56h-4.16a.7.7 0 0 0-.72.4 2.88 2.88 0 0 1-2.76 1.76c-.72 0-1-.8-1.44-1.76m40.32-19.6c2.32.16 4.64-.08 6.88-.08.48 0 .56-.4.56-.72 0-1-.16-2-.16-3 0-1.12.64-2.16.32-3.28a2.6 2.6 0 0 0-1.12-.08c-3.2.08-6.48 0-9.68.16s-6.56 0-9.92.08c-7 .08-13.92.24-20.8.32-4.88.08-9.68 0-14.56-.32a58 58 0 0 0-9.84.32c-4.88.4-9.76.24-14.64.32-6 .16-11.92.16-17.92.24-9.6.08-19.2.08-28.8.08h-4.32c0 2.16 0 4.16.16 6.16.08.48.32.56.72.56 1.52 0 3 .08 4.48.08s2.88-.16 4.32-.08c3.2.16 6.32 0 9.52.08.32 0 .64 0 .64-.4a.65.65 0 0 0-.72-.64c-.24 0-.4.24-.56.4s-.32.4-.56.16-.16-.4-.08-.64a1.34 1.34 0 0 1 1.84-.64A1.7 1.7 0 0 1 58.76 33H73.4c3.76 0 7.52-.08 11.28-.08.32 0 .72.08.8-.4a.46.46 0 0 0-.32-.56.56.56 0 0 0-.8.32c-.16.32-.4.56-.8.24s-.32-.64.08-1 .88-.8 1.52-.64a1.75 1.75 0 0 1 1.2 1.36c.08.56.32.64.8.64 1.84 0 3.68.08 5.44 0a26.5 26.5 0 0 0 3.52-.16c-.24-.8-.64-.88-1.28-.64-.24.08-.56.16-.72-.16s.16-.56.4-.72a1.78 1.78 0 0 1 2.48 1 1.08 1.08 0 0 0 1.12.64c2.72-.08 5.36.08 8.08 0 5.44-.08 10.88-.08 16.4-.08a6 6 0 0 0 1.2-.08.68.68 0 0 0 .56-.72.57.57 0 0 0-.24-.48c-.32-.16-.56.08-.8.24a4.4 4.4 0 0 0-.56.72.35.35 0 0 1-.4.08.43.43 0 0 1-.24-.32 2.8 2.8 0 0 1 1.2-1.52c.48-.32.88-.16 1.36.08.72.48.56 1.12.48 1.84 2.8.08 5.44 0 8.16-.08.32 0 .72 0 .88-.4s-.08-.72-.4-1-.64-.08-1 .16-.4.4-.72.08-.08-.56.16-.8c.4-.32.8-.8 1.44-.56a2 2 0 0 1 1.36 1.68c0 .56.16.72.72.72 4.4 0 8.72 0 13.12-.08 2.72 0 5.52-.08 8.24-.08 1 0 2 0 3-.08a.77.77 0 0 0 .72-.48.61.61 0 0 0-.24-.72.73.73 0 0 0-.88-.08.62.62 0 0 0-.32.32.45.45 0 0 1-.72.16c-.32-.24-.16-.56 0-.8a1.48 1.48 0 0 1 2.32-.4 3.68 3.68 0 0 1 .88 2.08m9 17.36c.08-.72.16-1.36.24-2.08a38 38 0 0 0-.16-5.2c0-.24 0-.56-.4-.56s-.48.32-.48.64c-.32 2.4-.4 4.88-.48 7.36 0 .24 0 .4.24.56.24-.16 1 .32 1-.72M170 70c.08-.88.08-1.76.16-2.72a52 52 0 0 0 .24-6.08c0-.32-.08-.64-.56-.64s-.48.32-.48.72a74 74 0 0 0 .16 8.4 4.7 4.7 0 0 0 .16 1h.16A3.3 3.3 0 0 0 170 70m.72-18c0-1-.64-.88-1.2-.8a2 2 0 0 0-.16 1c0 2 .16 3.92.08 5.92v1.2c0 .24.08.48.4.48s.56-.08.48-.48a28 28 0 0 1 .4-7.28M36.6 61.67c-.4 2.88-.08 5.76-.16 8.64 0 .24.08.4.48.4.48-.64.16-1.44.16-2.16v-6.4c-.08-.16.16-.56-.48-.48m73.84 9.2h3.36a2.56 2.56 0 0 0-.4-1.44c-.24-.32-.48-.72-1-.48-.32.16-.48 0-.72 0-.8-.08-1.76 1.12-1.28 1.92m-74.16-41c0 .88.32 1.6.32 2.48a.38.38 0 0 0 .4.4c.32 0 .32-.24.32-.48-.08-1.76-.16-3.6-.16-5.36 0-.32-.16-.56-.48-.48s-.32.32-.32.56a11 11 0 0 0-.08 2.88m1 11.68v-2.2c0-1.76-.08-3.44-.08-5.2 0-.24 0-.48-.32-.48s-.32.32-.32.56v.32c.16 2.56.24 5 .4 7.6a.21.21 0 0 0 .24.24c.16-.24.08-.48.08-.88M171 25.43c-.4-.64-.56-.24-.56.16-.16 1.36-.32 2.72-.4 4.08 0 .8.16 1.68.24 2.48h.32c.32-2.24.24-4.4.4-6.72m-134.32 25c0 .48-.24 1 .24 1.6a53.4 53.4 0 0 0 .16-8.72 30 30 0 0 0-.4 7.12M170.6 38c-.4-1.6 0-3.2-.24-4.88a50 50 0 0 0-.4 7.76c.48 0 .72 0 .72-.48a22 22 0 0 1-.08-2.4m-24 35.2a1.68 1.68 0 0 0 2.56-1.44h-2.56c-.48 0-.64.24-.4.72a2.2 2.2 0 0 0 .4.72m14.8-21.92-2.64.16c.16 1.12.8 1.68 1.6 1.44s1.36-.88 1-1.6m-15.28 19.6c1 .56 2.08-.16 3.2.16-.16-1.52-1.68-.8-2.16-1.6a1.8 1.8 0 0 0-1 1.44m-20.88-18.8c0-.16 0-.24-.08-.32a4 4 0 0 0-2.56.08c.24 1 .64 1.28 1.44 1a2.28 2.28 0 0 0 1.2-.8m-12 19.68a13 13 0 0 0-3 0 1.44 1.44 0 0 0 1.52 1c.72-.08 1.36-.24 1.52-1M36.68 53c.32 2.56-.24 5.12-.08 7.68.48-.08.32-.4.32-.64.08-2.08.08-4.24.08-6.32 0-.32.24-.72-.32-.72m19.2-.16c-.08.64.32 1 .88 1 .8.16 1.28-.32 1.68-1.12a5.54 5.54 0 0 0-2.56.08m104.8-3.36a2 2 0 0 0-1.6 1.2c1-.08 1.84.16 2.72-.32a1.2 1.2 0 0 0-1.12-.88m-63.92.88c-1.12-.32-1.84-.08-2.16 1h1.76c.56 0 .72-.32.4-1m-39.52.32a1.87 1.87 0 0 0-1.12 1.2 8 8 0 0 0 2.4 0c-.32-.64-.56-1-1.28-1.2m75.76-.57c-.16.24-.4.4-.24.8a11 11 0 0 0 2.32-.16c-.4-1-1.12-1.28-2.08-.64m-47 2.16a4.5 4.5 0 0 0-1 0c-.32 0-.88-.08-.88.48s.56.56 1 .48a1.4 1.4 0 0 0 1.12-.56c.16-.24.16-.4-.16-.4m38.32-2.08c-.56-.08-.88.32-1.36.72 1 0 1.68.08 2.48 0-.24-.56-.64-.56-1.12-.72M86 51.51c.56-.08.56-.32.16-.56-.56-.4-1.12-.24-1.6.48.4.16.88 0 1.44.08m48.16.08a2.37 2.37 0 0 0-1.28.16 1.09 1.09 0 0 0 1.92-.08c-.16-.16-.32-.08-.64-.08M96 52.07c-.56-.08-1.12-.24-1.6.16.64.72 1.44.64 1.6-.16m-21.36 9c-.24.08-.64-.08-.8.4a3 3 0 0 0 1.6-.32 3.3 3.3 0 0 0-.8-.08M40.12 13.91a5.2 5.2 0 0 1 0-1.92 2.67 2.67 0 0 0-.12-1.36 1.48 1.48 0 0 1 1.4-1.92 2.15 2.15 0 0 1 1.76 1.2 1.33 1.33 0 0 1-.16 1.6 12 12 0 0 1-1 1.12 8.5 8.5 0 0 1 .88.72 1.39 1.39 0 0 1-.16 2.4 13.7 13.7 0 0 1-2.32.88c-.64.24-1-.64-1.2-1.12s.24-.4.56-.48c.4-.24.24-.72.32-1.12m.8-3.28c.16.48-.16 1 .08 1.52a2.3 2.3 0 0 0 1.4-1.15c.16-.48-.08-.72-.4-1s-.48-.48-.88-.24-.4.48-.16 1M42.2 15c.64-.72.16-1.36-1.2-1.6a7.3 7.3 0 0 0-.08 1.84A1.51 1.51 0 0 0 42.2 15m72.4-1.92c.4-.08.64 0 .64.4s-.16.4-.4.48c-1.12.4-2.32.8-3.44 1.28-.32.08-.56.16-.8-.08a1.08 1.08 0 0 1-.4-1 17.5 17.5 0 0 0 .4-5.76c-.08-.56.08-.88.72-.88a4.07 4.07 0 0 0 2.08-.72c.4-.24.64-.16.8.16s0 .64-.4.72c-.16.08-.32.08-.48.16-1.92.72-2.08 1-1.68 3.12a1.63 1.63 0 0 0 1.2-.48c.4-.24.72-.16 1 .32s-.16.56-.48.64c-1.84.64-1.84.64-1.76 2.64 1-.32 1.92-.72 3-1M30.2 69.43c.08-1.36.08-1.36 1.44-1.36a12 12 0 0 1 1.68.16c.32.08.72.08.64.56s-.4.32-.72.4c-.48.08-.88-.16-1.36-.16s-.88.16-.8.8c.72.56 1.92-.32 2.56.8a4.1 4.1 0 0 1-2.16.24c-.4 0-.72-.08-.8.4s.4.48.72.48c.56 0 1-.16 1.6-.16.32 0 .72 0 .8.4s-.4.4-.64.48a6.3 6.3 0 0 1-2.72.16c-.64-.16-.88-.48-.72-1.12s.32-1.28.48-2.08m.48-37.36a1.26 1.26 0 0 1 1.44-1.28 1.34 1.34 0 0 1 1.2 1.6.91.91 0 0 0 .4 1c.48.32.48.8.16 1.36a2.49 2.49 0 0 1-2.48 1.12q-1.08-.24-.48-1.2a2.85 2.85 0 0 0-.24-2.64m2.24 1.84c-1-.24-1.12 0-.8 1.2.4-.32 1.12-.32.8-1.2M47.4 13.75c1.2-.4 1.76.16 1.52 1.28-.08.48-.16.88.4 1.2.4.16.24.48-.08.64a1 1 0 0 1-1 0 1.19 1.19 0 0 1-.32-1.12c.08-.4.4-.72.16-1.28a1.3 1.3 0 0 0-.88 1.36c0 .32-.08.8-.56.72s-.4-.48-.4-.8.08-.64-.24-.88c-1.36.48-.16 2.24-1.28 2.8-.4-.08-.4-.32-.48-.56a5.2 5.2 0 0 0 0-1.12c-.48-1.44.4-1.76 1.52-2 .24 0 .48-.08.64 0 .4.32.72.08 1-.24M34 45.59c-.8.32-.64-.4-.88-.64-1.6.4-2.08.24-2.72-.72A2.62 2.62 0 0 1 31 41a4 4 0 0 1 1.84-1.12c.32-.08.56-.08.64.24s-.16.4-.4.48a3.3 3.3 0 0 0-1.92 1.68 1.48 1.48 0 0 0 .4 1.92.82.82 0 0 0 1.28-.2c.32-.48-.16-.56-.48-.72s-.48-.24-.32-.56.4-.48.72-.32c.64.24 1.28.56 1.28 1.44a6.5 6.5 0 0 1 0 1.76m-1.76 16.31c-.8-.08-1.36.08-1.6.88-.08.32-.4.64-.72.48-.48-.16-.16-.56 0-.88.56-1.12 1.12-2.32 1.68-3.44.16-.32.4-.72.8-.64s.32.56.4.88a11.4 11.4 0 0 0 .8 2.32 11.6 11.6 0 0 1 .48 2.4.38.38 0 0 1-.4.4.42.42 0 0 1-.48-.48c-.08-.72-.08-1.52-1-1.92m.16-1.2c-.08-.24-.08-.48-.4-.64a1.4 1.4 0 0 0-.48 1c.32-.08.64.24.88-.32m.8-10 .24.48a2.06 2.06 0 0 1-1.92 3.2c-.48 0-.88-.16-.64-.8.4-1 0-1.92-.08-3a.53.53 0 0 0-.32-.4c-.24-.08-.48-.24-.4-.48s.4-.32.64-.32a2.69 2.69 0 0 1 2.48 1.28m-1.4.29c.08.56.08 1 .16 1.6 0 .24-.08.56.32.64s.48-.16.64-.32a1.08 1.08 0 0 0 0-1.28c-.24-.4-.4-.88-1-1 0-.08-.08.08-.08.32m-1.32-26.81c.4-.56.8-1.12 1.52-1a.89.89 0 0 1 .72 1 1.71 1.71 0 0 1-1.2 1.52l-.48.24c.16.56.48.56.88.48a4.3 4.3 0 0 0 .88-.4.64.64 0 0 1 .88.16c.16.32-.16.48-.4.64-.08 0-.08.08-.16.08a2.32 2.32 0 0 1-2.56.13 3 3 0 0 1-.08-2.88M51.16 7.91c.64.72.24 1.52.4 2.32a7 7 0 0 1 0 1.28c0 .4-.16.72-.56.64s-.4-.4-.32-.72a1.57 1.57 0 0 0-.08-1.2c-.08 0-.08-.08-.16-.08-1.12.08-1.68-.24-1.68-1.12 0-.72.64-1.28 1.68-1.28a1.46 1.46 0 0 1 .72.16m-1.52 1.28c.72.32.64-.16.72-.64-.48 0-.8.08-.72.64M121 6.87c.56.8 0 1-.56 1.36a1.56 1.56 0 0 1-1.84-.08.6.6 0 0 1-.08-.4.48.48 0 0 1 .48-.24c.24 0 .56.24.88-.08-.88-.24-1.76-.56-1.44-1.68a1.18 1.18 0 0 1 1.6-.64c.64.24.72.48.4 1.28.16.16.4.32.56.48m-4.32 1.36a5.8 5.8 0 0 0-.08-1.68c-.08-.32.08-.64.4-.64s.48.32.48.56v2.16c0 .4-.08.8-.56.72s-.48-.4-.4-.8c.16-.08.16-.16.16-.32M36.22 136.44v-5c-.16 2.48-.56 5-.48 7.44v.64c0 .32-.08.56-.48.56s-.48-.32-.48-.64c.08-1.28.08-2.56.24-3.84a61 61 0 0 0 .08-10.8 19 19 0 0 0-.4-2.64 5.47 5.47 0 0 1-2.64 2.72 1.09 1.09 0 0 1-1.2.08c-.48-.32-.16-.64-.16-1-.08-1.28.08-2.56.08-3.84s.32-1.36 1.44-1a4.72 4.72 0 0 1 2.4 2c-.08-1.84-.16-3.44-.24-5-.08-.64-.88-.64-1-1.2-1.76 1-3 .32-3.36-1.6a3.59 3.59 0 0 1 .72-3.44 1.62 1.62 0 0 1 2.26-.08 2.4 2.4 0 0 0-2.22 2.2 2.82 2.82 0 0 0 .72 2.48c.16.24.4.48.8.24.24-.16.4-.32.4-.56a.61.61 0 0 0-.56-.64c-.32-.08-.72 0-.56-.56a.68.68 0 0 1 .88-.4c.16 0 .4.08.56.08.88-.16 1.12.32 1.2 1 .08.32-.16.64.16 1.12a25 25 0 0 0 .16-3.36c-.24-2.4.16-4.8.08-7.2-.16-2.8.16-5.6-.32-8.4-.16-.88.16-1.2 1.12-1.2 3.36 0 6.8-.16 10.16 0 8 .32 15.92.08 23.92.08h24.8c7.12-.08 14.24 0 21.36-.16 3.68-.08 7.44-.08 11.12-.08 6.88-.08 13.68-.08 20.56-.24 3.76-.08 7.52 0 11.36-.16s7.68-.24 11.6-.32h2.32c.64 0 1 .16.72.88a32.5 32.5 0 0 0-1 7.92q0 4.8-.48 9.6c-.24 3-.08 6.16-.24 9.2 0 .48.32.64.56 1a1.67 1.67 0 0 0-.48 1.68 34 34 0 0 1-.08 5c-.08.48-.24 1 .48 1.36a1.45 1.45 0 0 0-.64 1.44c0 2.16 0 4.24-.16 6.4-.08.64-.08 1-.88.56-.56-.4-1.28-.16-1.92-.16-8.48.16-17 .4-25.44.56-3.68.08-7.36.08-11 .16s-7.2 0-10.8.08c-4.4.08-8.8.24-13.2.32-2.56.08-5.12 0-7.76.16-3.6.16-7.28.32-10.88.32h-1.6c-3.2 0-6.4.32-9.6.4-4.32.08-8.64.24-13 .4-5.44.24-10.88.48-16.32.48-3.28 0-6.48.16-9.76.08-1.2 0-2.32-.16-3.52-.16a.9.9 0 0 1-.64-.24.4.4 0 0 1 .4-.48c1 0 .88-.64.88-1.28.08-1 0-1.92 0-2.88M163.78 103l-1 1.28c.88.24 1.84-.56 2.48.48-.24.48-.64.48-1 .48a8.8 8.8 0 0 0-2 .16c-.32.08-.64.24-.88-.08s0-.64.24-1l1.44-1.92a6.5 6.5 0 0 0-2.48-.08c-7.44-.08-15 .08-22.4.16-1.2 0-1.76.56-1.76 1.84.64.08 1.28.08 1.84.16.32 0 .8-.16.8.4s-.48.48-.88.48c-.64 0-1.28-.08-2-.08-.88 0-1.12-.32-.8-1.2.16-.48.48-.88.4-1.44-.16 0-.24-.08-.4-.08-2.16.08-4.4.08-6.56.16a3.16 3.16 0 0 0-2.56 2.32c.72.32 1.44-.08 2.24-.08.24 0 .48 0 .56.32a.38.38 0 0 1-.4.4 4.67 4.67 0 0 1-2.56.16c-1-.32-1.12-.8-.56-1.6.32-.48.88-.8 1.12-1.52h-1.12c-3.44.08-6.8 0-10.24.08-4.48.08-9 .08-13.44.08-1.36 0-1.76.4-2.08 1.76.8.32 1.68 0 2.48.56a1.21 1.21 0 0 1-1.44.48 11 11 0 0 0-1.6-.16c-.8 0-1-.32-.56-1 .32-.48.56-1 1-1.68h-1c-2.16 0-4.32 0-6.48.08a2.82 2.82 0 0 0-3.32 2.08h2.32c.32 0 .64.16.56.56s-.4.4-.72.24a2.06 2.06 0 0 0-1.2-.08 6 6 0 0 1-1.2.08c-.4 0-.72 0-.88-.4s.16-.64.32-.88a5.2 5.2 0 0 0 1.12-1.68H60.06c-.32 0-.64-.08-.88.16-.72.8-1.52 1.6-2.4 2.56a9 9 0 0 0 3-.08c.4-.16.88-.32 1 .16s-.48.48-.8.64a7.6 7.6 0 0 1-3.28.16 1.06 1.06 0 0 1-.88-.64c-.08-.4.16-.64.4-.88a9.6 9.6 0 0 0 1.76-1.84c-.16 0-.24-.08-.32-.08-2.56 0-5.2.08-7.76 0-4.16-.08-8.32.08-12.48.08-.48 0-.72.16-.72.64-.08 2.4-.08 4.88-.16 7.28 0 .48.24.64.64.64a23 23 0 0 0 2.32.08c5.68.08 11.36.08 17 .16.56 0 .8-.16.72-.72v-1c0-.32.16-.56.48-.56s.4.32.4.56v.48C58 112 58 112 59.42 112c5 0 10.16 0 15.2.08 4.24.08 8.48.08 12.8.08.88 0 1.36-.24 1.28-1.2 0-.32 0-.8.48-.72s.4.48.32.88c-.16.88.24 1 1 1h7.68c1.12 0 1.2-.08 1.2-1.12 0-.4 0-.8.48-.8s.4.48.4.72c.08 1.2.16 1.28 1.36 1.28h9.76c4.56 0 9.12 0 13.68.16.64 0 1-.16 1-.88a1.8 1.8 0 0 1 .08-.64.37.37 0 0 1 .4-.32.29.29 0 0 1 .32.32v.64c0 .64.24.88.88.88h7.92a1.93 1.93 0 0 0-.08-1.36c-.08-.32-.16-.64.24-.72s.56.32.64.64a1.2 1.2 0 0 1 .08.56c.08.8.4 1 1.2 1 3.44-.08 7-.08 10.4 0 4.16.08 8.4 0 12.56.08.88 0 1.52 0 1.36-1.12 0-.24.08-.48.4-.48s.4.24.48.56.08.64.08 1.12h5.2c.56 0 .48-.48.48-.8 0-3 .4-6 .56-9 .08-.56-.16-.72-.64-.72h-4c-.24-.08-.56.16-.88.72m-63.68 18.56c.24-.32.56-.64.16-1a.75.75 0 0 0-1 0c-.24.16-.48.64-.8.24s.16-.64.32-.88a1.18 1.18 0 0 1 1.12-.4c1.2.24 1.44.64 1.28 2.16.24.16.48.08.72.08h10.04c3.52 0 7 .08 10.56.08h3.92c.56 0 .64-.4.8-.8.08-.24.08-.4-.16-.56a1.13 1.13 0 0 0-1.12.08c-.16.08-.24.24-.4.32s-.32.16-.48 0a.38.38 0 0 1-.08-.48c.32-.48.64-1 1.36-.88a1.72 1.72 0 0 1 1.76.88c.24.48-.24.88-.08 1.28.08 0 .16.08.24.08 2.24 0 4.56.08 6.8 0 .8 0 1-.72 1.12-1.36a1.17 1.17 0 0 0-1 .32c-.32.16-.64.08-.56-.32.08-.56.56-.72 1-.88s.8-.32 1.12.08a1 1 0 0 1 .32 1.12c-.08.24-.32.48-.16.88a40 40 0 0 0 5.36.16h19.2c.56 0 1.12 0 1.36-.64a.42.42 0 0 0-.08-.64c-.24-.16-.4-.32-.64-.08-.16.08-.24.24-.4.4s-.32.32-.56.16a.42.42 0 0 1-.08-.64 1.27 1.27 0 0 1 1.68-.72c1.2.48 1.28.72 1 2.08h4.16c.48 0 .56-.32.56-.72 0-1 .08-1.84.08-2.8a48 48 0 0 0 .24-4.88h-4.44c-.8 0-1.2.16-1.12 1 .08.4.08 1-.56 1-.48 0-.56-.56-.48-1 .16-.88-.24-1-1-1h-9.92c-4.48 0-9-.08-13.36-.16-.72 0-1 .24-1 1 0 .48 0 .88-.48 1.2-.56-.16-.48-.56-.48-1 0-1.2 0-1.2-1.2-1.2h-6c-.8 0-1.44-.08-1.36 1 0 .32-.24.48-.56.48s-.4-.32-.4-.56c.08-.88-.4-1-1.12-1-7.68-.08-15.28-.08-23-.16-1.84 0-1.84 0-1.84 1.84v.32c0 .24 0 .48-.32.56s-.56-.16-.56-.56v-1.2c.16-.8-.16-1-1-1h-6.8c-2 0-2 0-2.24 2.08 0 .4-.24.64-.64.56s-.4-.4-.32-.72.08-.8.16-1.12c.16-.64-.16-.8-.72-.8-4.24 0-8.48-.08-12.8-.16-5.44-.08-10.88.08-16.24-.16-.72 0-.88.24-.8.88.08.4.08 1-.48 1s-.48-.56-.48-.88c.08-.8-.24-1-1-1-1.44.08-2.88 0-4.32 0-4.88-.08-9.76-.08-14.64-.16-.48 0-.88 0-.88.72.16 2.4-.24 4.88 0 7.28.08.56.24.8.8.8 1.36 0 2.72.08 4 .08 5.44 0 10.88 0 16.32.08a.9.9 0 0 0 1-.72c.08-.48-.24-.72-.56-1s-.8-.08-1.12.16-.32.72-.88.72a.88.88 0 0 1 .24-1.2c.48-.48 1-1 1.68-.64a2.1 2.1 0 0 1 1.44 2.64c2.24.16 4.4 0 6.56 0h9.84c3.28.08 6.56-.08 9.76.08 1 .08 2 0 3 0a.64.64 0 0 0 .72-.56c.08-.24.08-.4-.16-.56s-.56-.08-.8.08-.4.32-.64 0a.43.43 0 0 1 .16-.64 1.33 1.33 0 0 1 1.68-.32c.88.4.88 1.12.72 2h7.4a2.91 2.91 0 0 0 2.56.16m-8.56 9.36h-2.88c-2.4 0-4.72.16-7.12.08-1.12 0-2 .08-2.64 1.2s-1.68 1-2.72 1-1.36-.8-1.52-1.68c0-.16-.08-.24-.16-.48h-1.28c-3.52.08-7 0-10.56.08-5 .24-9.92-.24-14.88 0-.8 0-1.44.08-1.68 1a1.87 1.87 0 0 1-.8 1c-1 1-3.28.8-3.68-.64s-1.2-1.6-2.4-1.44a9 9 0 0 1-1.44 0c-.48 0-.72.16-.72.64 0 2.32-.08 4.64-.08 7 0 1.84.24 2 2.08 2 2.56 0 5.12-.16 7.68-.08 4.16.16 8.32-.08 12.48-.16 5.92-.16 11.84-.4 17.76-.56 5.2-.16 10.4-.4 15.6-.48 2.56 0 5.2-.16 7.76-.24 4.48-.08 9-.32 13.36-.4 5.12-.08 10.32-.08 15.44-.24 3.12-.08 6.24-.08 9.36-.08 7.52-.16 15-.32 22.48-.56 2.16-.08 4.32-.08 6.48-.08.56 0 1-.08 1-.8-.08-1.84-.16-3.68-.32-5.6 0-.48-.24-.64-.8-.64h-10.8c-1.36 0-2.56 0-3.68 1.12a2.06 2.06 0 0 1-3-.24 1.72 1.72 0 0 0-2-.8 4 4 0 0 1-1 .08h-27.2a1.46 1.46 0 0 0-1.28.64c-1.28 1.84-3.28 1.84-4.4-.16a1 1 0 0 0-1-.48c-6.88 0-14.16.08-21.6.08m69.12-8.16c-4.88 0-9.84 0-14.72-.08-3 0-6-.08-9-.08-.72 0-1.2.24-1.28 1.12a5.27 5.27 0 0 0 2.72-.4c.24-.08.48-.32.72 0s-.08.48-.32.64a3.37 3.37 0 0 1-2.32.56c-.56 0-1.2.16-1.68-.4s0-1 .16-1.52h-7.12c-.72 0-1.12.48-1.28 1.2.88.4 1.92-.24 2.72.4-.08.56-.4.56-.8.56h-1c-.56 0-1.12.24-1.6-.32s.08-1 .24-1.6v-.16c-.08 0-.08-.08-.16-.08-8.32-.08-16.72-.08-25-.16a1.2 1.2 0 0 0-1.2 1c1.28.4 2.56-.16 3.76.24-.08.48-.32.64-.56.64-1.12 0-2.24.08-3.44 0-.64 0-.8-.56-.64-1 .08-.24.24-.48.4-.88-2.8 0-5.52.08-8.16 0a2.52 2.52 0 0 0-2.32 1.52c.72-.08 1.36.16 1.92-.08.24-.08.56-.32.72.08s-.16.56-.4.64a4.7 4.7 0 0 1-3 .08c-.48-.08-.56-.56-.24-1s.56-.72.88-1.2c-.24 0-.4-.08-.56-.08H59.66a1.89 1.89 0 0 0-1.92 1.6c1.12.32 2.24-.8 3.6.24a9 9 0 0 1-4.24.64c-.48-.08-.64-.48-.4-1s.56-.88.88-1.44c-.32 0-.56-.08-.72-.08H47.5c-3.2 0-6.32-.08-9.52-.16-.88 0-1.12.24-1.12 1.12.16 2 .24 4.08.4 6.08 0 .64.32.8 1 .8.88 0 1.76.08 2.72.08.4 0 .72-.08.88-.4s.32-.4.48-.64a11.3 11.3 0 0 1 1.84-1.44c.72-.64 2.32.16 2.56 1.36s1 1.28 1.92 1.28c5.2-.16 10.4 0 15.68-.08 3-.08 5.84 0 8.8 0a3 3 0 0 0 2.64-1.12c1.68-2 3-2 4.16.16a1.42 1.42 0 0 0 1.44.88c10.32-.08 20.64-.16 31-.16 1.28 0 2.24-.08 3-1.36a2.09 2.09 0 0 1 3.68.4 1.4 1.4 0 0 0 1.6 1c6.24-.08 12.56-.08 18.8-.08h9.44c.32 0 .72.08.88-.32a4.2 4.2 0 0 1 1.36-1.76 2.13 2.13 0 0 1 3.84 1.28c0 .56.24.8.8.8h12.12c.4 0 .72-.16.72-.64-.08-2 .32-4 .16-6 0-.48-.16-.64-.64-.64h-4.48a.63.63 0 0 0-.72.72c.8.4 1.68-.24 2.48.32-.08.56-.48.48-.8.56-.48.08-1 0-1.44.08-1.52.16-1.68-.08-1.12-1.44 0-.08 0-.08-.08-.24a4.4 4.4 0 0 0-1.36-.16m4.08-21.2c1.44 0 3-.08 4.4-.08.56 0 .8-.24.88-.8.08-.8.32-1.6.4-2.4.16-1.2.24-2.48.32-3.76h-1.52c-5.36-.08-10.72.24-16.08.32-4.72.08-9.44.08-14.08.16-6.24.08-12.4.08-18.64.24-7.28.16-14.64.16-21.92.16-10.32 0-20.56 0-30.88.08-2.72 0-5.36.08-8.08.08-2.08 0-4.16-.08-6.16-.08h-6.8c-3-.08-6.08 0-9.12 0-.4 0-.64.08-.64.56a44 44 0 0 1-.08 5.6c0 .72.24 1 1 1h14.68c1.12 0 2.24-.08 3.28 0a7.3 7.3 0 0 0 2.64-.08 1.47 1.47 0 0 0-.72-1c-.72-.48-1.12.4-1.68.48-.16-.88.16-1.28 1-1.36a2.15 2.15 0 0 1 2.1 1.44c.16.32.24.72.8.72 2-.16 4 0 6 0 4.24-.16 8.48-.08 12.72-.08h10.9c.32 0 .8.08.72-.4s-.4-.56-.8-.56-.72.32-1 .64c-.24.16-.48.32-.72.08s-.08-.48.16-.64a3.6 3.6 0 0 1 .88-.64 1.64 1.64 0 0 1 2.48 1.12c.08.56.48.48.8.48h7.76a.6.6 0 0 0 .64-.4c.08-.32-.24-.48-.4-.64-.48-.48-.88.16-1.28 0-.08-.88.4-1.44 1-1.28s1.36.56 1.52 1.2c.24 1 .88 1 1.6 1 4.8-.16 9.52-.08 14.32-.08 3.2 0 6.32-.16 9.52-.08.32 0 .72.16 1-.24-.24-.72-.72-.48-1.2-.16-.24.16-.48.32-.72 0s0-.56.24-.8a1.6 1.6 0 0 1 2.16.08 4.2 4.2 0 0 1 .56 1H136c.4 0 .8-.08.72-.56s-.48-.48-.88-.4a.6.6 0 0 0-.32.16c-.24.08-.4.16-.56-.08s0-.48.24-.64a1.61 1.61 0 0 1 2.48.72c.08.24 0 .64.32.88h1c3.36-.08 6.8-.16 10.16-.16 4.32-.08 8.56-.08 12.88-.08a6 6 0 0 0 1.2-.08c.32-.08.48-.24.32-.56s-.4-.48-.72-.32-.4.32-.56.48-.32.4-.64.16a.5.5 0 0 1-.16-.64 1.52 1.52 0 0 1 2.48-.48c.4-.16.56.24.72.88m6.8 1c-.72-.48-1-.16-1 .56-.24 3-.56 6-.56 9 0 .4 0 .8.56.8s.64-.32.64-.72c.16-3.2.32-6.32.4-9.6m-.52 22.32a9 9 0 0 1-.16-1.44c0-.88-.48-.88-1.12-.88s-.56.56-.48 1v.88c.08 1.52-.32 3-.16 4.48.08.64.24.8.88.88s.88-.24.88-.8c0-1.28.08-2.56.16-4.08m-.16-3.84c.16-2.48-.16-5 .08-7.44-.88-.24-1.2.08-1.28.88-.08 2.24-.24 4.4-.32 6.64 0 .4-.08.8.56.8.4-.08 1 0 1-.88m-.24 13c0-.72.08-1.52.08-2.24 0-1.28-.16-1.36-1.52-1 .08 2.08.16 4.16.32 6.24 0 .24.08.48.4.48s.56-.24.56-.56c.08-1 .08-1.84.16-2.88m-139-11.76c0 .56-.16 1.2.24 1.68 1.2-.56 2.08-1.52 2-2.24a2.33 2.33 0 0 0-2.14-1.76 10.2 10.2 0 0 0-.16 2.24M36 104.92v-1c0-.24.08-.72-.32-.72s-.4.4-.4.64c-.08 2.32-.08 4.72-.08 7 0 .24-.08.72.32.64s.24-.48.32-.72a47 47 0 0 0 .16-5.92m117.9 24.72a1.55 1.55 0 0 0 0-1c-.16-.48-.64-1-1-.56a3 3 0 0 1-1 .48 1.84 1.84 0 0 0-1 .88c-.16.32-.08.56.24.56a5.3 5.3 0 0 0 2.88-.32M35.82 96a1.79 1.79 0 0 0-.56 1.76 18 18 0 0 1 .08 3.6 2.3 2.3 0 0 0 .08 1c.16.08.32.08.4-.08.4-.72.16-1.52.24-2.32a11.6 11.6 0 0 0-.32-4.4c.08.08.08.16.08.4m-.64 20.56c.16 1.52-.08 3.12.4 4.8.4-.48.24-.8.24-1.2a14.3 14.3 0 0 1-.08-3.2 28 28 0 0 0 .08-3.68c0-.24.08-.64-.48-.64a15.8 15.8 0 0 0-.16 3.92m7.6 14.48c-.32 0-.72-.16-.64.4a1.36 1.36 0 0 0 1.44 1.36 1.92 1.92 0 0 0 2-1.76 16.3 16.3 0 0 1-2.8 0m128-30c.56.32.72.08.72-.4 0-1 .24-1.84.32-2.72a24 24 0 0 0 .48-3.36c-.72-.24-.8.32-.8.72q-.24 2.76-.72 5.76M45.1 130.28c.88-.08 1-.32.72-1s-.72-.4-1.2-.4a2.55 2.55 0 0 0-2.32 1.44h2.8m31.2-.16c.88 0 1.76.08 2.64 0-.08-.88-.56-1.44-1-1.44-.64 0-1.92.72-2 1.28-.08.08.16.08.4.16m1.32 1.84c.48-.24.88-.48 1-1.12a13 13 0 0 0-2.48-.08c-.64 0-.64.4-.4.8.4.88 1.12.64 1.92.4m40.4-3.12c-1.2-.8-2.16-.48-2.56.88a9.2 9.2 0 0 0 2.08.08q1.08.12.48-1m-.16 1.92a9.2 9.2 0 0 0-2.56 0 1 1 0 0 0 1 1c.64-.08 1.36-.16 1.6-1M36 124.68a8.4 8.4 0 0 0-.4-2.4c.32 2.08.16 4.16.48 6.16.16-1.2-.16-2.4-.08-3.76m116.88 6.24c-.64-.56-1.28-.24-1.92 0a1.37 1.37 0 0 0 1.92 0M42.86 86c.08-.88.16-1.6.24-2.48a3.8 3.8 0 0 1 1.36.08 3.25 3.25 0 0 0 1.52 0c1-.16 1.12.72 1.36 1.52.32-.32.48-.72.8-1a.85.85 0 0 1 1-.16c.4.16.64.4.56.8a1.1 1.1 0 0 0 .4 1c.16.16.32.32.16.56a.34.34 0 0 1-.56.08 1 1 0 0 0-1.36 0c-.56.32-.88-.08-1.2-.48-.24.32.08.88-.56.8s-.4-.56-.4-1 .32-.88-.16-1.36a1.38 1.38 0 0 0-.72 1.2c0 .32-.16.72-.56.64s-.4-.48-.4-.8.32-.64-.08-1c-.48.16-.56.64-.64 1v.56c-.08.4.08 1-.4 1s-.4-.64-.4-1.12" fill="#010101"/>
  <path d="M32.7 106.36a2.24 2.24 0 0 1-1.76 0c-.56-.32-1-.64-.72-1.44a5.46 5.46 0 0 0-.4-3 1.24 1.24 0 0 1 .64-1.68c.8-.24 2.08.24 2.24.88s-.4.88-.56 1.36c2.32 1.92 2.4 2.8.56 3.84m-1.12-.64c.88 0 1.52-.4 1.52-1a1.86 1.86 0 0 0-2.1-1.2c.32.64.16 1.44.56 2.24m-.64-3.84c.56.24.72-.08 1-.48a.63.63 0 0 0-.88-.32c-.4.16-.32.4-.08.8m6.8-18.16a5 5 0 0 0-.56 1.52c-.08.32-.24.8-.72.56s-.32-.56-.16-1c.72-1.52 1.36-3.12 2.16-4.64.24-.48.16-1.36 1-1.28s.48.88.64 1.44a34 34 0 0 1 1.12 4.08c0 .24.08.4.08.64a.54.54 0 0 1-.32.56c-.32.08-.48-.16-.56-.48s-.08-.72-.16-1c-.16-.8-.48-1.28-1.44-1-.4.16-.8.16-1.12.56m1.78-2.28c-.16-.24 0-.64-.4-.8a3.2 3.2 0 0 0-.72 1.68c.64 0 1.36.32 1.12-.88m-8 48.08c.32-.56.24-1.44 1-1.44s.64.88.8 1.44c.4 1.28.72 2.64 1.12 3.92.08.32.24.8-.32.88-.4.08-.48-.24-.56-.64l-.24-1c-.16-.32-.08-.88-.64-.88s-1.12.08-1.36.8a7 7 0 0 1-.64 1.36c-.16.24-.4.48-.72.32s-.08-.48 0-.72c.48-1.28 1-2.64 1.6-4.08m1.12 1.2a1.24 1.24 0 0 0-.24-.88A3 3 0 0 0 32 131a.56.56 0 0 0 .64-.32m-2.58 10.72c.08-1.12.08-2.16.16-3.2 0-.32.16-.48.48-.64a10.7 10.7 0 0 1 2.24-.24c.24-.08.48 0 .48.24a.46.46 0 0 1-.32.56 6.3 6.3 0 0 1-1.12.16c-.8 0-.8.48-.8 1 0 .72.4.64.88.56a1.72 1.72 0 0 1 1.52.16c-.16.72-.8.64-1.28.64s-1 0-1.12.72c-.16 1.12.16 1.44 1.2 1.28s1-.08 1.44.16a2.31 2.31 0 0 1-2.72.56c-1.2-.16-1-1-1-2m1.12-49.52c1-.16 1.6.16 1.76.88s-.48 1.28-1.12 1.6c-.4.24-1.2.08-.8.88a1 1 0 0 0 1.52.48c.16-.08.24-.08.4-.16s.64-.32.8 0-.16.64-.48.8c-1.28.56-2.08.48-2.72-.32a3 3 0 0 1 0-3.6c.16-.16.4-.32.64-.56m.24 1.68a1.1 1.1 0 0 0 .4-.24c.16-.16.32-.4.08-.64s-.56 0-.72.24-.4.56.24.64M54.06 80c-.4-.56-1-.08-1.44-.16-.32-.08-.64 0-.72-.32-.08-.48.32-.48.64-.56a6 6 0 0 1 1.2-.08c1.52 0 1.52.08 1.12 1.44a.66.66 0 0 0 .32.8c.32.16.4.64-.08.72-1 .08-1 .8-1.2 1.44-.08.4-.24.8-.72.64s-.24-.56-.08-.88l.24-.72c-.16-.32-.8-.24-.72-.72s.48-.4.8-.48c.56-.24.56-.72.64-1.12m-3.68 5.36c-.16-.48-.4-1-.24-1.36.16-.16.4-.16.4 0a5 5 0 0 1 1 2.72c0 .88-1 .88-1.6 1a.65.65 0 0 1-1-.56c1.84-.56 1.84-.56 1.36-1.84M49.58 82c.4.08.64.24.4.56s-.32.32-.56.16-.32-.48.16-.72" fill="#010101"/>
</svg>