<svg xmlns="http://www.w3.org/2000/svg" viewBox="0 0 1024 608" xml:space="preserve">
  <path d="M342.178 335.094c-.096-19.666.415-38.936-.234-58.168-.741-21.956-.766-43.927-1.717-65.87-.64-14.761-1.836-29.503-2.996-44.237-.301-3.833 1.754-4.027 4.52-4.028 13.49-.01 26.98-.086 40.47-.093q29.438-.018 58.874.032c40.08.068 80.16.33 120.238.148a476 476 0 0 0 42.284-2.09c10.7-1.001 21.59.577 32.408-.573 3.058-.325 5.345 1.554 5.304 5.206-.204 17.924.898 35.82.417 53.78-.337 12.566-.521 25.223-.2 37.857.348 13.61-1.268 27.289-.241 40.895.487 6.452-1.151 13.37 2.813 19.375.245.371.306.989.212 1.442-3.314 15.877-.676 31.796-.283 47.69.332 13.471.497 26.937.269 40.41-.042 2.492-.332 5.11.294 7.457 1.286 4.816-.858 5.892-5.072 5.885-15.145-.028-30.305-.309-45.431.256-19.464.726-38.9-.93-58.353-.104-14.404.612-28.827 1.537-43.226 1.32-25.946-.39-51.689 4.434-77.675 2.524-17.253-1.267-34.555.448-51.808-.401-6.955-.343-13.842-1.598-20.468 1.292-2.658-4.262-1.39-8.271-.798-12.082 3.386-21.816 3.116-43.662 1.016-65.556-.38-3.965-.358-7.968-.617-12.367m122.024-129.996c-.996-10.78-.789-21.587-.552-32.384.08-3.686-1.099-5.37-4.971-5.843-5.351-.655-10.632.227-15.867.068-10.993-.333-21.933.807-32.909.4-5.976-.22-6.638.655-6.674 6.524-.075 12.28 1.091 24.565.066 36.838-.402 4.82 1.45 6.402 6.257 6.356 15.125-.144 30.254.188 45.382.182 9.841-.004 10.355-.737 9.268-12.14m-49.811 215.14c16.502 1.323 32.934.031 49.38-1.192 3.838-.285 5.193-1.79 5.045-5.598-.523-13.466-.832-26.94-1.214-40.41-.1-3.531-1.908-4.159-5.262-4.068-15.802.431-31.613.547-47.422.697-3.312.03-5.514.966-5.516 4.75-.007 13.663-.017 27.326-.113 40.988-.022 3.081 1.244 4.704 5.102 4.833m-18.028-.505c8.47-.147 8.5-.147 8.677-8.94.22-10.93-.28-21.872.624-32.79.123-1.484.09-3.002-.074-4.481-.295-2.668-1.721-4.345-4.57-4.247-15.952.55-31.894-.935-47.854-.162-3.647.176-4.922 1.458-4.863 5.108.2 12.132-.065 24.233-1.878 36.298-1.25 8.312-.833 7.95 7.544 8.531 13.812.96 27.621.486 42.394.683m-41.957-253.35c-12.446.22-12.446.22-12.198 12.457.014.666-.007 1.335.043 1.998.744 9.946 1.387 19.901 2.325 29.829.244 2.586.046 5.898 4.33 6.064 14.475.564 28.962-.117 43.444.66 5.6.3 7.115-1.915 7.285-7.822.369-12.808-.515-25.587-.907-38.378-.095-3.1-1.53-4.624-4.528-4.762-1.827-.084-3.68-.235-5.487-.038-11.141 1.215-22.275 1.076-34.307-.007M477.089 417.69c14.636.807 29.223-.639 43.835-.947 2.603-.055 5.448-.115 5.62-3.478.74-14.442.655-28.872-1.531-43.22-.442-2.898-2.36-3.855-4.995-3.69-4.137.259-8.266.88-12.4.893-10.472.033-20.927.394-31.388.84-4.077.174-5.133 1.902-4.916 5.58.74 12.557 1.284 25.127 2.042 37.684.14 2.334-.284 5.196 3.733 6.338m-52.773-143.276c-4.318-.132-8.64-.196-12.953-.417-3.779-.194-5.263 1.274-5.233 5.236.09 11.972 1.812 23.884 1.219 35.872-.124 2.506 1.295 3.471 3.536 3.961 4.94 1.08 9.942.587 14.87.422 11.933-.402 23.842-1.496 35.775-1.882 4.632-.15 6.769-1.603 6.528-6.385-.518-10.287-1.05-20.581-1.2-30.878-.069-4.61-2.016-6.308-6.348-6.048-11.78.709-23.565-.991-36.194.119m157.093-75.505c-.057 3.33-.036 6.663-.193 9.989-.195 4.132 1.988 5.983 5.778 5.583 14.913-1.57 29.857 1.238 44.813-.617 4.843-.6 6.1-1.993 6.11-6.577.024-12.326-1.715-24.597-1.024-36.93.227-4.044-1.914-5.133-5.543-5.132-13.974.004-27.937-.009-41.899.932-4.782.322-6.777 2.003-6.821 6.915-.075 8.306-.689 16.608-1.22 25.837m40.983 169.422c-10.621-.505-21.28.422-31.883-.962-3.213-.419-6.278.085-6.274 4.354.01 12.625.11 25.272 2.26 37.748 1.17 6.795 2.02 7.257 8.888 7.152 12.942-.199 25.882-.608 38.825-.744 3.328-.035 4.758-1.16 4.964-4.566.783-12.937 1.088-25.87.633-38.827-.11-3.153-1.91-3.986-4.512-4.039-3.98-.08-7.96-.068-12.901-.116m-219.404-51.064c.172-.64.509-1.285.493-1.921-.322-12.433-.623-24.868-1.089-37.295-.097-2.6-1.497-4.078-4.549-4.042-15.22.178-30.357-2.202-45.646-1.207-4.638.302-5.843 1.854-5.734 5.855.33 12.12.667 24.239.875 36.36.048 2.825 1.362 3.843 3.949 3.923 15.27.473 30.533 1.294 45.819.782 1.981-.067 4.05.094 5.882-2.455m14.718 48.514c14.64-.114 29.28.175 43.914-.772 4.47-.289 6.163-1.958 6.116-6.39-.108-10.154.115-20.311.167-30.468.034-6.61-.202-7.024-6.638-6.809-16.287.546-32.565 1.344-48.851 1.928-3.741.135-4.283 2.233-4.16 5.299.396 9.95.721 19.903 1.004 29.857.196 6.882.442 7.174 8.448 7.355m106.525-182.25c.058 7.824.057 15.648.197 23.47.075 4.17 1.51 6.997 6.543 6.683 3.975-.247 7.99.246 11.985.202 9.942-.109 19.888 2.306 29.843-.199 2.154-.542 3.853-1.062 4.062-3.541 1.064-12.6 1.52-25.22.952-37.858-.175-3.902-2.349-5.272-6.314-5.134-10.642.372-21.285.266-31.924-.62-3.604-.3-7.29.458-10.943.634-2.287.111-3.006 1.526-3.583 3.459-1.174 3.936-.457 7.954-.818 12.904m-20.794 30.397c4.149-.245 8.295-.551 12.447-.715 3.537-.14 4.981-1.806 4.81-5.376-.591-12.275-1.034-24.558.051-36.83.294-3.328-1.119-4.231-4.387-4.178-13.97.229-27.943.207-41.915.228-5.875.008-7.172 1.009-7.072 6.898.206 12.13.692 24.256.99 36.385.104 4.237 2.209 5.864 6.329 5.757 9.308-.24 18.448-2.586 28.747-2.169m53.622 153.23c-7.262-1.31-14.605-.582-21.905-.914-4.516-.205-6.328 2.128-5.624 6.09 2.319 13.038 1.621 26.179 1.745 39.292.036 3.893 1.998 5.498 5.668 5.087 13.119-1.467 26.236-.687 39.343.054 4.352.246 6.03-1.144 5.601-5.658-1.241-13.069-2.476-26.152-2.088-39.31.124-4.18-2.128-5.655-5.922-5.477-5.313.25-10.622.55-16.818.835m-197.512-2.254c2.164-.01 4.328-.005 6.492-.035 11.623-.16 23.23 1.715 34.88.093 2.912-.406 5.081-1.117 4.668-4.367-1.33-10.453-.328-20.958-.92-31.422-.201-3.553-1.813-5.7-5.59-5.467-15.479.95-30.91-.884-46.378-.77-4.724.035-6.761 1.685-6.373 6.46.7 8.612 1.454 17.227 1.794 25.856.389 9.846.204 9.853 9.95 9.627.167-.004.333.003 1.477.025m106.123-136.137c-.287-7.44-.508-7.61-7.65-7.613-11.15-.004-22.3-.121-33.449-.112-5.16.005-10.321.189-15.482.302-1.884.04-3.956.145-4.308 2.46-.39 2.564 1.753 2.814 3.588 3.133 1.8.312 3.613.562 5.408.902 8.994 1.704 14.848 11.504 11.265 19.811-2.968 6.881-6.613 13.525-14.833 15.767-2.016.55-4.406 1.616-3.837 4.42.559 2.76 3.147 1.855 4.98 2.092 8.777 1.136 17.59-.113 26.332.2 7.473.268 14.963.237 22.43.65 4.247.234 5.882-1.068 5.75-5.623-.34-11.813-.17-23.641-.194-36.389m169.336 135.002c3.262.069 4.915-.876 4.205-4.746-.623-3.394-.305-6.96-.413-10.45-.253-8.132.526-16.285-.81-24.403-.477-2.9-1.588-3.548-4.52-3.784-10.142-.817-20.197 1.206-30.359.418-4.24-.328-8.59-.58-12.907-.584-4.173-.003-6.087 1.487-5.985 5.876.228 9.798.164 19.602.224 29.404.046 7.496.098 7.937 7.765 8.118 13.962.33 27.936.159 42.8.15M505.02 243.095c2.117-6.715 6.324-11.665 12.753-14.523 3.883-1.726 4.308-4.721 3.606-8.254-.74-3.719-3.708-3.23-6.343-3.081-14.09.8-28.194 1.391-42.23 3.03-3.327.388-3.482 2.395-3.477 4.888.025 12.28-.049 24.56.047 36.84.069 8.893.94 9.678 9.745 9.674 13.592-.007 27.185-.042 40.777-.049 1.026 0 2.08.064 2.5-1.1.482-1.335.438-2.75-.761-3.644-1.04-.776-2.344-1.193-3.51-1.81-8.49-4.495-13.218-11.352-13.107-21.97m103.062-24.892q-11.473.012-22.945.02c-1.796 0-3.374.329-3.682 2.488-.312 2.19.7 3.421 2.801 4.007a44 44 0 0 1 5.176 1.807c2.195.918 4.374 2.113 4.72 4.718.455 3.424 2.296 6.209 3.686 9.21 1.058 2.281 2.042 4.545 1.566 7.18-1.522 8.427-4.911 15.521-13.36 19.098-1.226.52-2.514 1.025-2.585 2.99 2.394 2.514 5.53 1.982 8.638 1.713 12.747-1.105 25.482-2.394 38.287-2.664 6.456-.136 7.419-.614 7.039-7.156-.742-12.769.694-25.529-.355-38.301-.346-4.21-1.753-5.559-5.732-5.272-7.445.536-14.9 1.494-23.254.162m-25.175 65.946c.185 8.272.413 16.543.542 24.816.095 6.08 1.566 7.692 7.646 7.727 13.292.075 26.568-.22 39.856-.816 6.81-.305 7.357-1.957 6.594-7.936-1.102-8.636-.75-17.253-.784-25.885-.012-3.122-.002-6.244-.002-9.034-15.514.196-30.526.806-45.522 2.133-8.478.75-7.788-.799-8.33 8.995m-51.033 35.213c-3.96.096-5.55 1.88-5.177 6.034.758 8.438 1.153 16.91 1.616 25.372.59 10.791.559 10.731 11.212 11.397 11.452.715 22.903.835 34.373.557 4.825-.117 6.84-2.13 6.716-7.03-.22-8.623.274-17.274-.212-25.874-.19-3.38.754-8.491-4.59-9.287-5.393-.803-10.903-.93-16.37-1.096-8.91-.27-17.83 1.065-27.568-.073m-28.026 44.247c5.361.51 10.566-1.065 15.886-1.193 3.732-.09 5.162-2.138 4.9-5.891-.762-10.952-1.356-21.916-1.957-32.878-.204-3.727-2.872-4.3-5.61-4.191-12.945.513-25.914.393-38.834 1.683-4.336.433-6.036 2.217-6.12 6.628-.18 9.475.258 18.953-.449 28.433-.523 7.026.34 7.656 7.356 7.601 7.98-.061 15.96-.16 24.828-.192M345.342 251.327c.276 4.48.7 8.957.776 13.44.053 3.071 1.417 4.194 4.308 3.95 14.637-1.233 29.177 2.099 43.804.946 2.436-.192 6.463 1.375 6.85-1.863.404-3.386-3.928-2.69-6.237-3.349-7.777-2.217-11.202-7.485-9.798-15.334 1.507-8.422 5.019-15.445 12.88-19.673 2.39-1.285 2.315-3.462 1.866-5.664-.482-2.361-2.374-2.452-4.28-2.453-2.995-.001-5.991.033-8.984-.048-11.463-.309-22.932.493-34.402-.55-6.102-.556-6.845.503-6.852 6.683-.008 7.65.038 15.3.069 23.915M505.73 275.36c-9.627-.038-19.263.145-28.879-.209-4.677-.171-6.185 1.397-5.904 5.993.617 10.122 1.05 20.265 1.159 30.403.048 4.488 1.859 5.764 6.036 5.574 13.114-.597 26.237-1.03 39.36-1.4 3.464-.099 4.765-1.464 5.325-5.01 1.656-10.493-.665-20.904-.104-31.345.132-2.45-1.289-3.246-3.36-4.173-4.41-1.974-8.53.801-13.633.167m73.032 18.028c.006-4.327-.022-8.655.029-12.982.044-3.766-1.613-5.268-5.498-5.196-13.788.258-27.563.623-41.338 1.397-4.683.263-5.742 2.16-5.545 6.108.472 9.46 1.435 18.907.772 28.4-.254 3.638 2.019 4.49 5.082 4.515 13.978.116 27.956.21 41.932.44 4.194.07 5.665-1.923 5.419-5.83-.334-5.295-.575-10.595-.853-16.852m-13.328-60.306c2.416-2.81 5.24-5.172 8.533-6.82 2.853-1.427 3.272-3.685 2.521-6.26-.849-2.912-3.368-2.89-5.762-2.499-3.108.508-6.14 1.61-9.36 1.13-10.24-1.528-20.612.34-30.865-1.213-2.433-.368-4.755.252-5.113 3.393-.364 3.192.353 5.422 4.124 6.068 3.413.585 6.582 1.85 9.48 4.118 11.16 8.737 4.141 31.56-7.52 34.333-2.541.605-4.972 1.45-4.394 4.871.592 3.508 3.47 2.671 5.572 2.542 13.12-.81 26.242-1.354 39.393-1.115 1.84.034 3.97.018 5.16-1.975-.997-1.936-2.709-2.091-4.332-2.341-6.198-.956-9.634-4.697-11.102-10.64-2.006-8.126-1.327-15.827 3.665-23.592M471.045 40.804c12.409.486 21.15 8.346 20.085 17.99-.721 6.537-4.837 11.15-9.797 15.06-1.543 1.216-3.524 1.913-4.723 4.318 3.776 3.201 8.256 5.788 11.198 10.124 5.663 8.347 2.755 19.84-6.641 23.73-7.23 2.994-14.762 5.489-22.792 3.699-3.785-.844-4.38 3.03-6.787 4.08-5.33-4.993-5.737-12.645-.928-17.988 1.475-1.638 1.646-3.71 1.785-5.584.87-11.744 1.536-23.504 2.202-35.262.082-1.452.357-3.091-.793-4.296-1.202-1.26-3.583-1.89-2.864-4.18.809-2.578 2.577-4.78 4.81-6.206 4.502-2.873 9.26-5.305 15.245-5.485m-4.63 41.098c-4.075 1.393-8.471 2.264-8.807 7.982-.302 5.14-1.23 10.244-1.5 15.384-.279 5.276 1.95 7.635 7.05 6.994 5.086-.64 10.236-1.528 14.963-3.727 4.933-2.295 9.08-8.692 8.39-12.622-1.293-7.377-11.66-15.02-20.095-14.01m5.952-36.484c-3.51.328-6.803 1.379-9.949 2.95-1.727.863-3.16 1.954-3.05 4.116.367 7.155-.386 14.252-.978 21.363-.253 3.037 1.207 4.042 4.298 3.661 6.156-.76 11.523-3.176 16.097-7.219 4.427-3.913 9.037-8.48 7.54-14.794-1.472-6.217-7.289-8.598-13.958-10.077M499.65 101.2c-.02-1.63-.087-2.798-.03-3.96.086-1.75-1.51-3.845.302-5.182 2.249-1.66 3.004 1.06 4.325 2.043 1.17.871 2.11.329 3.167-.329 5.896-3.664 7.823-3.39 12.549 1.7.775.834 1.471 1.742 2.343 2.783 2.087-1.343 3.975-2.656 5.954-3.811 4.993-2.916 9.423-1.32 10.74 4.185.919 3.837 1.484 7.82-.594 11.657-.774 1.428-1.136 3.124-1.458 4.742-.863 4.34.728 5.775 5.082 4.61 1.296-.348 2.522-.97 3.851.644-1.337 3.427-3.92 5.192-7.564 4.499-4.079-.776-6.121-3.76-6.484-7.826-.28-3.126 1.097-5.881 2.367-8.571 1.731-3.67 2.048-7.99-1.203-9.857-3.235-1.857-5.698 2.131-7.865 4.55-1.526 1.704-1.832 3.81-1.833 6.056-.003 3.895-1.283 7.515-2.806 11.041-.546 1.265-1.349 2.438-2.97 2.144-1.525-.277-2.119-1.555-2.354-2.913-.707-4.095.458-7.91 1.992-11.618.633-1.53 1.788-2.923 1.362-4.683-.686-2.831-1.882-5.648-4.788-6.576-3.045-.972-4.25 1.936-5.688 3.87-2.681 3.606-3.647 7.792-3.768 12.207-.059 2.164.04 4.334-.082 6.493-.116 2.06-.551 4.407-3.117 4.278-2.394-.121-2.328-2.495-2.29-4.302.124-5.81 1.427-11.564.86-17.875m55.208-31.476c-8.763-2.945-10.65-11.9-7.386-17.53 5.022-8.662 14.374-12.236 21.698-7.995 2.131 1.234 3.51 2.807 3.295 5.617-.846 10.999.58 21.959.77 32.943.018.998.107 2.006-.002 2.991-.174 1.559-.676 3.167-2.549 3.134-1.793-.03-2.539-1.564-2.606-3.138-.184-4.327-.225-8.662-.291-12.994-.05-3.313-.905-5.385-4.756-3.39-2.505 1.298-5.145 1.163-8.173.362M550.64 59c1.39 4.212 4.049 7.168 8.718 6.566 4.452-.574 6.666-3.964 7.711-8.133.578-2.302.553-4.588.003-6.903-.777-3.273-3.157-4.553-5.947-3.546-5.314 1.918-9.706 5.09-10.485 12.016m-208.79 72.739c1.141-1.776 2.442-2.456 3.933-1.29 1.43 1.12 1.07 2.64.298 4.06-.08.145-.181.278-.276.414-1.704 2.439-4.48 4.478-4.82 7.43-.413 3.584 4.472 3.474 5.583 6.301.117.296.126.635.203 1.056-4.141 4.833-6.354-1.26-9.54-1.858-2.435 1.493-3.248 4.194-4.933 6.187-1.073 1.27-2.44 2.076-3.878.959-1.547-1.201-1.495-2.854-.202-4.363.646-.754 1.356-1.453 2.014-2.198 2.563-2.896 3.226-5.586-.353-8.371-1.53-1.191-2.615-2.992-3.772-4.608-.69-.964-1.126-2.194-.014-3.15 1.037-.892 2.176-.536 3.161.26.515.415.99.884 1.46 1.35 6.128 6.07 6.613 5.988 11.135-2.18m294.937 2.507c1.8-2.14 3.357-4.072 4.953-5.974.917-1.094 2.086-1.894 3.44-.927 1.345.961 1.102 2.388.226 3.53a44 44 0 0 1-3.93 4.474c-2.958 2.922-2.59 5.485.677 7.793 2.152 1.52 4.36 2.96 6.536 4.432-1.774 4.09-3.722 4.672-6.794 1.878-2.069-1.88-3.765-4.18-6.46-5.655-2.442 1.64-3.607 4.247-5.015 6.617-.953 1.604-2.096 2.877-3.94 1.876-2.335-1.268-1.058-3.119-.213-4.706.382-.717.957-1.363 1.55-1.931 3.619-3.467 4.816-6.874.334-10.7-1.338-1.142-2.6-3.276-.729-4.75 2.03-1.6 3.08.851 4.404 1.94 1.384 1.136 2.062 3.796 4.961 2.103"/>
</svg>