<svg xmlns="http://www.w3.org/2000/svg" viewBox="0 0 198 153">
  <path d="M93 97.09a90 90 0 0 0 .4 10.4 38.4 38.4 0 0 1 .16 6.08c.08 3.44.88 6.8.8 10.24 0 1.76-.64 2.48-2.4 2.64-7.68.64-15.44.56-23.12.72-4.8.08-9.68.08-14.48.24-4.4.16-8.8.48-13.12.4-3 0-5.84-.24-8.8-.48a67 67 0 0 0-8-.16c-3.76.08-7.6-.24-11.36 0-.8.08-1-.24-1.28-1-.48-1.44.08-2.88 0-4.32-.32-6.16.32-12.32 0-18.56-.16-3.28-.08-6.64 0-10a91 91 0 0 0-1-14.72 63 63 0 0 1-.16-6.72c-.08-3.84.16-7.6-.24-11.44-.08-1.12.4-1.44 1.36-1.36 6.56.4 13.2-.16 19.76-.32a91 91 0 0 0 10.4-.48c1.68-.24 3.44.08 5.12 0 11-.48 22.08-.88 33.2-1.28 3.36-.08 6.64-.16 10 .08 1.28.08 1.52.72 1.52 1.68a74 74 0 0 1 .4 8.4c-.24 3.28.08 6.48.16 9.76.16 5.36.16 10.72.56 16.08a23 23 0 0 1 .12 4.12M86.56 73l-5.92.48c1.6 2.16 2.4 4.24 1.68 6.64a6.7 6.7 0 0 1-4.72 4.72 1 1 0 0 0 1.2.32 36.7 36.7 0 0 1 6.64-.8c1.44-.16 2.88-.24 4.32-.32.4 0 .88-.16.88.48s-.32.72-.88.8h-.56c-3.52.4-7.12.32-10.64 1-.88.16-1.28.48-1.28 1.44 0 3.12.48 6.32.16 9.44-.16 1 .48 1.52 1.52 1.44 3.52-.32 7-.56 10.48-.8 2.24-.16 2.56-.48 2.4-2.72 0-.24-.08-.4-.08-.64-.16-3.44-.48-6.8-.56-10.24s-.16-6.8-.4-10.24a1 1 0 0 0-.88-1c-1-.4-2.08 0-3.36-.08M29.28 110c0 2.64 0 2.64 2.56 2.56 4.32-.08 8.64-.08 13-.08 1.2 0 1.76-.32 1.84-1.6.16-3.44-.24-6.8-.32-10.24a.78.78 0 0 0-.8-.88c-1.12-.08-2.24-.32-3.44-.32-3.84 0-7.68.32-11.44-.16-1-.16-1.36.48-1.36 1.44-.08 3-.08 6 0 9.28m14.24 16.8a14 14 0 0 0 1.84-.08c.48-.08.8-.24.8-.8.08-3.76.24-7.52.32-11.28 0-.88-.4-1.12-1.2-1.12-4.8-.16-9.68.24-14.48.16a1 1 0 0 0-1.12 1.12c-.16 3.76-.4 7.6-.56 11.44 4.72 0 9.36.72 14.4.56M23.68 98.93c-3.12-.16-6.24.16-9.36.24-1 0-1.6.4-1.52 1.6.16 3.68.16 7.44.16 11.12 0 .88.32 1 1 1 4.4 0 8.88.08 13.28-.24.8-.08 1-.4 1-1.2-.08-1.44 0-2.8 0-4.24 0-2.08 0-4.24-.08-6.32 0-1.6-.32-1.84-1.84-1.92a16 16 0 0 1-2.72-.08m22.32-31.4c.08-1.2.24-2.32.32-3.52a12.3 12.3 0 0 0 .08-3.44 1.27 1.27 0 0 0-1-1.12c-1.36-.4-2.72.08-4.08.08-3.6.08-7.2.4-10.72.24-.88 0-1.28.24-1.28 1.2 0 3.12-.08 6.32-.08 9.44 0 .88.56 1.2 1.28 1.28A124 124 0 0 0 44.8 72c.72 0 .88-.32 1-1a16 16 0 0 0 .16-3.52m17.36 55c0-2.56-.08-5.12-.16-7.6 0-.56.24-1.2-.64-1.28a127 127 0 0 0-13.52-.11 1.22 1.22 0 0 0-1.28 1.28c-.24 3.52-.24 7-.24 10.56 0 1.12.4 1.52 1.44 1.44 2.32-.16 4.64-.32 7-.4 2.08-.08 4.16-.08 6.16 0 1 0 1.44-.4 1.36-1.44a12.4 12.4 0 0 1-.08-2.48m-17-28.16c-.08-2-.16-3.92-.24-5.92-.08-1.84-.32-2.08-2.24-2.08-2.56-.08-5.2-.16-7.76-.16a42 42 0 0 0-5.52 0c-.8.08-1.36.32-1.2 1.2.4 3.28-.08 6.48-.08 9.76 0 1 .56 1.12 1.36 1.2 4.8.24 9.6-.08 14.48.32.8.08 1.2-.32 1.2-1.12zM43 73.25a111 111 0 0 1-12.64-.4c-.64-.08-1.12.16-1.12 1v9.92a1.2 1.2 0 0 0 1.28 1.36c4.72.08 9.52-.16 14.24.24.8.08 1.2-.4 1.12-1.2-.24-2.8-.08-5.6-.16-8.4 0-2.4 0-2.4-2.4-2.4.08-.08 0-.08-.32-.08m8.48 39a81 81 0 0 1 9.84.16c1.36.16 1.84-.32 1.84-1.68.16-3.2-.16-6.4.24-9.6.08-1-.48-1.44-1.44-1.44-2.88 0-5.76 0-8.72-.08h-4.52c-1 0-1.36.48-1.36 1.44.08 3.36.48 6.64.32 10-.08 1 .48 1.44 1.52 1.28.64 0 1.36-.08 2.24-.08M15.68 84.93c3.68-.08 7.36-.16 11-.16.88 0 1.44-.16 1.44-1.2-.16-3 .16-5.84.16-8.8 0-2-.16-2.08-2.08-2.08-4.4-.08-8.88.48-13.28.24-.88-.08-1.12.32-1.12 1.2a53 53 0 0 0 .56 8c.16 2.88.16 2.88 3.28 2.8m62 31.52v9.44c4.8.24 9.28-.4 13.76-.56 1.52-.08 1.76-.88 1.76-2.08.08-3-.56-5.92-.56-8.88 0-.72-.4-1-1.2-1h-11c-2.8 0-2.56-.08-2.8 2.8 0-.08 0 0 .08.32M63 90.37c.08-.64.08-1.28.16-2 .16-1.28-.4-1.76-1.68-1.68a27 27 0 0 1-3.52.24c-3-.08-6.16-.24-9.2-.4-1.2-.08-1.68.4-1.6 1.6.08 3 .24 5.84.24 8.8 0 1.28.56 1.6 1.76 1.6 4 0 8.08.08 12.08.16 2.08 0 2.48-.4 2.16-2.48a23 23 0 0 1-.4-5.84M17.84 98a54 54 0 0 1 8.8.24c1.28.16 1.6-.16 1.6-1.52 0-3 0-6.16.08-9.2 0-1-.4-1.52-1.44-1.52-4.24 0-8.48.08-12.8 0-1.28 0-1.52.48-1.52 1.68 0 2.56.56 5.12.24 7.76a7.7 7.7 0 0 0-.08 1.92c.08.64.4 1 1 .88zm36-24.16a45 45 0 0 1-5.68-.32c-.88 0-1.28.24-1.28 1.2 0 3 .08 6.16 0 9.2 0 1 .4 1.36 1.44 1.44 2.64.24 5.28.08 7.92.24a30 30 0 0 0 5.36 0c1-.16 1.28-.56 1.28-1.44 0-2.88 0-5.76.08-8.64 0-1.12-.48-1.44-1.52-1.44zm-42.08-6.19a16.4 16.4 0 0 1-.08 2.8c-.24 1.2.24 1.55 1.32 1.55 4.72-.08 9.36-.24 14.08-.32a.85.85 0 0 0 1-1v-8.8c0-1.12-.4-1.76-1.76-1.68-4.48.16-9 .16-13.52.24-1 0-1.2.48-1.12 1.28a46 46 0 0 1 .16 5.92M24.8 114a92 92 0 0 1-10.48 0c-1-.08-1.52.32-1.52 1.44.08 3 .08 6.16 0 9.2 0 1.2.4 1.52 1.52 1.44 3.76-.16 7.52.24 11.28 0 .8-.08 1.52.32 2.4 0a6.6 6.6 0 0 1-.16-2.8c.24-1.92.48-3.84.56-5.76.32-3.6.24-3.6-3.6-3.52m52.72-4.24c0 2.4.24 2.64 2.72 2.48 1.68-.16 3.36-.16 5-.16h5.52c1.2 0 1.76-.4 1.68-1.68q-.36-4.5-.48-9c-.08-2.24-.24-2.48-2.48-2.32-3.44.24-6.8.56-10.24.8-.88.08-1.36.4-1.44 1.36a74 74 0 0 0-.24 8.56M47.12 66.05a23.3 23.3 0 0 0-.24 4.08c-.08 2.24.16 2.4 2.48 2.48 2.16.08 4.32.08 6.48.16 2 .08 3.92.08 5.92.16.4 0 1 0 1-.56s-.24-.72-.64-1a7.3 7.3 0 0 1-1-.64c-3.52-2.4-3.84-5.76-.8-8.8A5.77 5.77 0 0 1 63 60.29a.79.79 0 0 0 .72-.8c0-.56-.48-.64-.88-.64a7 7 0 0 0-1.84-.08c-4.08.32-8.24.08-12.32.48-.88.08-1.2.32-1.2 1.12a34.3 34.3 0 0 1-.32 5.68m43.52-3.92a14 14 0 0 0 0-1.84c-.16-1.12-.4-2-1.84-1.92-3 .08-5.84-.08-8.8-.16-1.2 0-1.52.48-1.76 1.6-.64 3.6-.16 7.2-.4 10.8-.08 1.52.16 1.68 1.76 1.6a17 17 0 0 1 2 0c2.64-.16 5.36-.32 8-.56.56-.08 1.2-.08 1.2-.88.08-2.8.48-5.6-.16-8.64m-14.08 58.8v-6.16c0-1-.32-1.36-1.28-1.36-2.08 0-4.08.08-6.16-.08a32 32 0 0 0-3.92.16c-.64 0-.88.4-.8 1 .08 3.44-.16 6.88.24 10.24a1.58 1.58 0 0 0 2 1.52c2.88-.4 5.68-.08 8.56-.24a2.34 2.34 0 0 0 1.6-.24 45 45 0 0 1-.24-4.8m0-15.84a17.3 17.3 0 0 1 0-3.52c0-1.92-.32-2.08-2.24-2-2.48.16-5 .24-7.52.24-2-.08-2.4.16-2.48 2.24-.08 2.48.16 5-.16 7.52a6 6 0 0 0 .08 1.68 1.07 1.07 0 0 0 1.2 1.12H75c1.2 0 1.68-.48 1.52-1.68a18.8 18.8 0 0 1 0-5.6m-.24-8.24a50 50 0 0 0 0-7.76c-.08-2.48 0-2.4-2.4-2.32-2.8.08-5.52 0-8.32 0-1 0-1.36.32-1.44 1.28a40 40 0 0 0 .32 9.28c.16 1.2.64 1.52 1.68 1.44 3-.08 6.08-.24 9.12-.32 1 0 1.12-.56 1-1.6m-9.68-35.72c2.56 1 3.36 4.8 2.24 6.72A6.6 6.6 0 0 1 65.2 71c-.56.16-1.2.48-1 1.28s.88.64 1.44.56c3.12-.4 6.32-.24 9.44-.48 1.68-.16 1.84-.24 1.84-2 .08-3.52-.32-7.12.24-10.64.16-1-.24-1.36-1.2-1.36-3.36.08-6.72-.08-10.16.32-.48.08-.88.16-.88.72s-.16 1.12.56 1.28c.32.16.64.24 1.12.48m5.68 21.28a7.77 7.77 0 0 1-.48-5c.48-1.84 2.4-2.32 3.68-3.44a1 1 0 0 0-.16-.24 42.5 42.5 0 0 0-10.56.4.79.79 0 0 0-.64.88v9.36c0 .8.32 1.2 1.2 1.2 3.2 0 6.32 0 9.52-.08a1.75 1.75 0 0 0 1.52-.56c-1.68-.4-3.36-.48-4.08-2.48M50.08 25q-1.2.24-2.16.48c-3 .64-2.4.56-2.72 3.44-.24 2 .32 4 0 6.08-.16.8.32 1.2 1.12 1a8.2 8.2 0 0 0 2.4-.64c1.28-.8 2.8-.48 4.24-1a.68.68 0 0 1 .88.56c.08.64-.48.72-.88.8-2.24.16-4.32 1.12-6.56 1.44-1 .16-1.52.64-1.52 1.68a35 35 0 0 1-.4 4.16c-.16 1.44.16 1.92 1.52 1.6 3.2-.72 6.48-.64 9.6-1.44.48-.16 1.12-.16 1.2.4.16.72-.48.8-1 1-2.16.72-4.4.64-6.64 1-1.44.24-3 .48-4.4.8s-1.84 0-1.68-1.52a161 161 0 0 0 .88-16.4v-.56c0-2.64 0-2.64 2.64-3.36 2.88-.72 5.84-1 8.72-2.08.48-.16.88-.08 1 .48s0 1-.64 1c-1.92.08-3.68 1-5.6 1.2m17-3.2c1.12-1 2.32-.64 3.44-.24a1.51 1.51 0 0 1 .88 2.16c-.32.8-.08 1.2.56 1.76 1.36 1 1.36 2.16.16 3.28a4.76 4.76 0 0 1-5.2.56c-.48-.32-1-.72-.56-1.36s.8-.08 1.2.16a3.36 3.36 0 0 0 3.36 0c.4-.24.72-.56.64-1s-.48-.72-1-.72a9 9 0 0 0-2.08-.16.74.74 0 0 1-.88-.56c-.08-.4.24-.56.64-.72a5.4 5.4 0 0 0 1-.48c.48-.4 1.2-.88.72-1.44s-1.28-.48-1.92 0c-.4.32-.64 1.12-1.2.56s-.16-1.2.24-1.76m-41.28 36c-.8-.48-.64-.88-.08-1.36A4.2 4.2 0 0 0 27 55.09c-.4-.72-1.36-.88-1.84-1.6-.24-.32-.72-.72-.24-1.12s.8 0 1.12.24l1 .8c.8.56 1.52.64 2.08-.32.24-.4.64-1 1.28-.56s.16 1-.16 1.28c-1 1-.4 1.52.48 1.92.24.08.48.24.72.32.4.24.8.48.56 1a.81.81 0 0 1-1.12.32 5 5 0 0 1-1.12-.64c-1.44-1-1.52-1-2.8.32-.4.24-.64.72-1.2.72m63-8.4c.72-.16 1 .4 1.28.8.64.88 1.28.88 2 .08.4-.4.88-1.52 1.6-.8s-.32 1.12-.72 1.52c-.72.8-.32 1.28.32 1.84.48.4 1.52.8 1 1.52-.64.8-1.28-.08-1.84-.48-1.2-1-1.2-1-2.24.32-.32.4-.64 1-1.2.56s-.08-1 .24-1.28c1-1 .88-1.68-.24-2.56a.91.91 0 0 1-.24-1.52M63.36 30.85a2 2 0 0 1-.4-1.6c0-2-.08-4-.08-6 0-.48-.08-1 .56-1.12s.64.48.72 1a9.5 9.5 0 0 1 .16 2.08 20.6 20.6 0 0 0 .08 5c0 .72-.16 1.12-1 .72m42.52 69.77a87 87 0 0 0-.32-15.84c-.4-3.76-.8-7.44-1-11.28-.16-4.64-.24-9.2-.32-13.84a3.77 3.77 0 0 0-.56-2.72c-.32-.4.08-.88.4-1.28s.72-.16 1 .16a1.28 1.28 0 0 0 .88.4 94 94 0 0 0 10.64.16c2.32-.16 4.64.16 7-.08 8.08-.8 16.24-.08 24.4-.64a10.7 10.7 0 0 1 2.24.08c7.68.32 15.36-.08 23.12-.4 3.28-.16 6.56-.32 9.84-.56 1.68-.08 1.84.08 1.92 1.76.24 8.32-.64 16.64-.8 24.88-.16 4.8-.32 9.68-.32 14.48 0 3.44.48 6.8.32 10.24-.24 5 .4 10.08.56 15.12 0 1.28-.16 1.44-1.36 1.44-5 .08-9.92-.08-14.88.32-2.48.16-5.12-.08-7.6-.08-6 .08-12 .24-18.08.16-5.52-.08-11-.4-16.48-.4-2.24 0-4.48.48-6.72.4-2.72-.08-5.44-.08-8.16-.16-1.92 0-3.92.16-5.84.24a2.62 2.62 0 0 1-1.68-.4c1-.88.8-2.08 1-3.2.48-5.6.8-11.2 1-16.8a9 9 0 0 1-.16-2.16m47.44-8.24a7.6 7.6 0 0 1-.08 1.92c-.32 1.12.08 1.52 1.2 1.6l11.76 1c1.52.16 1.52-.88 1.52-1.84.16-3.68.16-7.44.56-11.12.16-1.12-.32-1.52-1.44-1.52-4 .16-8 .24-12.08.32-.88 0-1.2.32-1.2 1.28 0 2.72-.16 5.44-.24 8.4M136.72 86a18 18 0 0 0 .08 2.08c0 2.16.08 4.4 0 6.56 0 1 .4 1.36 1.36 1.36s2 0 3-.08a93 93 0 0 1 9.44-.16c.88.08 1.52-.16 1.6-1.2a97 97 0 0 0 .32-10.72c0-.64-.16-1-1-.88-4 .32-8 .08-12.08.08-2.72.08-2.72.08-2.72 3m-12.64-3h-2.56c-.8 0-1 .32-1 1.12.16 3.52.32 7 .4 10.64 0 1.2.4 1.68 1.68 1.68 4.08.16 8.16-.8 12.32-.48.64.08 1-.4.88-1-.4-3.52.16-7-.08-10.48-.08-1-.4-1.52-1.44-1.44-3.36.24-6.64.08-10.16 0m58.8 8.72c0-2.48.08-5 .24-7.52.08-1.68 0-1.6-1.6-1.68-2.08-.08-4.16.48-6.24.16-1.52-.16-3-.08-4.56-.16-.88-.08-1.2.32-1.36 1.2-.64 3.84-.32 7.68-.64 11.52-.16 1.52.24 1.76 1.84 1.68 1.76-.16 3.52-.16 5.28-.48 2-.32 4-.08 5.92-.4.72-.16 1-.4 1-1.2.08-1 .08-1.92.08-3.12m-43 30.4c3.44.08 7 .08 10.4.08.8 0 1.68.16 1.68-1.2-.08-3.36-.08-6.64-.08-10 0-.8-.32-1.2-1.12-1.2-4.24 0-8.48 0-12.72.16-.8 0-1.28.4-1.28 1.12-.16 3.28-.24 6.56-.32 9.84 0 .64.32 1.2 1 1a20 20 0 0 0 2.4.16m-12.48-24.8q-2.64.24-5.28.24c-.72 0-1.28.16-1.28 1a74 74 0 0 1-.48 9.44c-.08 1.36.48 1.92 1.84 1.84.88 0 1.84-.16 2.72-.24l9.84-.72c.72-.08 1-.32 1-1 .08-3.2.16-6.4 0-9.6-.08-1-.48-1.36-1.44-1.36-2.24.08-4.48.08-7 .4m-6.88-29.6c-.16 1.12.4 1.68 1.52 1.76.88.08 1.68.24 2.56.24l7.52-.24c3.6-.08 3 .4 3.12-3.12v-7.3a1.71 1.71 0 0 0-1.76-1.92c-4.08-.48-8.08.48-12.16.48-.72 0-1 .56-1 1.28.4 2.8.08 5.68.16 8.8m47.84 51.2v.64c0 2.24.24 2.48 2.48 2.32a63 63 0 0 1 7.76-.08c1.2.08 2.4 0 3.6 0 .56 0 1.12-.16 1.12-1-.16-3.28.16-6.64-.48-9.92-.16-.56-.32-.8-.88-.8a78 78 0 0 0-12.24-.24c-1.6.08-2 .48-1.76 2a40 40 0 0 1 .4 7M137 106.22c0 2.88-.32 2.64 2.72 2.72 3.6 0 7.28-.32 10.88-.08.88.08 1.44-.32 1.28-1.28-.32-3 .08-5.84 0-8.8-.08-1.52-.48-1.84-2-1.92-3.92-.08-7.76.16-11.68.24-1 0-1.36.4-1.28 1.36.16 2.48.08 5 .08 7.76m11.8-37.28h4a1.82 1.82 0 0 0-1.2-1 4.43 4.43 0 0 1-1.12-7.28 8 8 0 0 1 1.92-1.28c.88-.32.64-1.12.64-1.76s-.48-.48-.88-.48c-4.56-.24-9-.08-13.6.08-2.4.08-2.56-.32-2.16 2.48a2.3 2.3 0 0 1 0 1c-.4 2.4.08 4.8-.16 7.2-.08.72.16 1.12 1 1.12 3.84 0 7.6.24 11.6-.08m-21 53a40.6 40.6 0 0 1 6.16.06c1 0 1.36-.24 1.44-1.28.08-2.8.24-5.6.4-8.4.08-2.08.08-2.16-2-2.08-4.16.08-8.24 1-12.4.8-.72 0-.88.48-.88 1-.08 1.84-.24 3.68-.24 5.6-.08 1.44 0 2.8 0 4.4H123a13.1 13.1 0 0 1 4.72-.16m39 0c.72-.32.48-1 .48-1.44a93 93 0 0 0-.48-9.44c-.08-1-.48-1.2-1.36-1.2-2.56.08-5.2.08-7.76-.08-1.2-.08-2.32 0-3.52 0-.72 0-1.12.32-1.12 1 .08 2.8-.16 5.6.16 8.4s.4 2.56 3.12 2.72c3.44.24 6.88 0 10.48 0M111 83a22 22 0 0 0-2.32.08c-1.36.16-1.76.64-1.76 2 .08 3 .24 6 .32 9 .08 2.32.08 2.32 2.32 2.4 3 .08 6 .08 9 .08.64 0 1.2-.08 1.28-1a111 111 0 0 0-.4-11.52.92.92 0 0 0-1-1A58 58 0 0 0 111 83m5.68-25.44a73 73 0 0 1-9.36-.24c-1.84-.16-2.16.08-2 1.68.4 3 0 6.16.4 9.2.16 1 .48 1.28 1.44 1.28a35.4 35.4 0 0 1 5.84-.16 35 35 0 0 0 5 .08c.72 0 1.44-.16 1.44-1.12-.08-3.12.16-6.24-.08-9.36-.08-.88-.4-1.36-1.36-1.36h-1.36m51.76 42.74a47 47 0 0 1-.24 6.72c-.08 1.6 0 1.68 1.6 1.68h9.36a28 28 0 0 0 3.68.16 62.7 62.7 0 0 0 .08-11c-.08-.8-.56-.72-1.2-.72-3.68 0-7.28.64-11 .72-2.16.08-2.16.08-2.32 2.4m6.24-31.68a49 49 0 0 1 7.68-.24c.88.08 1.52-.08 1.52-1.2 0-3 .08-6.08.08-9 0-2.08-.08-2.16-2.16-2-3 .32-6 .48-9 .56-1.2 0-1.92.4-2.08 1.76a85 85 0 0 0-.32 9c0 .8.32 1.28 1.28 1.28a17.4 17.4 0 0 1 3-.16m-26.88 1.44a93 93 0 0 1-9.44 0 3 3 0 0 0-.88.08c-.4.08-.8.16-.8.64s.4.48.72.56a3.93 3.93 0 0 1 2.72 1.76 5.11 5.11 0 0 1-2.48 7.52c-.48.16-1 .4-.8 1s.72.56 1.2.56c1 0 2.08-.08 3.12 0 3 0 5.92.16 8.8 0s2.64.16 2.56-2.56c0-.24.08-.48.08-.8a59 59 0 0 0 .24-7.52c-.08-.88-.48-1.2-1.28-1.2a19 19 0 0 0-3.76-.08M167 106.62c.48-2.56.08-5.12.24-7.68 0-.64-.4-.8-.88-.88-1.2-.08-2.32-.24-3.52-.32-2.88-.24-5.76-.4-8.64-.64-.8-.08-1.2.32-1.2 1.12.08 3-.4 6 0 9 .16 1 .48 1.36 1.52 1.36 3.44 0 6.88.16 10.4.24 1.92.08 2.08 0 2.08-2.24m2.4-46.88c.08-.24.08-.48.16-.8.24-2.08.16-2.24-2-2.16-3.92.08-7.84.32-11.84.24-1.36 0-1.84.64-1.68 2 .08.64.64.8 1 1a5.08 5.08 0 0 1 2.32 4.64 3.66 3.66 0 0 1-2.64 3.38c-.24.08-.72.16-.64.64.32.32.72.16 1.12.16 2.4-.08 4.88-.16 7.28-.16 1.52 0 3 .16 4.56.16 1.92 0 2.16-.24 2.16-2.16a40.7 40.7 0 0 1 .24-6.88M117.2 109.9c1.92-.08 1.92-.08 2.08-2 0-.16.08-.32.08-.48a52.7 52.7 0 0 0 .32-8.72c0-.56-.16-1.12-.8-1-3.92.16-7.84-.8-12.08.4v9.28c0 2.24.08 2.32 2.4 2.4 2.56 0 5.2.08 8 .16m-11.36-35c.24 2.32.08 4.72.64 7.12.88-.08 1.68-.08 2.48-.08h8.8c1 0 1.44-.32 1.44-1.44.16-3.12-.24-6.24.08-9.36.08-.72-.32-.88-1-.88-1 0-2.08.16-3.12.08a74 74 0 0 0-8.4 0c-1 0-1.36.4-1.12 1.44s.08 1.92.16 3.12m14.56.4c0 1.68 0 3.36-.08 5-.08 1.12.32 1.52 1.44 1.52 3.92.16 7.76.32 11.68.16.72 0 1.84.48 2-.48.24-1.12-1-1.2-1.76-1.52a3.58 3.58 0 0 1-2.16-4.8 5.33 5.33 0 0 1 3-3.52c.4-.16.8-.4.64-1s-.56-.48-1-.4c-4.16.08-8.4.56-12.56-.08-1-.16-1.36.32-1.36 1.2.08 1.2.08 2.4.08 3.84m40.32-5.52c-1.92.08-3.84.08-5.68.16-.8 0-1.2.4-1.12 1.2.16 3-.24 6-.24 9 0 1.68.16 1.92 1.84 1.68 2.4-.32 4.8-.16 7.28-.24 1.76-.08 3.6 0 5.6 0-.64-1-1.44-1.12-1.92-1.6-3.12-3.12-1.6-6.72 1.28-8.64.48-.32 1.2-.32 1.2-1.52Zm-48.32 41c-.88-.08-1.84-.16-2.72-.16-3.2-.08-3-.24-3.12 2.56 0 .16-.08.32-.08.48-.16 2.32-.32 4.56-.48 6.88-.08 1.36.4 1.76 1.68 1.6 3.2-.32 6.48-.24 9.68-.24 1.12 0 1.6-.32 1.68-1.52a74 74 0 0 1 .4-8.4c.16-1-.32-1.2-1.2-1.2-1.92.08-3.76.08-5.84 0m58.56-30-1.2.48a54.8 54.8 0 0 0 12.56-.08c.64-.08.8-.56.8-1.12.16-3 .32-5.92.48-9 .08-1.6-.08-1.84-1.76-1.76-3.6.08-7.2.24-10.72.4-.24 0-.56 0-.64.4.08.08.16.24.24.24 2.48-.16 3.44 1.76 4.24 3.52 1.2 2.64-.56 5.76-4 6.88m-37.56-54.16c.24-.48.08-1.28.88-1.28s.88.64 1 1.2c.56 2.24.88 4.56 1.52 6.8a79 79 0 0 0 2.64 8.4c.24.48.4 1-.16 1.2s-.88-.24-1-.72c-.48-1.6-1-3.12-1.44-4.72-.24-.8-.64-1.2-1.44-1.2-1.2 0-2.32 0-3.52-.08a1.82 1.82 0 0 0-2.08 1.52 52 52 0 0 1-2.16 5.28c-.16.4-.32 1.12-.88.88-.72-.24-.4-.88-.16-1.36 1.6-3.44 3-6.88 4.48-10.4a45 45 0 0 1 2.32-5.52m.88 8.56c1.28-.08 1.68-.56 1.28-1.84-.32-1.12-.4-2.32-.72-3.44-.16-.72 0-1.52-.8-2.32L131 34.86l3.12.24m14.32 8.64c.56.16.8.4.48.88a1.78 1.78 0 0 1-1.36.72 1.19 1.19 0 0 1-1.12-1 5 5 0 0 1 .24-2.4c.16-.64.4-1.28-.4-1.68-.8.4-.88 1.2-1 2-.08.32-.08.72-.16 1s-.16.88-.64.8-.64-.56-.64-1a9.2 9.2 0 0 0 .24-2.08 2.1 2.1 0 0 0-.24-.8 3.87 3.87 0 0 0-1.44 3.2 15 15 0 0 0-.08 1.92.61.61 0 0 1-.56.64c-.48.08-.56-.24-.72-.64A2.9 2.9 0 0 1 141 44a12.4 12.4 0 0 0-.08-3.84c-.08-.48-.48-1.12.16-1.36s.72.56 1.2.88c.72-.56 1.52-1.12 2.48-.24.08.08.32 0 .48-.08 1.68-.56 3 .48 2.72 2.32-.08.72-.56 1.44-.32 2.32a1.8 1.8 0 0 1 .8-.24m13.92-16c.48.56 0 1-.16 1.36A8.2 8.2 0 0 0 161 32c.32.4.72.24 1 .16.56-.08 1 .08 1 .72a.79.79 0 0 1-.88.88c-1.52-.4-1.84.64-2.24 1.68-.32.88-.64 1.68-1 2.56-.16.4-.24 1-.8.8s-.4-.8-.24-1.2c.48-1 .88-2.16 1.36-3.2-.16-.16-.24-.24-.32-.24-.56-.08-1.52.4-1.6-.56-.08-.8.88-.64 1.36-.8s.8-.16 1-.56c.4-1 .72-2.08 1.12-3.2-1.36-.24-2.48.4-3.68.24-.56-.08-1.2 0-1.2-.72s.72-.64 1.2-.64a12 12 0 0 0 3.76-.4 2.9 2.9 0 0 1 1.6.24M107.28 53c-.56.8-1.12.72-1.6.08a4.4 4.4 0 0 0-1.12-1 6.9 6.9 0 0 0-1.56 1.58c-.32.32-.56 1-1.12.48s-.16-1 .24-1.36c1.12-.88 1.52-1.68.16-2.72a.51.51 0 0 1-.08-.72c.48-.32.8-.08 1.12.24.64.8 1.2.72 1.92-.08.32-.4.8-1.36 1.36-.88.72.64-.32 1-.56 1.52a4.4 4.4 0 0 1-.48.64c0 1.44 1.44 1.2 1.68 2.24m77.12-3.76c.88 0 1-.72 1.28-1.12s.48-1.12 1.12-.64 0 .88-.24 1.36a.8.8 0 0 1-.32.4c-.8.88-.88 1.6.16 2.4.32.24.88.64.32 1.12s-.88.08-1.2-.32c-.8-1-1.44-.8-2.08.16-.24.4-.56 1-1.12.56s-.16-.88.16-1.36c.32-.32.64-.72 1-1-.24-.48-.48-.88-.72-1.28s-.56-.8-.08-1.12.72.16 1 .4a5.6 5.6 0 0 1 .72.48m-30-9.44a6.68 6.68 0 0 1 1 4.56 2.18 2.18 0 0 1-2.4 2 1.67 1.67 0 0 1-1.6-1.84c.32-.16.48 0 .64.16a1 1 0 0 0 1.36.4 1.34 1.34 0 0 0 .8-1.36 7 7 0 0 0-.88-3.36c-.24-.4-1-.72-.32-1.12s1 .08 1.36.56" fill="#010101"/>
  <path d="M152.64 42.62c.24.48.24.88-.08 1.12s-.72.08-1-.24a2 2 0 0 0-1.16-.5 1.51 1.51 0 0 1-1.36-1.6 2 2 0 0 1 1.36-2c.64-.24 1.6.72 1.68 1.68a1.56 1.56 0 0 0 .56 1.52" fill="#010101"/>
</svg>