<svg xmlns="http://www.w3.org/2000/svg" viewBox="0 0 1024 608" xml:space="preserve">
  <path d="M615.038 311.532c.33 13.391-.333 26.336 1.597 39.27 1.12 7.516.635 15.281.736 22.935.173 12.987 3.373 25.706 3.135 38.755-.119 6.522-2.457 9.51-9.068 10.085-29.19 2.534-58.46 2.198-87.709 2.851-18.27.408-36.558.167-54.799.92-16.608.686-33.216 1.669-49.83 1.657-11.124-.008-22.264-1.004-33.364-1.942-10.144-.856-20.292-.875-30.433-.702-14.322.244-28.643-1.001-42.952.05-2.895.212-4.033-.868-4.913-3.57-1.79-5.494.184-10.88-.109-16.337-1.253-23.403 1.162-46.81.027-70.254-.608-12.572-.277-25.22-.095-37.843.267-18.593-1.302-37.221-3.938-55.686-1.209-8.474-.386-16.965-.617-25.445-.393-14.45.538-28.932-.897-43.358-.41-4.119 1.58-5.4 5.246-5.188 24.955 1.447 49.866-.668 74.792-1.15 13.105-.253 26.301-.005 39.356-1.804 6.497-.896 12.965.221 19.458-.042 41.894-1.698 83.786-3.473 125.693-4.767 12.608-.389 25.264-.591 37.918.351 4.706.351 5.677 2.716 5.9 6.224.677 10.603 2.202 21.292 1.457 31.81-.877 12.393.205 24.616.546 36.909.564 20.304.627 40.626 2.065 60.9.352 4.971 1.386 9.904.798 15.371m-24.533-91.37-22.536 1.737c6.134 8.126 8.996 16.052 6.297 25.277-2.62 8.956-8.527 14.974-17.776 17.789 1.88 2.092 3.257 1.56 4.473 1.238 8.262-2.188 16.77-2.364 25.2-3.144 5.465-.505 10.938-.921 16.41-1.324 1.438-.106 3.285-.54 3.479 1.681.188 2.15-1.347 2.822-3.207 2.941-.665.043-1.335.021-1.996.091-13.377 1.425-26.903 1.196-40.185 3.798-3.326.652-4.931 1.706-4.94 5.395-.026 11.934 1.86 23.834.476 35.798-.46 3.992 1.727 5.73 5.785 5.39 13.246-1.106 26.492-2.233 39.754-3.11 8.52-.564 9.719-1.728 8.942-10.312-.074-.824-.336-1.635-.382-2.459-.729-12.929-1.833-25.853-2.036-38.791-.202-12.958-.467-25.894-1.476-38.814-.175-2.232-1.29-3.092-3.404-3.52-4.038-.818-7.951.624-12.878.339M373.378 360.279c.137 9.968.136 9.856 9.713 9.74 16.32-.199 32.64-.31 48.96-.304 4.402.002 6.652-1.263 6.901-6.204.655-12.984-.799-25.868-1.193-38.799-.059-1.922-.918-3.233-2.956-3.323-4.322-.19-8.52-1.305-12.896-1.307-14.468-.008-28.956 1.118-43.402-.644-3.999-.488-5.265 1.76-5.237 5.417.09 11.49.071 22.982.11 35.424m54.012 63.56c2.326-.087 4.66-.09 6.977-.287 1.777-.152 3.118-.812 3.173-3.04.355-14.274.782-28.545 1.194-42.816.094-3.247-1.494-4.107-4.646-4.208-18.282-.58-36.532.914-54.803.684-2.87-.037-4.173 1.09-4.309 4.091-.648 14.344-1.445 28.68-2.2 43.21 17.91.376 35.697 3.053 54.614 2.366m-75.11-105.466c-11.818-.556-23.59.551-35.379 1.014-3.841.15-5.914 1.485-5.76 6.062.473 14.067.61 28.15.543 42.225-.015 3.306 1.189 4.007 3.997 4.01 16.797.016 33.597.385 50.379-.823 3.073-.221 3.9-1.612 3.806-4.482-.175-5.32-.026-10.648-.05-15.973-.036-7.986-.012-15.975-.189-23.958-.132-5.997-1.177-6.903-7.009-7.235-3.153-.18-6.298-.501-10.338-.84m84.286-118.981c.387-4.464.852-8.922 1.138-13.392.274-4.284 1.114-8.53.265-12.892-.486-2.497-1.52-3.512-4.013-4.194-5.227-1.431-10.234.221-15.336.342-13.576.32-27.13 1.568-40.726.984-3.244-.139-4.914 1.02-4.924 4.57-.032 11.946-.238 23.891-.4 35.836-.047 3.418 2.023 4.68 5 4.994 18.199 1.917 36.446 1.44 54.692 1.14 2.58-.043 3.365-1.301 3.784-3.59.788-4.303.526-8.616.52-13.798m65.796 207.948c-.148-9.63-.27-19.26-.466-28.89-.041-1.987.908-4.672-2.57-4.875-17.08-.995-34.162-1.255-51.25-.197-3.11.192-4.688 1.58-4.885 4.994-.765 13.304-.824 26.612-.925 39.928-.032 4.2 1.442 5.736 5.505 5.44 8.777-.638 17.557-1.318 26.349-1.638 7.815-.285 15.648-.2 23.471-.095 3.874.052 5.436-1.582 5.228-5.412-.154-2.813-1.23-5.566-.457-9.255m-64.634-106.61c-.343-7.47-.696-14.941-1.026-22.412-.31-6.998-1.138-7.824-8.369-7.984-9.79-.216-19.584-.632-29.37-.501-6.961.092-13.917-.777-20.89.094-2.898.361-5.046 1.188-4.657 4.438 1.47 12.302-.435 24.574-.174 36.863.078 3.644 1.982 4.365 5.085 4.5 18.233.79 36.506-.23 54.722 1.205 3.146.247 4.666-1.065 4.62-4.282-.054-3.66.027-7.32.06-11.921m-12.279-79.582c-15.966.356-31.904-.113-47.808-1.634-2.521-.241-4.325.636-4.33 3.493-.026 12.48-.035 24.96.015 37.44.012 3.084 1.439 5.085 4.797 5.155 17.963.374 35.948-.47 53.894.981 3.173.256 4.58-1.464 4.316-4.606-.892-10.632-.383-21.286-.459-31.93-.064-9.006.06-9.006-8.948-8.94-.167 0-.333.011-1.477.04m31.925 147.739c12.456-.292 24.902-.57 37.336.74 5.182.546 6.85-1.257 7.066-6.421.507-12.122-.511-24.271.78-36.382.403-3.788-1.667-5.4-5.412-5.404-10.98-.007-21.961-.13-32.942-.214-5.65-.043-11.298-.125-16.948-.135-3.704-.007-5.25 1.722-5.191 5.6.192 12.636 1.923 25.214 1.312 37.876-.188 3.89 1.894 5.412 5.646 4.993 2.477-.277 4.963-.473 8.353-.653m-135.52-103.397c13.944-.2 27.888-.472 41.832-.55 3.36-.018 5.577-.72 5.355-4.617-.637-11.14.726-22.245.616-33.377-.074-7.467-.646-7.74-7.928-7.86-16.8-.278-33.557 1.826-50.359.782-3.394-.211-4.124 1.355-4.191 4.494-.218 10.172.942 20.218 1.999 30.299 1.138 10.856.965 10.874 12.676 10.829M556.76 384.832v35.639c18.201 1.006 35.182-1.584 52.246-2.257 5.765-.228 6.68-3.295 6.75-8.027.166-11.323-2-22.477-2.217-33.77-.051-2.683-1.596-3.98-4.6-3.96-13.95.09-27.902-.006-41.853-.085-10.688-.06-9.585-.274-10.557 10.653-.029.324.07.66.231 1.807m-55.802-98.968c.225-2.477.403-4.958.683-7.428.538-4.749-1.39-6.789-6.27-6.266-4.453.477-8.956.925-13.419.784-11.606-.365-23.207-.979-34.8-1.666-4.577-.27-6.292 1.605-6.116 6.108.435 11.11.826 22.23.858 33.346.014 4.875 2.015 6.196 6.606 6.202 15.258.02 30.516.38 45.774.65 7.806.137 9.492-1.62 8.219-9.48-1.146-7.075-1.914-14.15-1.535-22.25M330.102 314.72c11.112.002 22.235-.937 33.325.769 4.844.745 6.152-.578 6.194-5.757.093-11.636-.045-23.274.166-34.907.074-4.087-1.384-5.645-5.484-5.607-16.125.148-32.254.237-48.378.03-4.869-.062-5.665 1.902-5.645 6.292.043 9.78 2.002 19.498.86 29.303-.286 2.46-.501 4.896-.18 7.419.319 2.512 1.377 3.557 3.847 3.393 4.798-.32 9.6-.591 15.295-.935m136.367-91.437c-7.176.618-14.244-.887-21.38-1.106-3.3-.101-4.91 1.052-4.866 4.581q.213 17.443.133 34.886c-.017 3.792 1.599 5.106 5.352 5.457 9.962.933 19.952.22 29.886.873 6.816.449 13.526.813 20.334-.088 3.6-.476 4.812-2.099 4.798-5.527-.045-10.935-.05-21.873.187-32.805.09-4.192-1.703-5.524-5.626-5.565-9.281-.098-18.56-.452-28.818-.706m-159.246-23.481c-.091 3.494.331 7.1-.397 10.455-.993 4.575 1.034 5.796 4.875 5.71 17.794-.4 35.588-.865 53.382-1.266 2.52-.057 3.576-1.219 3.57-3.698-.024-11.139.085-22.278-.023-33.416-.04-4.18-1.648-6.613-6.678-6.452-17.084.547-34.181.736-51.275.902-3.664.035-4.48 1.748-4.377 4.96.234 7.303 1.767 14.549.923 22.805m49.363 175.542c-13.259.382-26.52 1.143-39.773-.08-4.026-.371-5.692 1.13-5.613 5.357.219 11.612.27 23.234.05 34.845-.085 4.451 1.423 5.733 5.816 5.52 14.277-.693 28.568 1.002 42.856.032 2.908-.198 5.847 1.193 9.055-.068-1.36-3.564-.932-6.96-.471-10.459.954-7.239 1.84-14.516 2.16-21.803.595-13.62.419-13.629-14.08-13.344m199.803-16.134c.146 9.102.958 10.113 10.193 9.36 6.315-.515 12.598-.69 18.916-.622 6.981.076 13.964-.052 20.945.03 4.485.051 6.729-1.512 6.357-6.487-.853-11.403-1.45-22.828-1.957-34.252-.382-8.595-1.003-9.431-9.527-8.85-12.925.883-25.834 2.007-38.755 2.954-3.276.24-5.027 1.479-5.5 5.053-1.406 10.618-.542 21.253-.672 32.814M441.167 193.915c-1.042 5.098-.765 10.274-.874 15.425-.18 8.559.482 9.193 9.266 9.363 8.146.157 16.292.309 24.437.508 7.481.182 14.96.45 22.442.617 1.644.037 3.503.105 4.06-2.03.561-2.152-1.035-2.868-2.574-3.65a35 35 0 0 1-3.852-2.287c-13.236-9.06-14.414-21.774-3.173-33.247 2.858-2.917 6.039-5.206 10.006-6.298 1.564-.43 2.793-1.128 2.7-3.026-.101-2.054-1.748-2.318-3.188-2.486-2.3-.268-4.652-.503-6.948-.322-15.572 1.227-31.222.408-46.796 1.886-3.282.312-4.525 1.152-4.411 4.312.247 6.83-.146 13.633-1.095 21.235m164.655-14.82c.04-2.327.343-4.687.062-6.975-.503-4.1-1.452-7.46-7.114-7.344-11.106.227-22.23-.208-33.342-.511-4.405-.12-5.841 1.863-6.587 6.136-2.367 13.558-.692 27.2-1.451 40.778-.323 5.77.756 6.41 6.747 5.938 2.483-.195 4.996.016 7.484-.136a2779 2779 0 0 0 30.327-1.99c2.146-.155 4.613-.382 4.66-3.394.164-10.55 1.89-21.135-.786-32.502m-53.079 222.542c-.027-7.802-.121-15.606-.052-23.408.03-3.515-1.242-5.128-4.993-5.08-7.779.102-15.606.337-23.327-.397-5.084-.482-9.924.607-14.886.624-2.296.007-3.22 1.562-3.167 3.655.325 12.958-.682 25.942.85 38.878.552 4.662 3.24 6.3 7.556 5.724 10.774-1.437 21.605-.41 32.399-.872 1.941-.083 4 .51 6.15-.978-.962-5.593-.129-11.393-.53-18.146m-.115-59.79c-.89-4.479.015-8.954.053-13.43.06-7.13-1.261-8.02-8.61-7.553-9.434.6-18.913.997-28.356.78-7.625-.174-9.13.69-9.424 8.358-.362 9.458.602 18.938-.588 28.39-.266 2.109.001 4.304.184 6.446.231 2.715 1.612 4.12 4.554 4.099 12.133-.09 24.268-.144 36.401-.025 4.608.045 6.321-1.825 5.671-6.379-.942-6.606-1.086-13.243.115-20.686m-.809-31.43c1.306-9.768.165-19.513-.12-29.278-.272-9.266.035-9.094-9.162-8.927-10.482.19-20.974.133-31.456-.064-3.628-.069-5.007 1.35-5.36 4.827-1.2 11.828-.3 23.539 1.096 35.296.527 4.441 2.472 5.615 6.428 5.465 11.47-.436 22.944-.781 34.418-1.084 3.71-.098 4.368-2.336 4.156-6.234m-37.001-135.015c9.843 4.061 12.662 18.259 8.367 25.582-3.23 5.506-7.326 9.775-13.63 11.678-2.27.685-4.593 1.958-4.047 4.87.57 3.04 3.393 2.442 5.327 2.174 11.87-1.642 23.847-.87 35.743-1.79 6.342-.49 6.96-1.027 7.06-7.52.206-13.434-1.077-26.902.991-40.294.55-3.56-.87-5.188-4.667-5.095-12.787.312-25.596-.218-38.351 1.215-1.832.206-3.35.522-3.471 2.692-.11 1.974-.48 4.107 2.26 4.814 1.28.33 2.514.842 4.418 1.674m21.445 80.585c-2.808-6.12-3.436-12.539-1.71-18.963 1.867-6.95 9.185-8.898 13.82-13.178-.446-.635-.528-.879-.64-.893-13.457-1.66-26.805-.192-40.14 1.47-1.858.232-2.289 1.761-2.296 3.359-.052 11.812-.08 23.625-.111 35.437-.008 3.024 1.296 4.566 4.533 4.535 11.982-.116 23.967-.083 35.95-.175 1.881-.015 3.921.051 5.88-2.254-6.14-1.542-12.692-1.704-15.286-9.338M452.158 38.276c-3.024.587-5.626 1.14-8.224 1.709-11.392 2.497-9.19 1.988-10.453 12.89-.874 7.541 1.273 15.22-.065 22.88-.526 3.013 1.199 4.4 4.206 3.674 3.063-.74 6.376-.802 9.11-2.504 4.926-3.07 10.74-1.862 15.942-3.568 1.652-.542 3.068.459 3.302 2.182.308 2.278-1.7 2.872-3.25 2.985-8.548.625-16.414 4.202-24.764 5.543-4.027.647-5.668 2.332-5.746 6.506-.1 5.307-.865 10.609-1.495 15.895-.649 5.444.708 7.214 5.793 6.08 11.996-2.672 24.443-2.291 36.337-5.576 1.782-.492 4.145-.655 4.685 1.544.667 2.712-1.958 2.919-3.806 3.571-8.097 2.858-16.713 2.45-25.052 3.73-5.577.855-11.108 1.82-16.628 2.964-5.538 1.148-6.892-.138-6.487-5.768 1.489-20.72 4.034-41.385 3.25-62.224-.026-.664.042-1.332.05-1.998.118-10.085.106-10.128 10.101-12.63 10.956-2.74 22.262-4.026 32.95-7.895 1.88-.68 3.445-.291 3.883 1.767.37 1.741-.145 3.491-2.33 3.623-7.211.436-13.775 3.745-21.309 4.62m64.274-11.984c4.342-3.676 8.817-2.55 12.996-.89 3.58 1.423 4.836 4.568 3.243 8.232-1.304 2.999-.408 4.692 2.124 6.58 5.129 3.824 5.147 8.078.51 12.375-4.857 4.5-14.304 5.533-19.558 2.085-1.85-1.215-3.95-2.711-2.21-5.159 1.574-2.214 3.022-.212 4.565.723 4.22 2.557 8.58 2.117 12.794-.102 1.502-.792 2.738-2.107 2.532-3.975-.224-2.024-1.959-2.627-3.632-2.812-2.623-.29-5.205-1.049-7.916-.57-1.666.294-3.02-.52-3.339-2.25-.307-1.661 1.023-2.227 2.311-2.755 1.225-.503 2.553-.937 3.558-1.746 1.757-1.414 4.446-3.191 2.628-5.58-1.758-2.31-4.771-1.858-7.132-.038-1.433 1.104-2.395 4.128-4.643 2.018-1.91-1.792-.196-4 1.169-6.136M360.092 162.63c-2.89-1.774-2.537-3.408-.42-5.228 1.738-1.494 3.76-2.764 4.828-5.22-1.494-2.847-5.103-3.454-6.892-6.046-.918-1.33-2.595-2.655-1.044-4.305 1.585-1.684 2.993-.095 4.287.874 1.325.991 2.594 2.058 3.93 3.034 3.006 2.196 5.627 2.31 8.004-1.106 1.03-1.48 2.34-3.881 4.728-2.22 2.565 1.785.471 3.79-.72 4.999-3.652 3.7-1.642 5.66 1.836 7.412.888.447 1.802.849 2.658 1.35 1.49.87 2.984 1.941 2.01 3.912-.913 1.847-2.766 1.769-4.356 1.098-1.507-.635-2.89-1.612-4.24-2.562-5.467-3.845-5.683-3.829-10.496 1.125-1.122 1.155-1.84 2.85-4.113 2.882m238.529-31.823c2.822-.483 3.765 1.62 4.933 3.081 2.544 3.183 4.767 3.353 7.716.342 1.577-1.61 3.21-5.744 6.119-2.894 2.601 2.548-1.234 4.224-2.702 5.834-2.798 3.071-1.201 4.908 1.273 6.844 1.969 1.54 5.815 3.116 3.824 5.796-2.309 3.107-4.937-.184-6.996-1.926-4.68-3.958-4.658-3.997-8.593 1.204-1.184 1.564-2.424 3.899-4.594 2.2-1.876-1.469-.186-3.596.981-4.736 3.755-3.67 3.25-6.504-.76-9.636-1.63-1.274-3.465-3.392-1.2-6.109m-96.151-70.438c-1.715-1.927-1.652-3.916-1.666-5.925-.057-7.621-.188-15.242-.245-22.863-.013-1.768-.389-4.074 2.223-4.195 2.138-.098 2.437 1.867 2.614 3.57.273 2.631 1.015 5.33.678 7.884-.832 6.3-.448 12.524.228 18.77.302 2.792-.335 4.349-3.832 2.76"/>
</svg>